<svg width="937" height="294" viewBox="0 0 937 294" fill="none" xmlns="http://www.w3.org/2000/svg">
<mask id="mask0_62_457" style="mask-type:alpha" maskUnits="userSpaceOnUse" x="0" y="0" width="937" height="294">
<rect width="937" height="294" transform="matrix(1 0 0 -1 0 294)" fill="#D9D9D9"/>
</mask>
<g mask="url(#mask0_62_457)">
<path opacity="0.75" d="M58 50C58 172.029 -41.1428 271 -163.5 271C-285.857 271 -385 172.029 -385 50C-385 -72.0288 -285.857 -171 -163.5 -171C-41.1428 -171 58 -72.0288 58 50Z" fill="#5D140E" stroke="#5D140E" stroke-width="26"/>
<circle opacity="0.75" cx="304" cy="50" r="221" fill="#5D140E" stroke="#5D140E" stroke-width="26"/>
<circle opacity="0.75" cx="773" cy="50" r="221" fill="#5D140E" stroke="#5D140E" stroke-width="26"/>
<path d="M456 -2C456 120.029 356.857 219 234.5 219C112.143 219 13 120.029 13 -2C13 -124.029 112.143 -223 234.5 -223C356.857 -223 456 -124.029 456 -2Z" fill="#F5D2CF" stroke="#5D140E" stroke-width="26"/>
<circle cx="703" cy="-2" r="221" fill="#B18783" stroke="#5D140E" stroke-width="26"/>
</g>
</svg>
