<svg width="924" height="231" viewBox="0 0 924 231" fill="none" xmlns="http://www.w3.org/2000/svg">
<mask id="path-1-inside-1_45_454" fill="white">
<path fill-rule="evenodd" clip-rule="evenodd" d="M0 0C0 127.578 103.422 231 231 231C358.578 231 462 127.578 462 0H0Z"/>
</mask>
<path fill-rule="evenodd" clip-rule="evenodd" d="M0 0C0 127.578 103.422 231 231 231C358.578 231 462 127.578 462 0H0Z" fill="#F5D2CF"/>
<path d="M0 0V-16H-16V0H0ZM462 0H478V-16H462V0ZM231 215C112.259 215 16 118.741 16 0H-16C-16 136.414 94.5857 247 231 247V215ZM446 0C446 118.741 349.741 215 231 215V247C367.414 247 478 136.414 478 0H446ZM462 -16H0V16H462V-16Z" fill="#5D140E" mask="url(#path-1-inside-1_45_454)"/>
<mask id="path-3-inside-2_45_454" fill="white">
<path fill-rule="evenodd" clip-rule="evenodd" d="M462 0C462 127.578 565.422 231 693 231C820.578 231 924 127.578 924 0H462Z"/>
</mask>
<path fill-rule="evenodd" clip-rule="evenodd" d="M462 0C462 127.578 565.422 231 693 231C820.578 231 924 127.578 924 0H462Z" fill="#B88581"/>
<path d="M462 0V-16H446V0H462ZM924 0H940V-16H924V0ZM693 215C574.259 215 478 118.741 478 0H446C446 136.414 556.586 247 693 247V215ZM908 0C908 118.741 811.741 215 693 215V247C829.414 247 940 136.414 940 0H908ZM924 -16H462V16H924V-16Z" fill="#5D140E" mask="url(#path-3-inside-2_45_454)"/>
</svg>
