<svg width="559" height="716" viewBox="0 0 559 716" fill="none" xmlns="http://www.w3.org/2000/svg">
<g style="mix-blend-mode:multiply">
<path fill-rule="evenodd" clip-rule="evenodd" d="M77.4169 226.812C49.8027 226.812 27.5274 249.117 28.4725 276.715C31.9098 377.084 46.54 601.965 108.812 697.976C116.564 709.929 130.38 715.747 144.627 715.747H326.165C337.61 715.747 348.953 712.142 356.223 703.302C373.227 682.624 386.756 650.499 397.521 612.468C409.279 614.019 421.218 614.105 433.062 612.697C453.556 610.26 473.278 603.41 490.87 592.619C508.461 581.828 523.505 567.352 534.964 550.188C546.424 533.023 554.026 513.579 557.249 493.195C560.471 472.81 559.236 451.969 553.63 432.107C548.024 412.245 538.178 393.835 524.773 378.144C511.367 362.453 494.72 349.854 475.977 341.215C463.345 335.393 449.964 331.463 436.263 329.519C437.305 309.71 438.005 291.822 438.474 276.733C439.333 249.132 417.046 226.812 389.432 226.812H77.4169ZM432.457 388.027C428.29 441.39 421.634 500.979 411.003 555.189C416.048 555.501 421.126 555.359 426.174 554.759C438.294 553.318 449.958 549.267 460.362 542.885C470.766 536.503 479.663 527.942 486.44 517.791C493.217 507.64 497.713 496.14 499.619 484.085C501.524 472.029 500.794 459.704 497.479 447.957C494.163 436.211 488.34 425.323 480.412 416.043C472.484 406.763 462.639 399.312 451.554 394.203C445.439 391.384 439.027 389.315 432.457 388.027Z" fill="#F5D2CF"/>
</g>
<mask id="path-2-inside-1_209_36" fill="white">
<path d="M370.477 329.281C392.168 326.477 414.212 328.692 434.911 335.757C455.609 342.821 474.408 354.545 489.858 370.025C505.308 385.506 516.995 404.328 524.019 425.04C531.043 445.752 533.215 467.801 530.368 489.485C527.522 511.17 519.732 531.911 507.6 550.108C495.468 568.306 479.319 583.473 460.397 594.441C441.475 605.409 420.287 611.884 398.467 613.367C376.646 614.849 354.777 611.3 334.545 602.992L356.708 549.02C368.673 553.933 381.607 556.032 394.511 555.155C407.416 554.279 419.947 550.449 431.138 543.963C442.328 537.476 451.879 528.506 459.054 517.744C466.229 506.982 470.836 494.715 472.519 481.891C474.203 469.067 472.918 456.027 468.764 443.777C464.61 431.528 457.698 420.397 448.561 411.242C439.424 402.087 428.306 395.153 416.065 390.975C403.824 386.797 390.786 385.487 377.959 387.145L370.477 329.281Z"/>
</mask>
<path d="M370.477 329.281C392.168 326.477 414.212 328.692 434.911 335.757C455.609 342.821 474.408 354.545 489.858 370.025C505.308 385.506 516.995 404.328 524.019 425.04C531.043 445.752 533.215 467.801 530.368 489.485C527.522 511.17 519.732 531.911 507.6 550.108C495.468 568.306 479.319 583.473 460.397 594.441C441.475 605.409 420.287 611.884 398.467 613.367C376.646 614.849 354.777 611.3 334.545 602.992L356.708 549.02C368.673 553.933 381.607 556.032 394.511 555.155C407.416 554.279 419.947 550.449 431.138 543.963C442.328 537.476 451.879 528.506 459.054 517.744C466.229 506.982 470.836 494.715 472.519 481.891C474.203 469.067 472.918 456.027 468.764 443.777C464.61 431.528 457.698 420.397 448.561 411.242C439.424 402.087 428.306 395.153 416.065 390.975C403.824 386.797 390.786 385.487 377.959 387.145L370.477 329.281Z" fill="#648B7F" stroke="#5D140E" stroke-width="40" mask="url(#path-2-inside-1_209_36)"/>
<path d="M172.498 203.203C186.578 194.489 206.291 167.432 172.498 128.924C138.705 90.4159 158.418 45.1152 172.498 27.2783" stroke="#5D140E" stroke-width="18" stroke-linecap="round"/>
<path d="M247.133 184.925C261.213 176.21 280.926 149.154 247.133 110.646C213.34 72.1375 233.053 26.8368 247.133 9" stroke="#5D140E" stroke-width="18" stroke-linecap="round"/>
<mask id="mask0_209_36" style="mask-type:alpha" maskUnits="userSpaceOnUse" x="1" y="226" width="411" height="490">
<path d="M50 236.812H362.015C384.161 236.812 401.74 254.639 401.062 276.422C399.425 329.056 394.983 415.687 382.961 498.801C376.949 540.364 369.073 580.826 358.784 615.612C348.433 650.611 335.905 678.925 321.082 696.95C316.33 702.729 308.334 705.747 298.748 705.747H117.21C105.491 705.747 95.2695 700.992 89.7844 692.535C59.9432 646.525 40.9225 568.263 29.0559 487.526C17.2615 407.28 12.7623 326.382 11.0497 276.373C10.3049 254.624 27.8456 236.812 50 236.812Z" fill="#D9D9D9" stroke="#5D140E" stroke-width="20"/>
</mask>
<g mask="url(#mask0_209_36)">
<rect x="-1.42371" y="236.812" width="416.385" height="488.736" fill="#EEE2DB" stroke="#5D140E" stroke-width="20"/>
<rect x="-1.42371" y="236.812" width="416.385" height="40.1648" fill="#648B7F" stroke="#5D140E" stroke-width="20"/>
<path d="M50 236.812H362.015C384.161 236.812 401.74 254.639 401.062 276.422C399.425 329.056 394.983 415.687 382.961 498.801C376.949 540.364 369.073 580.826 358.784 615.612C348.433 650.611 335.905 678.925 321.082 696.95C316.33 702.729 308.334 705.747 298.748 705.747H117.21C105.491 705.747 95.2695 700.992 89.7844 692.535C59.9432 646.525 40.9225 568.263 29.0559 487.526C17.2615 407.28 12.7623 326.382 11.0497 276.373C10.3049 254.624 27.8456 236.812 50 236.812Z" stroke="#5D140E" stroke-width="20"/>
</g>
<path d="M148.129 230.999C148.129 230.999 144.419 210.967 123.377 223.003C102.335 235.039 105.86 371.512 105.86 371.512" stroke="#5D140E" stroke-width="18" stroke-linecap="round"/>
<g style="mix-blend-mode:multiply">
<path d="M73.8733 422.538C73.8733 394.357 96.7184 371.512 124.899 371.512V371.512C153.08 371.512 175.925 394.357 175.925 422.538V483.265C175.925 494.311 166.971 503.265 155.925 503.265H93.8733C82.8276 503.265 73.8733 494.311 73.8733 483.265V422.538Z" fill="#F5D2CF"/>
</g>
<path d="M146.885 422.538V483.265C146.885 488.788 142.408 493.265 136.885 493.265H74.8337C69.3109 493.265 64.8337 488.788 64.8337 483.265V422.538C64.8337 399.88 83.2016 381.512 105.86 381.512C128.518 381.512 146.885 399.88 146.885 422.538Z" fill="white" stroke="#5D140E" stroke-width="20"/>
</svg>
