<svg width="599" height="721" viewBox="0 0 599 721" fill="none" xmlns="http://www.w3.org/2000/svg">
<mask id="path-1-inside-1_49_498" fill="white">
<path fill-rule="evenodd" clip-rule="evenodd" d="M51.2357 374.784C18.8899 410.234 0 452.982 0 499C0 621.607 134.091 721 299.5 721C464.909 721 599 621.607 599 499C599 452.994 580.121 410.257 547.791 374.813C553.097 344.399 556 311.433 556 277C556 124.017 498.692 0 428 0C357.308 0 300 124.017 300 277C300 124.017 242.469 0 171.5 0C100.531 0 43 124.017 43 277C43 311.422 45.9127 344.377 51.2357 374.784Z"/>
</mask>
<path fill-rule="evenodd" clip-rule="evenodd" d="M51.2357 374.784C18.8899 410.234 0 452.982 0 499C0 621.607 134.091 721 299.5 721C464.909 721 599 621.607 599 499C599 452.994 580.121 410.257 547.791 374.813C553.097 344.399 556 311.433 556 277C556 124.017 498.692 0 428 0C357.308 0 300 124.017 300 277C300 124.017 242.469 0 171.5 0C100.531 0 43 124.017 43 277C43 311.422 45.9127 344.377 51.2357 374.784Z" fill="#8E92CC"/>
<path d="M51.2357 374.784L68.226 390.286L75.8388 381.943L73.8911 370.817L51.2357 374.784ZM547.791 374.813L525.133 370.861L523.194 381.976L530.798 390.313L547.791 374.813ZM23 499C23 459.599 39.108 422.199 68.226 390.286L34.2454 359.281C-1.32817 398.268 -23 446.364 -23 499H23ZM299.5 698C221.228 698 151.271 674.453 101.418 637.5C51.5614 600.545 23 551.324 23 499H-23C-23 569.283 15.4839 631.062 74.0254 674.455C132.57 717.85 212.363 744 299.5 744V698ZM576 499C576 551.324 547.439 600.545 497.582 637.5C447.729 674.453 377.772 698 299.5 698V744C386.637 744 466.43 717.85 524.975 674.455C583.516 631.062 622 569.283 622 499H576ZM530.798 390.313C559.901 422.219 576 459.61 576 499H622C622 446.378 600.34 398.295 564.784 359.313L530.798 390.313ZM570.449 378.766C575.991 346.998 579 312.709 579 277H533C533 310.157 530.203 341.799 525.133 370.861L570.449 378.766ZM579 277C579 197.951 564.241 125.267 539.388 71.4835C515.434 19.6445 477.71 -23 428 -23V23C448.982 23 475.259 42.3641 497.631 90.7793C519.105 137.25 533 203.066 533 277H579ZM428 -23C378.29 -23 340.566 19.6445 316.612 71.4835C291.759 125.267 277 197.951 277 277H323C323 203.066 336.895 137.25 358.369 90.7793C380.741 42.3641 407.018 23 428 23V-23ZM323 277C323 197.94 308.181 125.244 283.228 71.4525C259.161 19.5745 221.301 -23 171.5 -23V23C192.668 23 219.057 42.434 241.499 90.8103C263.053 137.273 277 203.077 277 277H323ZM171.5 -23C121.699 -23 83.8386 19.5745 59.7725 71.4525C34.8186 125.244 20 197.94 20 277H66C66 203.077 79.9471 137.273 101.501 90.8103C123.943 42.434 150.332 23 171.5 23V-23ZM20 277C20 312.702 23.0196 346.986 28.5802 378.75L73.8911 370.817C68.8057 341.769 66 310.142 66 277H20Z" fill="#170E5D" mask="url(#path-1-inside-1_49_498)"/>
<path fill-rule="evenodd" clip-rule="evenodd" d="M208.677 287.391C208.891 281.841 209 276.206 209 270.5C209 182.963 183.256 112 151.5 112C119.744 112 94 182.963 94 270.5C94 293.157 95.7245 314.703 98.8315 334.196C130.155 313.228 167.484 297.096 208.677 287.391Z" fill="#FFF2B5"/>
<path fill-rule="evenodd" clip-rule="evenodd" d="M373.323 287.391C373.109 281.841 373 276.206 373 270.5C373 182.963 398.744 112 430.5 112C462.256 112 488 182.963 488 270.5C488 293.157 486.275 314.703 483.168 334.196C451.845 313.228 414.516 297.096 373.323 287.391Z" fill="#FFF2B5"/>
<path d="M380 585.698C317.409 708.209 244.587 633.295 216 580.524C273.174 585.698 276.183 572.765 299.755 550C333.358 580.524 348.291 584.283 380 585.698Z" fill="#FFF2B5"/>
<ellipse cx="151.5" cy="497" rx="34.5" ry="32" fill="#170E5D"/>
<ellipse cx="453.5" cy="497" rx="34.5" ry="32" fill="#170E5D"/>
<path fill-rule="evenodd" clip-rule="evenodd" d="M307.826 545.05C307.442 544.376 306.963 543.74 306.391 543.163C302.891 539.633 297.192 539.609 293.663 543.109C284.417 552.278 268.169 564.081 249.997 569.572C232.152 574.965 213.221 574.146 196.363 559.672C192.592 556.434 186.909 556.866 183.672 560.637C180.434 564.408 180.866 570.091 184.637 573.328C192.192 579.815 200.086 584.212 208.067 586.949C236.999 633.544 267.418 660.5 300.371 660.5C333.197 660.5 363.23 633.766 391.553 587.578C399.664 584.851 407.688 580.418 415.363 573.828C419.134 570.591 419.566 564.908 416.328 561.137C413.09 557.366 407.408 556.934 403.637 560.172C386.779 574.646 367.848 575.465 350.003 570.072C332.77 564.865 317.267 553.981 307.826 545.05ZM369.059 591.121C360.701 591.075 352.514 589.635 344.797 587.303C326.747 581.849 310.76 571.44 299.707 561.952C288.678 571.303 272.936 581.444 255.203 586.803C247.426 589.153 239.172 590.598 230.745 590.621C256.15 627.672 279.395 643.5 300.371 643.5C321.232 643.5 344.176 627.834 369.059 591.121Z" fill="#170E5D"/>
</svg>
