<svg width="300" height="300" viewBox="0 0 300 300" fill="none" xmlns="http://www.w3.org/2000/svg">
<rect x="20" y="20" width="260" height="260" fill="#B18783" stroke="#5D140E" stroke-width="4"/>
<rect x="74" y="74" width="153" height="153" fill="white" stroke="#5D140E" stroke-width="4"/>
<path fill-rule="evenodd" clip-rule="evenodd" d="M16 16H113C113 51.9862 93.6905 51.3861 77.916 50.8958C68.3812 50.5994 60.1379 50.3432 58.2313 58.2313C50.3432 60.1379 50.5994 68.3812 50.8958 77.916C51.3861 93.6905 51.9862 113 16 113V16Z" fill="#FFF2B5"/>
<path d="M113 16H115V14H113V16ZM16 16V14H14V16H16ZM77.916 50.8958L77.9782 48.8967L77.9782 48.8967L77.916 50.8958ZM58.2313 58.2313L58.7012 60.1753L59.8884 59.8884L60.1753 58.7012L58.2313 58.2313ZM50.8958 77.916L48.8967 77.9782L48.8967 77.9782L50.8958 77.916ZM16 113H14V115H16V113ZM113 14H16V18H113V14ZM77.8539 52.8948C85.5889 53.1352 95.029 53.4912 102.44 48.8184C110.082 43.9999 115 34.2989 115 16H111C111 33.6873 106.263 41.6793 100.307 45.4348C94.1195 49.3359 86.0176 49.1466 77.9782 48.8967L77.8539 52.8948ZM60.1753 58.7012C60.5691 57.0719 61.2554 55.977 62.1151 55.1962C62.9935 54.3986 64.172 53.8215 65.7045 53.4331C68.8636 52.6323 72.9892 52.7436 77.8539 52.8948L77.9782 48.8967C73.308 48.7516 68.5446 48.5866 64.7216 49.5557C62.7631 50.0522 60.9274 50.8716 59.426 52.2351C57.9059 53.6155 56.8468 55.4467 56.2873 57.7614L60.1753 58.7012ZM57.7614 56.2873C55.4467 56.8468 53.6155 57.9059 52.2351 59.426C50.8716 60.9274 50.0522 62.7631 49.5557 64.7216C48.5866 68.5446 48.7516 73.308 48.8967 77.9782L52.8948 77.8539C52.7436 72.9892 52.6323 68.8636 53.4331 65.7045C53.8215 64.172 54.3986 62.9935 55.1962 62.1151C55.977 61.2554 57.0719 60.5691 58.7012 60.1753L57.7614 56.2873ZM48.8967 77.9782C49.1466 86.0176 49.3359 94.1195 45.4348 100.307C41.6793 106.263 33.6873 111 16 111V115C34.2989 115 43.9999 110.082 48.8184 102.44C53.4912 95.029 53.1352 85.5889 52.8948 77.8539L48.8967 77.9782ZM18 113V16H14V113H18Z" fill="#5D140E"/>
<path fill-rule="evenodd" clip-rule="evenodd" d="M285 16L285 113C249.014 113 249.614 93.6905 250.104 77.916C250.401 68.3812 250.657 60.1379 242.769 58.2313C240.862 50.3432 232.619 50.5994 223.084 50.8958C207.31 51.386 188 51.9862 188 16L285 16Z" fill="#FFF2B5"/>
<path d="M285 113L285 115L287 115L287 113L285 113ZM285 16L287 16L287 14L285 14L285 16ZM250.104 77.916L252.103 77.9782L252.103 77.9782L250.104 77.916ZM242.769 58.2313L240.825 58.7012L241.112 59.8884L242.299 60.1753L242.769 58.2313ZM223.084 50.8958L223.022 48.8967L223.022 48.8967L223.084 50.8958ZM188 16L188 14L186 14L186 16L188 16ZM287 113L287 16L283 16L283 113L287 113ZM248.105 77.8539C247.865 85.5889 247.509 95.029 252.182 102.44C257 110.082 266.701 115 285 115L285 111C267.313 111 259.321 106.263 255.565 100.307C251.664 94.1195 251.853 86.0176 252.103 77.9782L248.105 77.8539ZM242.299 60.1753C243.928 60.5691 245.023 61.2553 245.804 62.1151C246.601 62.9935 247.178 64.172 247.567 65.7045C248.368 68.8636 248.256 72.9892 248.105 77.8539L252.103 77.9782C252.248 73.308 252.413 68.5446 251.444 64.7216C250.948 62.7631 250.128 60.9274 248.765 59.426C247.384 57.9059 245.553 56.8468 243.239 56.2873L242.299 60.1753ZM244.713 57.7614C244.153 55.4467 243.094 53.6155 241.574 52.2351C240.073 50.8716 238.237 50.0521 236.278 49.5557C232.455 48.5866 227.692 48.7516 223.022 48.8967L223.146 52.8948C228.011 52.7436 232.136 52.6323 235.296 53.4331C236.828 53.8215 238.007 54.3986 238.885 55.1962C239.745 55.977 240.431 57.0719 240.825 58.7012L244.713 57.7614ZM223.022 48.8967C214.982 49.1466 206.88 49.3359 200.693 45.4348C194.737 41.6793 190 33.6873 190 16L186 16C186 34.2989 190.918 43.9999 198.56 48.8184C205.971 53.4912 215.411 53.1352 223.146 52.8948L223.022 48.8967ZM188 18L285 18L285 14L188 14L188 18Z" fill="#5D140E"/>
<path fill-rule="evenodd" clip-rule="evenodd" d="M285 283L188 283C188 247.014 207.31 247.614 223.084 248.104C232.619 248.401 240.862 248.657 242.769 240.769C250.657 238.862 250.401 230.619 250.104 221.084C249.614 205.31 249.014 186 285 186L285 283Z" fill="#FFF2B5"/>
<path d="M188 283L186 283L186 285L188 285L188 283ZM285 283L285 285L287 285L287 283L285 283ZM223.084 248.104L223.022 250.103L223.022 250.103L223.084 248.104ZM242.769 240.769L242.299 238.825L241.112 239.112L240.825 240.299L242.769 240.769ZM250.104 221.084L252.103 221.022L252.103 221.022L250.104 221.084ZM285 186L287 186L287 184L285 184L285 186ZM188 285L285 285L285 281L188 281L188 285ZM223.146 246.105C215.411 245.865 205.971 245.509 198.56 250.182C190.918 255 186 264.701 186 283L190 283C190 265.313 194.737 257.321 200.693 253.565C206.88 249.664 214.982 249.853 223.022 250.103L223.146 246.105ZM240.825 240.299C240.431 241.928 239.745 243.023 238.885 243.804C238.007 244.601 236.828 245.178 235.296 245.567C232.136 246.368 228.011 246.256 223.146 246.105L223.022 250.103C227.692 250.248 232.455 250.413 236.278 249.444C238.237 248.948 240.073 248.128 241.574 246.765C243.094 245.384 244.153 243.553 244.713 241.239L240.825 240.299ZM243.239 242.713C245.553 242.153 247.384 241.094 248.765 239.574C250.128 238.073 250.948 236.237 251.444 234.278C252.413 230.455 252.248 225.692 252.103 221.022L248.105 221.146C248.256 226.011 248.368 230.136 247.567 233.296C247.178 234.828 246.601 236.007 245.804 236.885C245.023 237.745 243.928 238.431 242.299 238.825L243.239 242.713ZM252.103 221.022C251.853 212.982 251.664 204.88 255.565 198.693C259.321 192.737 267.313 188 285 188L285 184C266.701 184 257 188.918 252.182 196.56C247.509 203.971 247.865 213.411 248.105 221.146L252.103 221.022ZM283 186L283 283L287 283L287 186L283 186Z" fill="#5D140E"/>
<path fill-rule="evenodd" clip-rule="evenodd" d="M16 283L16 186C51.9862 186 51.3861 205.31 50.8958 221.084C50.5994 230.619 50.3432 238.862 58.2313 240.769C60.1379 248.657 68.3812 248.401 77.9161 248.104C93.6905 247.614 113 247.014 113 283L16 283Z" fill="#FFF2B5"/>
<path d="M16 186L16 184L14 184L14 186L16 186ZM16 283L14 283L14 285L16 285L16 283ZM50.8958 221.084L48.8968 221.022L48.8968 221.022L50.8958 221.084ZM58.2313 240.769L60.1753 240.299L59.8884 239.112L58.7012 238.825L58.2313 240.769ZM77.9161 248.104L77.9782 250.103L77.9782 250.103L77.9161 248.104ZM113 283L113 285L115 285L115 283L113 283ZM14 186L14 283L18 283L18 186L14 186ZM52.8948 221.146C53.1352 213.411 53.4912 203.971 48.8184 196.56C43.9999 188.918 34.2989 184 16 184L16 188C33.6873 188 41.6793 192.737 45.4348 198.693C49.3359 204.88 49.1466 212.982 48.8968 221.022L52.8948 221.146ZM58.7012 238.825C57.0719 238.431 55.9771 237.745 55.1963 236.885C54.3986 236.007 53.8215 234.828 53.4331 233.296C52.6323 230.136 52.7436 226.011 52.8948 221.146L48.8968 221.022C48.7516 225.692 48.5867 230.455 49.5557 234.278C50.0522 236.237 50.8716 238.073 52.2351 239.574C53.6155 241.094 55.4467 242.153 57.7614 242.713L58.7012 238.825ZM56.2873 241.239C56.8468 243.553 57.9059 245.384 59.426 246.765C60.9274 248.128 62.7631 248.948 64.7216 249.444C68.5446 250.413 73.308 250.248 77.9782 250.103L77.8539 246.105C72.9892 246.256 68.8636 246.368 65.7045 245.567C64.172 245.178 62.9935 244.601 62.1151 243.804C61.2554 243.023 60.5691 241.928 60.1753 240.299L56.2873 241.239ZM77.9782 250.103C86.0176 249.853 94.1195 249.664 100.307 253.565C106.263 257.321 111 265.313 111 283L115 283C115 264.701 110.082 255 102.44 250.182C95.029 245.509 85.5889 245.865 77.8539 246.105L77.9782 250.103ZM113 281L16 281L16 285L113 285L113 281Z" fill="#5D140E"/>
</svg>
