<svg width="61" height="60" viewBox="0 0 61 60" fill="none" xmlns="http://www.w3.org/2000/svg">
<g clip-path="url(#clip0_179_22)">
<path fill-rule="evenodd" clip-rule="evenodd" d="M30.1338 0C46.7028 0 60.1338 13.7698 60.1338 30.7588C60.1338 44.3458 51.5478 55.8719 39.6348 59.9429C38.1138 60.2459 37.5738 59.2853 37.5738 58.4663C37.5738 57.4523 37.6098 54.1404 37.6098 50.0244C37.6098 47.1564 36.6498 45.2846 35.5728 44.3306C42.2538 43.5686 49.2738 40.9673 49.2738 29.1533C49.2738 25.7933 48.1098 23.0515 46.1838 20.8975C46.4958 20.1205 47.5248 16.9919 45.8898 12.7559C45.8898 12.7559 43.3758 11.9317 37.6488 15.9097C35.2518 15.2287 32.6838 14.886 30.1338 14.874C27.5838 14.886 25.0188 15.2287 22.6248 15.9097C16.8918 11.9317 14.3718 12.7559 14.3718 12.7559C12.7428 16.9919 13.7718 20.1205 14.0808 20.8975C12.1638 23.0515 10.9908 25.7933 10.9908 29.1533C10.9908 40.9373 17.9958 43.5785 24.6588 44.3555C23.8008 45.1235 23.0238 46.4783 22.7538 48.4673C21.0438 49.2533 16.6998 50.6136 14.0238 45.9126C14.0238 45.9126 12.4368 42.9572 9.42479 42.7412C9.42479 42.7412 6.49979 42.7024 9.22079 44.6104C9.22079 44.6104 11.1858 45.5554 12.5508 49.1104C12.5508 49.1104 14.3118 54.6002 22.6578 52.7402C22.6728 55.3112 22.6998 57.7343 22.6998 58.4663C22.6998 59.2793 22.1478 60.2308 20.6508 59.9458C8.72878 55.8808 0.133789 44.3488 0.133789 30.7588C0.133789 13.7698 13.5678 0 30.1338 0Z" fill="#FFF2B5"/>
</g>
<defs>
<clipPath id="clip0_179_22">
<rect width="60" height="60" fill="white" transform="translate(0.133789)"/>
</clipPath>
</defs>
</svg>
