<svg width="61" height="61" viewBox="0 0 61 61" fill="none" xmlns="http://www.w3.org/2000/svg">
<g clip-path="url(#clip0_179_5)">
<path fill-rule="evenodd" clip-rule="evenodd" d="M30.1339 0.866211C46.7029 0.866211 60.1339 14.636 60.1339 31.625C60.1339 45.212 51.5479 56.7381 39.6349 60.8091C38.1139 61.1121 37.5739 60.1515 37.5739 59.3325C37.5739 58.3185 37.6099 55.0066 37.6099 50.8906C37.6099 48.0226 36.6499 46.1508 35.5729 45.1968C42.2539 44.4348 49.2739 41.8335 49.2739 30.0195C49.2739 26.6595 48.1099 23.9177 46.1839 21.7637C46.4959 20.9867 47.5249 17.8581 45.8899 13.6221C45.8899 13.6221 43.3759 12.7979 37.6489 16.7759C35.2519 16.0949 32.6839 15.7522 30.1339 15.7402C27.5839 15.7522 25.0189 16.0949 22.6249 16.7759C16.8919 12.7979 14.3719 13.6221 14.3719 13.6221C12.7429 17.8581 13.7719 20.9867 14.0809 21.7637C12.1639 23.9177 10.9909 26.6595 10.9909 30.0195C10.9909 41.8035 17.9959 44.4447 24.6589 45.2217C23.8009 45.9897 23.0239 47.3445 22.7539 49.3335C21.0439 50.1195 16.6999 51.4798 14.0239 46.7788C14.0239 46.7788 12.4369 43.8234 9.42487 43.6074C9.42487 43.6074 6.49986 43.5686 9.22086 45.4766C9.22086 45.4766 11.1859 46.4216 12.5509 49.9766C12.5509 49.9766 14.3119 55.4664 22.6579 53.6064C22.6729 56.1774 22.6999 58.6005 22.6999 59.3325C22.6999 60.1455 22.1479 61.097 20.6509 60.812C8.72886 56.747 0.133865 45.215 0.133865 31.625C0.133865 14.636 13.5679 0.866211 30.1339 0.866211Z" fill="#5D140E"/>
</g>
<defs>
<clipPath id="clip0_179_5">
<rect width="60" height="60" fill="white" transform="translate(0.133865 0.866211)"/>
</clipPath>
</defs>
</svg>
