<svg width="1440" height="1024" viewBox="0 0 1440 1024" fill="none" xmlns="http://www.w3.org/2000/svg">
<g clip-path="url(#clip0_106_4078)">
<mask id="path-1-inside-1_106_4078" fill="white">
<path d="M193 -183C193 -199.569 206.431 -213 223 -213H618.962C635.531 -213 648.962 -199.569 648.962 -183V1117.08C648.962 1133.65 635.531 1147.08 618.962 1147.08H223C206.431 1147.08 193 1133.65 193 1117.08V-183Z"/>
</mask>
<path d="M193 -183C193 -199.569 206.431 -213 223 -213H618.962C635.531 -213 648.962 -199.569 648.962 -183V1117.08C648.962 1133.65 635.531 1147.08 618.962 1147.08H223C206.431 1147.08 193 1133.65 193 1117.08V-183Z" fill="#8E92CC" stroke="#170E5D" stroke-width="10" mask="url(#path-1-inside-1_106_4078)"/>
<rect x="245.472" y="-162.043" width="355.401" height="1306.38" fill="#686DB3" stroke="#170E5D" stroke-width="5"/>
<rect x="276.883" y="154.046" width="294.887" height="283.739" fill="#FFC87E" stroke="#170E5D" stroke-width="5"/>
<rect x="278.841" y="157.121" width="266.443" height="254.18" fill="#FFF2B5"/>
<path d="M278.285 296.473C278.285 296.473 367.294 296.473 424.326 296.473M570.368 296.473C570.368 296.473 481.359 296.473 424.326 296.473M424.326 296.473C424.326 245.97 424.326 156.562 424.326 156.562V436.383" stroke="#170E5D" stroke-width="5"/>
<mask id="path-6-inside-2_106_4078" fill="white">
<path fill-rule="evenodd" clip-rule="evenodd" d="M628.896 -199.371H193V1160.46H227.559V-199.371H594.336V1160.46H628.896V-199.371Z"/>
</mask>
<path fill-rule="evenodd" clip-rule="evenodd" d="M628.896 -199.371H193V1160.46H227.559V-199.371H594.336V1160.46H628.896V-199.371Z" fill="#8E92CC"/>
<path d="M193 -199.371V-204.371H188V-199.371H193ZM628.896 -199.371H633.896V-204.371H628.896V-199.371ZM193 1160.46H188V1165.46H193V1160.46ZM227.559 1160.46V1165.46H232.559V1160.46H227.559ZM227.559 -199.371V-204.371H222.559V-199.371H227.559ZM594.336 -199.371H599.336V-204.371H594.336V-199.371ZM594.336 1160.46H589.336V1165.46H594.336V1160.46ZM628.896 1160.46V1165.46H633.896V1160.46H628.896ZM193 -194.371H628.896V-204.371H193V-194.371ZM198 1160.46V-199.371H188V1160.46H198ZM227.559 1155.46H193V1165.46H227.559V1155.46ZM232.559 1160.46V-199.371H222.559V1160.46H232.559ZM227.559 -194.371H594.336V-204.371H227.559V-194.371ZM589.336 -199.371V1160.46H599.336V-199.371H589.336ZM628.896 1155.46H594.336V1165.46H628.896V1155.46ZM623.896 -199.371V1160.46H633.896V-199.371H623.896Z" fill="#170E5D" mask="url(#path-6-inside-2_106_4078)"/>
<rect x="473.091" y="496.298" width="99.7933" height="117.63" fill="#686DB3" stroke="#170E5D" stroke-width="5"/>
<rect x="302.523" y="681.356" width="248.065" height="110.942" stroke="#170E5D" stroke-width="5"/>
<rect x="289.147" y="669.094" width="274.82" height="258.098" stroke="#170E5D" stroke-width="5"/>
<rect x="302.523" y="805.104" width="248.065" height="110.942" stroke="#170E5D" stroke-width="5"/>
<circle cx="423.929" cy="137.613" r="7.24635" fill="#170E5D"/>
<mask id="path-13-inside-3_106_4078" fill="white">
<path d="M522.723 236.142L424.751 334.114L326.779 236.142L424.751 138.169L522.723 236.142Z"/>
</mask>
<path d="M424.751 138.169L428.287 134.634L424.751 131.098L421.215 134.634L424.751 138.169ZM330.314 239.677L428.287 141.705L421.215 134.634L323.243 232.606L330.314 239.677ZM421.215 141.705L519.188 239.677L526.259 232.606L428.287 134.634L421.215 141.705Z" fill="#170E5D" mask="url(#path-13-inside-3_106_4078)"/>
<path d="M539.825 266.374C539.825 283.062 527.065 298.406 505.908 309.636C484.795 320.843 455.559 327.804 423.211 327.804C390.863 327.804 361.628 320.843 340.515 309.636C319.358 298.406 306.598 283.062 306.598 266.374C306.598 249.686 319.358 234.343 340.515 223.113C361.628 211.906 390.863 204.944 423.211 204.944C455.559 204.944 484.795 211.906 505.908 223.113C527.065 234.343 539.825 249.686 539.825 266.374Z" fill="#FFC87E" stroke="#170E5D" stroke-width="2"/>
<ellipse cx="423.768" cy="267.49" rx="96.9896" ry="45.7077" fill="#686DB3"/>
<path d="M530.521 266.375C530.521 280.664 519.284 294.223 499.709 304.358C480.26 314.428 453.218 320.73 423.211 320.73C393.204 320.73 366.162 314.428 346.713 304.358C327.138 294.223 315.901 280.664 315.901 266.375C315.901 252.085 327.138 238.526 346.713 228.391C366.162 218.321 393.204 212.019 423.211 212.019C453.218 212.019 480.26 218.321 499.709 228.391C519.284 238.526 530.521 252.085 530.521 266.375Z" stroke="#170E5D" stroke-width="5"/>
<rect x="692.714" y="117.488" width="727.639" height="505.77" fill="#8E92CC" stroke="#170E5D" stroke-width="5"/>
<rect x="725.147" y="149.921" width="658.053" height="444.681" fill="#FFC87E"/>
<g clip-path="url(#clip1_106_4078)">
<rect x="725" y="150" width="658" height="398" fill="#3B3F90"/>
<path d="M1322 133L1322 565" stroke="#262A67" stroke-width="56"/>
<path d="M1205 133L1205 565" stroke="#262A67" stroke-width="56"/>
<path d="M1088 124L1088 556" stroke="#262A67" stroke-width="56"/>
<path d="M971 124L971 556" stroke="#262A67" stroke-width="56"/>
<path d="M858 124L858 556" stroke="#262A67" stroke-width="56"/>
<path d="M741 124L741 556" stroke="#262A67" stroke-width="56"/>
</g>
<rect x="727.5" y="152.5" width="653" height="393" stroke="#170E5D" stroke-width="5"/>
<mask id="path-29-inside-4_106_4078" fill="white">
<path fill-rule="evenodd" clip-rule="evenodd" d="M1402.08 133.871H710.985V606.876H1402.08V133.871ZM1377.57 158.419H736.442V582.33H1377.57V158.419Z"/>
</mask>
<path fill-rule="evenodd" clip-rule="evenodd" d="M1402.08 133.871H710.985V606.876H1402.08V133.871ZM1377.57 158.419H736.442V582.33H1377.57V158.419Z" fill="#8E92CC"/>
<path d="M710.985 133.871V128.871H705.985V133.871H710.985ZM1402.08 133.871H1407.08V128.871H1402.08V133.871ZM710.985 606.876H705.985V611.876H710.985V606.876ZM1402.08 606.876V611.876H1407.08V606.876H1402.08ZM736.442 158.419V153.419H731.442V158.419H736.442ZM1377.57 158.419H1382.57V153.419H1377.57V158.419ZM736.442 582.33H731.442V587.33H736.442V582.33ZM1377.57 582.33V587.33H1382.57V582.33H1377.57ZM710.985 138.871H1402.08V128.871H710.985V138.871ZM715.985 606.876V133.871H705.985V606.876H715.985ZM1402.08 601.876H710.985V611.876H1402.08V601.876ZM1397.08 133.871V606.876H1407.08V133.871H1397.08ZM736.442 163.419H1377.57V153.419H736.442V163.419ZM741.442 582.33V158.419H731.442V582.33H741.442ZM1377.57 577.33H736.442V587.33H1377.57V577.33ZM1372.57 158.419V582.33H1382.57V158.419H1372.57Z" fill="#170E5D" mask="url(#path-29-inside-4_106_4078)"/>
<path d="M909.45 769.974C956.291 747.879 927.494 800.171 906.688 824.107C864.708 826.316 781.411 834.381 759.758 800.355C732.691 757.822 742.082 733.518 769.148 755.06C751.472 689.88 788.481 726.888 798.976 737.384C790.69 653.424 832.671 708.109 852.004 726.888C872.441 669.995 888.46 699.822 892.879 739.593C935.412 702.032 938.173 737.384 909.45 769.974Z" fill="#434E65" stroke="#170E5D" stroke-width="5"/>
<path d="M905.032 756.717C943.035 739.925 919.945 804.773 905.032 829.078C875.756 845.649 776.329 840.125 755.339 807.536C734.349 774.947 748.71 762.794 758.653 773.289C747.053 719.709 769.699 733.517 783.509 748.984C775.224 701.479 806.709 718.051 821.07 727.994C833.223 683.252 856.975 709.213 861.394 726.337C868.023 714.185 882.384 721.365 882.384 730.755C916.631 713.632 913.87 731.308 905.032 756.717Z" fill="#434E65" stroke="#170E5D" stroke-width="5"/>
<path d="M849.842 787.02C885.194 752.994 890.718 784.259 879.118 827.344C860.156 836.562 814.642 833.103 792.899 831.287C763.071 756.717 799.577 774.316 813.938 792.544C817.805 745.04 837.69 771.554 849.842 787.02Z" fill="#35435F"/>
<path fill-rule="evenodd" clip-rule="evenodd" d="M893 809.636H783V809.745H741L783 1165.81V1167.64H893V1103.75L927.681 809.745H893V809.636Z" fill="#262A67"/>
<path d="M783 809.636H780.5C780.5 808.255 781.619 807.136 783 807.136V809.636ZM893 809.636V807.136C894.381 807.136 895.5 808.255 895.5 809.636H893ZM783 809.745H785.5C785.5 811.126 784.381 812.245 783 812.245V809.745ZM741 809.745L738.517 810.038C738.433 809.329 738.657 808.618 739.131 808.084C739.606 807.55 740.286 807.245 741 807.245V809.745ZM783 1165.81L785.483 1165.51C785.494 1165.61 785.5 1165.71 785.5 1165.81H783ZM783 1167.64V1170.14C781.619 1170.14 780.5 1169.02 780.5 1167.64H783ZM893 1167.64H895.5C895.5 1169.02 894.381 1170.14 893 1170.14V1167.64ZM893 1103.75H890.5C890.5 1103.66 890.506 1103.56 890.517 1103.46L893 1103.75ZM927.681 809.745V807.245C928.395 807.245 929.075 807.55 929.549 808.084C930.024 808.618 930.247 809.329 930.163 810.038L927.681 809.745ZM893 809.745V812.245C891.619 812.245 890.5 811.126 890.5 809.745H893ZM783 807.136H893V812.136H783V807.136ZM780.5 809.745V809.636H785.5V809.745H780.5ZM741 807.245H783V812.245H741V807.245ZM780.517 1166.1L738.517 810.038L743.483 809.452L785.483 1165.51L780.517 1166.1ZM780.5 1167.64V1165.81H785.5V1167.64H780.5ZM893 1170.14H783V1165.14H893V1170.14ZM895.5 1103.75V1167.64H890.5V1103.75H895.5ZM930.163 810.038L895.483 1104.05L890.517 1103.46L925.198 809.452L930.163 810.038ZM893 807.245H927.681V812.245H893V807.245ZM895.5 809.636V809.745H890.5V809.636H895.5Z" fill="#170E5D"/>
<mask id="path-36-inside-5_106_4078" fill="white">
<path d="M907 453H1204.36L1297 1060H907V453Z"/>
</mask>
<path d="M907 453H1204.36L1297 1060H907V453Z" fill="#615AA9" stroke="#170E5D" stroke-width="10" mask="url(#path-36-inside-5_106_4078)"/>
<rect x="909.5" y="455.5" width="293" height="602" fill="#615AA9" stroke="#170E5D" stroke-width="5"/>
<rect x="924.5" y="472.5" width="260" height="602" fill="#262A67" stroke="#170E5D" stroke-width="5"/>
<path d="M162.797 746.47C199.723 729.052 177.021 770.275 160.619 789.145C127.524 790.887 61.8577 797.244 44.7878 770.42C23.4505 736.89 30.8532 717.73 52.1906 734.713C38.2558 683.329 67.4316 712.504 75.7053 720.778C69.1732 654.589 102.268 697.699 117.509 712.504C133.621 667.652 146.249 691.167 149.733 722.52C183.263 692.909 185.44 720.778 162.797 746.47Z" fill="#434E65" stroke="#170E5D" stroke-width="5"/>
<path d="M159.313 736.019C189.273 722.782 171.07 773.904 159.313 793.064C136.234 806.128 57.8516 801.773 41.3044 776.082C24.7571 750.391 36.0789 740.81 43.9171 749.084C34.7725 706.844 52.6254 717.73 63.5122 729.923C56.9804 692.473 81.8014 705.537 93.1232 713.376C102.704 678.104 121.429 698.57 124.912 712.069C130.138 702.489 141.459 708.15 141.459 715.553C168.458 702.054 166.281 715.988 159.313 736.019Z" fill="#434E65" stroke="#170E5D" stroke-width="5"/>
<path d="M115.805 759.908C143.675 733.084 148.029 757.731 138.885 791.697C123.936 798.964 88.0557 796.237 70.9149 794.806C47.4002 736.019 76.1791 749.893 87.501 764.263C90.5492 726.814 106.226 747.716 115.805 759.908Z" fill="#35435F"/>
<path fill-rule="evenodd" clip-rule="evenodd" d="M177 778H144H67H63H30L63 1059.74V1060H63.0308H144L177 778Z" fill="#262A67"/>
<path d="M177 778V775.5C177.714 775.5 178.393 775.805 178.868 776.338C179.342 776.871 179.566 777.582 179.483 778.291L177 778ZM30 778L27.517 778.291C27.4339 777.582 27.6578 776.871 28.1322 776.338C28.6066 775.805 29.2863 775.5 30 775.5V778ZM63 1059.74L65.483 1059.45C65.4943 1059.54 65.5 1059.64 65.5 1059.74H63ZM63 1060V1062.5C61.6193 1062.5 60.5 1061.38 60.5 1060H63ZM144 1060L146.483 1060.29C146.336 1061.55 145.268 1062.5 144 1062.5V1060ZM144 775.5H177V780.5H144V775.5ZM67 775.5H144V780.5H67V775.5ZM63 775.5H67V780.5H63V775.5ZM30 775.5H63V780.5H30V775.5ZM60.517 1060.03L27.517 778.291L32.483 777.709L65.483 1059.45L60.517 1060.03ZM60.5 1060V1059.74H65.5V1060H60.5ZM63.0308 1062.5H63V1057.5H63.0308V1062.5ZM144 1062.5H63.0308V1057.5H144V1062.5ZM179.483 778.291L146.483 1060.29L141.517 1059.71L174.517 777.709L179.483 778.291Z" fill="#170E5D"/>
<path d="M379.536 282.528C376.944 282.528 374.736 282.08 372.912 281.184C371.12 280.256 369.744 278.96 368.784 277.296C367.856 275.632 367.392 273.696 367.392 271.488C367.392 269.216 367.776 267.232 368.544 265.536C369.344 263.84 370.4 262.416 371.712 261.264C373.056 260.112 374.56 259.264 376.224 258.72C377.888 258.144 379.6 257.856 381.36 257.856C383.92 257.856 386.096 258.32 387.888 259.248C389.712 260.144 391.104 261.424 392.064 263.088C393.024 264.72 393.504 266.64 393.504 268.848C393.504 271.152 393.104 273.152 392.304 274.848C391.536 276.544 390.48 277.968 389.136 279.12C387.824 280.272 386.336 281.136 384.672 281.712C383.008 282.256 381.296 282.528 379.536 282.528ZM379.68 276.24C380.768 276.24 381.696 275.92 382.464 275.28C383.264 274.608 383.872 273.696 384.288 272.544C384.704 271.392 384.912 270.08 384.912 268.608C384.912 267.168 384.576 266.064 383.904 265.296C383.264 264.528 382.352 264.144 381.168 264.144C380.112 264.144 379.184 264.464 378.384 265.104C377.616 265.744 377.024 266.64 376.608 267.792C376.192 268.944 375.984 270.272 375.984 271.776C375.984 273.216 376.304 274.32 376.944 275.088C377.616 275.856 378.528 276.24 379.68 276.24ZM398.331 291.072C396.987 291.072 396.011 290.64 395.403 289.776C394.795 288.912 394.603 287.696 394.827 286.128L398.619 262.176C398.843 260.768 399.355 259.712 400.155 259.008C400.955 258.304 402.059 257.952 403.467 257.952C404.811 257.952 405.771 258.4 406.347 259.296C406.955 260.16 407.131 261.376 406.875 262.944L406.635 264.48L406.683 262.08C407.579 260.736 408.715 259.696 410.091 258.96C411.467 258.224 412.971 257.856 414.603 257.856C416.363 257.856 417.899 258.272 419.211 259.104C420.523 259.936 421.531 261.12 422.235 262.656C422.971 264.192 423.339 266.016 423.339 268.128C423.339 270.88 422.843 273.344 421.851 275.52C420.859 277.696 419.467 279.408 417.675 280.656C415.883 281.904 413.787 282.528 411.387 282.528C409.691 282.528 408.203 282.16 406.923 281.424C405.643 280.656 404.731 279.552 404.187 278.112L404.619 278.16L403.227 286.896C403.035 288.304 402.523 289.344 401.691 290.016C400.891 290.72 399.771 291.072 398.331 291.072ZM409.563 276.24C410.651 276.24 411.579 275.92 412.347 275.28C413.115 274.608 413.707 273.696 414.123 272.544C414.539 271.392 414.747 270.08 414.747 268.608C414.747 267.168 414.411 266.064 413.739 265.296C413.099 264.528 412.203 264.144 411.051 264.144C409.963 264.144 409.035 264.48 408.267 265.152C407.499 265.792 406.891 266.688 406.443 267.84C406.027 268.992 405.819 270.304 405.819 271.776C405.819 273.216 406.155 274.32 406.827 275.088C407.499 275.856 408.411 276.24 409.563 276.24ZM438.609 282.528C436.081 282.528 433.873 282.08 431.985 281.184C430.097 280.256 428.625 278.96 427.569 277.296C426.513 275.632 425.985 273.696 425.985 271.488C425.985 268.768 426.577 266.384 427.761 264.336C428.977 262.288 430.609 260.704 432.657 259.584C434.737 258.432 437.041 257.856 439.569 257.856C441.617 257.856 443.345 258.192 444.753 258.864C446.193 259.536 447.329 260.448 448.161 261.6C449.025 262.752 449.601 264.064 449.889 265.536C450.177 266.976 450.225 268.464 450.033 270C449.937 270.8 449.713 271.328 449.361 271.584C449.009 271.808 448.545 271.92 447.969 271.92H432.945L433.521 267.888H444.177L443.409 268.512C443.569 267.52 443.521 266.64 443.265 265.872C443.041 265.104 442.609 264.512 441.969 264.096C441.361 263.648 440.529 263.424 439.473 263.424C438.449 263.424 437.585 263.648 436.881 264.096C436.177 264.544 435.601 265.152 435.153 265.92C434.737 266.688 434.465 267.552 434.337 268.512L434.001 270.384C433.713 272.272 434.065 273.728 435.057 274.752C436.049 275.744 437.553 276.24 439.569 276.24C440.305 276.24 441.121 276.16 442.017 276C442.945 275.84 443.745 275.6 444.417 275.28C445.281 274.928 446.001 274.848 446.577 275.04C447.185 275.232 447.633 275.6 447.921 276.144C448.209 276.656 448.321 277.232 448.257 277.872C448.225 278.512 448.017 279.136 447.633 279.744C447.249 280.32 446.673 280.768 445.905 281.088C444.785 281.6 443.585 281.968 442.305 282.192C441.057 282.416 439.825 282.528 438.609 282.528ZM456.114 282.384C454.77 282.384 453.794 281.952 453.186 281.088C452.578 280.192 452.386 278.96 452.61 277.392L455.01 262.176C455.234 260.768 455.762 259.712 456.594 259.008C457.426 258.304 458.53 257.952 459.906 257.952C461.186 257.952 462.146 258.336 462.786 259.104C463.426 259.872 463.602 261.008 463.314 262.512L462.978 264.432V262.464C463.81 260.96 464.93 259.824 466.338 259.056C467.746 258.256 469.378 257.856 471.234 257.856C472.93 257.856 474.37 258.208 475.554 258.912C476.77 259.616 477.618 260.72 478.098 262.224C478.61 263.728 478.69 265.664 478.338 268.032L476.754 278.112C476.53 279.52 476.002 280.592 475.17 281.328C474.338 282.032 473.218 282.384 471.81 282.384C470.466 282.384 469.474 281.952 468.834 281.088C468.226 280.192 468.05 278.96 468.306 277.392L469.746 268.176C469.97 266.928 469.89 265.984 469.506 265.344C469.122 264.704 468.386 264.384 467.298 264.384C465.986 264.384 464.898 264.832 464.034 265.728C463.202 266.592 462.658 267.824 462.402 269.424L461.01 278.112C460.562 280.96 458.93 282.384 456.114 282.384Z" fill="#FFF2B5"/>
</g>
<defs>
<clipPath id="clip0_106_4078">
<rect width="1440" height="1024" fill="white"/>
</clipPath>
<clipPath id="clip1_106_4078">
<rect x="725" y="150" width="658" height="398" fill="white"/>
</clipPath>
</defs>
</svg>
