<svg width="774" height="1743" viewBox="0 0 774 1743" fill="none" xmlns="http://www.w3.org/2000/svg">
<g clip-path="url(#clip0_107_4139)">
<rect x="47.5" y="19.5" width="679" height="604" fill="#FFC87E" stroke="#5D140E" stroke-width="5"/>
<rect x="78" y="57" width="614" height="540" fill="#8BA2A3"/>
<rect x="78" y="57" width="579" height="496" fill="#B1D0D1"/>
<mask id="path-4-inside-1_107_4139" fill="white">
<path fill-rule="evenodd" clip-rule="evenodd" d="M709.465 40H64.3877V608.134H709.465V40ZM686.584 69.4846H88.1489V578.651H686.584V69.4846Z"/>
</mask>
<path fill-rule="evenodd" clip-rule="evenodd" d="M709.465 40H64.3877V608.134H709.465V40ZM686.584 69.4846H88.1489V578.651H686.584V69.4846Z" fill="#FFF2B5"/>
<path d="M64.3877 40V35H59.3877V40H64.3877ZM709.465 40H714.465V35H709.465V40ZM64.3877 608.134H59.3877V613.134H64.3877V608.134ZM709.465 608.134V613.134H714.465V608.134H709.465ZM88.1489 69.4846V64.4846H83.1489V69.4846H88.1489ZM686.584 69.4846H691.584V64.4846H686.584V69.4846ZM88.1489 578.651H83.1489V583.651H88.1489V578.651ZM686.584 578.651V583.651H691.584V578.651H686.584ZM64.3877 45H709.465V35H64.3877V45ZM69.3877 608.134V40H59.3877V608.134H69.3877ZM709.465 603.134H64.3877V613.134H709.465V603.134ZM704.465 40V608.134H714.465V40H704.465ZM88.1489 74.4846H686.584V64.4846H88.1489V74.4846ZM93.1489 578.651V69.4846H83.1489V578.651H93.1489ZM686.584 573.651H88.1489V583.651H686.584V573.651ZM681.584 69.4846V578.651H691.584V69.4846H681.584Z" fill="#5D140E" mask="url(#path-4-inside-1_107_4139)"/>
<path d="M210.451 817.974C257.292 795.879 228.495 848.171 207.689 872.107C165.709 874.316 82.4115 882.381 60.7586 848.355C33.6924 805.822 43.0827 781.518 70.1489 803.06C52.4728 737.88 89.4819 774.888 99.977 785.384C91.6912 701.424 133.672 756.109 153.005 774.888C173.442 717.995 189.461 747.822 193.88 787.593C236.413 750.032 239.174 785.384 210.451 817.974Z" fill="#DCD8B0" stroke="#5D140E" stroke-width="5"/>
<path d="M206.033 804.717C244.036 787.925 220.946 852.773 206.033 877.078C176.757 893.649 77.3297 888.125 56.3397 855.536C35.3498 822.947 49.7113 810.794 59.6539 821.289C48.0542 767.709 70.7003 781.517 84.5101 796.984C76.2246 749.479 107.71 766.051 122.071 775.994C134.224 731.252 157.976 757.213 162.395 774.337C169.023 762.185 183.385 769.365 183.385 778.755C217.632 761.632 214.87 779.308 206.033 804.717Z" fill="#8BA38E" stroke="#5D140E" stroke-width="5"/>
<path d="M150.843 835.02C186.195 800.994 191.719 832.259 180.119 875.344C161.157 884.562 115.643 881.103 93.9001 879.287C64.072 804.717 100.578 822.316 114.939 840.544C118.806 793.04 138.691 819.554 150.843 835.02Z" fill="#648B7F"/>
<path fill-rule="evenodd" clip-rule="evenodd" d="M194.001 857.636H84.001V857.952H42.001L84.001 1888.7V1894H194.001V1709.07L228.682 857.952H194.001V857.636Z" fill="#9A5752"/>
<path d="M84.001 857.636H81.501C81.501 856.255 82.6203 855.136 84.001 855.136V857.636ZM194.001 857.636V855.136C195.382 855.136 196.501 856.255 196.501 857.636H194.001ZM84.001 857.952H86.501C86.501 859.333 85.3817 860.452 84.001 860.452V857.952ZM42.001 857.952L39.503 858.054C39.4753 857.374 39.7262 856.712 40.1976 856.221C40.669 855.73 41.3203 855.452 42.001 855.452V857.952ZM84.001 1888.7L86.4989 1888.6C86.5003 1888.63 86.501 1888.67 86.501 1888.7H84.001ZM84.001 1894V1896.5C82.6203 1896.5 81.501 1895.38 81.501 1894H84.001ZM194.001 1894H196.501C196.501 1895.38 195.382 1896.5 194.001 1896.5V1894ZM194.001 1709.07H191.501C191.501 1709.04 191.502 1709 191.503 1708.97L194.001 1709.07ZM228.682 857.952V855.452C229.362 855.452 230.014 855.73 230.485 856.221C230.956 856.712 231.207 857.374 231.18 858.054L228.682 857.952ZM194.001 857.952V860.452C192.62 860.452 191.501 859.333 191.501 857.952H194.001ZM84.001 855.136H194.001V860.136H84.001V855.136ZM81.501 857.952V857.636H86.501V857.952H81.501ZM42.001 855.452H84.001V860.452H42.001V855.452ZM81.503 1888.8L39.503 858.054L44.4989 857.851L86.4989 1888.6L81.503 1888.8ZM81.501 1894V1888.7H86.501V1894H81.501ZM194.001 1896.5H84.001V1891.5H194.001V1896.5ZM196.501 1709.07V1894H191.501V1709.07H196.501ZM231.18 858.054L196.499 1709.17L191.503 1708.97L226.184 857.851L231.18 858.054ZM194.001 855.452H228.682V860.452H194.001V855.452ZM196.501 857.636V857.952H191.501V857.636H196.501Z" fill="#5D140E"/>
<path d="M341 453H638.361L731 1979H341V453Z" fill="#9A5752" stroke="#5D140E" stroke-width="5"/>
<rect x="130" y="453" width="509" height="1526" fill="#B18783" stroke="#5D140E" stroke-width="5"/>
<rect x="156" y="483" width="460" height="1526" fill="#FBEFEF" stroke="#5D140E" stroke-width="5"/>
</g>
<defs>
<clipPath id="clip0_107_4139">
<rect width="774" height="1743" fill="white"/>
</clipPath>
</defs>
</svg>
