<svg width="774" height="1743" viewBox="0 0 774 1743" fill="none" xmlns="http://www.w3.org/2000/svg">
<g clip-path="url(#clip0_107_4407)">
<rect x="47.5" y="19.5" width="679" height="604" fill="#8E92CC" stroke="#170E5D" stroke-width="5"/>
<rect x="78" y="57" width="614" height="540" fill="#FFC87E"/>
<g clip-path="url(#clip1_107_4407)">
<rect x="80" y="52" width="658" height="501" fill="#3B3F90"/>
<path d="M677 38L677 596" stroke="#262A67" stroke-width="56"/>
<path d="M560 38L560 596" stroke="#262A67" stroke-width="56"/>
<path d="M443 26L443 584" stroke="#262A67" stroke-width="56"/>
<path d="M326 26L326 584" stroke="#262A67" stroke-width="56"/>
<path d="M213 26L213 584" stroke="#262A67" stroke-width="56"/>
<path d="M96 26L96 584" stroke="#262A67" stroke-width="56"/>
</g>
<rect x="82.5" y="54.5" width="607" height="469" stroke="#170E5D" stroke-width="5"/>
<mask id="path-12-inside-1_107_4407" fill="white">
<path fill-rule="evenodd" clip-rule="evenodd" d="M709.465 40H64.3877V608.134H709.465V40ZM686.584 69.4846H88.1489V578.651H686.584V69.4846Z"/>
</mask>
<path fill-rule="evenodd" clip-rule="evenodd" d="M709.465 40H64.3877V608.134H709.465V40ZM686.584 69.4846H88.1489V578.651H686.584V69.4846Z" fill="#8E92CC"/>
<path d="M64.3877 40V35H59.3877V40H64.3877ZM709.465 40H714.465V35H709.465V40ZM64.3877 608.134H59.3877V613.134H64.3877V608.134ZM709.465 608.134V613.134H714.465V608.134H709.465ZM88.1489 69.4846V64.4846H83.1489V69.4846H88.1489ZM686.584 69.4846H691.584V64.4846H686.584V69.4846ZM88.1489 578.651H83.1489V583.651H88.1489V578.651ZM686.584 578.651V583.651H691.584V578.651H686.584ZM64.3877 45H709.465V35H64.3877V45ZM69.3877 608.134V40H59.3877V608.134H69.3877ZM709.465 603.134H64.3877V613.134H709.465V603.134ZM704.465 40V608.134H714.465V40H704.465ZM88.1489 74.4846H686.584V64.4846H88.1489V74.4846ZM93.1489 578.651V69.4846H83.1489V578.651H93.1489ZM686.584 573.651H88.1489V583.651H686.584V573.651ZM681.584 69.4846V578.651H691.584V69.4846H681.584Z" fill="#170E5D" mask="url(#path-12-inside-1_107_4407)"/>
<path d="M195.451 817.974C242.292 795.879 213.495 848.171 192.689 872.107C150.709 874.316 67.4115 882.381 45.7586 848.355C18.6924 805.822 28.0827 781.518 55.1489 803.06C37.4728 737.88 74.4819 774.888 84.977 785.384C76.6912 701.424 118.672 756.109 138.005 774.888C158.442 717.995 174.461 747.822 178.88 787.593C221.413 750.032 224.174 785.384 195.451 817.974Z" fill="#434E65" stroke="#170E5D" stroke-width="5"/>
<path d="M191.033 804.717C229.036 787.925 205.946 852.773 191.033 877.078C161.757 893.649 62.3297 888.125 41.3397 855.536C20.3498 822.947 34.7113 810.794 44.6539 821.289C33.0542 767.709 55.7003 781.517 69.5101 796.984C61.2246 749.479 92.7097 766.051 107.071 775.994C119.224 731.252 142.976 757.213 147.395 774.337C154.023 762.185 168.385 769.365 168.385 778.755C202.632 761.632 199.87 779.308 191.033 804.717Z" fill="#434E65" stroke="#170E5D" stroke-width="5"/>
<path d="M135.843 835.02C171.195 800.994 176.719 832.259 165.119 875.344C146.157 884.562 100.643 881.103 78.9001 879.287C49.072 804.717 85.5777 822.316 99.9394 840.544C103.806 793.04 123.691 819.554 135.843 835.02Z" fill="#35435F"/>
<path fill-rule="evenodd" clip-rule="evenodd" d="M179.001 857.636H69.001V857.952H27.001L69.001 1888.7V1894H179.001V1709.07L213.682 857.952H179.001V857.636Z" fill="#262A67"/>
<path d="M69.001 857.636H66.501C66.501 856.255 67.6203 855.136 69.001 855.136V857.636ZM179.001 857.636V855.136C180.382 855.136 181.501 856.255 181.501 857.636H179.001ZM69.001 857.952H71.501C71.501 859.333 70.3817 860.452 69.001 860.452V857.952ZM27.001 857.952L24.503 858.054C24.4753 857.374 24.7262 856.712 25.1976 856.221C25.669 855.73 26.3203 855.452 27.001 855.452V857.952ZM69.001 1888.7L71.4989 1888.6C71.5003 1888.63 71.501 1888.67 71.501 1888.7H69.001ZM69.001 1894V1896.5C67.6203 1896.5 66.501 1895.38 66.501 1894H69.001ZM179.001 1894H181.501C181.501 1895.38 180.382 1896.5 179.001 1896.5V1894ZM179.001 1709.07H176.501C176.501 1709.04 176.502 1709 176.503 1708.97L179.001 1709.07ZM213.682 857.952V855.452C214.362 855.452 215.014 855.73 215.485 856.221C215.956 856.712 216.207 857.374 216.18 858.054L213.682 857.952ZM179.001 857.952V860.452C177.62 860.452 176.501 859.333 176.501 857.952H179.001ZM69.001 855.136H179.001V860.136H69.001V855.136ZM66.501 857.952V857.636H71.501V857.952H66.501ZM27.001 855.452H69.001V860.452H27.001V855.452ZM66.503 1888.8L24.503 858.054L29.4989 857.851L71.4989 1888.6L66.503 1888.8ZM66.501 1894V1888.7H71.501V1894H66.501ZM179.001 1896.5H69.001V1891.5H179.001V1896.5ZM181.501 1709.07V1894H176.501V1709.07H181.501ZM216.18 858.054L181.499 1709.17L176.503 1708.97L211.184 857.851L216.18 858.054ZM179.001 855.452H213.682V860.452H179.001V855.452ZM181.501 857.636V857.952H176.501V857.636H181.501Z" fill="#170E5D"/>
<path d="M340 453H637.361L730 1979H340V453Z" fill="#615AA9" stroke="#170E5D" stroke-width="5"/>
<rect x="129" y="453" width="509" height="1526" fill="#615AA9" stroke="#170E5D" stroke-width="5"/>
<rect x="155" y="483" width="460" height="1526" fill="#262A67" stroke="#170E5D" stroke-width="5"/>
</g>
<defs>
<clipPath id="clip0_107_4407">
<rect width="774" height="1743" fill="white"/>
</clipPath>
<clipPath id="clip1_107_4407">
<rect x="80" y="52" width="612" height="474" fill="white"/>
</clipPath>
</defs>
</svg>
