<svg width="1614" height="731" viewBox="0 0 1614 731" fill="none" xmlns="http://www.w3.org/2000/svg">
<g clip-path="url(#clip0_107_4161)">
<rect x="88.5" y="5.5" width="678.853" height="471.758" fill="#8E92CC" stroke="#170E5D" stroke-width="5"/>
<rect x="118.606" y="35.6064" width="614.234" height="415.071" fill="#FFC87E"/>
<g clip-path="url(#clip1_107_4161)">
<rect x="121" y="38" width="658" height="398" fill="#3B3F90"/>
<path d="M718 21L718 453" stroke="#262A67" stroke-width="56"/>
<path d="M601 21L601 453" stroke="#262A67" stroke-width="56"/>
<path d="M484 12L484 444" stroke="#262A67" stroke-width="56"/>
<path d="M367 12L367 444" stroke="#262A67" stroke-width="56"/>
<path d="M254 12L254 444" stroke="#262A67" stroke-width="56"/>
<path d="M137 12L137 444" stroke="#262A67" stroke-width="56"/>
</g>
<rect x="123.5" y="40.5" width="607" height="361" stroke="#170E5D" stroke-width="5"/>
<mask id="path-12-inside-1_107_4161" fill="white">
<path fill-rule="evenodd" clip-rule="evenodd" d="M750.465 20.626H105.388V462.134H750.465V20.626ZM727.584 43.5386H129.149V439.222H727.584V43.5386Z"/>
</mask>
<path fill-rule="evenodd" clip-rule="evenodd" d="M750.465 20.626H105.388V462.134H750.465V20.626ZM727.584 43.5386H129.149V439.222H727.584V43.5386Z" fill="#8E92CC"/>
<path d="M105.388 20.626V15.626H100.388V20.626H105.388ZM750.465 20.626H755.465V15.626H750.465V20.626ZM105.388 462.134H100.388V467.134H105.388V462.134ZM750.465 462.134V467.134H755.465V462.134H750.465ZM129.149 43.5386V38.5386H124.149V43.5386H129.149ZM727.584 43.5386H732.584V38.5386H727.584V43.5386ZM129.149 439.222H124.149V444.222H129.149V439.222ZM727.584 439.222V444.222H732.584V439.222H727.584ZM105.388 25.626H750.465V15.626H105.388V25.626ZM110.388 462.134V20.626H100.388V462.134H110.388ZM750.465 457.134H105.388V467.134H750.465V457.134ZM745.465 20.626V462.134H755.465V20.626H745.465ZM129.149 48.5386H727.584V38.5386H129.149V48.5386ZM134.149 439.222V43.5386H124.149V439.222H134.149ZM727.584 434.222H129.149V444.222H727.584V434.222ZM722.584 43.5386V439.222H732.584V43.5386H722.584Z" fill="#170E5D" mask="url(#path-12-inside-1_107_4161)"/>
<path d="M975.451 443.974C1022.29 421.879 993.495 474.171 972.689 498.107C930.709 500.316 847.412 508.381 825.759 474.355C798.692 431.822 808.083 407.518 835.149 429.06C817.473 363.88 854.482 400.888 864.977 411.384C856.691 327.424 898.672 382.109 918.005 400.888C938.442 343.995 954.461 373.822 958.88 413.593C1001.41 376.032 1004.17 411.384 975.451 443.974Z" fill="#434E65" stroke="#170E5D" stroke-width="5"/>
<path d="M971.033 430.717C1009.04 413.925 985.946 478.773 971.033 503.078C941.757 519.649 842.33 514.125 821.34 481.536C800.35 448.947 814.711 436.794 824.654 447.289C813.054 393.709 835.7 407.517 849.51 422.984C841.225 375.479 872.71 392.051 887.071 401.994C899.224 357.252 922.976 383.213 927.395 400.337C934.023 388.185 948.385 395.365 948.385 404.755C982.632 387.632 979.87 405.308 971.033 430.717Z" fill="#434E65" stroke="#170E5D" stroke-width="5"/>
<path d="M915.843 461.02C951.195 426.994 956.719 458.259 945.119 501.344C926.157 510.562 880.643 507.103 858.9 505.287C829.072 430.717 865.578 448.316 879.939 466.544C883.806 419.04 903.691 445.554 915.843 461.02Z" fill="#35435F"/>
<path fill-rule="evenodd" clip-rule="evenodd" d="M959.001 483.636H849.001V483.745H807.001L849.001 839.806V841.636H959.001V777.755L993.682 483.745H959.001V483.636Z" fill="#262A67"/>
<path d="M849.001 483.636H846.501C846.501 482.255 847.62 481.136 849.001 481.136V483.636ZM959.001 483.636V481.136C960.382 481.136 961.501 482.255 961.501 483.636H959.001ZM849.001 483.745H851.501C851.501 485.126 850.382 486.245 849.001 486.245V483.745ZM807.001 483.745L804.518 484.038C804.434 483.329 804.658 482.618 805.132 482.084C805.607 481.55 806.287 481.245 807.001 481.245V483.745ZM849.001 839.806L851.484 839.513C851.495 839.61 851.501 839.708 851.501 839.806H849.001ZM849.001 841.636V844.136C847.62 844.136 846.501 843.016 846.501 841.636H849.001ZM959.001 841.636H961.501C961.501 843.016 960.382 844.136 959.001 844.136V841.636ZM959.001 777.755H956.501C956.501 777.657 956.507 777.559 956.518 777.462L959.001 777.755ZM993.682 483.745V481.245C994.396 481.245 995.076 481.55 995.55 482.084C996.025 482.618 996.248 483.329 996.164 484.038L993.682 483.745ZM959.001 483.745V486.245C957.62 486.245 956.501 485.126 956.501 483.745H959.001ZM849.001 481.136H959.001V486.136H849.001V481.136ZM846.501 483.745V483.636H851.501V483.745H846.501ZM807.001 481.245H849.001V486.245H807.001V481.245ZM846.518 840.099L804.518 484.038L809.484 483.452L851.484 839.513L846.518 840.099ZM846.501 841.636V839.806H851.501V841.636H846.501ZM959.001 844.136H849.001V839.136H959.001V844.136ZM961.501 777.755V841.636H956.501V777.755H961.501ZM996.164 484.038L961.484 778.047L956.518 777.462L991.199 483.452L996.164 484.038ZM959.001 481.245H993.682V486.245H959.001V481.245ZM961.501 483.636V483.745H956.501V483.636H961.501Z" fill="#170E5D"/>
<mask id="path-19-inside-2_107_4161" fill="white">
<path d="M951 138H1419.15L1565 745H951V138Z"/>
</mask>
<path d="M951 138H1419.15L1565 745H951V138Z" fill="#615AA9" stroke="#170E5D" stroke-width="10" mask="url(#path-19-inside-2_107_4161)"/>
<rect x="953.5" y="140.5" width="464.159" height="602" fill="#615AA9" stroke="#170E5D" stroke-width="5"/>
<rect x="972.5" y="157.5" width="427" height="602" fill="#262A67" stroke="#170E5D" stroke-width="5"/>
</g>
<defs>
<clipPath id="clip0_107_4161">
<rect width="1614" height="731" fill="white"/>
</clipPath>
<clipPath id="clip1_107_4161">
<rect x="121" y="38" width="612" height="366" fill="white"/>
</clipPath>
</defs>
</svg>
