<svg width="1440" height="1024" viewBox="0 0 1440 1024" fill="none" xmlns="http://www.w3.org/2000/svg">
<g clip-path="url(#clip0_85_3487)">
<path d="M236 -100.269H555.377C570.565 -100.269 582.877 -87.9564 582.877 -72.7686V998.869C582.877 1014.06 570.565 1026.37 555.377 1026.37H236C220.812 1026.37 208.5 1014.06 208.5 998.869V-72.7685C208.5 -87.9563 220.812 -100.269 236 -100.269Z" fill="#FFC87E" stroke="#5D140E" stroke-width="5"/>
<rect x="250.078" y="-59.9502" width="294.866" height="1086.11" fill="#B18783" stroke="#5D140E" stroke-width="5"/>
<rect x="276.213" y="203.047" width="244.517" height="235.241" fill="#8BA2A3" stroke="#5D140E" stroke-width="5"/>
<rect x="277.423" y="205.186" width="221.69" height="211.486" fill="#B1D0D1"/>
<path d="M276.96 321.131C276.96 321.131 351.019 321.131 398.472 321.131M519.984 321.131C519.984 321.131 445.925 321.131 398.472 321.131M398.472 321.131C398.472 279.111 398.472 204.721 398.472 204.721V437.541" stroke="#5D140E" stroke-width="5"/>
<mask id="path-6-inside-1_85_3487" fill="white">
<path fill-rule="evenodd" clip-rule="evenodd" d="M568.681 -91.4287H206V1040H234.755V-91.4286H539.926V1040H568.681V-91.4287Z"/>
</mask>
<path fill-rule="evenodd" clip-rule="evenodd" d="M568.681 -91.4287H206V1040H234.755V-91.4286H539.926V1040H568.681V-91.4287Z" fill="#FFF2B5"/>
<path d="M206 -91.4287V-96.4287H201V-91.4287H206ZM568.681 -91.4287H573.681V-96.4287H568.681V-91.4287ZM206 1040H201V1045H206V1040ZM234.755 1040V1045H239.755V1040H234.755ZM234.755 -91.4286V-96.4286H229.755V-91.4286H234.755ZM539.926 -91.4286H544.926V-96.4286H539.926V-91.4286ZM539.926 1040H534.926V1045H539.926V1040ZM568.681 1040V1045H573.681V1040H568.681ZM206 -86.4287H568.681V-96.4287H206V-86.4287ZM211 1040V-91.4287H201V1040H211ZM234.755 1035H206V1045H234.755V1035ZM239.755 1040V-91.4286H229.755V1040H239.755ZM234.755 -86.4286H539.926V-96.4286H234.755V-86.4286ZM534.926 -91.4286V1040H544.926V-91.4286H534.926ZM568.681 1035H539.926V1045H568.681V1035ZM563.681 -91.4287V1040H573.681V-91.4287H563.681Z" fill="#5D140E" mask="url(#path-6-inside-1_85_3487)"/>
<rect x="439.466" y="487.812" width="82.1918" height="97.0329" fill="#F5D2CF" stroke="#5D140E" stroke-width="5"/>
<rect x="297.547" y="641.788" width="205.559" height="91.4675" stroke="#5D140E" stroke-width="5"/>
<rect x="286.417" y="631.585" width="227.821" height="213.907" stroke="#5D140E" stroke-width="5"/>
<rect x="297.547" y="744.75" width="205.559" height="91.4675" stroke="#5D140E" stroke-width="5"/>
<circle cx="398.142" cy="188.953" r="6.02922" fill="#5D140E"/>
<mask id="path-13-inside-2_85_3487" fill="white">
<path d="M480.342 270.933L398.825 352.449L317.309 270.933L398.825 189.416L480.342 270.933Z"/>
</mask>
<path d="M398.825 189.416L400.24 188.002L398.825 186.588L397.411 188.002L398.825 189.416ZM318.723 272.347L400.24 190.831L397.411 188.002L315.895 269.518L318.723 272.347ZM397.411 190.831L478.928 272.347L481.756 269.518L400.24 188.002L397.411 190.831Z" fill="#5D140E" mask="url(#path-13-inside-2_85_3487)"/>
<path d="M494.403 296.088C494.403 309.88 483.854 322.602 466.272 331.934C448.734 341.243 424.437 347.032 397.544 347.032C370.652 347.032 346.354 341.243 328.817 331.934C311.235 322.602 300.686 309.88 300.686 296.088C300.686 282.295 311.235 269.573 328.817 260.241C346.354 250.932 370.652 245.144 397.544 245.144C424.437 245.144 448.734 250.932 466.272 260.241C483.854 269.573 494.403 282.295 494.403 296.088Z" fill="#9B5853" stroke="#5D140E" stroke-width="2"/>
<ellipse cx="398.007" cy="297.016" rx="80.6988" ry="38.0305" fill="#B18783"/>
<mask id="path-17-outside-3_85_3487" maskUnits="userSpaceOnUse" x="306.961" y="270.898" width="178" height="55" fill="black">
<rect fill="white" x="306.961" y="270.898" width="178" height="55"/>
<path d="M344.125 309.973C340.336 309.973 337.377 309.418 335.246 308.307C333.115 307.196 332.05 305.053 332.05 301.879C332.05 299.657 332.434 297.329 333.204 294.896C334.032 292.409 335.187 290.002 336.666 287.674C338.146 285.347 339.892 283.231 341.905 281.326C323.446 294.985 310.877 298.921 309.076 294.126C308.125 291.594 313.279 284.654 316.475 279.247C319.712 282.966 324.336 282.199 348.564 276.803C350.991 275.639 353.566 275.057 356.288 275.057C358.064 275.057 359.751 275.189 361.349 275.454C362.947 275.718 364.25 276.327 365.256 277.279C366.262 278.178 366.765 279.607 366.765 281.564C366.765 283.627 366.144 286.299 364.901 289.579C363.658 292.859 361.971 296.06 359.84 299.181C359.722 299.604 359.662 300.027 359.662 300.451C359.662 301.033 359.781 301.614 360.017 302.196C360.313 302.778 360.817 303.069 361.527 303.069C362.474 303.069 363.451 302.487 364.457 301.323C365.522 300.001 366.617 298.414 367.742 296.562C368.867 294.711 369.725 293.203 370.317 292.039C370.435 291.722 370.702 291.563 371.116 291.563C371.53 291.563 371.885 291.722 372.181 292.039C372.536 292.356 372.566 292.727 372.27 293.15C371.797 293.943 371.175 295.054 370.406 296.483C369.636 297.858 368.748 299.26 367.742 300.689C366.736 302.117 365.641 303.254 364.457 304.101C363.569 304.736 362.622 305.053 361.616 305.053C360.432 305.053 359.544 304.815 358.952 304.339C358.36 303.81 357.887 303.069 357.531 302.117C355.637 304.392 353.536 306.27 351.228 307.751C348.919 309.233 346.551 309.973 344.125 309.973ZM342.438 307.513C343.089 307.513 343.977 306.746 345.101 305.212C346.226 303.678 347.439 301.72 348.741 299.34C350.044 296.906 351.316 294.446 352.559 291.96C352.796 291.536 353.181 290.769 353.714 289.658C354.246 288.494 354.809 287.225 355.401 285.849C355.992 284.421 356.496 283.045 356.91 281.723C357.324 280.4 357.531 279.342 357.531 278.549C357.531 277.649 357.235 277.2 356.644 277.2C356.111 277.2 355.43 277.676 354.601 278.628C353.773 279.527 352.855 280.718 351.849 282.199C350.843 283.68 349.866 285.267 348.919 286.96C347.972 288.653 347.143 290.24 346.433 291.722C345.723 293.203 344.983 294.869 344.213 296.721C343.444 298.573 342.793 300.345 342.26 302.038C341.786 303.678 341.55 305 341.55 306.005C341.55 307.011 341.846 307.513 342.438 307.513Z"/>
<path d="M367.411 322.987C365.517 322.987 363.948 322.643 362.705 321.956C361.462 321.268 360.752 320.316 360.574 319.099C360.515 318.834 360.486 318.57 360.486 318.305C360.486 318.094 360.486 317.856 360.486 317.591C360.486 315.634 360.9 313.332 361.729 310.687C362.557 308.042 363.623 305.291 364.925 302.434C366.227 299.578 367.559 296.906 368.92 294.42C369.394 293.52 370.045 292.224 370.874 290.531C371.762 288.838 372.62 287.066 373.449 285.214C374.336 283.31 375.076 281.644 375.668 280.215C376.26 278.734 376.497 277.755 376.379 277.279V276.882C376.379 276.247 376.941 275.93 378.066 275.93C379.368 275.93 380.64 276.168 381.883 276.644C383.126 277.173 384.073 277.914 384.725 278.866C385.376 279.818 385.701 280.824 385.701 281.882C385.701 282.728 385.464 283.627 384.991 284.58L382.505 289.262C383.274 288.151 384.162 286.907 385.169 285.532C386.175 284.156 387.181 282.807 388.187 281.485C389.253 280.109 390.17 278.945 390.94 277.993C391.768 276.988 392.36 276.353 392.715 276.089C393.248 275.665 393.958 275.454 394.846 275.454C395.497 275.454 396.178 275.56 396.888 275.771C397.599 275.93 398.368 276.142 399.197 276.406C400.026 276.671 400.588 277.173 400.884 277.914C401.239 278.602 401.417 279.448 401.417 280.453C401.417 281.723 401.121 283.31 400.529 285.214C399.996 287.066 399.256 289.076 398.309 291.245C397.362 293.362 396.297 295.478 395.113 297.594C393.929 299.71 392.715 301.614 391.472 303.307C392.775 303.36 394.018 303.202 395.201 302.831C396.444 302.461 397.54 301.826 398.487 300.927C399.67 299.763 400.736 298.334 401.683 296.642C402.689 294.896 403.577 293.335 404.347 291.96C404.524 291.642 404.79 291.483 405.146 291.483C405.56 291.483 405.915 291.669 406.211 292.039C406.507 292.409 406.537 292.806 406.3 293.229C405.708 294.287 404.998 295.531 404.169 296.959C403.399 298.334 402.541 299.657 401.594 300.927C400.647 302.196 399.611 303.202 398.487 303.942C397.54 304.63 396.592 305.08 395.645 305.291C394.698 305.503 393.722 305.609 392.715 305.609C392.242 305.609 391.768 305.609 391.295 305.609C390.821 305.556 390.318 305.503 389.785 305.45C388.838 306.561 387.951 307.407 387.122 307.989C386.234 308.571 385.287 309.047 384.281 309.418C383.274 309.788 382.179 309.973 380.996 309.973C377.562 309.973 375.224 308.307 373.981 304.974C372.916 307.354 371.998 309.709 371.229 312.036C370.459 314.364 369.927 316.533 369.631 318.543C369.572 318.808 369.512 319.072 369.453 319.337C369.453 319.654 369.453 319.945 369.453 320.21C369.453 321.215 369.69 321.85 370.163 322.114C370.223 322.167 370.252 322.247 370.252 322.352C370.252 322.723 369.868 322.908 369.098 322.908C368.802 322.961 368.506 322.987 368.21 322.987C367.973 322.987 367.707 322.987 367.411 322.987ZM382.682 301.482C383.511 300.16 384.281 298.705 384.991 297.118C385.701 295.478 386.352 293.891 386.944 292.356C387.536 290.822 388.01 289.5 388.365 288.389C388.779 287.225 389.046 286.458 389.164 286.087C389.401 285.347 389.578 284.685 389.697 284.104C389.874 283.469 389.993 282.94 390.052 282.516C389.046 283.68 387.803 285.241 386.323 287.198C384.843 289.156 383.304 291.219 381.706 293.388C380.167 295.557 378.746 297.594 377.444 299.498L382.239 301.323C382.357 301.429 382.505 301.482 382.682 301.482ZM378.066 305.609C378.598 305.609 379.131 305.423 379.664 305.053C380.196 304.63 380.759 304.074 381.351 303.387C380.463 303.016 379.605 302.646 378.776 302.276C378.006 301.853 377.207 301.429 376.379 301.006L375.58 302.196C375.698 302.62 375.846 303.043 376.023 303.466C376.201 303.889 376.408 304.286 376.645 304.656C377.118 305.291 377.592 305.609 378.066 305.609Z"/>
<path d="M414.363 310.608C410.042 310.608 406.905 309.735 404.951 307.989C403.057 306.243 402.11 303.942 402.11 301.085C402.11 298.916 402.613 296.536 403.62 293.943C404.389 291.827 405.425 289.685 406.727 287.516C408.029 285.294 409.539 283.257 411.255 281.405C412.972 279.501 414.866 277.993 416.938 276.882C419.009 275.718 421.199 275.136 423.508 275.136C426.468 275.136 428.865 275.56 430.7 276.406C432.594 277.2 433.541 278.522 433.541 280.374C433.541 281.749 432.919 283.469 431.676 285.532C430.019 288.389 427.592 290.743 424.396 292.594C421.199 294.446 417.618 295.504 413.653 295.769C412.765 297.938 412.232 299.71 412.054 301.085C411.995 301.35 411.966 301.614 411.966 301.879C411.966 302.091 411.966 302.329 411.966 302.593C411.966 304.339 412.41 305.609 413.297 306.402C414.185 307.143 415.28 307.513 416.583 307.513C419.009 307.513 421.14 306.958 422.975 305.847C424.81 304.736 426.408 303.334 427.77 301.641C429.19 299.948 430.404 298.255 431.41 296.562C432.002 295.61 432.505 294.737 432.919 293.943C433.334 293.097 433.659 292.489 433.896 292.118C434.192 291.695 434.518 291.483 434.873 291.483C435.228 291.483 435.553 291.669 435.849 292.039C436.145 292.356 436.175 292.727 435.938 293.15C435.169 294.525 434.103 296.351 432.742 298.625C431.38 300.9 429.841 302.911 428.125 304.656C426.231 306.667 424.189 308.174 421.999 309.18C419.868 310.132 417.322 310.608 414.363 310.608ZM414.807 293.467C417.47 292.568 419.808 290.954 421.821 288.627C423.893 286.299 425.284 283.733 425.994 280.929C426.053 280.665 426.083 280.427 426.083 280.215C426.142 280.004 426.172 279.792 426.172 279.58C426.172 278.522 425.816 277.993 425.106 277.993C424.514 277.993 423.893 278.364 423.242 279.104C422.295 280.109 421.288 281.485 420.223 283.231C419.157 284.924 418.21 286.59 417.382 288.23C416.553 289.87 415.931 291.113 415.517 291.96L414.807 293.467Z"/>
<path d="M454.671 310.053C451.652 310.053 449.61 309.312 448.545 307.831C447.479 306.349 446.946 304.63 446.946 302.673C446.946 301.244 447.124 299.816 447.479 298.387C447.834 296.959 448.219 295.689 448.633 294.578C449.048 293.467 449.344 292.7 449.521 292.277C450.232 290.373 450.971 288.547 451.741 286.802C452.57 285.003 453.191 283.76 453.605 283.072C453.428 283.336 452.777 284.104 451.652 285.373C450.528 286.643 449.196 288.23 447.657 290.134C446.177 291.986 444.697 293.97 443.217 296.086C441.738 298.149 440.495 300.16 439.488 302.117C438.541 304.022 438.068 305.662 438.068 307.037C438.068 307.989 438.304 308.677 438.778 309.1C438.956 309.259 439.044 309.391 439.044 309.497C439.044 309.762 438.719 309.841 438.068 309.735C436.706 309.523 435.375 309.312 434.072 309.1C432.77 308.836 431.675 308.333 430.787 307.593C429.958 306.799 429.544 305.503 429.544 303.704C429.544 302.276 429.958 300.556 430.787 298.546C431.616 296.483 432.592 294.367 433.717 292.198C434.842 290.029 435.818 288.018 436.647 286.167C436.825 285.744 437.121 285.109 437.535 284.262C437.949 283.363 438.364 282.437 438.778 281.485C439.252 280.48 439.607 279.607 439.843 278.866C440.08 278.073 440.139 277.544 440.021 277.279C439.903 277.067 439.843 276.909 439.843 276.803C439.843 276.168 440.317 275.851 441.264 275.851C442.211 275.851 443.158 275.983 444.105 276.247C445.111 276.459 445.999 276.829 446.769 277.358C447.598 277.887 448.249 278.522 448.722 279.263C449.196 280.004 449.432 280.824 449.432 281.723C449.432 282.305 449.284 282.993 448.989 283.786C448.87 284.156 448.604 284.659 448.189 285.294C447.834 285.876 447.45 286.511 447.035 287.198C446.621 287.886 446.177 288.6 445.703 289.341C445.289 290.082 445.141 290.478 445.259 290.531C446.739 288.203 448.337 286.034 450.054 284.024C451.83 281.961 453.428 280.189 454.848 278.707C456.328 277.226 457.305 276.142 457.778 275.454C458.252 275.136 459.021 274.978 460.087 274.978C461.33 274.978 462.603 275.322 463.905 276.009C465.207 276.697 465.858 277.94 465.858 279.739C465.858 281.22 465.266 283.019 464.082 285.135C461.537 289.473 459.584 293.388 458.222 296.88C456.861 300.318 456.18 302.858 456.18 304.498C456.18 305.662 456.535 306.243 457.246 306.243C458.074 306.243 459.021 305.767 460.087 304.815C461.152 303.863 463.106 301.403 463.106 301.403C472.315 287.198 471.852 274.152 471.39 273.047C470.928 271.942 476.939 277.359 476.939 277.359L482.026 281.723C485.166 293.145 468.782 310.053 454.671 310.053Z"/>
</mask>
<path d="M344.125 309.973C340.336 309.973 337.377 309.418 335.246 308.307C333.115 307.196 332.05 305.053 332.05 301.879C332.05 299.657 332.434 297.329 333.204 294.896C334.032 292.409 335.187 290.002 336.666 287.674C338.146 285.347 339.892 283.231 341.905 281.326C323.446 294.985 310.877 298.921 309.076 294.126C308.125 291.594 313.279 284.654 316.475 279.247C319.712 282.966 324.336 282.199 348.564 276.803C350.991 275.639 353.566 275.057 356.288 275.057C358.064 275.057 359.751 275.189 361.349 275.454C362.947 275.718 364.25 276.327 365.256 277.279C366.262 278.178 366.765 279.607 366.765 281.564C366.765 283.627 366.144 286.299 364.901 289.579C363.658 292.859 361.971 296.06 359.84 299.181C359.722 299.604 359.662 300.027 359.662 300.451C359.662 301.033 359.781 301.614 360.017 302.196C360.313 302.778 360.817 303.069 361.527 303.069C362.474 303.069 363.451 302.487 364.457 301.323C365.522 300.001 366.617 298.414 367.742 296.562C368.867 294.711 369.725 293.203 370.317 292.039C370.435 291.722 370.702 291.563 371.116 291.563C371.53 291.563 371.885 291.722 372.181 292.039C372.536 292.356 372.566 292.727 372.27 293.15C371.797 293.943 371.175 295.054 370.406 296.483C369.636 297.858 368.748 299.26 367.742 300.689C366.736 302.117 365.641 303.254 364.457 304.101C363.569 304.736 362.622 305.053 361.616 305.053C360.432 305.053 359.544 304.815 358.952 304.339C358.36 303.81 357.887 303.069 357.531 302.117C355.637 304.392 353.536 306.27 351.228 307.751C348.919 309.233 346.551 309.973 344.125 309.973ZM342.438 307.513C343.089 307.513 343.977 306.746 345.101 305.212C346.226 303.678 347.439 301.72 348.741 299.34C350.044 296.906 351.316 294.446 352.559 291.96C352.796 291.536 353.181 290.769 353.714 289.658C354.246 288.494 354.809 287.225 355.401 285.849C355.992 284.421 356.496 283.045 356.91 281.723C357.324 280.4 357.531 279.342 357.531 278.549C357.531 277.649 357.235 277.2 356.644 277.2C356.111 277.2 355.43 277.676 354.601 278.628C353.773 279.527 352.855 280.718 351.849 282.199C350.843 283.68 349.866 285.267 348.919 286.96C347.972 288.653 347.143 290.24 346.433 291.722C345.723 293.203 344.983 294.869 344.213 296.721C343.444 298.573 342.793 300.345 342.26 302.038C341.786 303.678 341.55 305 341.55 306.005C341.55 307.011 341.846 307.513 342.438 307.513Z" stroke="#5D140E" stroke-width="4" mask="url(#path-17-outside-3_85_3487)"/>
<path d="M367.411 322.987C365.517 322.987 363.948 322.643 362.705 321.956C361.462 321.268 360.752 320.316 360.574 319.099C360.515 318.834 360.486 318.57 360.486 318.305C360.486 318.094 360.486 317.856 360.486 317.591C360.486 315.634 360.9 313.332 361.729 310.687C362.557 308.042 363.623 305.291 364.925 302.434C366.227 299.578 367.559 296.906 368.92 294.42C369.394 293.52 370.045 292.224 370.874 290.531C371.762 288.838 372.62 287.066 373.449 285.214C374.336 283.31 375.076 281.644 375.668 280.215C376.26 278.734 376.497 277.755 376.379 277.279V276.882C376.379 276.247 376.941 275.93 378.066 275.93C379.368 275.93 380.64 276.168 381.883 276.644C383.126 277.173 384.073 277.914 384.725 278.866C385.376 279.818 385.701 280.824 385.701 281.882C385.701 282.728 385.464 283.627 384.991 284.58L382.505 289.262C383.274 288.151 384.162 286.907 385.169 285.532C386.175 284.156 387.181 282.807 388.187 281.485C389.253 280.109 390.17 278.945 390.94 277.993C391.768 276.988 392.36 276.353 392.715 276.089C393.248 275.665 393.958 275.454 394.846 275.454C395.497 275.454 396.178 275.56 396.888 275.771C397.599 275.93 398.368 276.142 399.197 276.406C400.026 276.671 400.588 277.173 400.884 277.914C401.239 278.602 401.417 279.448 401.417 280.453C401.417 281.723 401.121 283.31 400.529 285.214C399.996 287.066 399.256 289.076 398.309 291.245C397.362 293.362 396.297 295.478 395.113 297.594C393.929 299.71 392.715 301.614 391.472 303.307C392.775 303.36 394.018 303.202 395.201 302.831C396.444 302.461 397.54 301.826 398.487 300.927C399.67 299.763 400.736 298.334 401.683 296.642C402.689 294.896 403.577 293.335 404.347 291.96C404.524 291.642 404.79 291.483 405.146 291.483C405.56 291.483 405.915 291.669 406.211 292.039C406.507 292.409 406.537 292.806 406.3 293.229C405.708 294.287 404.998 295.531 404.169 296.959C403.399 298.334 402.541 299.657 401.594 300.927C400.647 302.196 399.611 303.202 398.487 303.942C397.54 304.63 396.592 305.08 395.645 305.291C394.698 305.503 393.722 305.609 392.715 305.609C392.242 305.609 391.768 305.609 391.295 305.609C390.821 305.556 390.318 305.503 389.785 305.45C388.838 306.561 387.951 307.407 387.122 307.989C386.234 308.571 385.287 309.047 384.281 309.418C383.274 309.788 382.179 309.973 380.996 309.973C377.562 309.973 375.224 308.307 373.981 304.974C372.916 307.354 371.998 309.709 371.229 312.036C370.459 314.364 369.927 316.533 369.631 318.543C369.572 318.808 369.512 319.072 369.453 319.337C369.453 319.654 369.453 319.945 369.453 320.21C369.453 321.215 369.69 321.85 370.163 322.114C370.223 322.167 370.252 322.247 370.252 322.352C370.252 322.723 369.868 322.908 369.098 322.908C368.802 322.961 368.506 322.987 368.21 322.987C367.973 322.987 367.707 322.987 367.411 322.987ZM382.682 301.482C383.511 300.16 384.281 298.705 384.991 297.118C385.701 295.478 386.352 293.891 386.944 292.356C387.536 290.822 388.01 289.5 388.365 288.389C388.779 287.225 389.046 286.458 389.164 286.087C389.401 285.347 389.578 284.685 389.697 284.104C389.874 283.469 389.993 282.94 390.052 282.516C389.046 283.68 387.803 285.241 386.323 287.198C384.843 289.156 383.304 291.219 381.706 293.388C380.167 295.557 378.746 297.594 377.444 299.498L382.239 301.323C382.357 301.429 382.505 301.482 382.682 301.482ZM378.066 305.609C378.598 305.609 379.131 305.423 379.664 305.053C380.196 304.63 380.759 304.074 381.351 303.387C380.463 303.016 379.605 302.646 378.776 302.276C378.006 301.853 377.207 301.429 376.379 301.006L375.58 302.196C375.698 302.62 375.846 303.043 376.023 303.466C376.201 303.889 376.408 304.286 376.645 304.656C377.118 305.291 377.592 305.609 378.066 305.609Z" stroke="#5D140E" stroke-width="4" mask="url(#path-17-outside-3_85_3487)"/>
<path d="M414.363 310.608C410.042 310.608 406.905 309.735 404.951 307.989C403.057 306.243 402.11 303.942 402.11 301.085C402.11 298.916 402.613 296.536 403.62 293.943C404.389 291.827 405.425 289.685 406.727 287.516C408.029 285.294 409.539 283.257 411.255 281.405C412.972 279.501 414.866 277.993 416.938 276.882C419.009 275.718 421.199 275.136 423.508 275.136C426.468 275.136 428.865 275.56 430.7 276.406C432.594 277.2 433.541 278.522 433.541 280.374C433.541 281.749 432.919 283.469 431.676 285.532C430.019 288.389 427.592 290.743 424.396 292.594C421.199 294.446 417.618 295.504 413.653 295.769C412.765 297.938 412.232 299.71 412.054 301.085C411.995 301.35 411.966 301.614 411.966 301.879C411.966 302.091 411.966 302.329 411.966 302.593C411.966 304.339 412.41 305.609 413.297 306.402C414.185 307.143 415.28 307.513 416.583 307.513C419.009 307.513 421.14 306.958 422.975 305.847C424.81 304.736 426.408 303.334 427.77 301.641C429.19 299.948 430.404 298.255 431.41 296.562C432.002 295.61 432.505 294.737 432.919 293.943C433.334 293.097 433.659 292.489 433.896 292.118C434.192 291.695 434.518 291.483 434.873 291.483C435.228 291.483 435.553 291.669 435.849 292.039C436.145 292.356 436.175 292.727 435.938 293.15C435.169 294.525 434.103 296.351 432.742 298.625C431.38 300.9 429.841 302.911 428.125 304.656C426.231 306.667 424.189 308.174 421.999 309.18C419.868 310.132 417.322 310.608 414.363 310.608ZM414.807 293.467C417.47 292.568 419.808 290.954 421.821 288.627C423.893 286.299 425.284 283.733 425.994 280.929C426.053 280.665 426.083 280.427 426.083 280.215C426.142 280.004 426.172 279.792 426.172 279.58C426.172 278.522 425.816 277.993 425.106 277.993C424.514 277.993 423.893 278.364 423.242 279.104C422.295 280.109 421.288 281.485 420.223 283.231C419.157 284.924 418.21 286.59 417.382 288.23C416.553 289.87 415.931 291.113 415.517 291.96L414.807 293.467Z" stroke="#5D140E" stroke-width="4" mask="url(#path-17-outside-3_85_3487)"/>
<path d="M454.671 310.053C451.652 310.053 449.61 309.312 448.545 307.831C447.479 306.349 446.946 304.63 446.946 302.673C446.946 301.244 447.124 299.816 447.479 298.387C447.834 296.959 448.219 295.689 448.633 294.578C449.048 293.467 449.344 292.7 449.521 292.277C450.232 290.373 450.971 288.547 451.741 286.802C452.57 285.003 453.191 283.76 453.605 283.072C453.428 283.336 452.777 284.104 451.652 285.373C450.528 286.643 449.196 288.23 447.657 290.134C446.177 291.986 444.697 293.97 443.217 296.086C441.738 298.149 440.495 300.16 439.488 302.117C438.541 304.022 438.068 305.662 438.068 307.037C438.068 307.989 438.304 308.677 438.778 309.1C438.956 309.259 439.044 309.391 439.044 309.497C439.044 309.762 438.719 309.841 438.068 309.735C436.706 309.523 435.375 309.312 434.072 309.1C432.77 308.836 431.675 308.333 430.787 307.593C429.958 306.799 429.544 305.503 429.544 303.704C429.544 302.276 429.958 300.556 430.787 298.546C431.616 296.483 432.592 294.367 433.717 292.198C434.842 290.029 435.818 288.018 436.647 286.167C436.825 285.744 437.121 285.109 437.535 284.262C437.949 283.363 438.364 282.437 438.778 281.485C439.252 280.48 439.607 279.607 439.843 278.866C440.08 278.073 440.139 277.544 440.021 277.279C439.903 277.067 439.843 276.909 439.843 276.803C439.843 276.168 440.317 275.851 441.264 275.851C442.211 275.851 443.158 275.983 444.105 276.247C445.111 276.459 445.999 276.829 446.769 277.358C447.598 277.887 448.249 278.522 448.722 279.263C449.196 280.004 449.432 280.824 449.432 281.723C449.432 282.305 449.284 282.993 448.989 283.786C448.87 284.156 448.604 284.659 448.189 285.294C447.834 285.876 447.45 286.511 447.035 287.198C446.621 287.886 446.177 288.6 445.703 289.341C445.289 290.082 445.141 290.478 445.259 290.531C446.739 288.203 448.337 286.034 450.054 284.024C451.83 281.961 453.428 280.189 454.848 278.707C456.328 277.226 457.305 276.142 457.778 275.454C458.252 275.136 459.021 274.978 460.087 274.978C461.33 274.978 462.603 275.322 463.905 276.009C465.207 276.697 465.858 277.94 465.858 279.739C465.858 281.22 465.266 283.019 464.082 285.135C461.537 289.473 459.584 293.388 458.222 296.88C456.861 300.318 456.18 302.858 456.18 304.498C456.18 305.662 456.535 306.243 457.246 306.243C458.074 306.243 459.021 305.767 460.087 304.815C461.152 303.863 463.106 301.403 463.106 301.403C472.315 287.198 471.852 274.152 471.39 273.047C470.928 271.942 476.939 277.359 476.939 277.359L482.026 281.723C485.166 293.145 468.782 310.053 454.671 310.053Z" stroke="#5D140E" stroke-width="4" mask="url(#path-17-outside-3_85_3487)"/>
<path d="M486.41 296.087C486.41 307.739 477.237 318.911 461 327.318C444.889 335.66 422.458 340.894 397.544 340.894C372.63 340.894 350.199 335.66 334.088 327.318C317.851 318.911 308.678 307.739 308.678 296.087C308.678 284.435 317.851 273.264 334.088 264.857C350.199 256.515 372.63 251.281 397.544 251.281C422.458 251.281 444.889 256.515 461 264.857C477.237 273.264 486.41 284.435 486.41 296.087Z" stroke="#5D140E" stroke-width="5"/>
<rect x="649.133" y="193.258" width="678.853" height="471.758" fill="#FFC87E" stroke="#5D140E" stroke-width="5"/>
<rect x="679.239" y="223.364" width="614.234" height="415.071" fill="#8BA2A3"/>
<rect x="679.239" y="223.364" width="579.865" height="371.889" fill="#B1D0D1"/>
<mask id="path-22-inside-4_85_3487" fill="white">
<path fill-rule="evenodd" clip-rule="evenodd" d="M1311.1 208.384H666.021V649.892H1311.1V208.384ZM1288.22 231.296H689.782V626.979H1288.22V231.296Z"/>
</mask>
<path fill-rule="evenodd" clip-rule="evenodd" d="M1311.1 208.384H666.021V649.892H1311.1V208.384ZM1288.22 231.296H689.782V626.979H1288.22V231.296Z" fill="#FFF2B5"/>
<path d="M666.021 208.384V203.384H661.021V208.384H666.021ZM1311.1 208.384H1316.1V203.384H1311.1V208.384ZM666.021 649.892H661.021V654.892H666.021V649.892ZM1311.1 649.892V654.892H1316.1V649.892H1311.1ZM689.782 231.296V226.296H684.782V231.296H689.782ZM1288.22 231.296H1293.22V226.296H1288.22V231.296ZM689.782 626.979H684.782V631.979H689.782V626.979ZM1288.22 626.979V631.979H1293.22V626.979H1288.22ZM666.021 213.384H1311.1V203.384H666.021V213.384ZM671.021 649.892V208.384H661.021V649.892H671.021ZM1311.1 644.892H666.021V654.892H1311.1V644.892ZM1306.1 208.384V649.892H1316.1V208.384H1306.1ZM689.782 236.296H1288.22V226.296H689.782V236.296ZM694.782 626.979V231.296H684.782V626.979H694.782ZM1288.22 621.979H689.782V631.979H1288.22V621.979ZM1283.22 231.296V626.979H1293.22V231.296H1283.22Z" fill="#5D140E" mask="url(#path-22-inside-4_85_3487)"/>
<path d="M777.237 771.694C814.163 754.276 791.461 795.499 775.059 814.369C741.964 816.11 676.298 822.468 659.228 795.644C637.89 762.114 645.293 742.954 666.631 759.937C652.696 708.552 681.872 737.728 690.145 746.002C683.613 679.812 716.708 722.923 731.949 737.728C748.061 692.876 760.689 716.39 764.173 747.743C797.703 718.132 799.88 746.002 777.237 771.694Z" fill="#DCD8B0" stroke="#5D140E" stroke-width="5"/>
<path d="M773.753 761.243C803.713 748.005 785.51 799.127 773.753 818.288C750.674 831.352 672.292 826.997 655.744 801.306C639.197 775.614 650.519 766.034 658.357 774.307C649.212 732.068 667.065 742.953 677.952 755.147C671.42 717.697 696.241 730.761 707.563 738.6C717.144 703.328 735.869 723.794 739.352 737.293C744.577 727.713 755.899 733.373 755.899 740.776C782.898 727.277 780.72 741.212 773.753 761.243Z" fill="#8BA38E" stroke="#5D140E" stroke-width="5"/>
<path d="M730.245 785.132C758.115 758.308 762.469 782.955 753.325 816.921C738.376 824.188 702.496 821.461 685.355 820.029C661.84 761.243 690.619 775.117 701.941 789.487C704.989 752.037 720.666 772.939 730.245 785.132Z" fill="#648B7F"/>
<path fill-rule="evenodd" clip-rule="evenodd" d="M791.608 803.047H758.344H758.344H681.701H677.704H644.44L677.704 1085.05H758.344L791.608 803.047Z" fill="#9A5752"/>
<path d="M791.608 803.047V800.547C792.322 800.547 793.002 800.852 793.476 801.386C793.951 801.92 794.174 802.631 794.091 803.34L791.608 803.047ZM644.44 803.047L641.957 803.34C641.873 802.631 642.097 801.92 642.571 801.386C643.046 800.852 643.726 800.547 644.44 800.547V803.047ZM677.704 1085.05V1087.55C676.436 1087.55 675.369 1086.6 675.221 1085.34L677.704 1085.05ZM758.344 1085.05L760.827 1085.34C760.678 1086.6 759.611 1087.55 758.344 1087.55V1085.05ZM758.344 800.547H791.608V805.547H758.344V800.547ZM758.344 800.547H758.344V805.547H758.344V800.547ZM681.701 800.547H758.344V805.547H681.701V800.547ZM677.704 800.547H681.701V805.547H677.704V800.547ZM644.44 800.547H677.704V805.547H644.44V800.547ZM675.221 1085.34L641.957 803.34L646.923 802.754L680.187 1084.75L675.221 1085.34ZM758.344 1087.55H677.704V1082.55H758.344V1087.55ZM794.091 803.34L760.827 1085.34L755.861 1084.75L789.125 802.754L794.091 803.34Z" fill="#5D140E"/>
<path d="M1291.22 771.694C1328.15 754.276 1305.45 795.499 1289.05 814.369C1255.95 816.11 1190.28 822.468 1173.21 795.644C1151.88 762.114 1159.28 742.954 1180.62 759.937C1166.68 708.552 1195.86 737.728 1204.13 746.002C1197.6 679.812 1230.69 722.923 1245.94 737.728C1262.05 692.876 1274.68 716.39 1278.16 747.743C1311.69 718.132 1313.87 746.002 1291.22 771.694Z" fill="#DCD8B0" stroke="#5D140E" stroke-width="5"/>
<path d="M1287.74 761.243C1317.7 748.005 1299.5 799.127 1287.74 818.288C1264.66 831.352 1186.28 826.997 1169.73 801.306C1153.18 775.614 1164.51 766.034 1172.34 774.307C1163.2 732.068 1181.05 742.953 1191.94 755.147C1185.41 717.697 1210.23 730.761 1221.55 738.6C1231.13 703.328 1249.86 723.794 1253.34 737.293C1258.56 727.713 1269.89 733.373 1269.89 740.776C1296.88 727.277 1294.71 741.212 1287.74 761.243Z" fill="#8BA38E" stroke="#5D140E" stroke-width="5"/>
<path d="M1244.23 785.132C1272.1 758.308 1276.46 782.955 1267.31 816.921C1252.36 824.188 1216.48 821.461 1199.34 820.029C1175.83 761.243 1204.61 775.117 1215.93 789.487C1218.98 752.037 1234.65 772.939 1244.23 785.132Z" fill="#648B7F"/>
<path fill-rule="evenodd" clip-rule="evenodd" d="M1305.59 803.047H1272.33H1272.33H1195.69H1191.69H1158.43L1191.69 1085.05H1272.33L1305.59 803.047Z" fill="#9A5752"/>
<path d="M1305.59 803.047V800.547C1306.31 800.547 1306.99 800.852 1307.46 801.386C1307.94 801.92 1308.16 802.631 1308.08 803.34L1305.59 803.047ZM1158.43 803.047L1155.94 803.34C1155.86 802.631 1156.08 801.92 1156.56 801.386C1157.03 800.852 1157.71 800.547 1158.43 800.547V803.047ZM1191.69 1085.05V1087.55C1190.42 1087.55 1189.36 1086.6 1189.21 1085.34L1191.69 1085.05ZM1272.33 1085.05L1274.81 1085.34C1274.66 1086.6 1273.6 1087.55 1272.33 1087.55V1085.05ZM1272.33 800.547H1305.59V805.547H1272.33V800.547ZM1272.33 800.547H1272.33V805.547H1272.33V800.547ZM1195.69 800.547H1272.33V805.547H1195.69V800.547ZM1191.69 800.547H1195.69V805.547H1191.69V800.547ZM1158.43 800.547H1191.69V805.547H1158.43V800.547ZM1189.21 1085.34L1155.94 803.34L1160.91 802.754L1194.17 1084.75L1189.21 1085.34ZM1272.33 1087.55H1191.69V1082.55H1272.33V1087.55ZM1308.08 803.34L1274.81 1085.34L1269.85 1084.75L1303.11 802.754L1308.08 803.34Z" fill="#5D140E"/>
<path d="M159.797 771.47C196.723 754.052 174.021 795.275 157.619 814.145C124.524 815.887 58.8577 822.244 41.7878 795.42C20.4505 761.89 27.8532 742.73 49.1906 759.713C35.2558 708.329 64.4316 737.504 72.7053 745.778C66.1732 679.589 99.2681 722.699 114.509 737.504C130.621 692.652 143.249 716.167 146.733 747.52C180.263 717.909 182.44 745.778 159.797 771.47Z" fill="#DCD8B0" stroke="#5D140E" stroke-width="5"/>
<path d="M156.313 761.019C186.273 747.782 168.07 798.904 156.313 818.064C133.234 831.128 54.8516 826.773 38.3044 801.082C21.7571 775.391 33.0789 765.81 40.9171 774.084C31.7725 731.844 49.6254 742.73 60.5122 754.923C53.9804 717.473 78.8014 730.537 90.1232 738.376C99.704 703.104 118.429 723.57 121.912 737.069C127.138 727.489 138.459 733.15 138.459 740.553C165.458 727.054 163.281 740.988 156.313 761.019Z" fill="#8BA38E" stroke="#5D140E" stroke-width="5"/>
<path d="M112.805 784.908C140.675 758.084 145.029 782.731 135.885 816.697C120.936 823.964 85.0557 821.237 67.9149 819.806C44.4002 761.019 73.1791 774.893 84.501 789.263C87.5492 751.814 103.226 772.716 112.805 784.908Z" fill="#648B7F"/>
<path fill-rule="evenodd" clip-rule="evenodd" d="M174 803H141H64H60H27L60 1084.74V1085H60.0308H141L174 803Z" fill="#9A5752"/>
<path d="M174 803V800.5C174.714 800.5 175.393 800.805 175.868 801.338C176.342 801.871 176.566 802.582 176.483 803.291L174 803ZM27 803L24.517 803.291C24.4339 802.582 24.6578 801.871 25.1322 801.338C25.6066 800.805 26.2863 800.5 27 800.5V803ZM60 1084.74L62.483 1084.45C62.4943 1084.54 62.5 1084.64 62.5 1084.74H60ZM60 1085V1087.5C58.6193 1087.5 57.5 1086.38 57.5 1085H60ZM141 1085L143.483 1085.29C143.336 1086.55 142.268 1087.5 141 1087.5V1085ZM141 800.5H174V805.5H141V800.5ZM64 800.5H141V805.5H64V800.5ZM60 800.5H64V805.5H60V800.5ZM27 800.5H60V805.5H27V800.5ZM57.517 1085.03L24.517 803.291L29.483 802.709L62.483 1084.45L57.517 1085.03ZM57.5 1085V1084.74H62.5V1085H57.5ZM60.0308 1087.5H60V1082.5H60.0308V1087.5ZM141 1087.5H60.0308V1082.5H141V1087.5ZM176.483 803.291L143.483 1085.29L138.517 1084.71L171.517 802.709L176.483 803.291Z" fill="#5D140E"/>
<path d="M758.5 444.5H1051.21L1143.09 1046.5H758.5V444.5Z" fill="#9A5752" stroke="#5D140E" stroke-width="5"/>
<rect x="758.5" y="444.5" width="293" height="602" fill="#B18783" stroke="#5D140E" stroke-width="5"/>
<rect x="772.5" y="463.5" width="264" height="604" fill="#FBEFEF" stroke="#5D140E" stroke-width="3"/>
</g>
<defs>
<clipPath id="clip0_85_3487">
<rect width="1440" height="1024" fill="white"/>
</clipPath>
</defs>
</svg>
