<svg width="1440" height="1161" viewBox="0 0 1440 1161" fill="none" xmlns="http://www.w3.org/2000/svg">
<g clip-path="url(#clip0_106_4078)">
<mask id="path-1-inside-1_106_4078" fill="white">
<path d="M193 26H649V1247H193V26Z"/>
</mask>
<path d="M193 26H649V1247H193V26Z" fill="#8E92CC" stroke="#170E5D" stroke-width="10" mask="url(#path-1-inside-1_106_4078)"/>
<rect x="245.5" y="31.5" width="355" height="1213" fill="#686DB3" stroke="#170E5D" stroke-width="5"/>
<rect x="276.883" y="154.046" width="294.887" height="283.739" fill="#FFC87E" stroke="#170E5D" stroke-width="5"/>
<rect x="278.841" y="157.121" width="266.443" height="254.18" fill="#FFF2B5"/>
<path d="M278.285 296.473C278.285 296.473 367.294 296.473 424.326 296.473M570.368 296.473C570.368 296.473 481.359 296.473 424.326 296.473M424.326 296.473C424.326 245.97 424.326 156.562 424.326 156.562V436.383" stroke="#170E5D" stroke-width="5"/>
<mask id="path-6-inside-2_106_4078" fill="white">
<path fill-rule="evenodd" clip-rule="evenodd" d="M629 26H193V1229H629V26ZM594 65H228V1182H594V65Z"/>
</mask>
<path fill-rule="evenodd" clip-rule="evenodd" d="M629 26H193V1229H629V26ZM594 65H228V1182H594V65Z" fill="#8E92CC"/>
<path d="M193 26V21H188V26H193ZM629 26H634V21H629V26ZM193 1229H188V1234H193V1229ZM629 1229V1234H634V1229H629ZM228 65V60H223V65H228ZM594 65H599V60H594V65ZM228 1182H223V1187H228V1182ZM594 1182V1187H599V1182H594ZM193 31H629V21H193V31ZM198 1229V26H188V1229H198ZM629 1224H193V1234H629V1224ZM624 26V1229H634V26H624ZM228 70H594V60H228V70ZM233 1182V65H223V1182H233ZM594 1177H228V1187H594V1177ZM589 65V1182H599V65H589Z" fill="#170E5D" mask="url(#path-6-inside-2_106_4078)"/>
<rect x="473.091" y="496.298" width="99.7933" height="117.63" fill="#686DB3" stroke="#170E5D" stroke-width="5"/>
<rect x="302.523" y="681.356" width="248.065" height="110.942" stroke="#170E5D" stroke-width="5"/>
<rect x="289.147" y="669.094" width="274.82" height="258.098" stroke="#170E5D" stroke-width="5"/>
<rect x="302.523" y="805.104" width="248.065" height="110.942" stroke="#170E5D" stroke-width="5"/>
<circle cx="423.929" cy="137.613" r="7.24635" fill="#170E5D"/>
<mask id="path-13-inside-3_106_4078" fill="white">
<path d="M522.723 236.142L424.751 334.114L326.779 236.142L424.751 138.169L522.723 236.142Z"/>
</mask>
<path d="M424.751 138.169L428.287 134.634L424.751 131.098L421.215 134.634L424.751 138.169ZM330.314 239.677L428.287 141.705L421.215 134.634L323.243 232.606L330.314 239.677ZM421.215 141.705L519.188 239.677L526.259 232.606L428.287 134.634L421.215 141.705Z" fill="#170E5D" mask="url(#path-13-inside-3_106_4078)"/>
<path d="M539.825 266.374C539.825 283.062 527.065 298.406 505.908 309.636C484.795 320.843 455.559 327.804 423.211 327.804C390.863 327.804 361.628 320.843 340.515 309.636C319.358 298.406 306.598 283.062 306.598 266.374C306.598 249.686 319.358 234.343 340.515 223.113C361.628 211.906 390.863 204.944 423.211 204.944C455.559 204.944 484.795 211.906 505.908 223.113C527.065 234.343 539.825 249.686 539.825 266.374Z" fill="#FFC87E" stroke="#170E5D" stroke-width="2"/>
<ellipse cx="423.768" cy="267.49" rx="96.9896" ry="45.7077" fill="#686DB3"/>
<path d="M530.521 266.375C530.521 280.664 519.284 294.223 499.709 304.358C480.26 314.428 453.218 320.73 423.211 320.73C393.204 320.73 366.162 314.428 346.713 304.358C327.138 294.223 315.901 280.664 315.901 266.375C315.901 252.085 327.138 238.526 346.713 228.391C366.162 218.321 393.204 212.019 423.211 212.019C453.218 212.019 480.26 218.321 499.709 228.391C519.284 238.526 530.521 252.085 530.521 266.375Z" stroke="#170E5D" stroke-width="5"/>
<path d="M369.56 285.584C367.288 285.584 365.464 284.784 364.088 283.184C362.712 281.552 362.024 279.376 362.024 276.656C362.024 275.792 362.136 274.912 362.36 274.016C362.616 273.12 362.92 272.288 363.272 271.52C363.08 271.232 362.92 270.864 362.792 270.416C362.696 269.936 362.648 269.376 362.648 268.736C362.648 266.656 363.016 264.752 363.752 263.024C364.488 261.264 365.48 259.744 366.728 258.464C367.976 257.184 369.352 256.192 370.856 255.488C372.36 254.784 373.88 254.432 375.416 254.432C378.04 254.432 380.184 255.312 381.848 257.072C383.544 258.832 384.392 261.568 384.392 265.28C384.392 267.136 384.104 269.024 383.528 270.944C382.952 272.864 382.168 274.704 381.176 276.464C380.216 278.192 379.096 279.744 377.816 281.12C376.568 282.496 375.224 283.584 373.784 284.384C372.376 285.184 370.968 285.584 369.56 285.584ZM368.792 269.36C368.952 269.712 369.032 270.128 369.032 270.608C369.032 271.088 368.936 271.584 368.744 272.096C368.552 272.608 368.36 273.296 368.168 274.16C367.976 274.992 367.88 276.192 367.88 277.76C367.88 278.176 367.928 278.528 368.024 278.816C368.152 279.072 368.424 279.2 368.84 279.2C369.928 279.2 370.952 278.848 371.912 278.144C372.904 277.44 373.784 276.512 374.552 275.36C375.352 274.208 376.024 272.928 376.568 271.52C377.144 270.08 377.576 268.624 377.864 267.152C378.184 265.648 378.344 264.256 378.344 262.976C378.344 262.144 378.184 261.568 377.864 261.248C377.544 260.928 376.984 260.768 376.184 260.768C375.096 260.768 373.976 261.12 372.824 261.824C371.704 262.496 370.76 263.424 369.992 264.608C369.224 265.76 368.84 267.072 368.84 268.544C368.84 268.832 368.824 269.104 368.792 269.36ZM390.28 299.408C389.384 299.408 388.68 299.088 388.168 298.448C387.688 297.84 387.448 296.896 387.448 295.616C387.448 293.856 387.608 291.76 387.928 289.328C388.248 286.896 388.68 284.32 389.224 281.6C389.768 278.88 390.36 276.208 391 273.584C391.768 270.576 392.52 267.84 393.256 265.376C394.024 262.912 394.792 260.944 395.56 259.472C396.36 257.968 397.16 257.216 397.96 257.216C398.696 257.216 399.336 257.488 399.88 258.032C400.456 258.544 400.744 259.312 400.744 260.336C400.744 261.072 400.552 262.128 400.168 263.504C399.784 264.848 399.304 266.528 398.728 268.544C399.816 266.752 400.936 264.992 402.088 263.264C403.272 261.536 404.472 259.968 405.688 258.56C406.904 257.152 408.088 256.032 409.24 255.2C410.392 254.368 411.48 253.952 412.504 253.952C413.72 253.952 414.792 254.304 415.72 255.008C416.68 255.712 417.432 256.672 417.976 257.888C418.52 259.104 418.792 260.48 418.792 262.016C418.792 264.864 418.28 267.632 417.256 270.32C416.232 272.976 414.808 275.36 412.984 277.472C411.192 279.584 409.096 281.264 406.696 282.512C404.296 283.728 401.704 284.336 398.92 284.336C398.12 284.336 397.384 284.256 396.712 284.096C396.072 283.968 395.48 283.808 394.936 283.616C394.552 285.664 394.184 287.76 393.832 289.904C393.512 292.08 393.176 294.368 392.824 296.768C392.44 298.528 391.592 299.408 390.28 299.408ZM412.984 259.616C412.28 259.616 411.384 260.096 410.296 261.056C409.24 262.016 408.088 263.28 406.84 264.848C405.592 266.384 404.328 268.064 403.048 269.888C401.8 271.68 400.6 273.44 399.448 275.168C398.328 276.896 397.368 278.4 396.568 279.68C399 279.424 401.144 278.784 403 277.76C404.856 276.704 406.44 275.424 407.752 273.92C409.064 272.416 410.12 270.832 410.92 269.168C411.752 267.472 412.36 265.824 412.744 264.224C413.128 262.624 413.32 261.232 413.32 260.048C413.32 259.76 413.208 259.616 412.984 259.616ZM430.984 285.632C429 285.632 427.4 284.944 426.184 283.568C424.968 282.16 424.36 279.904 424.36 276.8C424.36 274.816 424.584 272.832 425.032 270.848C425.512 268.832 426.168 266.928 427 265.136C427.864 263.312 428.856 261.696 429.976 260.288C431.128 258.88 432.392 257.776 433.768 256.976C435.144 256.144 436.568 255.728 438.04 255.728C440.536 255.728 442.488 256.4 443.896 257.744C445.304 259.088 446.008 260.8 446.008 262.88C446.008 264.48 445.56 265.936 444.664 267.248C443.8 268.528 442.616 269.68 441.112 270.704C439.608 271.728 437.928 272.656 436.072 273.488C434.216 274.32 432.312 275.072 430.36 275.744C430.2 276.896 430.12 277.92 430.12 278.816C430.12 279.36 430.424 279.632 431.032 279.632C432.472 279.632 434.008 279.408 435.64 278.96C437.304 278.48 438.984 277.872 440.68 277.136C442.376 276.368 444.008 275.584 445.576 274.784C447.144 273.952 448.568 273.168 449.848 272.432C451.16 271.664 452.232 271.056 453.064 270.608C453.928 270.128 454.488 269.888 454.744 269.888C455.448 269.888 455.96 270.096 456.28 270.512C456.6 270.928 456.76 271.376 456.76 271.856C456.76 272.08 456.328 272.576 455.464 273.344C454.632 274.112 453.48 275.024 452.008 276.08C450.568 277.104 448.936 278.176 447.112 279.296C445.32 280.384 443.448 281.424 441.496 282.416C439.576 283.376 437.704 284.144 435.88 284.72C434.088 285.328 432.456 285.632 430.984 285.632ZM431.176 271.472C432.488 270.704 433.784 269.904 435.064 269.072C436.376 268.208 437.464 267.248 438.328 266.192C439.192 265.104 439.624 263.84 439.624 262.4C439.624 261.984 439.512 261.712 439.288 261.584C439.064 261.424 438.744 261.344 438.328 261.344C437.208 261.344 436.184 261.84 435.256 262.832C434.36 263.824 433.56 265.104 432.856 266.672C432.184 268.208 431.624 269.808 431.176 271.472ZM458.044 284C457.276 284 456.508 283.744 455.74 283.232C455.004 282.688 454.396 281.92 453.916 280.928C453.436 279.904 453.196 278.672 453.196 277.232C453.196 275.312 453.452 273.264 453.964 271.088C454.508 268.912 455.164 266.736 455.932 264.56C456.7 262.384 457.452 260.336 458.188 258.416C458.54 257.488 458.972 256.864 459.484 256.544C459.996 256.192 460.668 256.016 461.5 256.016C463.388 256.016 464.332 256.96 464.332 258.848C464.332 259.168 464.188 259.792 463.9 260.72C463.612 261.616 463.228 262.72 462.748 264.032C462.3 265.344 461.82 266.768 461.308 268.304C460.828 269.808 460.38 271.344 459.964 272.912C459.58 274.448 459.276 275.904 459.052 277.28C459.788 276.16 460.604 274.768 461.5 273.104C462.428 271.408 463.404 269.632 464.428 267.776C465.484 265.92 466.54 264.192 467.596 262.592C468.652 260.96 469.692 259.632 470.716 258.608C471.74 257.584 472.716 257.072 473.644 257.072C474.444 257.072 475.196 257.232 475.9 257.552C476.636 257.84 477.276 258.416 477.82 259.28C478.364 260.112 478.78 261.312 479.068 262.88C479.388 264.448 479.548 266.512 479.548 269.072C479.548 270.352 479.66 271.6 479.884 272.816C480.14 274 480.556 274.992 481.132 275.792C481.708 276.56 482.524 276.944 483.58 276.944C485.404 276.944 487.036 276.608 488.476 275.936C489.916 275.264 491.18 274.48 492.268 273.584C493.356 272.688 494.268 271.904 495.004 271.232C495.452 270.784 495.836 270.432 496.156 270.176C496.508 269.92 496.796 269.792 497.02 269.792C497.692 269.792 498.172 269.968 498.46 270.32C498.78 270.672 498.94 271.152 498.94 271.76C498.94 272.08 498.668 272.672 498.124 273.536C497.58 274.4 496.812 275.392 495.82 276.512C494.86 277.6 493.756 278.656 492.508 279.68C491.26 280.704 489.916 281.552 488.476 282.224C487.036 282.896 485.564 283.232 484.06 283.232C481.532 283.232 479.436 282.784 477.772 281.888C476.14 280.96 474.924 279.424 474.124 277.28C473.324 275.104 472.924 272.144 472.924 268.4C472.924 268.304 472.924 268.144 472.924 267.92C472.924 266.928 472.908 266.048 472.876 265.28C472.876 264.512 472.828 263.888 472.732 263.408C472.188 264.4 471.532 265.584 470.764 266.96C470.028 268.336 469.228 269.808 468.364 271.376C467.5 272.912 466.604 274.432 465.676 275.936C464.748 277.408 463.82 278.752 462.892 279.968C461.996 281.184 461.132 282.16 460.3 282.896C459.468 283.632 458.716 284 458.044 284Z" fill="#FFF2B5"/>
<rect x="692.714" y="117.488" width="727.639" height="505.77" fill="#8E92CC" stroke="#170E5D" stroke-width="5"/>
<rect x="725.147" y="149.921" width="658.053" height="444.681" fill="#FFC87E"/>
<g clip-path="url(#clip1_106_4078)">
<rect x="725" y="150" width="658" height="398" fill="#3B3F90"/>
<path d="M1322 133L1322 565" stroke="#262A67" stroke-width="56"/>
<path d="M1205 133L1205 565" stroke="#262A67" stroke-width="56"/>
<path d="M1088 124L1088 556" stroke="#262A67" stroke-width="56"/>
<path d="M971 124L971 556" stroke="#262A67" stroke-width="56"/>
<path d="M858 124L858 556" stroke="#262A67" stroke-width="56"/>
<path d="M741 124L741 556" stroke="#262A67" stroke-width="56"/>
</g>
<rect x="727.5" y="152.5" width="653" height="393" stroke="#170E5D" stroke-width="5"/>
<mask id="path-30-inside-4_106_4078" fill="white">
<path fill-rule="evenodd" clip-rule="evenodd" d="M1402.08 133.871H710.985V606.876H1402.08V133.871ZM1377.57 158.419H736.442V582.33H1377.57V158.419Z"/>
</mask>
<path fill-rule="evenodd" clip-rule="evenodd" d="M1402.08 133.871H710.985V606.876H1402.08V133.871ZM1377.57 158.419H736.442V582.33H1377.57V158.419Z" fill="#8E92CC"/>
<path d="M710.985 133.871V128.871H705.985V133.871H710.985ZM1402.08 133.871H1407.08V128.871H1402.08V133.871ZM710.985 606.876H705.985V611.876H710.985V606.876ZM1402.08 606.876V611.876H1407.08V606.876H1402.08ZM736.442 158.419V153.419H731.442V158.419H736.442ZM1377.57 158.419H1382.57V153.419H1377.57V158.419ZM736.442 582.33H731.442V587.33H736.442V582.33ZM1377.57 582.33V587.33H1382.57V582.33H1377.57ZM710.985 138.871H1402.08V128.871H710.985V138.871ZM715.985 606.876V133.871H705.985V606.876H715.985ZM1402.08 601.876H710.985V611.876H1402.08V601.876ZM1397.08 133.871V606.876H1407.08V133.871H1397.08ZM736.442 163.419H1377.57V153.419H736.442V163.419ZM741.442 582.33V158.419H731.442V582.33H741.442ZM1377.57 577.33H736.442V587.33H1377.57V577.33ZM1372.57 158.419V582.33H1382.57V158.419H1372.57Z" fill="#170E5D" mask="url(#path-30-inside-4_106_4078)"/>
<path d="M909.45 769.974C956.291 747.879 927.494 800.171 906.688 824.107C864.708 826.316 781.411 834.381 759.758 800.355C732.691 757.822 742.082 733.518 769.148 755.06C751.472 689.88 788.481 726.888 798.976 737.384C790.69 653.424 832.671 708.109 852.004 726.888C872.441 669.995 888.46 699.822 892.879 739.593C935.412 702.032 938.173 737.384 909.45 769.974Z" fill="#434E65" stroke="#170E5D" stroke-width="5"/>
<path d="M905.032 756.717C943.035 739.925 919.945 804.773 905.032 829.078C875.756 845.649 776.329 840.125 755.339 807.536C734.349 774.947 748.71 762.794 758.653 773.289C747.053 719.709 769.699 733.517 783.509 748.984C775.224 701.479 806.709 718.051 821.07 727.994C833.223 683.252 856.975 709.213 861.394 726.337C868.023 714.185 882.384 721.365 882.384 730.755C916.631 713.632 913.87 731.308 905.032 756.717Z" fill="#434E65" stroke="#170E5D" stroke-width="5"/>
<path d="M849.842 787.02C885.194 752.994 890.718 784.259 879.118 827.344C860.156 836.562 814.642 833.103 792.899 831.287C763.071 756.717 799.577 774.316 813.938 792.544C817.805 745.04 837.69 771.554 849.842 787.02Z" fill="#35435F"/>
<path fill-rule="evenodd" clip-rule="evenodd" d="M893 809.636H783V809.745H741L783 1165.81V1167.64H893V1103.75L927.681 809.745H893V809.636Z" fill="#262A67"/>
<path d="M783 809.636H780.5C780.5 808.255 781.619 807.136 783 807.136V809.636ZM893 809.636V807.136C894.381 807.136 895.5 808.255 895.5 809.636H893ZM783 809.745H785.5C785.5 811.126 784.381 812.245 783 812.245V809.745ZM741 809.745L738.517 810.038C738.433 809.329 738.657 808.618 739.131 808.084C739.606 807.55 740.286 807.245 741 807.245V809.745ZM783 1165.81L785.483 1165.51C785.494 1165.61 785.5 1165.71 785.5 1165.81H783ZM783 1167.64V1170.14C781.619 1170.14 780.5 1169.02 780.5 1167.64H783ZM893 1167.64H895.5C895.5 1169.02 894.381 1170.14 893 1170.14V1167.64ZM893 1103.75H890.5C890.5 1103.66 890.506 1103.56 890.517 1103.46L893 1103.75ZM927.681 809.745V807.245C928.395 807.245 929.075 807.55 929.549 808.084C930.024 808.618 930.247 809.329 930.163 810.038L927.681 809.745ZM893 809.745V812.245C891.619 812.245 890.5 811.126 890.5 809.745H893ZM783 807.136H893V812.136H783V807.136ZM780.5 809.745V809.636H785.5V809.745H780.5ZM741 807.245H783V812.245H741V807.245ZM780.517 1166.1L738.517 810.038L743.483 809.452L785.483 1165.51L780.517 1166.1ZM780.5 1167.64V1165.81H785.5V1167.64H780.5ZM893 1170.14H783V1165.14H893V1170.14ZM895.5 1103.75V1167.64H890.5V1103.75H895.5ZM930.163 810.038L895.483 1104.05L890.517 1103.46L925.198 809.452L930.163 810.038ZM893 807.245H927.681V812.245H893V807.245ZM895.5 809.636V809.745H890.5V809.636H895.5Z" fill="#170E5D"/>
<mask id="path-37-inside-5_106_4078" fill="white">
<path d="M958 453H1255.36L1348 1247H958V453Z"/>
</mask>
<path d="M958 453H1255.36L1348 1247H958V453Z" fill="#615AA9" stroke="#170E5D" stroke-width="10" mask="url(#path-37-inside-5_106_4078)"/>
<rect x="853.5" y="455.5" width="399" height="748" fill="#615AA9" stroke="#170E5D" stroke-width="5"/>
<rect x="874.5" y="472.5" width="360" height="772" fill="#262A67" stroke="#170E5D" stroke-width="5"/>
<path d="M162.797 746.47C199.723 729.052 177.021 770.275 160.619 789.145C127.524 790.887 61.8577 797.244 44.7878 770.42C23.4505 736.89 30.8532 717.73 52.1906 734.713C38.2558 683.329 67.4316 712.504 75.7053 720.778C69.1732 654.589 102.268 697.699 117.509 712.504C133.621 667.652 146.249 691.167 149.733 722.52C183.263 692.909 185.44 720.778 162.797 746.47Z" fill="#434E65" stroke="#170E5D" stroke-width="5"/>
<path d="M159.313 736.019C189.273 722.782 171.07 773.904 159.313 793.064C136.234 806.128 57.8516 801.773 41.3044 776.082C24.7571 750.391 36.0789 740.81 43.9171 749.084C34.7725 706.844 52.6254 717.73 63.5122 729.923C56.9804 692.473 81.8014 705.537 93.1232 713.376C102.704 678.104 121.429 698.57 124.912 712.069C130.138 702.489 141.459 708.15 141.459 715.553C168.458 702.054 166.281 715.988 159.313 736.019Z" fill="#434E65" stroke="#170E5D" stroke-width="5"/>
<path d="M115.805 759.908C143.675 733.084 148.029 757.731 138.885 791.697C123.936 798.964 88.0557 796.237 70.9149 794.806C47.4002 736.019 76.1791 749.893 87.501 764.263C90.5492 726.814 106.226 747.716 115.805 759.908Z" fill="#35435F"/>
<path fill-rule="evenodd" clip-rule="evenodd" d="M177 778H144H67H63H30L63 1246.56V1247H63.0308H144L177 778Z" fill="#262A67"/>
<path d="M177 778V775.5C177.694 775.5 178.356 775.788 178.829 776.295C179.302 776.803 179.543 777.484 179.494 778.175L177 778ZM30 778L27.5062 778.176C27.4575 777.484 27.6983 776.803 28.1712 776.295C28.6441 775.788 29.3064 775.5 30 775.5V778ZM63 1246.56L65.4938 1246.39C65.4979 1246.45 65.5 1246.5 65.5 1246.56H63ZM63 1247V1249.5C61.6193 1249.5 60.5 1248.38 60.5 1247H63ZM144 1247L146.494 1247.18C146.402 1248.48 145.313 1249.5 144 1249.5V1247ZM144 775.5H177V780.5H144V775.5ZM67 775.5H144V780.5H67V775.5ZM63 775.5H67V780.5H63V775.5ZM30 775.5H63V780.5H30V775.5ZM60.5062 1246.74L27.5062 778.176L32.4938 777.824L65.4938 1246.39L60.5062 1246.74ZM60.5 1247V1246.56H65.5V1247H60.5ZM63.0308 1249.5H63V1244.5H63.0308V1249.5ZM144 1249.5H63.0308V1244.5H144V1249.5ZM179.494 778.175L146.494 1247.18L141.506 1246.82L174.506 777.825L179.494 778.175Z" fill="#170E5D"/>
</g>
<defs>
<clipPath id="clip0_106_4078">
<rect width="1440" height="1161" fill="white"/>
</clipPath>
<clipPath id="clip1_106_4078">
<rect x="725" y="150" width="658" height="398" fill="white"/>
</clipPath>
</defs>
</svg>
