<svg width="1440" height="1024" viewBox="0 0 1440 1024" fill="none" xmlns="http://www.w3.org/2000/svg">
<g clip-path="url(#clip0_85_3487)">
<path d="M223 -210.5H618.962C634.15 -210.5 646.462 -198.188 646.462 -183V1117.08C646.462 1132.27 634.15 1144.58 618.962 1144.58H223C207.812 1144.58 195.5 1132.27 195.5 1117.08V-183C195.5 -198.188 207.812 -210.5 223 -210.5Z" fill="#FFC87E" stroke="#5D140E" stroke-width="5"/>
<rect x="245.472" y="-162.043" width="355.401" height="1306.38" fill="#B18783" stroke="#5D140E" stroke-width="5"/>
<rect x="276.883" y="154.046" width="294.887" height="283.739" fill="#8BA2A3" stroke="#5D140E" stroke-width="5"/>
<rect x="278.841" y="157.121" width="266.443" height="254.18" fill="#B1D0D1"/>
<path d="M278.285 296.473C278.285 296.473 367.294 296.473 424.326 296.473M570.368 296.473C570.368 296.473 481.359 296.473 424.326 296.473M424.326 296.473C424.326 245.97 424.326 156.562 424.326 156.562V436.383" stroke="#5D140E" stroke-width="5"/>
<mask id="path-6-inside-1_85_3487" fill="white">
<path fill-rule="evenodd" clip-rule="evenodd" d="M628.896 -199.371H193V1160.46H227.559V-199.371H594.336V1160.46H628.896V-199.371Z"/>
</mask>
<path fill-rule="evenodd" clip-rule="evenodd" d="M628.896 -199.371H193V1160.46H227.559V-199.371H594.336V1160.46H628.896V-199.371Z" fill="#FFF2B5"/>
<path d="M193 -199.371V-204.371H188V-199.371H193ZM628.896 -199.371H633.896V-204.371H628.896V-199.371ZM193 1160.46H188V1165.46H193V1160.46ZM227.559 1160.46V1165.46H232.559V1160.46H227.559ZM227.559 -199.371V-204.371H222.559V-199.371H227.559ZM594.336 -199.371H599.336V-204.371H594.336V-199.371ZM594.336 1160.46H589.336V1165.46H594.336V1160.46ZM628.896 1160.46V1165.46H633.896V1160.46H628.896ZM193 -194.371H628.896V-204.371H193V-194.371ZM198 1160.46V-199.371H188V1160.46H198ZM227.559 1155.46H193V1165.46H227.559V1155.46ZM232.559 1160.46V-199.371H222.559V1160.46H232.559ZM227.559 -194.371H594.336V-204.371H227.559V-194.371ZM589.336 -199.371V1160.46H599.336V-199.371H589.336ZM628.896 1155.46H594.336V1165.46H628.896V1155.46ZM623.896 -199.371V1160.46H633.896V-199.371H623.896Z" fill="#5D140E" mask="url(#path-6-inside-1_85_3487)"/>
<rect x="473.091" y="496.298" width="99.7933" height="117.63" fill="#F5D2CF" stroke="#5D140E" stroke-width="5"/>
<rect x="302.523" y="681.356" width="248.065" height="110.942" stroke="#5D140E" stroke-width="5"/>
<rect x="289.147" y="669.094" width="274.82" height="258.098" stroke="#5D140E" stroke-width="5"/>
<rect x="302.523" y="805.104" width="248.065" height="110.942" stroke="#5D140E" stroke-width="5"/>
<circle cx="423.929" cy="137.613" r="7.24635" fill="#5D140E"/>
<mask id="path-13-inside-2_85_3487" fill="white">
<path d="M522.723 236.142L424.751 334.114L326.779 236.142L424.751 138.169L522.723 236.142Z"/>
</mask>
<path d="M424.751 138.169L428.287 134.634L424.751 131.098L421.215 134.634L424.751 138.169ZM330.314 239.677L428.287 141.705L421.215 134.634L323.243 232.606L330.314 239.677ZM421.215 141.705L519.188 239.677L526.259 232.606L428.287 134.634L421.215 141.705Z" fill="#5D140E" mask="url(#path-13-inside-2_85_3487)"/>
<path d="M539.825 266.374C539.825 283.062 527.065 298.406 505.908 309.636C484.795 320.843 455.559 327.804 423.211 327.804C390.863 327.804 361.628 320.843 340.515 309.636C319.358 298.406 306.598 283.062 306.598 266.374C306.598 249.686 319.358 234.343 340.515 223.113C361.628 211.906 390.863 204.944 423.211 204.944C455.559 204.944 484.795 211.906 505.908 223.113C527.065 234.343 539.825 249.686 539.825 266.374Z" fill="#9B5853" stroke="#5D140E" stroke-width="2"/>
<ellipse cx="423.768" cy="267.49" rx="96.9896" ry="45.7077" fill="#B18783"/>
<path d="M530.521 266.375C530.521 280.664 519.284 294.223 499.709 304.358C480.26 314.428 453.218 320.73 423.211 320.73C393.204 320.73 366.162 314.428 346.713 304.358C327.138 294.223 315.901 280.664 315.901 266.375C315.901 252.085 327.138 238.526 346.713 228.391C366.162 218.321 393.204 212.019 423.211 212.019C453.218 212.019 480.26 218.321 499.709 228.391C519.284 238.526 530.521 252.085 530.521 266.375Z" stroke="#5D140E" stroke-width="5"/>
<rect x="692.714" y="117.488" width="727.639" height="505.77" fill="#FFC87E" stroke="#5D140E" stroke-width="5"/>
<rect x="725.147" y="149.921" width="658.053" height="444.681" fill="#8BA2A3"/>
<rect x="725.147" y="149.921" width="621.232" height="398.419" fill="#B1D0D1"/>
<mask id="path-21-inside-3_85_3487" fill="white">
<path fill-rule="evenodd" clip-rule="evenodd" d="M1402.08 133.871H710.985V606.876H1402.08V133.871ZM1377.57 158.419H736.442V582.33H1377.57V158.419Z"/>
</mask>
<path fill-rule="evenodd" clip-rule="evenodd" d="M1402.08 133.871H710.985V606.876H1402.08V133.871ZM1377.57 158.419H736.442V582.33H1377.57V158.419Z" fill="#FFF2B5"/>
<path d="M710.985 133.871V128.871H705.985V133.871H710.985ZM1402.08 133.871H1407.08V128.871H1402.08V133.871ZM710.985 606.876H705.985V611.876H710.985V606.876ZM1402.08 606.876V611.876H1407.08V606.876H1402.08ZM736.442 158.419V153.419H731.442V158.419H736.442ZM1377.57 158.419H1382.57V153.419H1377.57V158.419ZM736.442 582.33H731.442V587.33H736.442V582.33ZM1377.57 582.33V587.33H1382.57V582.33H1377.57ZM710.985 138.871H1402.08V128.871H710.985V138.871ZM715.985 606.876V133.871H705.985V606.876H715.985ZM1402.08 601.876H710.985V611.876H1402.08V601.876ZM1397.08 133.871V606.876H1407.08V133.871H1397.08ZM736.442 163.419H1377.57V153.419H736.442V163.419ZM741.442 582.33V158.419H731.442V582.33H741.442ZM1377.57 577.33H736.442V587.33H1377.57V577.33ZM1372.57 158.419V582.33H1382.57V158.419H1372.57Z" fill="#5D140E" mask="url(#path-21-inside-3_85_3487)"/>
<path d="M909.451 769.974C956.292 747.879 927.495 800.171 906.689 824.107C864.708 826.316 781.411 834.381 759.758 800.355C732.692 757.822 742.082 733.518 769.148 755.06C751.472 689.88 788.481 726.888 798.976 737.384C790.691 653.424 832.671 708.109 852.004 726.888C872.442 669.995 888.461 699.822 892.88 739.593C935.412 702.032 938.174 737.384 909.451 769.974Z" fill="#DCD8B0" stroke="#5D140E" stroke-width="5"/>
<path d="M905.032 756.717C943.035 739.925 919.946 804.773 905.032 829.078C875.756 845.649 776.329 840.125 755.339 807.536C734.349 774.947 748.711 762.794 758.653 773.289C747.054 719.709 769.7 733.517 783.51 748.984C775.224 701.479 806.709 718.051 821.071 727.994C833.224 683.252 856.976 709.213 861.395 726.337C868.023 714.185 882.385 721.365 882.385 730.755C916.632 713.632 913.87 731.308 905.032 756.717Z" fill="#8BA38E" stroke="#5D140E" stroke-width="5"/>
<path d="M849.843 787.02C885.195 752.994 890.719 784.259 879.119 827.344C860.157 836.562 814.643 833.103 792.9 831.287C763.072 756.717 799.578 774.316 813.939 792.544C817.806 745.04 837.691 771.554 849.843 787.02Z" fill="#648B7F"/>
<path fill-rule="evenodd" clip-rule="evenodd" d="M893 809.636H783V809.745H741L783 1165.81V1167.64H893V1103.75L927.681 809.745H893V809.636Z" fill="#9A5752"/>
<path d="M783 809.636H780.5C780.5 808.255 781.619 807.136 783 807.136V809.636ZM893 809.636V807.136C894.381 807.136 895.5 808.255 895.5 809.636H893ZM783 809.745H785.5C785.5 811.126 784.381 812.245 783 812.245V809.745ZM741 809.745L738.517 810.038C738.433 809.329 738.657 808.618 739.131 808.084C739.606 807.55 740.286 807.245 741 807.245V809.745ZM783 1165.81L785.483 1165.51C785.494 1165.61 785.5 1165.71 785.5 1165.81H783ZM783 1167.64V1170.14C781.619 1170.14 780.5 1169.02 780.5 1167.64H783ZM893 1167.64H895.5C895.5 1169.02 894.381 1170.14 893 1170.14V1167.64ZM893 1103.75H890.5C890.5 1103.66 890.506 1103.56 890.517 1103.46L893 1103.75ZM927.681 809.745V807.245C928.395 807.245 929.075 807.55 929.549 808.084C930.024 808.618 930.247 809.329 930.163 810.038L927.681 809.745ZM893 809.745V812.245C891.619 812.245 890.5 811.126 890.5 809.745H893ZM783 807.136H893V812.136H783V807.136ZM780.5 809.745V809.636H785.5V809.745H780.5ZM741 807.245H783V812.245H741V807.245ZM780.517 1166.1L738.517 810.038L743.483 809.452L785.483 1165.51L780.517 1166.1ZM780.5 1167.64V1165.81H785.5V1167.64H780.5ZM893 1170.14H783V1165.14H893V1170.14ZM895.5 1103.75V1167.64H890.5V1103.75H895.5ZM930.163 810.038L895.483 1104.05L890.517 1103.46L925.198 809.452L930.163 810.038ZM893 807.245H927.681V812.245H893V807.245ZM895.5 809.636V809.745H890.5V809.636H895.5Z" fill="#5D140E"/>
<path d="M909.5 455.5H1202.21L1294.09 1057.5H909.5V455.5Z" fill="#9A5752" stroke="#5D140E" stroke-width="5"/>
<rect x="909.5" y="455.5" width="293" height="602" fill="#B18783" stroke="#5D140E" stroke-width="5"/>
<rect x="924.5" y="472.5" width="260" height="602" fill="#FBEFEF" stroke="#5D140E" stroke-width="5"/>
<path d="M162.797 746.47C199.723 729.052 177.021 770.275 160.619 789.145C127.524 790.887 61.8577 797.244 44.7878 770.42C23.4505 736.89 30.8532 717.73 52.1906 734.713C38.2558 683.329 67.4316 712.504 75.7053 720.778C69.1732 654.589 102.268 697.699 117.509 712.504C133.621 667.652 146.249 691.167 149.733 722.52C183.263 692.909 185.44 720.778 162.797 746.47Z" fill="#DCD8B0" stroke="#5D140E" stroke-width="5"/>
<path d="M159.313 736.019C189.273 722.782 171.07 773.904 159.313 793.064C136.234 806.128 57.8516 801.773 41.3044 776.082C24.7571 750.391 36.0789 740.81 43.9171 749.084C34.7725 706.844 52.6254 717.73 63.5122 729.923C56.9804 692.473 81.8014 705.537 93.1232 713.376C102.704 678.104 121.429 698.57 124.912 712.069C130.138 702.489 141.459 708.15 141.459 715.553C168.458 702.054 166.281 715.988 159.313 736.019Z" fill="#8BA38E" stroke="#5D140E" stroke-width="5"/>
<path d="M115.805 759.908C143.675 733.084 148.029 757.731 138.885 791.697C123.936 798.964 88.0557 796.237 70.9149 794.806C47.4002 736.019 76.1791 749.893 87.501 764.263C90.5492 726.814 106.226 747.716 115.805 759.908Z" fill="#648B7F"/>
<path fill-rule="evenodd" clip-rule="evenodd" d="M177 778H144H67H63H30L63 1059.74V1060H63.0308H144L177 778Z" fill="#9A5752"/>
<path d="M177 778V775.5C177.714 775.5 178.393 775.805 178.868 776.338C179.342 776.871 179.566 777.582 179.483 778.291L177 778ZM30 778L27.517 778.291C27.4339 777.582 27.6578 776.871 28.1322 776.338C28.6066 775.805 29.2863 775.5 30 775.5V778ZM63 1059.74L65.483 1059.45C65.4943 1059.54 65.5 1059.64 65.5 1059.74H63ZM63 1060V1062.5C61.6193 1062.5 60.5 1061.38 60.5 1060H63ZM144 1060L146.483 1060.29C146.336 1061.55 145.268 1062.5 144 1062.5V1060ZM144 775.5H177V780.5H144V775.5ZM67 775.5H144V780.5H67V775.5ZM63 775.5H67V780.5H63V775.5ZM30 775.5H63V780.5H30V775.5ZM60.517 1060.03L27.517 778.291L32.483 777.709L65.483 1059.45L60.517 1060.03ZM60.5 1060V1059.74H65.5V1060H60.5ZM63.0308 1062.5H63V1057.5H63.0308V1062.5ZM144 1062.5H63.0308V1057.5H144V1062.5ZM179.483 778.291L146.483 1060.29L141.517 1059.71L174.517 777.709L179.483 778.291Z" fill="#5D140E"/>
<path d="M372.536 282.528C369.944 282.528 367.736 282.08 365.912 281.184C364.12 280.256 362.744 278.96 361.784 277.296C360.856 275.632 360.392 273.696 360.392 271.488C360.392 269.216 360.776 267.232 361.544 265.536C362.344 263.84 363.4 262.416 364.712 261.264C366.056 260.112 367.56 259.264 369.224 258.72C370.888 258.144 372.6 257.856 374.36 257.856C376.92 257.856 379.096 258.32 380.888 259.248C382.712 260.144 384.104 261.424 385.064 263.088C386.024 264.72 386.504 266.64 386.504 268.848C386.504 271.152 386.104 273.152 385.304 274.848C384.536 276.544 383.48 277.968 382.136 279.12C380.824 280.272 379.336 281.136 377.672 281.712C376.008 282.256 374.296 282.528 372.536 282.528ZM372.68 276.24C373.768 276.24 374.696 275.92 375.464 275.28C376.264 274.608 376.872 273.696 377.288 272.544C377.704 271.392 377.912 270.08 377.912 268.608C377.912 267.168 377.576 266.064 376.904 265.296C376.264 264.528 375.352 264.144 374.168 264.144C373.112 264.144 372.184 264.464 371.384 265.104C370.616 265.744 370.024 266.64 369.608 267.792C369.192 268.944 368.984 270.272 368.984 271.776C368.984 273.216 369.304 274.32 369.944 275.088C370.616 275.856 371.528 276.24 372.68 276.24ZM391.331 291.072C389.987 291.072 389.011 290.64 388.403 289.776C387.795 288.912 387.603 287.696 387.827 286.128L391.619 262.176C391.843 260.768 392.355 259.712 393.155 259.008C393.955 258.304 395.059 257.952 396.467 257.952C397.811 257.952 398.771 258.4 399.347 259.296C399.955 260.16 400.131 261.376 399.875 262.944L399.635 264.48L399.683 262.08C400.579 260.736 401.715 259.696 403.091 258.96C404.467 258.224 405.971 257.856 407.603 257.856C409.363 257.856 410.899 258.272 412.211 259.104C413.523 259.936 414.531 261.12 415.235 262.656C415.971 264.192 416.339 266.016 416.339 268.128C416.339 270.88 415.843 273.344 414.851 275.52C413.859 277.696 412.467 279.408 410.675 280.656C408.883 281.904 406.787 282.528 404.387 282.528C402.691 282.528 401.203 282.16 399.923 281.424C398.643 280.656 397.731 279.552 397.187 278.112L397.619 278.16L396.227 286.896C396.035 288.304 395.523 289.344 394.691 290.016C393.891 290.72 392.771 291.072 391.331 291.072ZM402.563 276.24C403.651 276.24 404.579 275.92 405.347 275.28C406.115 274.608 406.707 273.696 407.123 272.544C407.539 271.392 407.747 270.08 407.747 268.608C407.747 267.168 407.411 266.064 406.739 265.296C406.099 264.528 405.203 264.144 404.051 264.144C402.963 264.144 402.035 264.48 401.267 265.152C400.499 265.792 399.891 266.688 399.443 267.84C399.027 268.992 398.819 270.304 398.819 271.776C398.819 273.216 399.155 274.32 399.827 275.088C400.499 275.856 401.411 276.24 402.563 276.24ZM431.609 282.528C429.081 282.528 426.873 282.08 424.985 281.184C423.097 280.256 421.625 278.96 420.569 277.296C419.513 275.632 418.985 273.696 418.985 271.488C418.985 268.768 419.577 266.384 420.761 264.336C421.977 262.288 423.609 260.704 425.657 259.584C427.737 258.432 430.041 257.856 432.569 257.856C434.617 257.856 436.345 258.192 437.753 258.864C439.193 259.536 440.329 260.448 441.161 261.6C442.025 262.752 442.601 264.064 442.889 265.536C443.177 266.976 443.225 268.464 443.033 270C442.937 270.8 442.713 271.328 442.361 271.584C442.009 271.808 441.545 271.92 440.969 271.92H425.945L426.521 267.888H437.177L436.409 268.512C436.569 267.52 436.521 266.64 436.265 265.872C436.041 265.104 435.609 264.512 434.969 264.096C434.361 263.648 433.529 263.424 432.473 263.424C431.449 263.424 430.585 263.648 429.881 264.096C429.177 264.544 428.601 265.152 428.153 265.92C427.737 266.688 427.465 267.552 427.337 268.512L427.001 270.384C426.713 272.272 427.065 273.728 428.057 274.752C429.049 275.744 430.553 276.24 432.569 276.24C433.305 276.24 434.121 276.16 435.017 276C435.945 275.84 436.745 275.6 437.417 275.28C438.281 274.928 439.001 274.848 439.577 275.04C440.185 275.232 440.633 275.6 440.921 276.144C441.209 276.656 441.321 277.232 441.257 277.872C441.225 278.512 441.017 279.136 440.633 279.744C440.249 280.32 439.673 280.768 438.905 281.088C437.785 281.6 436.585 281.968 435.305 282.192C434.057 282.416 432.825 282.528 431.609 282.528ZM449.114 282.384C447.77 282.384 446.794 281.952 446.186 281.088C445.578 280.192 445.386 278.96 445.61 277.392L448.01 262.176C448.234 260.768 448.762 259.712 449.594 259.008C450.426 258.304 451.53 257.952 452.906 257.952C454.186 257.952 455.146 258.336 455.786 259.104C456.426 259.872 456.602 261.008 456.314 262.512L455.978 264.432V262.464C456.81 260.96 457.93 259.824 459.338 259.056C460.746 258.256 462.378 257.856 464.234 257.856C465.93 257.856 467.37 258.208 468.554 258.912C469.77 259.616 470.618 260.72 471.098 262.224C471.61 263.728 471.69 265.664 471.338 268.032L469.754 278.112C469.53 279.52 469.002 280.592 468.17 281.328C467.338 282.032 466.218 282.384 464.81 282.384C463.466 282.384 462.474 281.952 461.834 281.088C461.226 280.192 461.05 278.96 461.306 277.392L462.746 268.176C462.97 266.928 462.89 265.984 462.506 265.344C462.122 264.704 461.386 264.384 460.298 264.384C458.986 264.384 457.898 264.832 457.034 265.728C456.202 266.592 455.658 267.824 455.402 269.424L454.01 278.112C453.562 280.96 451.93 282.384 449.114 282.384Z" fill="#5D140E"/>
</g>
<defs>
<clipPath id="clip0_85_3487">
<rect width="1440" height="1024" fill="white"/>
</clipPath>
</defs>
</svg>
