<svg width="1440" height="1024" viewBox="0 0 1440 1024" fill="none" xmlns="http://www.w3.org/2000/svg">
<g clip-path="url(#clip0_85_3487)">
<path d="M236 -100.269H555.377C570.565 -100.269 582.877 -87.9564 582.877 -72.7686V998.869C582.877 1014.06 570.565 1026.37 555.377 1026.37H236C220.812 1026.37 208.5 1014.06 208.5 998.869V-72.7685C208.5 -87.9563 220.812 -100.269 236 -100.269Z" fill="#FFC87E" stroke="#5D140E" stroke-width="5"/>
<rect x="250.078" y="-59.9502" width="294.866" height="1086.11" fill="#B18783" stroke="#5D140E" stroke-width="5"/>
<rect x="276.213" y="203.047" width="244.517" height="235.241" fill="#8BA2A3" stroke="#5D140E" stroke-width="5"/>
<rect x="277.423" y="205.186" width="221.69" height="211.486" fill="#B1D0D1"/>
<path d="M276.96 321.131C276.96 321.131 351.019 321.131 398.472 321.131M519.984 321.131C519.984 321.131 445.925 321.131 398.472 321.131M398.472 321.131C398.472 279.111 398.472 204.721 398.472 204.721V437.541" stroke="#5D140E" stroke-width="5"/>
<mask id="path-6-inside-1_85_3487" fill="white">
<path fill-rule="evenodd" clip-rule="evenodd" d="M568.681 -91.4287H206V1040H234.755V-91.4286H539.926V1040H568.681V-91.4287Z"/>
</mask>
<path fill-rule="evenodd" clip-rule="evenodd" d="M568.681 -91.4287H206V1040H234.755V-91.4286H539.926V1040H568.681V-91.4287Z" fill="#FFF2B5"/>
<path d="M206 -91.4287V-96.4287H201V-91.4287H206ZM568.681 -91.4287H573.681V-96.4287H568.681V-91.4287ZM206 1040H201V1045H206V1040ZM234.755 1040V1045H239.755V1040H234.755ZM234.755 -91.4286V-96.4286H229.755V-91.4286H234.755ZM539.926 -91.4286H544.926V-96.4286H539.926V-91.4286ZM539.926 1040H534.926V1045H539.926V1040ZM568.681 1040V1045H573.681V1040H568.681ZM206 -86.4287H568.681V-96.4287H206V-86.4287ZM211 1040V-91.4287H201V1040H211ZM234.755 1035H206V1045H234.755V1035ZM239.755 1040V-91.4286H229.755V1040H239.755ZM234.755 -86.4286H539.926V-96.4286H234.755V-86.4286ZM534.926 -91.4286V1040H544.926V-91.4286H534.926ZM568.681 1035H539.926V1045H568.681V1035ZM563.681 -91.4287V1040H573.681V-91.4287H563.681Z" fill="#5D140E" mask="url(#path-6-inside-1_85_3487)"/>
<rect x="439.466" y="487.812" width="82.1918" height="97.0329" fill="#F5D2CF" stroke="#5D140E" stroke-width="5"/>
<rect x="297.547" y="641.788" width="205.559" height="91.4675" stroke="#5D140E" stroke-width="5"/>
<rect x="286.417" y="631.585" width="227.821" height="213.907" stroke="#5D140E" stroke-width="5"/>
<rect x="297.547" y="744.75" width="205.559" height="91.4675" stroke="#5D140E" stroke-width="5"/>
<circle cx="398.142" cy="188.953" r="6.02922" fill="#5D140E"/>
<mask id="path-13-inside-2_85_3487" fill="white">
<path d="M480.342 270.933L398.825 352.449L317.309 270.933L398.825 189.416L480.342 270.933Z"/>
</mask>
<path d="M398.825 189.416L402.361 185.881L398.825 182.345L395.29 185.881L398.825 189.416ZM320.845 274.468L402.361 192.952L395.29 185.881L313.774 267.397L320.845 274.468ZM395.29 192.952L476.806 274.468L483.877 267.397L402.361 185.881L395.29 192.952Z" fill="#5D140E" mask="url(#path-13-inside-2_85_3487)"/>
<path d="M494.403 296.088C494.403 309.88 483.854 322.602 466.272 331.934C448.734 341.243 424.437 347.032 397.544 347.032C370.652 347.032 346.354 341.243 328.817 331.934C311.235 322.602 300.686 309.88 300.686 296.088C300.686 282.295 311.235 269.573 328.817 260.241C346.354 250.932 370.652 245.144 397.544 245.144C424.437 245.144 448.734 250.932 466.272 260.241C483.854 269.573 494.403 282.295 494.403 296.088Z" fill="#9B5853" stroke="#5D140E" stroke-width="2"/>
<ellipse cx="398.007" cy="297.016" rx="80.6988" ry="38.0305" fill="#B18783"/>
<path d="M486.41 296.087C486.41 307.739 477.237 318.911 461 327.318C444.889 335.66 422.458 340.894 397.544 340.894C372.63 340.894 350.199 335.66 334.088 327.318C317.851 318.911 308.678 307.739 308.678 296.087C308.678 284.435 317.851 273.264 334.088 264.857C350.199 256.515 372.63 251.281 397.544 251.281C422.458 251.281 444.889 256.515 461 264.857C477.237 273.264 486.41 284.435 486.41 296.087Z" stroke="#5D140E" stroke-width="5"/>
<rect x="611.5" y="181.5" width="678.853" height="471.758" fill="#FFC87E" stroke="#5D140E" stroke-width="5"/>
<rect x="641.606" y="211.606" width="614.234" height="415.071" fill="#8BA2A3"/>
<rect x="641.606" y="211.606" width="579.865" height="371.889" fill="#B1D0D1"/>
<mask id="path-21-inside-3_85_3487" fill="white">
<path fill-rule="evenodd" clip-rule="evenodd" d="M1273.47 196.626H628.388V638.134H1273.47V196.626ZM1250.58 219.539H652.149V615.222H1250.58V219.539Z"/>
</mask>
<path fill-rule="evenodd" clip-rule="evenodd" d="M1273.47 196.626H628.388V638.134H1273.47V196.626ZM1250.58 219.539H652.149V615.222H1250.58V219.539Z" fill="#FFF2B5"/>
<path d="M628.388 196.626V191.626H623.388V196.626H628.388ZM1273.47 196.626H1278.47V191.626H1273.47V196.626ZM628.388 638.134H623.388V643.134H628.388V638.134ZM1273.47 638.134V643.134H1278.47V638.134H1273.47ZM652.149 219.539V214.539H647.149V219.539H652.149ZM1250.58 219.539H1255.58V214.539H1250.58V219.539ZM652.149 615.222H647.149V620.222H652.149V615.222ZM1250.58 615.222V620.222H1255.58V615.222H1250.58ZM628.388 201.626H1273.47V191.626H628.388V201.626ZM633.388 638.134V196.626H623.388V638.134H633.388ZM1273.47 633.134H628.388V643.134H1273.47V633.134ZM1268.47 196.626V638.134H1278.47V196.626H1268.47ZM652.149 224.539H1250.58V214.539H652.149V224.539ZM657.149 615.222V219.539H647.149V615.222H657.149ZM1250.58 610.222H652.149V620.222H1250.58V610.222ZM1245.58 219.539V615.222H1255.58V219.539H1245.58Z" fill="#5D140E" mask="url(#path-21-inside-3_85_3487)"/>
<path d="M777.237 771.694C814.163 754.276 791.461 795.499 775.059 814.369C741.964 816.11 676.298 822.468 659.228 795.644C637.89 762.114 645.293 742.954 666.631 759.937C652.696 708.552 681.872 737.728 690.145 746.002C683.613 679.812 716.708 722.923 731.949 737.728C748.061 692.876 760.689 716.39 764.173 747.743C797.703 718.132 799.88 746.002 777.237 771.694Z" fill="#DCD8B0" stroke="#5D140E" stroke-width="5"/>
<path d="M773.753 761.243C803.713 748.005 785.51 799.127 773.753 818.288C750.674 831.352 672.292 826.997 655.744 801.306C639.197 775.614 650.519 766.034 658.357 774.307C649.212 732.068 667.065 742.953 677.952 755.147C671.42 717.697 696.241 730.761 707.563 738.6C717.144 703.328 735.869 723.794 739.352 737.293C744.577 727.713 755.899 733.373 755.899 740.776C782.898 727.277 780.72 741.212 773.753 761.243Z" fill="#8BA38E" stroke="#5D140E" stroke-width="5"/>
<path d="M730.245 785.132C758.115 758.308 762.469 782.955 753.325 816.921C738.376 824.188 702.496 821.461 685.355 820.029C661.84 761.243 690.619 775.117 701.941 789.487C704.989 752.037 720.666 772.939 730.245 785.132Z" fill="#648B7F"/>
<path fill-rule="evenodd" clip-rule="evenodd" d="M791.608 803.047H758.344H758.344H681.701H677.704H644.44L677.704 1085.05H758.344L791.608 803.047Z" fill="#9A5752"/>
<path d="M791.608 803.047V800.547C792.322 800.547 793.002 800.852 793.476 801.386C793.951 801.92 794.174 802.631 794.091 803.34L791.608 803.047ZM644.44 803.047L641.957 803.34C641.873 802.631 642.097 801.92 642.571 801.386C643.046 800.852 643.726 800.547 644.44 800.547V803.047ZM677.704 1085.05V1087.55C676.436 1087.55 675.369 1086.6 675.221 1085.34L677.704 1085.05ZM758.344 1085.05L760.827 1085.34C760.678 1086.6 759.611 1087.55 758.344 1087.55V1085.05ZM758.344 800.547H791.608V805.547H758.344V800.547ZM758.344 800.547H758.344V805.547H758.344V800.547ZM681.701 800.547H758.344V805.547H681.701V800.547ZM677.704 800.547H681.701V805.547H677.704V800.547ZM644.44 800.547H677.704V805.547H644.44V800.547ZM675.221 1085.34L641.957 803.34L646.923 802.754L680.187 1084.75L675.221 1085.34ZM758.344 1087.55H677.704V1082.55H758.344V1087.55ZM794.091 803.34L760.827 1085.34L755.861 1084.75L789.125 802.754L794.091 803.34Z" fill="#5D140E"/>
<path d="M1291.22 771.694C1328.15 754.276 1305.45 795.499 1289.05 814.369C1255.95 816.11 1190.28 822.468 1173.21 795.644C1151.88 762.114 1159.28 742.954 1180.62 759.937C1166.68 708.552 1195.86 737.728 1204.13 746.002C1197.6 679.812 1230.69 722.923 1245.94 737.728C1262.05 692.876 1274.68 716.39 1278.16 747.743C1311.69 718.132 1313.87 746.002 1291.22 771.694Z" fill="#DCD8B0" stroke="#5D140E" stroke-width="5"/>
<path d="M1287.74 761.243C1317.7 748.005 1299.5 799.127 1287.74 818.288C1264.66 831.352 1186.28 826.997 1169.73 801.306C1153.18 775.614 1164.51 766.034 1172.34 774.307C1163.2 732.068 1181.05 742.953 1191.94 755.147C1185.41 717.697 1210.23 730.761 1221.55 738.6C1231.13 703.328 1249.86 723.794 1253.34 737.293C1258.56 727.713 1269.89 733.373 1269.89 740.776C1296.88 727.277 1294.71 741.212 1287.74 761.243Z" fill="#8BA38E" stroke="#5D140E" stroke-width="5"/>
<path d="M1244.23 785.132C1272.1 758.308 1276.46 782.955 1267.31 816.921C1252.36 824.188 1216.48 821.461 1199.34 820.029C1175.83 761.243 1204.61 775.117 1215.93 789.487C1218.98 752.037 1234.65 772.939 1244.23 785.132Z" fill="#648B7F"/>
<path fill-rule="evenodd" clip-rule="evenodd" d="M1305.59 803.047H1272.33H1272.33H1195.69H1191.69H1158.43L1191.69 1085.05H1272.33L1305.59 803.047Z" fill="#9A5752"/>
<path d="M1305.59 803.047V800.547C1306.31 800.547 1306.99 800.852 1307.46 801.386C1307.94 801.92 1308.16 802.631 1308.08 803.34L1305.59 803.047ZM1158.43 803.047L1155.94 803.34C1155.86 802.631 1156.08 801.92 1156.56 801.386C1157.03 800.852 1157.71 800.547 1158.43 800.547V803.047ZM1191.69 1085.05V1087.55C1190.42 1087.55 1189.36 1086.6 1189.21 1085.34L1191.69 1085.05ZM1272.33 1085.05L1274.81 1085.34C1274.66 1086.6 1273.6 1087.55 1272.33 1087.55V1085.05ZM1272.33 800.547H1305.59V805.547H1272.33V800.547ZM1272.33 800.547H1272.33V805.547H1272.33V800.547ZM1195.69 800.547H1272.33V805.547H1195.69V800.547ZM1191.69 800.547H1195.69V805.547H1191.69V800.547ZM1158.43 800.547H1191.69V805.547H1158.43V800.547ZM1189.21 1085.34L1155.94 803.34L1160.91 802.754L1194.17 1084.75L1189.21 1085.34ZM1272.33 1087.55H1191.69V1082.55H1272.33V1087.55ZM1308.08 803.34L1274.81 1085.34L1269.85 1084.75L1303.11 802.754L1308.08 803.34Z" fill="#5D140E"/>
<path d="M159.797 771.47C196.723 754.052 174.021 795.275 157.619 814.145C124.524 815.887 58.8577 822.244 41.7878 795.42C20.4505 761.89 27.8532 742.73 49.1906 759.713C35.2558 708.329 64.4316 737.504 72.7053 745.778C66.1732 679.589 99.2681 722.699 114.509 737.504C130.621 692.652 143.249 716.167 146.733 747.52C180.263 717.909 182.44 745.778 159.797 771.47Z" fill="#DCD8B0" stroke="#5D140E" stroke-width="5"/>
<path d="M156.313 761.019C186.273 747.782 168.07 798.904 156.313 818.064C133.234 831.128 54.8516 826.773 38.3044 801.082C21.7571 775.391 33.0789 765.81 40.9171 774.084C31.7725 731.844 49.6254 742.73 60.5122 754.923C53.9804 717.473 78.8014 730.537 90.1232 738.376C99.704 703.104 118.429 723.57 121.912 737.069C127.138 727.489 138.459 733.15 138.459 740.553C165.458 727.054 163.281 740.988 156.313 761.019Z" fill="#8BA38E" stroke="#5D140E" stroke-width="5"/>
<path d="M112.805 784.908C140.675 758.084 145.029 782.731 135.885 816.697C120.936 823.964 85.0557 821.237 67.9149 819.806C44.4002 761.019 73.1791 774.893 84.501 789.263C87.5492 751.814 103.226 772.716 112.805 784.908Z" fill="#648B7F"/>
<path fill-rule="evenodd" clip-rule="evenodd" d="M174 803H141H64H60H27L60 1084.74V1085H60.0308H141L174 803Z" fill="#9A5752"/>
<path d="M174 803V800.5C174.714 800.5 175.393 800.805 175.868 801.338C176.342 801.871 176.566 802.582 176.483 803.291L174 803ZM27 803L24.517 803.291C24.4339 802.582 24.6578 801.871 25.1322 801.338C25.6066 800.805 26.2863 800.5 27 800.5V803ZM60 1084.74L62.483 1084.45C62.4943 1084.54 62.5 1084.64 62.5 1084.74H60ZM60 1085V1087.5C58.6193 1087.5 57.5 1086.38 57.5 1085H60ZM141 1085L143.483 1085.29C143.336 1086.55 142.268 1087.5 141 1087.5V1085ZM141 800.5H174V805.5H141V800.5ZM64 800.5H141V805.5H64V800.5ZM60 800.5H64V805.5H60V800.5ZM27 800.5H60V805.5H27V800.5ZM57.517 1085.03L24.517 803.291L29.483 802.709L62.483 1084.45L57.517 1085.03ZM57.5 1085V1084.74H62.5V1085H57.5ZM60.0308 1087.5H60V1082.5H60.0308V1087.5ZM141 1087.5H60.0308V1082.5H141V1087.5ZM176.483 803.291L143.483 1085.29L138.517 1084.71L171.517 802.709L176.483 803.291Z" fill="#5D140E"/>
<path d="M758.5 444.5H1051.21L1143.09 1046.5H758.5V444.5Z" fill="#9A5752" stroke="#5D140E" stroke-width="5"/>
<rect x="758.5" y="444.5" width="293" height="602" fill="#B18783" stroke="#5D140E" stroke-width="5"/>
<rect x="773.5" y="461.5" width="260" height="602" fill="#FBEFEF" stroke="#5D140E" stroke-width="5"/>
<path d="M351.536 307.528C348.944 307.528 346.736 307.08 344.912 306.184C343.12 305.256 341.744 303.96 340.784 302.296C339.856 300.632 339.392 298.696 339.392 296.488C339.392 294.216 339.776 292.232 340.544 290.536C341.344 288.84 342.4 287.416 343.712 286.264C345.056 285.112 346.56 284.264 348.224 283.72C349.888 283.144 351.6 282.856 353.36 282.856C355.92 282.856 358.096 283.32 359.888 284.248C361.712 285.144 363.104 286.424 364.064 288.088C365.024 289.72 365.504 291.64 365.504 293.848C365.504 296.152 365.104 298.152 364.304 299.848C363.536 301.544 362.48 302.968 361.136 304.12C359.824 305.272 358.336 306.136 356.672 306.712C355.008 307.256 353.296 307.528 351.536 307.528ZM351.68 301.24C352.768 301.24 353.696 300.92 354.464 300.28C355.264 299.608 355.872 298.696 356.288 297.544C356.704 296.392 356.912 295.08 356.912 293.608C356.912 292.168 356.576 291.064 355.904 290.296C355.264 289.528 354.352 289.144 353.168 289.144C352.112 289.144 351.184 289.464 350.384 290.104C349.616 290.744 349.024 291.64 348.608 292.792C348.192 293.944 347.984 295.272 347.984 296.776C347.984 298.216 348.304 299.32 348.944 300.088C349.616 300.856 350.528 301.24 351.68 301.24ZM370.331 316.072C368.987 316.072 368.011 315.64 367.403 314.776C366.795 313.912 366.603 312.696 366.827 311.128L370.619 287.176C370.843 285.768 371.355 284.712 372.155 284.008C372.955 283.304 374.059 282.952 375.467 282.952C376.811 282.952 377.771 283.4 378.347 284.296C378.955 285.16 379.131 286.376 378.875 287.944L378.635 289.48L378.683 287.08C379.579 285.736 380.715 284.696 382.091 283.96C383.467 283.224 384.971 282.856 386.603 282.856C388.363 282.856 389.899 283.272 391.211 284.104C392.523 284.936 393.531 286.12 394.235 287.656C394.971 289.192 395.339 291.016 395.339 293.128C395.339 295.88 394.843 298.344 393.851 300.52C392.859 302.696 391.467 304.408 389.675 305.656C387.883 306.904 385.787 307.528 383.387 307.528C381.691 307.528 380.203 307.16 378.923 306.424C377.643 305.656 376.731 304.552 376.187 303.112L376.619 303.16L375.227 311.896C375.035 313.304 374.523 314.344 373.691 315.016C372.891 315.72 371.771 316.072 370.331 316.072ZM381.563 301.24C382.651 301.24 383.579 300.92 384.347 300.28C385.115 299.608 385.707 298.696 386.123 297.544C386.539 296.392 386.747 295.08 386.747 293.608C386.747 292.168 386.411 291.064 385.739 290.296C385.099 289.528 384.203 289.144 383.051 289.144C381.963 289.144 381.035 289.48 380.267 290.152C379.499 290.792 378.891 291.688 378.443 292.84C378.027 293.992 377.819 295.304 377.819 296.776C377.819 298.216 378.155 299.32 378.827 300.088C379.499 300.856 380.411 301.24 381.563 301.24ZM410.609 307.528C408.081 307.528 405.873 307.08 403.985 306.184C402.097 305.256 400.625 303.96 399.569 302.296C398.513 300.632 397.985 298.696 397.985 296.488C397.985 293.768 398.577 291.384 399.761 289.336C400.977 287.288 402.609 285.704 404.657 284.584C406.737 283.432 409.041 282.856 411.569 282.856C413.617 282.856 415.345 283.192 416.753 283.864C418.193 284.536 419.329 285.448 420.161 286.6C421.025 287.752 421.601 289.064 421.889 290.536C422.177 291.976 422.225 293.464 422.033 295C421.937 295.8 421.713 296.328 421.361 296.584C421.009 296.808 420.545 296.92 419.969 296.92H404.945L405.521 292.888H416.177L415.409 293.512C415.569 292.52 415.521 291.64 415.265 290.872C415.041 290.104 414.609 289.512 413.969 289.096C413.361 288.648 412.529 288.424 411.473 288.424C410.449 288.424 409.585 288.648 408.881 289.096C408.177 289.544 407.601 290.152 407.153 290.92C406.737 291.688 406.465 292.552 406.337 293.512L406.001 295.384C405.713 297.272 406.065 298.728 407.057 299.752C408.049 300.744 409.553 301.24 411.569 301.24C412.305 301.24 413.121 301.16 414.017 301C414.945 300.84 415.745 300.6 416.417 300.28C417.281 299.928 418.001 299.848 418.577 300.04C419.185 300.232 419.633 300.6 419.921 301.144C420.209 301.656 420.321 302.232 420.257 302.872C420.225 303.512 420.017 304.136 419.633 304.744C419.249 305.32 418.673 305.768 417.905 306.088C416.785 306.6 415.585 306.968 414.305 307.192C413.057 307.416 411.825 307.528 410.609 307.528ZM428.114 307.384C426.77 307.384 425.794 306.952 425.186 306.088C424.578 305.192 424.386 303.96 424.61 302.392L427.01 287.176C427.234 285.768 427.762 284.712 428.594 284.008C429.426 283.304 430.53 282.952 431.906 282.952C433.186 282.952 434.146 283.336 434.786 284.104C435.426 284.872 435.602 286.008 435.314 287.512L434.978 289.432V287.464C435.81 285.96 436.93 284.824 438.338 284.056C439.746 283.256 441.378 282.856 443.234 282.856C444.93 282.856 446.37 283.208 447.554 283.912C448.77 284.616 449.618 285.72 450.098 287.224C450.61 288.728 450.69 290.664 450.338 293.032L448.754 303.112C448.53 304.52 448.002 305.592 447.17 306.328C446.338 307.032 445.218 307.384 443.81 307.384C442.466 307.384 441.474 306.952 440.834 306.088C440.226 305.192 440.05 303.96 440.306 302.392L441.746 293.176C441.97 291.928 441.89 290.984 441.506 290.344C441.122 289.704 440.386 289.384 439.298 289.384C437.986 289.384 436.898 289.832 436.034 290.728C435.202 291.592 434.658 292.824 434.402 294.424L433.01 303.112C432.562 305.96 430.93 307.384 428.114 307.384Z" fill="#5D140E"/>
</g>
<defs>
<clipPath id="clip0_85_3487">
<rect width="1440" height="1024" fill="white"/>
</clipPath>
</defs>
</svg>
