<svg width="774" height="1024" viewBox="0 0 774 1024" fill="none" xmlns="http://www.w3.org/2000/svg">
<g clip-path="url(#clip0_92_3998)">
<rect x="47.5" y="151.5" width="678.853" height="471.758" fill="#FFC87E" stroke="#5D140E" stroke-width="5"/>
<rect x="77.6064" y="181.606" width="614.234" height="415.071" fill="#8BA2A3"/>
<rect x="77.6064" y="181.606" width="579.865" height="371.889" fill="#B1D0D1"/>
<mask id="path-4-inside-1_92_3998" fill="white">
<path fill-rule="evenodd" clip-rule="evenodd" d="M709.465 166.626H64.3877V608.134H709.465V166.626ZM686.584 189.539H88.1491V585.222H686.584V189.539Z"/>
</mask>
<path fill-rule="evenodd" clip-rule="evenodd" d="M709.465 166.626H64.3877V608.134H709.465V166.626ZM686.584 189.539H88.1491V585.222H686.584V189.539Z" fill="#FFF2B5"/>
<path d="M64.3877 166.626V161.626H59.3877V166.626H64.3877ZM709.465 166.626H714.465V161.626H709.465V166.626ZM64.3877 608.134H59.3877V613.134H64.3877V608.134ZM709.465 608.134V613.134H714.465V608.134H709.465ZM88.1491 189.539V184.539H83.1491V189.539H88.1491ZM686.584 189.539H691.584V184.539H686.584V189.539ZM88.1491 585.222H83.1491V590.222H88.1491V585.222ZM686.584 585.222V590.222H691.584V585.222H686.584ZM64.3877 171.626H709.465V161.626H64.3877V171.626ZM69.3877 608.134V166.626H59.3877V608.134H69.3877ZM709.465 603.134H64.3877V613.134H709.465V603.134ZM704.465 166.626V608.134H714.465V166.626H704.465ZM88.1491 194.539H686.584V184.539H88.1491V194.539ZM93.1491 585.222V189.539H83.1491V585.222H93.1491ZM686.584 580.222H88.1491V590.222H686.584V580.222ZM681.584 189.539V585.222H691.584V189.539H681.584Z" fill="#5D140E" mask="url(#path-4-inside-1_92_3998)"/>
<path d="M236.451 748.974C283.292 726.879 254.495 779.171 233.689 803.107C191.709 805.316 108.412 813.381 86.7586 779.355C59.6924 736.822 69.0827 712.518 96.1489 734.06C78.4728 668.88 115.482 705.888 125.977 716.384C117.691 632.424 159.672 687.109 179.005 705.888C199.442 648.995 215.461 678.822 219.88 718.593C262.413 681.032 265.174 716.384 236.451 748.974Z" fill="#DCD8B0" stroke="#5D140E" stroke-width="5"/>
<path d="M232.033 735.717C270.036 718.925 246.946 783.773 232.033 808.078C202.757 824.649 103.33 819.125 82.3397 786.536C61.3498 753.947 75.7113 741.794 85.6539 752.289C74.0542 698.709 96.7003 712.517 110.51 727.984C102.225 680.479 133.71 697.051 148.071 706.994C160.224 662.252 183.976 688.213 188.395 705.337C195.023 693.185 209.385 700.365 209.385 709.755C243.632 692.632 240.87 710.308 232.033 735.717Z" fill="#8BA38E" stroke="#5D140E" stroke-width="5"/>
<path d="M176.843 766.02C212.195 731.994 217.719 763.259 206.119 806.344C187.157 815.562 141.643 812.103 119.9 810.287C90.072 735.717 126.578 753.316 140.939 771.544C144.806 724.04 164.691 750.554 176.843 766.02Z" fill="#648B7F"/>
<path fill-rule="evenodd" clip-rule="evenodd" d="M220.001 788.636H110.001V788.745H68.0009L110.001 1144.81V1146.64H220.001V1082.75L254.682 788.745H220.001V788.636Z" fill="#9A5752"/>
<path d="M110.001 788.636H107.501C107.501 787.255 108.62 786.136 110.001 786.136V788.636ZM220.001 788.636V786.136C221.382 786.136 222.501 787.255 222.501 788.636H220.001ZM110.001 788.745H112.501C112.501 790.126 111.382 791.245 110.001 791.245V788.745ZM68.0009 788.745L65.5181 789.038C65.4345 788.329 65.658 787.618 66.1325 787.084C66.6069 786.55 67.2868 786.245 68.0009 786.245V788.745ZM110.001 1144.81L112.484 1144.51C112.495 1144.61 112.501 1144.71 112.501 1144.81H110.001ZM110.001 1146.64V1149.14C108.62 1149.14 107.501 1148.02 107.501 1146.64H110.001ZM220.001 1146.64H222.501C222.501 1148.02 221.382 1149.14 220.001 1149.14V1146.64ZM220.001 1082.75H217.501C217.501 1082.66 217.507 1082.56 217.518 1082.46L220.001 1082.75ZM254.682 788.745V786.245C255.396 786.245 256.076 786.55 256.55 787.084C257.025 787.618 257.248 788.329 257.164 789.038L254.682 788.745ZM220.001 788.745V791.245C218.62 791.245 217.501 790.126 217.501 788.745H220.001ZM110.001 786.136H220.001V791.136H110.001V786.136ZM107.501 788.745V788.636H112.501V788.745H107.501ZM68.0009 786.245H110.001V791.245H68.0009V786.245ZM107.518 1145.1L65.5181 789.038L70.4837 788.452L112.484 1144.51L107.518 1145.1ZM107.501 1146.64V1144.81H112.501V1146.64H107.501ZM220.001 1149.14H110.001V1144.14H220.001V1149.14ZM222.501 1082.75V1146.64H217.501V1082.75H222.501ZM257.164 789.038L222.484 1083.05L217.518 1082.46L252.199 788.452L257.164 789.038ZM220.001 786.245H254.682V791.245H220.001V786.245ZM222.501 788.636V788.745H217.501V788.636H222.501Z" fill="#5D140E"/>
<path d="M241.5 455.5H534.213L626.09 1057.5H241.5V455.5Z" fill="#9A5752" stroke="#5D140E" stroke-width="5"/>
<rect x="241.5" y="455.5" width="293" height="602" fill="#B18783" stroke="#5D140E" stroke-width="5"/>
<rect x="256.5" y="472.5" width="260" height="602" fill="#FBEFEF" stroke="#5D140E" stroke-width="5"/>
</g>
<defs>
<clipPath id="clip0_92_3998">
<rect width="774" height="1024" fill="white"/>
</clipPath>
</defs>
</svg>
