<svg width="60" height="61" viewBox="0 0 60 61" fill="none" xmlns="http://www.w3.org/2000/svg">
<g clip-path="url(#clip0_179_27)">
<path fill-rule="evenodd" clip-rule="evenodd" d="M60 60.1338H48V39.1367C48 33.3767 45.459 30.1631 40.902 30.1631C35.943 30.1631 33 33.5117 33 39.1367V60.1338H21V21.1338H33V25.5195C33 25.5195 36.765 18.9131 45.249 18.9131C53.736 18.9131 60 24.0921 60 34.8081V60.1338ZM7.326 14.8965C3.279 14.8965 0 11.5907 0 7.51367C0 3.43967 3.279 0.133789 7.326 0.133789C11.37 0.133789 14.649 3.43967 14.649 7.51367C14.652 11.5907 11.37 14.8965 7.326 14.8965ZM0 60.1338H15V21.1338H0V60.1338Z" fill="#FFF2B5"/>
</g>
<defs>
<clipPath id="clip0_179_27">
<rect width="60" height="60" fill="white" transform="translate(0 0.133789)"/>
</clipPath>
</defs>
</svg>
