<svg width="582" height="108" viewBox="0 0 582 108" fill="none" xmlns="http://www.w3.org/2000/svg">
<mask id="path-1-outside-1_50_521" maskUnits="userSpaceOnUse" x="0.912109" y="0.896484" width="581" height="107" fill="black">
<rect fill="white" x="0.912109" y="0.896484" width="581" height="107"/>
<path d="M17.1761 102.152C13.5921 102.152 10.8188 101.171 8.85611 99.2085C6.89344 97.2458 5.91211 94.3872 5.91211 90.6325V48.2645C5.91211 44.5952 6.85078 41.7792 8.72811 39.8165C10.6908 37.8538 13.4641 36.8725 17.0481 36.8725C20.6321 36.8725 23.3628 37.8538 25.2401 39.8165C27.1174 41.7792 28.0561 44.5952 28.0561 48.2645V55.3045L26.6481 49.0325C28.4401 45.2778 31.0854 42.2912 34.5841 40.0725C38.1681 37.7685 42.3921 36.6165 47.2561 36.6165C51.8641 36.6165 55.7894 37.7258 59.0321 39.9445C62.3601 42.1632 64.7494 45.5338 66.2001 50.0565H64.4081C66.3708 45.8752 69.3148 42.5898 73.2401 40.2005C77.1654 37.8112 81.5174 36.6165 86.2961 36.6165C91.2454 36.6165 95.2988 37.5978 98.4561 39.5605C101.613 41.4378 103.96 44.4245 105.496 48.5205C107.117 52.5312 107.928 57.6085 107.928 63.7525V90.6325C107.928 94.3872 106.904 97.2458 104.856 99.2085C102.893 101.171 100.077 102.152 96.4081 102.152C92.8241 102.152 90.0508 101.171 88.0881 99.2085C86.1254 97.2458 85.1441 94.3872 85.1441 90.6325V64.3925C85.1441 60.7232 84.5894 58.0778 83.4801 56.4565C82.3708 54.8352 80.5361 54.0245 77.9761 54.0245C74.8188 54.0245 72.3868 55.1338 70.6801 57.3525C69.0588 59.5712 68.2481 62.7285 68.2481 66.8245V90.6325C68.2481 94.3872 67.2668 97.2458 65.3041 99.2085C63.3414 101.171 60.5254 102.152 56.8561 102.152C53.1868 102.152 50.3708 101.171 48.4081 99.2085C46.4454 97.2458 45.4641 94.3872 45.4641 90.6325V64.3925C45.4641 60.7232 44.9094 58.0778 43.8001 56.4565C42.6908 54.8352 40.8561 54.0245 38.2961 54.0245C35.2241 54.0245 32.8348 55.1338 31.1281 57.3525C29.5068 59.5712 28.6961 62.7285 28.6961 66.8245V90.6325C28.6961 98.3125 24.8561 102.152 17.1761 102.152Z"/>
<path d="M143.044 102.408C138.18 102.408 133.871 101.512 130.116 99.7205C126.447 97.9285 123.545 95.4965 121.412 92.4245C119.364 89.2672 118.34 85.6832 118.34 81.6725C118.34 77.0645 119.535 73.4378 121.924 70.7925C124.313 68.1472 128.153 66.2698 133.444 65.1605C138.735 63.9658 145.775 63.3685 154.564 63.3685H161.604V74.1205H154.564C151.236 74.1205 148.463 74.3765 146.244 74.8885C144.111 75.3152 142.532 76.0405 141.508 77.0645C140.484 78.0031 139.972 79.2405 139.972 80.7765C139.972 82.7392 140.655 84.3605 142.02 85.6405C143.471 86.9205 145.519 87.5605 148.164 87.5605C150.297 87.5605 152.175 87.0912 153.796 86.1525C155.503 85.2138 156.868 83.9338 157.892 82.3125C158.916 80.6058 159.428 78.6432 159.428 76.4245V61.5765C159.428 58.5045 158.617 56.3285 156.996 55.0485C155.46 53.7685 152.772 53.1285 148.932 53.1285C146.884 53.1285 144.58 53.3845 142.02 53.8965C139.46 54.3232 136.601 55.1338 133.444 56.3285C131.14 57.1818 129.177 57.3098 127.556 56.7125C125.935 56.1152 124.655 55.0912 123.716 53.6405C122.863 52.1898 122.436 50.6112 122.436 48.9045C122.521 47.1978 123.076 45.5765 124.1 44.0405C125.209 42.5045 126.873 41.3098 129.092 40.4565C133.188 38.9205 136.943 37.8965 140.356 37.3845C143.855 36.8725 147.055 36.6165 149.956 36.6165C156.953 36.6165 162.713 37.6405 167.236 39.6885C171.844 41.6512 175.257 44.7232 177.476 48.9045C179.78 53.0005 180.932 58.2912 180.932 64.7765V90.6325C180.932 94.3872 180.036 97.2458 178.244 99.2085C176.452 101.171 173.849 102.152 170.436 102.152C166.937 102.152 164.249 101.171 162.372 99.2085C160.58 97.2458 159.684 94.3872 159.684 90.6325V87.3045L160.452 89.0965C160.025 91.8272 159.044 94.1738 157.508 96.1365C155.972 98.0992 153.967 99.6352 151.492 100.744C149.017 101.854 146.201 102.408 143.044 102.408Z"/>
<path d="M205.554 102.152C201.799 102.152 198.898 101.171 196.85 99.2085C194.887 97.2458 193.906 94.3872 193.906 90.6325V48.2645C193.906 44.5952 194.845 41.7792 196.722 39.8165C198.685 37.8538 201.458 36.8725 205.042 36.8725C208.626 36.8725 211.357 37.8538 213.234 39.8165C215.111 41.7792 216.05 44.5952 216.05 48.2645V53.5125H214.77C215.623 48.3925 217.799 44.3392 221.298 41.3525C224.882 38.3658 229.319 36.7872 234.61 36.6165C237.085 36.5312 238.919 37.1712 240.114 38.5365C241.394 39.8165 242.077 42.2485 242.162 45.8325C242.162 48.9045 241.522 51.3365 240.242 53.1285C238.962 54.9205 236.53 55.9872 232.946 56.3285L230.002 56.5845C225.479 57.0112 222.194 58.2912 220.146 60.4245C218.098 62.4725 217.074 65.5445 217.074 69.6405V90.6325C217.074 94.3872 216.093 97.2458 214.13 99.2085C212.167 101.171 209.309 102.152 205.554 102.152Z"/>
<path d="M260.67 102.152C257.086 102.152 254.313 101.086 252.35 98.9525C250.387 96.8192 249.406 93.7472 249.406 89.7365V49.2885C249.406 45.2778 250.387 42.2058 252.35 40.0725C254.313 37.9392 257.086 36.8725 260.67 36.8725C264.339 36.8725 267.155 37.9392 269.118 40.0725C271.166 42.2058 272.19 45.2778 272.19 49.2885V89.7365C272.19 93.7472 271.209 96.8192 269.246 98.9525C267.283 101.086 264.425 102.152 260.67 102.152ZM260.67 27.7845C256.659 27.7845 253.545 26.8458 251.326 24.9685C249.193 23.0911 248.126 20.3605 248.126 16.7765C248.126 13.2778 249.193 10.5898 251.326 8.71249C253.545 6.83515 256.659 5.89648 260.67 5.89648C264.851 5.89648 268.009 6.83515 270.142 8.71249C272.275 10.5898 273.342 13.2778 273.342 16.7765C273.342 20.3605 272.275 23.0911 270.142 24.9685C268.009 26.8458 264.851 27.7845 260.67 27.7845Z"/>
<path d="M296.67 102.152C293.086 102.152 290.313 101.086 288.35 98.9525C286.387 96.8192 285.406 93.7472 285.406 89.7365V49.2885C285.406 45.2778 286.387 42.2058 288.35 40.0725C290.313 37.9392 293.086 36.8725 296.67 36.8725C300.339 36.8725 303.155 37.9392 305.118 40.0725C307.166 42.2058 308.19 45.2778 308.19 49.2885V89.7365C308.19 93.7472 307.209 96.8192 305.246 98.9525C303.283 101.086 300.425 102.152 296.67 102.152ZM296.67 27.7845C292.659 27.7845 289.545 26.8458 287.326 24.9685C285.193 23.0911 284.126 20.3605 284.126 16.7765C284.126 13.2778 285.193 10.5898 287.326 8.71249C289.545 6.83515 292.659 5.89648 296.67 5.89648C300.851 5.89648 304.009 6.83515 306.142 8.71249C308.275 10.5898 309.342 13.2778 309.342 16.7765C309.342 20.3605 308.275 23.0911 306.142 24.9685C304.009 26.8458 300.851 27.7845 296.67 27.7845Z"/>
<path d="M332.926 102.152C329.342 102.152 326.569 101.171 324.606 99.2085C322.643 97.2458 321.662 94.3872 321.662 90.6325V48.2645C321.662 44.5952 322.601 41.7792 324.478 39.8165C326.441 37.8538 329.214 36.8725 332.798 36.8725C336.382 36.8725 339.113 37.8538 340.99 39.8165C342.867 41.7792 343.806 44.5952 343.806 48.2645V55.3045L342.398 49.0325C344.19 45.2778 346.835 42.2912 350.334 40.0725C353.918 37.7685 358.142 36.6165 363.006 36.6165C367.614 36.6165 371.539 37.7258 374.782 39.9445C378.11 42.1632 380.499 45.5338 381.95 50.0565H380.158C382.121 45.8752 385.065 42.5898 388.99 40.2005C392.915 37.8112 397.267 36.6165 402.046 36.6165C406.995 36.6165 411.049 37.5978 414.206 39.5605C417.363 41.4378 419.71 44.4245 421.246 48.5205C422.867 52.5312 423.678 57.6085 423.678 63.7525V90.6325C423.678 94.3872 422.654 97.2458 420.606 99.2085C418.643 101.171 415.827 102.152 412.158 102.152C408.574 102.152 405.801 101.171 403.838 99.2085C401.875 97.2458 400.894 94.3872 400.894 90.6325V64.3925C400.894 60.7232 400.339 58.0778 399.23 56.4565C398.121 54.8352 396.286 54.0245 393.726 54.0245C390.569 54.0245 388.137 55.1338 386.43 57.3525C384.809 59.5712 383.998 62.7285 383.998 66.8245V90.6325C383.998 94.3872 383.017 97.2458 381.054 99.2085C379.091 101.171 376.275 102.152 372.606 102.152C368.937 102.152 366.121 101.171 364.158 99.2085C362.195 97.2458 361.214 94.3872 361.214 90.6325V64.3925C361.214 60.7232 360.659 58.0778 359.55 56.4565C358.441 54.8352 356.606 54.0245 354.046 54.0245C350.974 54.0245 348.585 55.1338 346.878 57.3525C345.257 59.5712 344.446 62.7285 344.446 66.8245V90.6325C344.446 98.3125 340.606 102.152 332.926 102.152Z"/>
<path d="M458.794 102.408C453.93 102.408 449.621 101.512 445.866 99.7205C442.197 97.9285 439.295 95.4965 437.162 92.4245C435.114 89.2672 434.09 85.6832 434.09 81.6725C434.09 77.0645 435.285 73.4378 437.674 70.7925C440.063 68.1472 443.903 66.2698 449.194 65.1605C454.485 63.9658 461.525 63.3685 470.314 63.3685H477.354V74.1205H470.314C466.986 74.1205 464.213 74.3765 461.994 74.8885C459.861 75.3152 458.282 76.0405 457.258 77.0645C456.234 78.0031 455.722 79.2405 455.722 80.7765C455.722 82.7392 456.405 84.3605 457.77 85.6405C459.221 86.9205 461.269 87.5605 463.914 87.5605C466.047 87.5605 467.925 87.0912 469.546 86.1525C471.253 85.2138 472.618 83.9338 473.642 82.3125C474.666 80.6058 475.178 78.6432 475.178 76.4245V61.5765C475.178 58.5045 474.367 56.3285 472.746 55.0485C471.21 53.7685 468.522 53.1285 464.682 53.1285C462.634 53.1285 460.33 53.3845 457.77 53.8965C455.21 54.3232 452.351 55.1338 449.194 56.3285C446.89 57.1818 444.927 57.3098 443.306 56.7125C441.685 56.1152 440.405 55.0912 439.466 53.6405C438.613 52.1898 438.186 50.6112 438.186 48.9045C438.271 47.1978 438.826 45.5765 439.85 44.0405C440.959 42.5045 442.623 41.3098 444.842 40.4565C448.938 38.9205 452.693 37.8965 456.106 37.3845C459.605 36.8725 462.805 36.6165 465.706 36.6165C472.703 36.6165 478.463 37.6405 482.986 39.6885C487.594 41.6512 491.007 44.7232 493.226 48.9045C495.53 53.0005 496.682 58.2912 496.682 64.7765V90.6325C496.682 94.3872 495.786 97.2458 493.994 99.2085C492.202 101.171 489.599 102.152 486.186 102.152C482.687 102.152 479.999 101.171 478.122 99.2085C476.33 97.2458 475.434 94.3872 475.434 90.6325V87.3045L476.202 89.0965C475.775 91.8272 474.794 94.1738 473.258 96.1365C471.722 98.0992 469.717 99.6352 467.242 100.744C464.767 101.854 461.951 102.408 458.794 102.408Z"/>
<path d="M541.528 102.408C534.531 102.408 528.429 101.086 523.224 98.4405C518.019 95.7952 513.965 91.9978 511.064 87.0485C508.163 82.0992 506.712 76.2538 506.712 69.5125C506.712 64.3925 507.523 59.8272 509.144 55.8165C510.765 51.7205 513.112 48.2645 516.184 45.4485C519.256 42.5472 522.925 40.3712 527.192 38.9205C531.459 37.3845 536.237 36.6165 541.528 36.6165C548.525 36.6165 554.627 37.9392 559.832 40.5845C565.037 43.2298 569.048 47.0272 571.864 51.9765C574.765 56.8405 576.216 62.6858 576.216 69.5125C576.216 74.5472 575.405 79.1125 573.784 83.2085C572.163 87.3045 569.816 90.8032 566.744 93.7045C563.757 96.5205 560.088 98.6965 555.736 100.232C551.469 101.683 546.733 102.408 541.528 102.408ZM541.528 85.6405C543.832 85.6405 545.88 85.0858 547.672 83.9765C549.464 82.7818 550.829 81.0325 551.768 78.7285C552.792 76.3392 553.304 73.2672 553.304 69.5125C553.304 63.7952 552.195 59.6992 549.976 57.2245C547.757 54.6645 544.941 53.3845 541.528 53.3845C539.224 53.3845 537.176 53.9392 535.384 55.0485C533.592 56.1578 532.184 57.9072 531.16 60.2965C530.136 62.6005 529.624 65.6725 529.624 69.5125C529.624 75.1445 530.733 79.2405 532.952 81.8005C535.171 84.3605 538.029 85.6405 541.528 85.6405Z"/>
</mask>
<path d="M17.1761 102.152C13.5921 102.152 10.8188 101.171 8.85611 99.2085C6.89344 97.2458 5.91211 94.3872 5.91211 90.6325V48.2645C5.91211 44.5952 6.85078 41.7792 8.72811 39.8165C10.6908 37.8538 13.4641 36.8725 17.0481 36.8725C20.6321 36.8725 23.3628 37.8538 25.2401 39.8165C27.1174 41.7792 28.0561 44.5952 28.0561 48.2645V55.3045L26.6481 49.0325C28.4401 45.2778 31.0854 42.2912 34.5841 40.0725C38.1681 37.7685 42.3921 36.6165 47.2561 36.6165C51.8641 36.6165 55.7894 37.7258 59.0321 39.9445C62.3601 42.1632 64.7494 45.5338 66.2001 50.0565H64.4081C66.3708 45.8752 69.3148 42.5898 73.2401 40.2005C77.1654 37.8112 81.5174 36.6165 86.2961 36.6165C91.2454 36.6165 95.2988 37.5978 98.4561 39.5605C101.613 41.4378 103.96 44.4245 105.496 48.5205C107.117 52.5312 107.928 57.6085 107.928 63.7525V90.6325C107.928 94.3872 106.904 97.2458 104.856 99.2085C102.893 101.171 100.077 102.152 96.4081 102.152C92.8241 102.152 90.0508 101.171 88.0881 99.2085C86.1254 97.2458 85.1441 94.3872 85.1441 90.6325V64.3925C85.1441 60.7232 84.5894 58.0778 83.4801 56.4565C82.3708 54.8352 80.5361 54.0245 77.9761 54.0245C74.8188 54.0245 72.3868 55.1338 70.6801 57.3525C69.0588 59.5712 68.2481 62.7285 68.2481 66.8245V90.6325C68.2481 94.3872 67.2668 97.2458 65.3041 99.2085C63.3414 101.171 60.5254 102.152 56.8561 102.152C53.1868 102.152 50.3708 101.171 48.4081 99.2085C46.4454 97.2458 45.4641 94.3872 45.4641 90.6325V64.3925C45.4641 60.7232 44.9094 58.0778 43.8001 56.4565C42.6908 54.8352 40.8561 54.0245 38.2961 54.0245C35.2241 54.0245 32.8348 55.1338 31.1281 57.3525C29.5068 59.5712 28.6961 62.7285 28.6961 66.8245V90.6325C28.6961 98.3125 24.8561 102.152 17.1761 102.152Z" fill="#FFF2B5"/>
<path d="M143.044 102.408C138.18 102.408 133.871 101.512 130.116 99.7205C126.447 97.9285 123.545 95.4965 121.412 92.4245C119.364 89.2672 118.34 85.6832 118.34 81.6725C118.34 77.0645 119.535 73.4378 121.924 70.7925C124.313 68.1472 128.153 66.2698 133.444 65.1605C138.735 63.9658 145.775 63.3685 154.564 63.3685H161.604V74.1205H154.564C151.236 74.1205 148.463 74.3765 146.244 74.8885C144.111 75.3152 142.532 76.0405 141.508 77.0645C140.484 78.0031 139.972 79.2405 139.972 80.7765C139.972 82.7392 140.655 84.3605 142.02 85.6405C143.471 86.9205 145.519 87.5605 148.164 87.5605C150.297 87.5605 152.175 87.0912 153.796 86.1525C155.503 85.2138 156.868 83.9338 157.892 82.3125C158.916 80.6058 159.428 78.6432 159.428 76.4245V61.5765C159.428 58.5045 158.617 56.3285 156.996 55.0485C155.46 53.7685 152.772 53.1285 148.932 53.1285C146.884 53.1285 144.58 53.3845 142.02 53.8965C139.46 54.3232 136.601 55.1338 133.444 56.3285C131.14 57.1818 129.177 57.3098 127.556 56.7125C125.935 56.1152 124.655 55.0912 123.716 53.6405C122.863 52.1898 122.436 50.6112 122.436 48.9045C122.521 47.1978 123.076 45.5765 124.1 44.0405C125.209 42.5045 126.873 41.3098 129.092 40.4565C133.188 38.9205 136.943 37.8965 140.356 37.3845C143.855 36.8725 147.055 36.6165 149.956 36.6165C156.953 36.6165 162.713 37.6405 167.236 39.6885C171.844 41.6512 175.257 44.7232 177.476 48.9045C179.78 53.0005 180.932 58.2912 180.932 64.7765V90.6325C180.932 94.3872 180.036 97.2458 178.244 99.2085C176.452 101.171 173.849 102.152 170.436 102.152C166.937 102.152 164.249 101.171 162.372 99.2085C160.58 97.2458 159.684 94.3872 159.684 90.6325V87.3045L160.452 89.0965C160.025 91.8272 159.044 94.1738 157.508 96.1365C155.972 98.0992 153.967 99.6352 151.492 100.744C149.017 101.854 146.201 102.408 143.044 102.408Z" fill="#FFF2B5"/>
<path d="M205.554 102.152C201.799 102.152 198.898 101.171 196.85 99.2085C194.887 97.2458 193.906 94.3872 193.906 90.6325V48.2645C193.906 44.5952 194.845 41.7792 196.722 39.8165C198.685 37.8538 201.458 36.8725 205.042 36.8725C208.626 36.8725 211.357 37.8538 213.234 39.8165C215.111 41.7792 216.05 44.5952 216.05 48.2645V53.5125H214.77C215.623 48.3925 217.799 44.3392 221.298 41.3525C224.882 38.3658 229.319 36.7872 234.61 36.6165C237.085 36.5312 238.919 37.1712 240.114 38.5365C241.394 39.8165 242.077 42.2485 242.162 45.8325C242.162 48.9045 241.522 51.3365 240.242 53.1285C238.962 54.9205 236.53 55.9872 232.946 56.3285L230.002 56.5845C225.479 57.0112 222.194 58.2912 220.146 60.4245C218.098 62.4725 217.074 65.5445 217.074 69.6405V90.6325C217.074 94.3872 216.093 97.2458 214.13 99.2085C212.167 101.171 209.309 102.152 205.554 102.152Z" fill="#FFF2B5"/>
<path d="M260.67 102.152C257.086 102.152 254.313 101.086 252.35 98.9525C250.387 96.8192 249.406 93.7472 249.406 89.7365V49.2885C249.406 45.2778 250.387 42.2058 252.35 40.0725C254.313 37.9392 257.086 36.8725 260.67 36.8725C264.339 36.8725 267.155 37.9392 269.118 40.0725C271.166 42.2058 272.19 45.2778 272.19 49.2885V89.7365C272.19 93.7472 271.209 96.8192 269.246 98.9525C267.283 101.086 264.425 102.152 260.67 102.152ZM260.67 27.7845C256.659 27.7845 253.545 26.8458 251.326 24.9685C249.193 23.0911 248.126 20.3605 248.126 16.7765C248.126 13.2778 249.193 10.5898 251.326 8.71249C253.545 6.83515 256.659 5.89648 260.67 5.89648C264.851 5.89648 268.009 6.83515 270.142 8.71249C272.275 10.5898 273.342 13.2778 273.342 16.7765C273.342 20.3605 272.275 23.0911 270.142 24.9685C268.009 26.8458 264.851 27.7845 260.67 27.7845Z" fill="#FFF2B5"/>
<path d="M296.67 102.152C293.086 102.152 290.313 101.086 288.35 98.9525C286.387 96.8192 285.406 93.7472 285.406 89.7365V49.2885C285.406 45.2778 286.387 42.2058 288.35 40.0725C290.313 37.9392 293.086 36.8725 296.67 36.8725C300.339 36.8725 303.155 37.9392 305.118 40.0725C307.166 42.2058 308.19 45.2778 308.19 49.2885V89.7365C308.19 93.7472 307.209 96.8192 305.246 98.9525C303.283 101.086 300.425 102.152 296.67 102.152ZM296.67 27.7845C292.659 27.7845 289.545 26.8458 287.326 24.9685C285.193 23.0911 284.126 20.3605 284.126 16.7765C284.126 13.2778 285.193 10.5898 287.326 8.71249C289.545 6.83515 292.659 5.89648 296.67 5.89648C300.851 5.89648 304.009 6.83515 306.142 8.71249C308.275 10.5898 309.342 13.2778 309.342 16.7765C309.342 20.3605 308.275 23.0911 306.142 24.9685C304.009 26.8458 300.851 27.7845 296.67 27.7845Z" fill="#FFF2B5"/>
<path d="M332.926 102.152C329.342 102.152 326.569 101.171 324.606 99.2085C322.643 97.2458 321.662 94.3872 321.662 90.6325V48.2645C321.662 44.5952 322.601 41.7792 324.478 39.8165C326.441 37.8538 329.214 36.8725 332.798 36.8725C336.382 36.8725 339.113 37.8538 340.99 39.8165C342.867 41.7792 343.806 44.5952 343.806 48.2645V55.3045L342.398 49.0325C344.19 45.2778 346.835 42.2912 350.334 40.0725C353.918 37.7685 358.142 36.6165 363.006 36.6165C367.614 36.6165 371.539 37.7258 374.782 39.9445C378.11 42.1632 380.499 45.5338 381.95 50.0565H380.158C382.121 45.8752 385.065 42.5898 388.99 40.2005C392.915 37.8112 397.267 36.6165 402.046 36.6165C406.995 36.6165 411.049 37.5978 414.206 39.5605C417.363 41.4378 419.71 44.4245 421.246 48.5205C422.867 52.5312 423.678 57.6085 423.678 63.7525V90.6325C423.678 94.3872 422.654 97.2458 420.606 99.2085C418.643 101.171 415.827 102.152 412.158 102.152C408.574 102.152 405.801 101.171 403.838 99.2085C401.875 97.2458 400.894 94.3872 400.894 90.6325V64.3925C400.894 60.7232 400.339 58.0778 399.23 56.4565C398.121 54.8352 396.286 54.0245 393.726 54.0245C390.569 54.0245 388.137 55.1338 386.43 57.3525C384.809 59.5712 383.998 62.7285 383.998 66.8245V90.6325C383.998 94.3872 383.017 97.2458 381.054 99.2085C379.091 101.171 376.275 102.152 372.606 102.152C368.937 102.152 366.121 101.171 364.158 99.2085C362.195 97.2458 361.214 94.3872 361.214 90.6325V64.3925C361.214 60.7232 360.659 58.0778 359.55 56.4565C358.441 54.8352 356.606 54.0245 354.046 54.0245C350.974 54.0245 348.585 55.1338 346.878 57.3525C345.257 59.5712 344.446 62.7285 344.446 66.8245V90.6325C344.446 98.3125 340.606 102.152 332.926 102.152Z" fill="#FFF2B5"/>
<path d="M458.794 102.408C453.93 102.408 449.621 101.512 445.866 99.7205C442.197 97.9285 439.295 95.4965 437.162 92.4245C435.114 89.2672 434.09 85.6832 434.09 81.6725C434.09 77.0645 435.285 73.4378 437.674 70.7925C440.063 68.1472 443.903 66.2698 449.194 65.1605C454.485 63.9658 461.525 63.3685 470.314 63.3685H477.354V74.1205H470.314C466.986 74.1205 464.213 74.3765 461.994 74.8885C459.861 75.3152 458.282 76.0405 457.258 77.0645C456.234 78.0031 455.722 79.2405 455.722 80.7765C455.722 82.7392 456.405 84.3605 457.77 85.6405C459.221 86.9205 461.269 87.5605 463.914 87.5605C466.047 87.5605 467.925 87.0912 469.546 86.1525C471.253 85.2138 472.618 83.9338 473.642 82.3125C474.666 80.6058 475.178 78.6432 475.178 76.4245V61.5765C475.178 58.5045 474.367 56.3285 472.746 55.0485C471.21 53.7685 468.522 53.1285 464.682 53.1285C462.634 53.1285 460.33 53.3845 457.77 53.8965C455.21 54.3232 452.351 55.1338 449.194 56.3285C446.89 57.1818 444.927 57.3098 443.306 56.7125C441.685 56.1152 440.405 55.0912 439.466 53.6405C438.613 52.1898 438.186 50.6112 438.186 48.9045C438.271 47.1978 438.826 45.5765 439.85 44.0405C440.959 42.5045 442.623 41.3098 444.842 40.4565C448.938 38.9205 452.693 37.8965 456.106 37.3845C459.605 36.8725 462.805 36.6165 465.706 36.6165C472.703 36.6165 478.463 37.6405 482.986 39.6885C487.594 41.6512 491.007 44.7232 493.226 48.9045C495.53 53.0005 496.682 58.2912 496.682 64.7765V90.6325C496.682 94.3872 495.786 97.2458 493.994 99.2085C492.202 101.171 489.599 102.152 486.186 102.152C482.687 102.152 479.999 101.171 478.122 99.2085C476.33 97.2458 475.434 94.3872 475.434 90.6325V87.3045L476.202 89.0965C475.775 91.8272 474.794 94.1738 473.258 96.1365C471.722 98.0992 469.717 99.6352 467.242 100.744C464.767 101.854 461.951 102.408 458.794 102.408Z" fill="#FFF2B5"/>
<path d="M541.528 102.408C534.531 102.408 528.429 101.086 523.224 98.4405C518.019 95.7952 513.965 91.9978 511.064 87.0485C508.163 82.0992 506.712 76.2538 506.712 69.5125C506.712 64.3925 507.523 59.8272 509.144 55.8165C510.765 51.7205 513.112 48.2645 516.184 45.4485C519.256 42.5472 522.925 40.3712 527.192 38.9205C531.459 37.3845 536.237 36.6165 541.528 36.6165C548.525 36.6165 554.627 37.9392 559.832 40.5845C565.037 43.2298 569.048 47.0272 571.864 51.9765C574.765 56.8405 576.216 62.6858 576.216 69.5125C576.216 74.5472 575.405 79.1125 573.784 83.2085C572.163 87.3045 569.816 90.8032 566.744 93.7045C563.757 96.5205 560.088 98.6965 555.736 100.232C551.469 101.683 546.733 102.408 541.528 102.408ZM541.528 85.6405C543.832 85.6405 545.88 85.0858 547.672 83.9765C549.464 82.7818 550.829 81.0325 551.768 78.7285C552.792 76.3392 553.304 73.2672 553.304 69.5125C553.304 63.7952 552.195 59.6992 549.976 57.2245C547.757 54.6645 544.941 53.3845 541.528 53.3845C539.224 53.3845 537.176 53.9392 535.384 55.0485C533.592 56.1578 532.184 57.9072 531.16 60.2965C530.136 62.6005 529.624 65.6725 529.624 69.5125C529.624 75.1445 530.733 79.2405 532.952 81.8005C535.171 84.3605 538.029 85.6405 541.528 85.6405Z" fill="#FFF2B5"/>
<path d="M17.1761 102.152C13.5921 102.152 10.8188 101.171 8.85611 99.2085C6.89344 97.2458 5.91211 94.3872 5.91211 90.6325V48.2645C5.91211 44.5952 6.85078 41.7792 8.72811 39.8165C10.6908 37.8538 13.4641 36.8725 17.0481 36.8725C20.6321 36.8725 23.3628 37.8538 25.2401 39.8165C27.1174 41.7792 28.0561 44.5952 28.0561 48.2645V55.3045L26.6481 49.0325C28.4401 45.2778 31.0854 42.2912 34.5841 40.0725C38.1681 37.7685 42.3921 36.6165 47.2561 36.6165C51.8641 36.6165 55.7894 37.7258 59.0321 39.9445C62.3601 42.1632 64.7494 45.5338 66.2001 50.0565H64.4081C66.3708 45.8752 69.3148 42.5898 73.2401 40.2005C77.1654 37.8112 81.5174 36.6165 86.2961 36.6165C91.2454 36.6165 95.2988 37.5978 98.4561 39.5605C101.613 41.4378 103.96 44.4245 105.496 48.5205C107.117 52.5312 107.928 57.6085 107.928 63.7525V90.6325C107.928 94.3872 106.904 97.2458 104.856 99.2085C102.893 101.171 100.077 102.152 96.4081 102.152C92.8241 102.152 90.0508 101.171 88.0881 99.2085C86.1254 97.2458 85.1441 94.3872 85.1441 90.6325V64.3925C85.1441 60.7232 84.5894 58.0778 83.4801 56.4565C82.3708 54.8352 80.5361 54.0245 77.9761 54.0245C74.8188 54.0245 72.3868 55.1338 70.6801 57.3525C69.0588 59.5712 68.2481 62.7285 68.2481 66.8245V90.6325C68.2481 94.3872 67.2668 97.2458 65.3041 99.2085C63.3414 101.171 60.5254 102.152 56.8561 102.152C53.1868 102.152 50.3708 101.171 48.4081 99.2085C46.4454 97.2458 45.4641 94.3872 45.4641 90.6325V64.3925C45.4641 60.7232 44.9094 58.0778 43.8001 56.4565C42.6908 54.8352 40.8561 54.0245 38.2961 54.0245C35.2241 54.0245 32.8348 55.1338 31.1281 57.3525C29.5068 59.5712 28.6961 62.7285 28.6961 66.8245V90.6325C28.6961 98.3125 24.8561 102.152 17.1761 102.152Z" stroke="#5D140E" stroke-width="10" mask="url(#path-1-outside-1_50_521)"/>
<path d="M143.044 102.408C138.18 102.408 133.871 101.512 130.116 99.7205C126.447 97.9285 123.545 95.4965 121.412 92.4245C119.364 89.2672 118.34 85.6832 118.34 81.6725C118.34 77.0645 119.535 73.4378 121.924 70.7925C124.313 68.1472 128.153 66.2698 133.444 65.1605C138.735 63.9658 145.775 63.3685 154.564 63.3685H161.604V74.1205H154.564C151.236 74.1205 148.463 74.3765 146.244 74.8885C144.111 75.3152 142.532 76.0405 141.508 77.0645C140.484 78.0031 139.972 79.2405 139.972 80.7765C139.972 82.7392 140.655 84.3605 142.02 85.6405C143.471 86.9205 145.519 87.5605 148.164 87.5605C150.297 87.5605 152.175 87.0912 153.796 86.1525C155.503 85.2138 156.868 83.9338 157.892 82.3125C158.916 80.6058 159.428 78.6432 159.428 76.4245V61.5765C159.428 58.5045 158.617 56.3285 156.996 55.0485C155.46 53.7685 152.772 53.1285 148.932 53.1285C146.884 53.1285 144.58 53.3845 142.02 53.8965C139.46 54.3232 136.601 55.1338 133.444 56.3285C131.14 57.1818 129.177 57.3098 127.556 56.7125C125.935 56.1152 124.655 55.0912 123.716 53.6405C122.863 52.1898 122.436 50.6112 122.436 48.9045C122.521 47.1978 123.076 45.5765 124.1 44.0405C125.209 42.5045 126.873 41.3098 129.092 40.4565C133.188 38.9205 136.943 37.8965 140.356 37.3845C143.855 36.8725 147.055 36.6165 149.956 36.6165C156.953 36.6165 162.713 37.6405 167.236 39.6885C171.844 41.6512 175.257 44.7232 177.476 48.9045C179.78 53.0005 180.932 58.2912 180.932 64.7765V90.6325C180.932 94.3872 180.036 97.2458 178.244 99.2085C176.452 101.171 173.849 102.152 170.436 102.152C166.937 102.152 164.249 101.171 162.372 99.2085C160.58 97.2458 159.684 94.3872 159.684 90.6325V87.3045L160.452 89.0965C160.025 91.8272 159.044 94.1738 157.508 96.1365C155.972 98.0992 153.967 99.6352 151.492 100.744C149.017 101.854 146.201 102.408 143.044 102.408Z" stroke="#5D140E" stroke-width="10" mask="url(#path-1-outside-1_50_521)"/>
<path d="M205.554 102.152C201.799 102.152 198.898 101.171 196.85 99.2085C194.887 97.2458 193.906 94.3872 193.906 90.6325V48.2645C193.906 44.5952 194.845 41.7792 196.722 39.8165C198.685 37.8538 201.458 36.8725 205.042 36.8725C208.626 36.8725 211.357 37.8538 213.234 39.8165C215.111 41.7792 216.05 44.5952 216.05 48.2645V53.5125H214.77C215.623 48.3925 217.799 44.3392 221.298 41.3525C224.882 38.3658 229.319 36.7872 234.61 36.6165C237.085 36.5312 238.919 37.1712 240.114 38.5365C241.394 39.8165 242.077 42.2485 242.162 45.8325C242.162 48.9045 241.522 51.3365 240.242 53.1285C238.962 54.9205 236.53 55.9872 232.946 56.3285L230.002 56.5845C225.479 57.0112 222.194 58.2912 220.146 60.4245C218.098 62.4725 217.074 65.5445 217.074 69.6405V90.6325C217.074 94.3872 216.093 97.2458 214.13 99.2085C212.167 101.171 209.309 102.152 205.554 102.152Z" stroke="#5D140E" stroke-width="10" mask="url(#path-1-outside-1_50_521)"/>
<path d="M260.67 102.152C257.086 102.152 254.313 101.086 252.35 98.9525C250.387 96.8192 249.406 93.7472 249.406 89.7365V49.2885C249.406 45.2778 250.387 42.2058 252.35 40.0725C254.313 37.9392 257.086 36.8725 260.67 36.8725C264.339 36.8725 267.155 37.9392 269.118 40.0725C271.166 42.2058 272.19 45.2778 272.19 49.2885V89.7365C272.19 93.7472 271.209 96.8192 269.246 98.9525C267.283 101.086 264.425 102.152 260.67 102.152ZM260.67 27.7845C256.659 27.7845 253.545 26.8458 251.326 24.9685C249.193 23.0911 248.126 20.3605 248.126 16.7765C248.126 13.2778 249.193 10.5898 251.326 8.71249C253.545 6.83515 256.659 5.89648 260.67 5.89648C264.851 5.89648 268.009 6.83515 270.142 8.71249C272.275 10.5898 273.342 13.2778 273.342 16.7765C273.342 20.3605 272.275 23.0911 270.142 24.9685C268.009 26.8458 264.851 27.7845 260.67 27.7845Z" stroke="#5D140E" stroke-width="10" mask="url(#path-1-outside-1_50_521)"/>
<path d="M296.67 102.152C293.086 102.152 290.313 101.086 288.35 98.9525C286.387 96.8192 285.406 93.7472 285.406 89.7365V49.2885C285.406 45.2778 286.387 42.2058 288.35 40.0725C290.313 37.9392 293.086 36.8725 296.67 36.8725C300.339 36.8725 303.155 37.9392 305.118 40.0725C307.166 42.2058 308.19 45.2778 308.19 49.2885V89.7365C308.19 93.7472 307.209 96.8192 305.246 98.9525C303.283 101.086 300.425 102.152 296.67 102.152ZM296.67 27.7845C292.659 27.7845 289.545 26.8458 287.326 24.9685C285.193 23.0911 284.126 20.3605 284.126 16.7765C284.126 13.2778 285.193 10.5898 287.326 8.71249C289.545 6.83515 292.659 5.89648 296.67 5.89648C300.851 5.89648 304.009 6.83515 306.142 8.71249C308.275 10.5898 309.342 13.2778 309.342 16.7765C309.342 20.3605 308.275 23.0911 306.142 24.9685C304.009 26.8458 300.851 27.7845 296.67 27.7845Z" stroke="#5D140E" stroke-width="10" mask="url(#path-1-outside-1_50_521)"/>
<path d="M332.926 102.152C329.342 102.152 326.569 101.171 324.606 99.2085C322.643 97.2458 321.662 94.3872 321.662 90.6325V48.2645C321.662 44.5952 322.601 41.7792 324.478 39.8165C326.441 37.8538 329.214 36.8725 332.798 36.8725C336.382 36.8725 339.113 37.8538 340.99 39.8165C342.867 41.7792 343.806 44.5952 343.806 48.2645V55.3045L342.398 49.0325C344.19 45.2778 346.835 42.2912 350.334 40.0725C353.918 37.7685 358.142 36.6165 363.006 36.6165C367.614 36.6165 371.539 37.7258 374.782 39.9445C378.11 42.1632 380.499 45.5338 381.95 50.0565H380.158C382.121 45.8752 385.065 42.5898 388.99 40.2005C392.915 37.8112 397.267 36.6165 402.046 36.6165C406.995 36.6165 411.049 37.5978 414.206 39.5605C417.363 41.4378 419.71 44.4245 421.246 48.5205C422.867 52.5312 423.678 57.6085 423.678 63.7525V90.6325C423.678 94.3872 422.654 97.2458 420.606 99.2085C418.643 101.171 415.827 102.152 412.158 102.152C408.574 102.152 405.801 101.171 403.838 99.2085C401.875 97.2458 400.894 94.3872 400.894 90.6325V64.3925C400.894 60.7232 400.339 58.0778 399.23 56.4565C398.121 54.8352 396.286 54.0245 393.726 54.0245C390.569 54.0245 388.137 55.1338 386.43 57.3525C384.809 59.5712 383.998 62.7285 383.998 66.8245V90.6325C383.998 94.3872 383.017 97.2458 381.054 99.2085C379.091 101.171 376.275 102.152 372.606 102.152C368.937 102.152 366.121 101.171 364.158 99.2085C362.195 97.2458 361.214 94.3872 361.214 90.6325V64.3925C361.214 60.7232 360.659 58.0778 359.55 56.4565C358.441 54.8352 356.606 54.0245 354.046 54.0245C350.974 54.0245 348.585 55.1338 346.878 57.3525C345.257 59.5712 344.446 62.7285 344.446 66.8245V90.6325C344.446 98.3125 340.606 102.152 332.926 102.152Z" stroke="#5D140E" stroke-width="10" mask="url(#path-1-outside-1_50_521)"/>
<path d="M458.794 102.408C453.93 102.408 449.621 101.512 445.866 99.7205C442.197 97.9285 439.295 95.4965 437.162 92.4245C435.114 89.2672 434.09 85.6832 434.09 81.6725C434.09 77.0645 435.285 73.4378 437.674 70.7925C440.063 68.1472 443.903 66.2698 449.194 65.1605C454.485 63.9658 461.525 63.3685 470.314 63.3685H477.354V74.1205H470.314C466.986 74.1205 464.213 74.3765 461.994 74.8885C459.861 75.3152 458.282 76.0405 457.258 77.0645C456.234 78.0031 455.722 79.2405 455.722 80.7765C455.722 82.7392 456.405 84.3605 457.77 85.6405C459.221 86.9205 461.269 87.5605 463.914 87.5605C466.047 87.5605 467.925 87.0912 469.546 86.1525C471.253 85.2138 472.618 83.9338 473.642 82.3125C474.666 80.6058 475.178 78.6432 475.178 76.4245V61.5765C475.178 58.5045 474.367 56.3285 472.746 55.0485C471.21 53.7685 468.522 53.1285 464.682 53.1285C462.634 53.1285 460.33 53.3845 457.77 53.8965C455.21 54.3232 452.351 55.1338 449.194 56.3285C446.89 57.1818 444.927 57.3098 443.306 56.7125C441.685 56.1152 440.405 55.0912 439.466 53.6405C438.613 52.1898 438.186 50.6112 438.186 48.9045C438.271 47.1978 438.826 45.5765 439.85 44.0405C440.959 42.5045 442.623 41.3098 444.842 40.4565C448.938 38.9205 452.693 37.8965 456.106 37.3845C459.605 36.8725 462.805 36.6165 465.706 36.6165C472.703 36.6165 478.463 37.6405 482.986 39.6885C487.594 41.6512 491.007 44.7232 493.226 48.9045C495.53 53.0005 496.682 58.2912 496.682 64.7765V90.6325C496.682 94.3872 495.786 97.2458 493.994 99.2085C492.202 101.171 489.599 102.152 486.186 102.152C482.687 102.152 479.999 101.171 478.122 99.2085C476.33 97.2458 475.434 94.3872 475.434 90.6325V87.3045L476.202 89.0965C475.775 91.8272 474.794 94.1738 473.258 96.1365C471.722 98.0992 469.717 99.6352 467.242 100.744C464.767 101.854 461.951 102.408 458.794 102.408Z" stroke="#5D140E" stroke-width="10" mask="url(#path-1-outside-1_50_521)"/>
<path d="M541.528 102.408C534.531 102.408 528.429 101.086 523.224 98.4405C518.019 95.7952 513.965 91.9978 511.064 87.0485C508.163 82.0992 506.712 76.2538 506.712 69.5125C506.712 64.3925 507.523 59.8272 509.144 55.8165C510.765 51.7205 513.112 48.2645 516.184 45.4485C519.256 42.5472 522.925 40.3712 527.192 38.9205C531.459 37.3845 536.237 36.6165 541.528 36.6165C548.525 36.6165 554.627 37.9392 559.832 40.5845C565.037 43.2298 569.048 47.0272 571.864 51.9765C574.765 56.8405 576.216 62.6858 576.216 69.5125C576.216 74.5472 575.405 79.1125 573.784 83.2085C572.163 87.3045 569.816 90.8032 566.744 93.7045C563.757 96.5205 560.088 98.6965 555.736 100.232C551.469 101.683 546.733 102.408 541.528 102.408ZM541.528 85.6405C543.832 85.6405 545.88 85.0858 547.672 83.9765C549.464 82.7818 550.829 81.0325 551.768 78.7285C552.792 76.3392 553.304 73.2672 553.304 69.5125C553.304 63.7952 552.195 59.6992 549.976 57.2245C547.757 54.6645 544.941 53.3845 541.528 53.3845C539.224 53.3845 537.176 53.9392 535.384 55.0485C533.592 56.1578 532.184 57.9072 531.16 60.2965C530.136 62.6005 529.624 65.6725 529.624 69.5125C529.624 75.1445 530.733 79.2405 532.952 81.8005C535.171 84.3605 538.029 85.6405 541.528 85.6405Z" stroke="#5D140E" stroke-width="10" mask="url(#path-1-outside-1_50_521)"/>
</svg>
