<svg width="592" height="118" viewBox="0 0 592 118" fill="none" xmlns="http://www.w3.org/2000/svg">
<path d="M546.528 107.408C539.531 107.408 533.429 106.086 528.224 103.44C523.019 100.795 518.965 96.9975 516.064 92.0482C513.163 87.0989 511.712 81.2535 511.712 74.5122C511.712 69.3922 512.523 64.8269 514.144 60.8162C515.765 56.7202 518.112 53.2642 521.184 50.4482C524.256 47.5469 527.925 45.3709 532.192 43.9202C536.459 42.3842 541.237 41.6162 546.528 41.6162C553.525 41.6162 559.627 42.9389 564.832 45.5842C570.037 48.2295 574.048 52.0269 576.864 56.9762C579.765 61.8402 581.216 67.6855 581.216 74.5122C581.216 79.5469 580.405 84.1122 578.784 88.2082C577.163 92.3042 574.816 95.8029 571.744 98.7042C568.757 101.52 565.088 103.696 560.736 105.232C556.469 106.683 551.733 107.408 546.528 107.408ZM546.528 90.6402C548.832 90.6402 550.88 90.0855 552.672 88.9762C554.464 87.7815 555.829 86.0322 556.768 83.7282C557.792 81.3389 558.304 78.2669 558.304 74.5122C558.304 68.7949 557.195 64.6989 554.976 62.2242C552.757 59.6642 549.941 58.3842 546.528 58.3842C544.224 58.3842 542.176 58.9389 540.384 60.0482C538.592 61.1575 537.184 62.9069 536.16 65.2962C535.136 67.6002 534.624 70.6722 534.624 74.5122C534.624 80.1442 535.733 84.2402 537.952 86.8002C540.171 89.3602 543.029 90.6402 546.528 90.6402Z" fill="#FFF2B5"/>
<path d="M463.794 107.408C458.93 107.408 454.621 106.512 450.866 104.72C447.197 102.928 444.295 100.496 442.162 97.4242C440.114 94.2669 439.09 90.6829 439.09 86.6722C439.09 82.0642 440.285 78.4375 442.674 75.7922C445.063 73.1469 448.903 71.2695 454.194 70.1602C459.485 68.9656 466.525 68.3682 475.314 68.3682H482.354V79.1202H475.314C471.986 79.1202 469.213 79.3762 466.994 79.8882C464.861 80.3149 463.282 81.0402 462.258 82.0642C461.234 83.0029 460.722 84.2402 460.722 85.7762C460.722 87.7389 461.405 89.3602 462.77 90.6402C464.221 91.9202 466.269 92.5602 468.914 92.5602C471.047 92.5602 472.925 92.0909 474.546 91.1522C476.253 90.2135 477.618 88.9335 478.642 87.3122C479.666 85.6055 480.178 83.6429 480.178 81.4242V66.5762C480.178 63.5042 479.367 61.3282 477.746 60.0482C476.21 58.7682 473.522 58.1282 469.682 58.1282C467.634 58.1282 465.33 58.3842 462.77 58.8962C460.21 59.3229 457.351 60.1336 454.194 61.3282C451.89 62.1815 449.927 62.3095 448.306 61.7122C446.685 61.1149 445.405 60.0909 444.466 58.6402C443.613 57.1895 443.186 55.6109 443.186 53.9042C443.271 52.1975 443.826 50.5762 444.85 49.0402C445.959 47.5042 447.623 46.3095 449.842 45.4562C453.938 43.9202 457.693 42.8962 461.106 42.3842C464.605 41.8722 467.805 41.6162 470.706 41.6162C477.703 41.6162 483.463 42.6402 487.986 44.6882C492.594 46.6509 496.007 49.7229 498.226 53.9042C500.53 58.0002 501.682 63.2909 501.682 69.7762V95.6322C501.682 99.3869 500.786 102.246 498.994 104.208C497.202 106.171 494.599 107.152 491.186 107.152C487.687 107.152 484.999 106.171 483.122 104.208C481.33 102.246 480.434 99.3869 480.434 95.6322V92.3042L481.202 94.0962C480.775 96.8269 479.794 99.1735 478.258 101.136C476.722 103.099 474.717 104.635 472.242 105.744C469.767 106.854 466.951 107.408 463.794 107.408Z" fill="#FFF2B5"/>
<path d="M337.926 107.152C334.342 107.152 331.569 106.171 329.606 104.208C327.643 102.246 326.662 99.3869 326.662 95.6322V53.2642C326.662 49.5949 327.601 46.7789 329.478 44.8162C331.441 42.8535 334.214 41.8722 337.798 41.8722C341.382 41.8722 344.113 42.8535 345.99 44.8162C347.867 46.7789 348.806 49.5949 348.806 53.2642V60.3042L347.398 54.0322C349.19 50.2775 351.835 47.2909 355.334 45.0722C358.918 42.7682 363.142 41.6162 368.006 41.6162C372.614 41.6162 376.539 42.7255 379.782 44.9442C383.11 47.1629 385.499 50.5335 386.95 55.0562H385.158C387.121 50.8749 390.065 47.5895 393.99 45.2002C397.915 42.8109 402.267 41.6162 407.046 41.6162C411.995 41.6162 416.049 42.5975 419.206 44.5602C422.363 46.4375 424.71 49.4242 426.246 53.5202C427.867 57.5309 428.678 62.6082 428.678 68.7522V95.6322C428.678 99.3869 427.654 102.246 425.606 104.208C423.643 106.171 420.827 107.152 417.158 107.152C413.574 107.152 410.801 106.171 408.838 104.208C406.875 102.246 405.894 99.3869 405.894 95.6322V69.3922C405.894 65.7229 405.339 63.0775 404.23 61.4562C403.121 59.8349 401.286 59.0242 398.726 59.0242C395.569 59.0242 393.137 60.1335 391.43 62.3522C389.809 64.5709 388.998 67.7282 388.998 71.8242V95.6322C388.998 99.3869 388.017 102.246 386.054 104.208C384.091 106.171 381.275 107.152 377.606 107.152C373.937 107.152 371.121 106.171 369.158 104.208C367.195 102.246 366.214 99.3869 366.214 95.6322V69.3922C366.214 65.7229 365.659 63.0775 364.55 61.4562C363.441 59.8349 361.606 59.0242 359.046 59.0242C355.974 59.0242 353.585 60.1335 351.878 62.3522C350.257 64.5709 349.446 67.7282 349.446 71.8242V95.6322C349.446 103.312 345.606 107.152 337.926 107.152Z" fill="#FFF2B5"/>
<path d="M301.67 107.152C298.086 107.152 295.313 106.086 293.35 103.952C291.387 101.819 290.406 98.7472 290.406 94.7365V54.2885C290.406 50.2778 291.387 47.2058 293.35 45.0725C295.313 42.9392 298.086 41.8725 301.67 41.8725C305.339 41.8725 308.155 42.9392 310.118 45.0725C312.166 47.2058 313.19 50.2778 313.19 54.2885V94.7365C313.19 98.7472 312.209 101.819 310.246 103.952C308.283 106.086 305.425 107.152 301.67 107.152ZM301.67 32.7845C297.659 32.7845 294.545 31.8458 292.326 29.9685C290.193 28.0911 289.126 25.3605 289.126 21.7765C289.126 18.2778 290.193 15.5898 292.326 13.7125C294.545 11.8352 297.659 10.8965 301.67 10.8965C305.851 10.8965 309.009 11.8352 311.142 13.7125C313.275 15.5898 314.342 18.2778 314.342 21.7765C314.342 25.3605 313.275 28.0911 311.142 29.9685C309.009 31.8458 305.851 32.7845 301.67 32.7845Z" fill="#FFF2B5"/>
<path d="M265.67 107.152C262.086 107.152 259.313 106.086 257.35 103.952C255.387 101.819 254.406 98.7472 254.406 94.7365V54.2885C254.406 50.2778 255.387 47.2058 257.35 45.0725C259.313 42.9392 262.086 41.8725 265.67 41.8725C269.339 41.8725 272.155 42.9392 274.118 45.0725C276.166 47.2058 277.19 50.2778 277.19 54.2885V94.7365C277.19 98.7472 276.209 101.819 274.246 103.952C272.283 106.086 269.425 107.152 265.67 107.152ZM265.67 32.7845C261.659 32.7845 258.545 31.8458 256.326 29.9685C254.193 28.0911 253.126 25.3605 253.126 21.7765C253.126 18.2778 254.193 15.5898 256.326 13.7125C258.545 11.8352 261.659 10.8965 265.67 10.8965C269.851 10.8965 273.009 11.8352 275.142 13.7125C277.275 15.5898 278.342 18.2778 278.342 21.7765C278.342 25.3605 277.275 28.0911 275.142 29.9685C273.009 31.8458 269.851 32.7845 265.67 32.7845Z" fill="#FFF2B5"/>
<path d="M210.554 107.153C206.799 107.153 203.898 106.172 201.85 104.209C199.887 102.246 198.906 99.3876 198.906 95.6329V53.2649C198.906 49.5956 199.845 46.7796 201.722 44.8169C203.685 42.8542 206.458 41.8729 210.042 41.8729C213.626 41.8729 216.357 42.8542 218.234 44.8169C220.111 46.7796 221.05 49.5956 221.05 53.2649V58.5129H219.77C220.623 53.3929 222.799 49.3396 226.298 46.3529C229.882 43.3662 234.319 41.7876 239.61 41.6169C242.085 41.5316 243.919 42.1716 245.114 43.5369C246.394 44.8169 247.077 47.2489 247.162 50.8329C247.162 53.9049 246.522 56.3369 245.242 58.1289C243.962 59.9209 241.53 60.9876 237.946 61.3289L235.002 61.5849C230.479 62.0116 227.194 63.2916 225.146 65.4249C223.098 67.4729 222.074 70.5449 222.074 74.6409V95.6329C222.074 99.3876 221.093 102.246 219.13 104.209C217.167 106.172 214.309 107.153 210.554 107.153Z" fill="#FFF2B5"/>
<path d="M148.044 107.408C143.18 107.408 138.871 106.512 135.116 104.72C131.447 102.928 128.545 100.496 126.412 97.4242C124.364 94.2669 123.34 90.6829 123.34 86.6722C123.34 82.0642 124.535 78.4375 126.924 75.7922C129.313 73.1469 133.153 71.2695 138.444 70.1602C143.735 68.9656 150.775 68.3682 159.564 68.3682H166.604V79.1202H159.564C156.236 79.1202 153.463 79.3762 151.244 79.8882C149.111 80.3149 147.532 81.0402 146.508 82.0642C145.484 83.0029 144.972 84.2402 144.972 85.7762C144.972 87.7389 145.655 89.3602 147.02 90.6402C148.471 91.9202 150.519 92.5602 153.164 92.5602C155.297 92.5602 157.175 92.0909 158.796 91.1522C160.503 90.2135 161.868 88.9335 162.892 87.3122C163.916 85.6055 164.428 83.6429 164.428 81.4242V66.5762C164.428 63.5042 163.617 61.3282 161.996 60.0482C160.46 58.7682 157.772 58.1282 153.932 58.1282C151.884 58.1282 149.58 58.3842 147.02 58.8962C144.46 59.3229 141.601 60.1336 138.444 61.3282C136.14 62.1815 134.177 62.3095 132.556 61.7122C130.935 61.1149 129.655 60.0909 128.716 58.6402C127.863 57.1895 127.436 55.6109 127.436 53.9042C127.521 52.1975 128.076 50.5762 129.1 49.0402C130.209 47.5042 131.873 46.3095 134.092 45.4562C138.188 43.9202 141.943 42.8962 145.356 42.3842C148.855 41.8722 152.055 41.6162 154.956 41.6162C161.953 41.6162 167.713 42.6402 172.236 44.6882C176.844 46.6509 180.257 49.7229 182.476 53.9042C184.78 58.0002 185.932 63.2909 185.932 69.7762V95.6322C185.932 99.3869 185.036 102.246 183.244 104.208C181.452 106.171 178.849 107.152 175.436 107.152C171.937 107.152 169.249 106.171 167.372 104.208C165.58 102.246 164.684 99.3869 164.684 95.6322V92.3042L165.452 94.0962C165.025 96.8269 164.044 99.1735 162.508 101.136C160.972 103.099 158.967 104.635 156.492 105.744C154.017 106.854 151.201 107.408 148.044 107.408Z" fill="#FFF2B5"/>
<path d="M22.1761 107.152C18.5921 107.152 15.8188 106.171 13.8561 104.208C11.8934 102.246 10.9121 99.3869 10.9121 95.6322V53.2642C10.9121 49.5949 11.8508 46.7789 13.7281 44.8162C15.6908 42.8535 18.4641 41.8722 22.0481 41.8722C25.6321 41.8722 28.3628 42.8535 30.2401 44.8162C32.1174 46.7789 33.0561 49.5949 33.0561 53.2642V60.3042L31.6481 54.0322C33.4401 50.2775 36.0854 47.2909 39.5841 45.0722C43.1681 42.7682 47.3921 41.6162 52.2561 41.6162C56.8641 41.6162 60.7894 42.7255 64.0321 44.9442C67.3601 47.1629 69.7494 50.5335 71.2001 55.0562H69.4081C71.3708 50.8749 74.3148 47.5895 78.2401 45.2002C82.1654 42.8109 86.5174 41.6162 91.2961 41.6162C96.2454 41.6162 100.299 42.5975 103.456 44.5602C106.613 46.4375 108.96 49.4242 110.496 53.5202C112.117 57.5309 112.928 62.6082 112.928 68.7522V95.6322C112.928 99.3869 111.904 102.246 109.856 104.208C107.893 106.171 105.077 107.152 101.408 107.152C97.8241 107.152 95.0508 106.171 93.0881 104.208C91.1254 102.246 90.1441 99.3869 90.1441 95.6322V69.3922C90.1441 65.7229 89.5894 63.0775 88.4801 61.4562C87.3708 59.8349 85.5361 59.0242 82.9761 59.0242C79.8188 59.0242 77.3868 60.1335 75.6801 62.3522C74.0588 64.5709 73.2481 67.7282 73.2481 71.8242V95.6322C73.2481 99.3869 72.2668 102.246 70.3041 104.208C68.3414 106.171 65.5254 107.152 61.8561 107.152C58.1868 107.152 55.3708 106.171 53.4081 104.208C51.4454 102.246 50.4641 99.3869 50.4641 95.6322V69.3922C50.4641 65.7229 49.9094 63.0775 48.8001 61.4562C47.6908 59.8349 45.8561 59.0242 43.2961 59.0242C40.2241 59.0242 37.8348 60.1335 36.1281 62.3522C34.5068 64.5709 33.6961 67.7282 33.6961 71.8242V95.6322C33.6961 103.312 29.8561 107.152 22.1761 107.152Z" fill="#FFF2B5"/>
<path fill-rule="evenodd" clip-rule="evenodd" d="M528.224 103.44C533.429 106.086 539.531 107.408 546.528 107.408C551.733 107.408 556.469 106.683 560.736 105.232C565.088 103.696 568.757 101.52 571.744 98.7042C574.816 95.8029 577.163 92.3042 578.784 88.2082C580.405 84.1122 581.216 79.5469 581.216 74.5122C581.216 67.6855 579.765 61.8402 576.864 56.9762C574.048 52.0269 570.037 48.2295 564.832 45.5842C559.627 42.9389 553.525 41.6162 546.528 41.6162C541.237 41.6162 536.459 42.3842 532.192 43.9202C527.925 45.3709 524.256 47.5469 521.184 50.4482C518.112 53.2642 515.765 56.7202 514.144 60.8162C512.523 64.8269 511.712 69.3922 511.712 74.5122C511.712 81.2535 513.163 87.0989 516.064 92.0482C518.965 96.9975 523.019 100.795 528.224 103.44ZM585.506 51.9432C581.697 45.2892 576.236 40.1627 569.362 36.6694C562.501 33.1825 554.79 31.6162 546.528 31.6162C540.303 31.6162 534.383 32.5158 528.889 34.4811C523.413 36.3551 518.524 39.221 514.372 43.1267C510.158 47.005 506.997 51.7171 504.86 57.0993C502.687 62.4895 501.712 68.3508 501.712 74.5122C501.712 82.7174 503.49 90.3725 507.437 97.1054C511.324 103.737 516.814 108.859 523.693 112.355C530.555 115.842 538.266 117.408 546.528 117.408C552.662 117.408 558.505 116.553 563.955 114.7L564.01 114.681L564.064 114.662C569.567 112.72 574.484 109.865 578.604 105.98L578.61 105.974C582.791 102.026 585.946 97.2854 588.082 91.8887C590.228 86.4659 591.216 80.6286 591.216 74.5122C591.216 66.29 589.467 58.6257 585.506 51.9432ZM554.976 62.2242C552.757 59.6642 549.941 58.3842 546.528 58.3842C544.224 58.3842 542.176 58.9389 540.384 60.0482C538.592 61.1575 537.184 62.9069 536.16 65.2962C535.136 67.6002 534.624 70.6722 534.624 74.5122C534.624 80.1442 535.733 84.2402 537.952 86.8002C540.171 89.3602 543.029 90.6402 546.528 90.6402C548.832 90.6402 550.88 90.0855 552.672 88.9762C554.464 87.7815 555.829 86.0322 556.768 83.7282C557.792 81.3389 558.304 78.2669 558.304 74.5122C558.304 68.7949 557.195 64.6989 554.976 62.2242ZM547.192 80.568C547.257 80.4743 547.372 80.2854 547.507 79.9552L547.541 79.8718L547.576 79.789C547.885 79.0686 548.304 77.4663 548.304 74.5122C548.304 72.2522 548.079 70.7256 547.82 69.7664C547.664 69.1898 547.523 68.919 547.478 68.8412L547.474 68.8371L547.419 68.7735C547.281 68.6148 547.184 68.5326 547.135 68.4954C547.089 68.4599 547.067 68.45 547.062 68.4479C547.057 68.4457 547.03 68.4334 546.963 68.4196C546.893 68.4052 546.754 68.3842 546.528 68.3842C546.089 68.3842 545.864 68.4467 545.747 68.4978C545.677 68.5923 545.531 68.816 545.351 69.2354L545.325 69.2967L545.298 69.3576C545.06 69.8923 544.624 71.4103 544.624 74.5122C544.624 76.7145 544.845 78.224 545.108 79.1941C545.305 79.9204 545.489 80.216 545.524 80.2678C545.642 80.4029 545.726 80.4727 545.768 80.5044C545.81 80.5359 545.833 80.5473 545.847 80.5534C545.848 80.5538 546.022 80.6402 546.528 80.6402C546.851 80.6402 547.058 80.6063 547.192 80.568ZM547.463 68.8168C547.463 68.817 547.463 68.8171 547.463 68.8176Z" fill="#5D140E"/>
<path fill-rule="evenodd" clip-rule="evenodd" d="M450.866 104.72C454.621 106.512 458.93 107.408 463.794 107.408C466.951 107.408 469.767 106.854 472.242 105.744C472.278 105.728 472.313 105.712 472.348 105.696C474.774 104.591 476.744 103.071 478.258 101.136C478.512 100.811 478.751 100.476 478.975 100.13C479.068 99.9872 479.158 99.8424 479.245 99.6957C479.287 99.6253 479.328 99.5544 479.369 99.483C479.809 98.715 480.178 97.8987 480.478 97.0342C480.526 97.7593 480.611 98.4464 480.734 99.0956C481.133 101.197 481.929 102.901 483.122 104.208C484.106 105.237 485.313 105.996 486.742 106.486C488.04 106.93 489.521 107.152 491.186 107.152C494.599 107.152 497.202 106.171 498.994 104.208C500.786 102.246 501.682 99.3869 501.682 95.6322V69.7762C501.682 63.2909 500.53 58.0002 498.226 53.9042C496.007 49.7229 492.594 46.6509 487.986 44.6882C483.463 42.6402 477.703 41.6162 470.706 41.6162C467.805 41.6162 464.605 41.8722 461.106 42.3842C457.693 42.8962 453.938 43.9202 449.842 45.4562C447.623 46.3095 445.959 47.5042 444.85 49.0402C443.826 50.5762 443.271 52.1975 443.186 53.9042C443.186 55.6109 443.613 57.1895 444.466 58.6402C445.303 59.9338 446.411 60.8881 447.791 61.5031C447.959 61.5778 448.13 61.6475 448.306 61.7122C449.47 62.1409 450.809 62.196 452.324 61.8776C452.366 61.8687 452.409 61.8595 452.452 61.85C453.009 61.726 453.59 61.552 454.194 61.3282C457.351 60.1335 460.21 59.3229 462.77 58.8962C462.944 58.8615 463.116 58.8279 463.288 58.7955C465.642 58.3506 467.773 58.1282 469.682 58.1282C471.066 58.1282 472.3 58.2113 473.385 58.3775C474.091 58.4858 474.734 58.6294 475.314 58.8083C476.314 59.1167 477.124 59.53 477.746 60.0482C479.367 61.3282 480.178 63.5042 480.178 66.5762V68.3682H475.314C474.304 68.3682 473.318 68.3761 472.354 68.3919C471.615 68.404 470.89 68.4207 470.178 68.442C468.227 68.5006 466.377 68.594 464.63 68.7223C464.556 68.7277 464.483 68.7331 464.411 68.7386C461.816 68.9344 459.448 69.2078 457.308 69.5588C457.288 69.5622 457.267 69.5656 457.246 69.569C456.171 69.7464 455.154 69.9435 454.194 70.1602C451.988 70.6227 450.035 71.2186 448.334 71.948C445.954 72.9683 444.067 74.2497 442.674 75.7922C440.285 78.4375 439.09 82.0642 439.09 86.6722C439.09 90.6829 440.114 94.2669 442.162 97.4242C444.295 100.496 447.197 102.928 450.866 104.72ZM470.434 92.4759C470.799 92.4342 471.155 92.3769 471.503 92.3042C472.207 92.1571 472.877 91.9465 473.512 91.6725C473.867 91.519 474.212 91.3456 474.546 91.1522C475.559 90.5951 476.452 89.9178 477.224 89.1202C477.753 88.5739 478.226 87.9713 478.642 87.3122C479.666 85.6055 480.178 83.6429 480.178 81.4242V79.1202H475.314C473.423 79.1202 471.711 79.2029 470.178 79.3682C469.013 79.4938 467.952 79.6672 466.994 79.8882C464.861 80.3149 463.282 81.0402 462.258 82.0642C461.234 83.0029 460.722 84.2402 460.722 85.7762C460.722 87.7389 461.405 89.3602 462.77 90.6402C464.221 91.9202 466.269 92.5602 468.914 92.5602C469.436 92.5602 469.943 92.5321 470.434 92.4759ZM437.978 66.5319C437.28 65.7776 436.642 64.9565 436.07 64.0727L435.955 63.894L435.847 63.7104C434.076 60.7004 433.186 57.3675 433.186 53.9042V53.6544L433.199 53.4048C433.381 49.7519 434.588 46.4057 436.53 43.4932L436.634 43.3373L436.743 43.1853C439.247 39.7189 442.683 37.4957 446.252 36.1228L446.292 36.1077L446.331 36.0929C450.917 34.373 455.362 33.134 459.623 32.4949L459.64 32.4922L459.658 32.4896C463.537 31.922 467.229 31.6162 470.706 31.6162C478.54 31.6162 485.796 32.7426 492.009 35.5324C498.505 38.3241 503.66 42.8706 507.002 49.1088C510.363 55.1405 511.682 62.2401 511.682 69.7762V95.6322C511.682 100.854 510.437 106.506 506.379 110.951C502.187 115.542 496.561 117.152 491.186 117.152C486.945 117.152 482.566 116.184 478.814 113.606C478.012 114.067 477.184 114.488 476.333 114.869C472.377 116.642 468.132 117.408 463.794 117.408C457.69 117.408 451.868 116.279 446.559 113.745L446.518 113.726L446.478 113.706C441.419 111.235 437.144 107.729 433.948 103.128L433.858 102.999L433.772 102.866C430.603 97.9803 429.09 92.4813 429.09 86.6722C429.09 80.3333 430.764 74.0595 435.253 69.0893C436.098 68.1537 437.01 67.3038 437.978 66.5319Z" fill="#5D140E"/>
<path fill-rule="evenodd" clip-rule="evenodd" d="M329.606 104.208C331.569 106.171 334.342 107.152 337.926 107.152C345.606 107.152 349.446 103.312 349.446 95.6322V71.8242C349.446 67.7282 350.257 64.5709 351.878 62.3522C352.297 61.8078 352.757 61.3302 353.258 60.9193C353.532 60.6942 353.819 60.4892 354.118 60.3042C355.44 59.4869 357.003 59.061 358.806 59.0265C358.886 59.025 358.966 59.0242 359.046 59.0242C361.606 59.0242 363.441 59.8349 364.55 61.4562C365.659 63.0775 366.214 65.7229 366.214 69.3922V95.6322C366.214 99.3869 367.195 102.246 369.158 104.208C371.121 106.171 373.937 107.152 377.606 107.152C381.275 107.152 384.091 106.171 386.054 104.208C388.017 102.246 388.998 99.3869 388.998 95.6322V71.8242C388.998 69.1758 389.337 66.9198 390.015 65.0562C390.385 64.0376 390.857 63.1363 391.43 62.3522C393.137 60.1339 395.568 59.0245 398.725 59.0242C398.725 59.0242 398.726 59.0242 398.726 59.0242C401.286 59.0242 403.121 59.8349 404.23 61.4562C405.339 63.0775 405.894 65.7229 405.894 69.3922V95.6322C405.894 99.3869 406.875 102.246 408.838 104.208C410.801 106.171 413.574 107.152 417.158 107.152C420.827 107.152 423.643 106.171 425.606 104.208C427.654 102.246 428.678 99.3869 428.678 95.6322V68.7522C428.678 62.6082 427.867 57.5309 426.246 53.5202C424.71 49.4242 422.363 46.4375 419.206 44.5602C416.049 42.5975 411.995 41.6162 407.046 41.6162C402.267 41.6162 397.915 42.8109 393.99 45.2002C393.853 45.2838 393.717 45.3685 393.582 45.4543C390.895 47.1626 388.684 49.3057 386.95 51.8837C386.695 52.2636 386.449 52.653 386.214 53.0518C385.894 52.2842 385.542 51.5557 385.158 50.8663C383.778 48.3872 381.986 46.4132 379.782 44.9442C379.746 44.9194 379.71 44.8948 379.673 44.8703C376.452 42.7009 372.563 41.6162 368.006 41.6162C363.939 41.6162 360.32 42.4216 357.148 44.0324C356.526 44.3481 355.921 44.6947 355.334 45.0722C352.623 46.7915 350.424 48.9719 348.738 51.6135C348.491 48.7393 347.575 46.4735 345.99 44.8162C345.135 43.9221 344.102 43.2316 342.893 42.7448C341.448 42.1631 339.749 41.8722 337.798 41.8722C334.214 41.8722 331.441 42.8535 329.478 44.8162C327.601 46.7789 326.662 49.5949 326.662 53.2642V95.6322C326.662 99.3869 327.643 102.246 329.606 104.208ZM351.054 35.9692C347.093 32.9485 342.339 31.8722 337.798 31.8722C332.369 31.8722 326.748 33.4046 322.407 37.7451L322.328 37.8237L322.252 37.904C318.045 42.3022 316.662 47.9429 316.662 53.2642V95.6322C316.662 101.078 318.112 106.856 322.535 111.279C326.876 115.62 332.497 117.152 337.926 117.152C343.308 117.152 349.18 115.8 353.637 111.343C355.591 109.389 356.949 107.163 357.857 104.825C358.781 107.142 360.149 109.341 362.087 111.279C366.47 115.662 372.17 117.152 377.606 117.152C383.043 117.152 388.743 115.662 393.125 111.279C395.128 109.277 396.521 106.996 397.446 104.594C398.371 106.996 399.764 109.277 401.767 111.279C406.108 115.62 411.729 117.152 417.158 117.152C422.563 117.152 428.229 115.679 432.601 111.355C437.136 106.961 438.678 101.162 438.678 95.6322V68.7522C438.678 61.8707 437.79 55.453 435.565 49.8905C433.395 44.169 429.785 39.2456 424.403 36.0162C419.236 32.8309 413.226 31.6162 407.046 31.6162C400.51 31.6162 394.347 33.2762 388.791 36.6582C388.176 37.0326 387.577 37.4233 386.994 37.8302C386.475 37.4221 385.937 37.0308 385.379 36.6568C380.212 33.1384 374.252 31.6162 368.006 31.6162C361.951 31.6162 356.192 32.971 351.054 35.9692ZM355.954 66.4784C355.95 66.4659 355.948 66.4596 355.948 66.4598C355.948 66.46 355.951 66.4661 355.954 66.4784Z" fill="#5D140E"/>
<path fill-rule="evenodd" clip-rule="evenodd" d="M285.793 37.5397L285.72 37.4756C280.889 33.2248 279.126 27.4271 279.126 21.7765C279.126 16.1241 280.942 10.41 285.72 6.20535L285.793 6.14127L285.867 6.07862C290.473 2.18072 296.189 0.896484 301.67 0.896484C307.163 0.896484 313.094 2.10989 317.748 6.20535C322.526 10.41 324.342 16.1241 324.342 21.7765C324.342 27.4271 322.579 33.2248 317.748 37.4756C317.556 37.6451 317.361 37.8096 317.164 37.9693C317.245 38.0532 317.325 38.1382 317.405 38.2241C321.743 42.7908 323.19 48.6663 323.19 54.2885V94.7365C323.19 100.287 321.824 106.137 317.605 110.723C313.229 115.48 307.348 117.152 301.67 117.152C295.999 117.152 290.28 115.385 285.991 110.723C281.772 106.137 280.406 100.287 280.406 94.7365V54.2885C280.406 48.7382 281.772 42.8878 285.991 38.3019C286.096 38.1879 286.201 38.0757 286.308 37.9651C286.16 37.8468 286.013 37.7259 285.867 37.6023L285.793 37.5397ZM297.077 32.2845C298.449 32.6178 299.98 32.7845 301.67 32.7845C303.416 32.7845 304.983 32.6209 306.371 32.2937C308.309 31.8371 309.899 31.0621 311.142 29.9685C313.275 28.0911 314.342 25.3605 314.342 21.7765C314.342 18.2778 313.275 15.5898 311.142 13.7125C309.009 11.8352 305.851 10.8965 301.67 10.8965C297.659 10.8965 294.545 11.8352 292.326 13.7125C290.193 15.5898 289.126 18.2778 289.126 21.7765C289.126 25.3605 290.193 28.0911 292.326 29.9685C293.61 31.0548 295.194 31.8268 297.077 32.2845ZM297.38 42.5019C295.785 43.0284 294.442 43.8853 293.35 45.0725C291.387 47.2058 290.406 50.2778 290.406 54.2885V94.7365C290.406 98.7472 291.387 101.819 293.35 103.952C295.313 106.086 298.086 107.152 301.67 107.152C305.425 107.152 308.283 106.086 310.246 103.952C312.209 101.819 313.19 98.7472 313.19 94.7365V54.2885C313.19 50.2778 312.166 47.2058 310.118 45.0725C309.027 43.8866 307.672 43.0303 306.054 42.5036C304.761 42.0829 303.3 41.8725 301.67 41.8725C300.08 41.8725 298.65 42.0823 297.38 42.5019Z" fill="#5D140E"/>
<path fill-rule="evenodd" clip-rule="evenodd" d="M249.792 37.5397L249.72 37.4756C244.889 33.2248 243.126 27.4271 243.126 21.7765C243.126 16.1241 244.942 10.41 249.72 6.20535L249.793 6.14127L249.867 6.07862C254.473 2.18072 260.189 0.896484 265.67 0.896484C271.163 0.896484 277.094 2.10989 281.748 6.20535C286.526 10.41 288.342 16.1241 288.342 21.7765C288.342 27.4271 286.579 33.2248 281.748 37.4756C281.556 37.6451 281.361 37.8096 281.164 37.9693C281.245 38.0532 281.325 38.1382 281.405 38.2241C285.743 42.7908 287.19 48.6663 287.19 54.2885V94.7365C287.19 100.287 285.824 106.137 281.605 110.723C277.229 115.48 271.348 117.152 265.67 117.152C259.999 117.152 254.28 115.385 249.991 110.723C245.772 106.137 244.406 100.287 244.406 94.7365V59.0551C244.725 58.7714 245.003 58.4626 245.242 58.1285C245.997 57.0713 246.53 55.7913 246.839 54.2885C247.054 53.2441 247.162 52.0921 247.162 50.8325C247.099 48.2026 246.715 46.193 246.009 44.8037C246.887 42.4852 248.174 40.2764 249.991 38.3019C250.096 38.1879 250.201 38.0757 250.308 37.9651C250.16 37.8468 250.013 37.7259 249.867 37.6023L249.792 37.5397ZM261.077 32.2845C262.449 32.6178 263.98 32.7845 265.67 32.7845C267.416 32.7845 268.983 32.6209 270.371 32.2937C272.309 31.8371 273.899 31.0621 275.142 29.9685C277.275 28.0911 278.342 25.3605 278.342 21.7765C278.342 18.2778 277.275 15.5898 275.142 13.7125C273.009 11.8352 269.851 10.8965 265.67 10.8965C261.659 10.8965 258.545 11.8352 256.326 13.7125C254.193 15.5898 253.126 18.2778 253.126 21.7765C253.126 25.3605 254.193 28.0911 256.326 29.9685C257.61 31.0548 259.194 31.8268 261.077 32.2845ZM261.38 42.5019C259.785 43.0284 258.442 43.8853 257.35 45.0725C255.387 47.2058 254.406 50.2778 254.406 54.2885V94.7365C254.406 98.7472 255.387 101.819 257.35 103.952C259.313 106.086 262.086 107.152 265.67 107.152C269.425 107.152 272.283 106.086 274.246 103.952C276.209 101.819 277.19 98.7472 277.19 94.7365V54.2885C277.19 50.2778 276.166 47.2058 274.118 45.0725C273.027 43.8866 271.672 43.0303 270.054 42.5036C268.761 42.0829 267.3 41.8725 265.67 41.8725C264.08 41.8725 262.65 42.0823 261.38 42.5019Z" fill="#5D140E"/>
<path fill-rule="evenodd" clip-rule="evenodd" d="M201.85 104.208C203.898 106.171 206.799 107.152 210.554 107.152C214.309 107.152 217.167 106.171 219.13 104.208C221.093 102.246 222.074 99.387 222.074 95.6323V74.6403C222.074 72.2485 222.423 70.2058 223.122 68.5123C223.619 67.3057 224.294 66.2764 225.146 65.4243C226.54 63.9718 228.508 62.9149 231.05 62.2535C232.241 61.9436 233.559 61.7205 235.002 61.5843L237.946 61.3283C241.53 60.987 243.962 59.9203 245.242 58.1283C246.522 56.3363 247.162 53.9043 247.162 50.8323C247.077 47.2483 246.394 44.8163 245.114 43.5363C243.919 42.171 242.085 41.531 239.61 41.6163C235.779 41.7399 232.395 42.6018 229.459 44.2021C228.34 44.8117 227.287 45.5285 226.298 46.3523C224.095 48.2332 222.416 50.5372 221.262 53.2643C221.189 53.4359 221.118 53.6092 221.05 53.7841V53.2643C221.05 51.4781 220.828 49.8941 220.383 48.5123C219.914 47.0556 219.197 45.8236 218.234 44.8163C217.525 44.0756 216.695 43.4746 215.744 43.0135C214.174 42.2527 212.273 41.8723 210.042 41.8723C206.458 41.8723 203.685 42.8536 201.722 44.8163C199.845 46.779 198.906 49.595 198.906 53.2643V95.6323C198.906 99.387 199.887 102.246 201.85 104.208ZM223.479 36.1085C219.482 32.9816 214.652 31.8723 210.042 31.8723C204.613 31.8723 198.991 33.4047 194.651 37.7452L194.572 37.8238L194.496 37.9041C190.289 42.3023 188.906 47.943 188.906 53.2643V95.6323C188.906 101.078 190.356 106.856 194.779 111.279L194.854 111.355L194.931 111.428C199.38 115.692 205.08 117.152 210.554 117.152C215.999 117.152 221.778 115.703 226.201 111.279C230.624 106.856 232.074 101.078 232.074 95.6323V74.6403C232.074 73.3958 232.233 72.714 232.329 72.4266C232.334 72.4105 232.339 72.3959 232.344 72.3829C232.417 72.3403 232.553 72.269 232.776 72.1821C233.345 71.9605 234.338 71.6938 235.909 71.5432L238.853 71.2872L238.894 71.2833C243.577 70.8373 249.598 69.2353 253.379 63.9407C253.754 63.4157 254.096 62.8793 254.406 62.3338V54.2883C254.406 53.0463 254.5 51.8943 254.688 50.8323C254.699 50.772 254.71 50.712 254.721 50.6523C255.08 48.7545 255.746 47.1498 256.717 45.8382C256.173 42.754 254.989 39.404 252.43 36.7158C248.625 32.5402 243.512 31.478 239.276 31.6219C233.573 31.8075 228.207 33.2353 223.479 36.1085ZM232.36 72.3496C232.358 72.3518 232.356 72.3538 232.354 72.3559L232.36 72.3496Z" fill="#5D140E"/>
<path fill-rule="evenodd" clip-rule="evenodd" d="M135.116 104.72C138.871 106.512 143.18 107.408 148.044 107.408C151.201 107.408 154.017 106.854 156.492 105.744C156.528 105.728 156.563 105.712 156.598 105.696C159.024 104.591 160.994 103.071 162.508 101.136C162.762 100.811 163.001 100.476 163.225 100.13C163.318 99.9872 163.408 99.8423 163.495 99.6957C163.537 99.6252 163.578 99.5544 163.619 99.483C164.059 98.715 164.428 97.8987 164.728 97.0342C164.776 97.7592 164.861 98.4464 164.984 99.0956C165.383 101.197 166.179 102.901 167.372 104.208C168.356 105.237 169.563 105.996 170.992 106.486C172.29 106.93 173.771 107.152 175.436 107.152C178.849 107.152 181.452 106.171 183.244 104.208C185.036 102.246 185.932 99.3869 185.932 95.6322V69.7762C185.932 63.2909 184.78 58.0002 182.476 53.9042C180.257 49.7229 176.844 46.6509 172.236 44.6882C167.713 42.6402 161.953 41.6162 154.956 41.6162C152.055 41.6162 148.855 41.8722 145.356 42.3842C141.943 42.8962 138.188 43.9202 134.092 45.4562C131.873 46.3095 130.209 47.5042 129.1 49.0402C128.076 50.5762 127.521 52.1975 127.436 53.9042C127.436 55.6109 127.863 57.1895 128.716 58.6402C129.553 59.9338 130.661 60.8881 132.041 61.5031C132.209 61.5778 132.38 61.6475 132.556 61.7122C133.72 62.1409 135.059 62.196 136.574 61.8776C136.616 61.8687 136.659 61.8595 136.702 61.85C137.259 61.7259 137.84 61.552 138.444 61.3282C141.601 60.1335 144.46 59.3229 147.02 58.8962C147.194 58.8615 147.367 58.8279 147.538 58.7955C149.892 58.3506 152.023 58.1282 153.932 58.1282C155.316 58.1282 156.55 58.2113 157.635 58.3775C158.341 58.4858 158.984 58.6294 159.564 58.8083C160.564 59.1167 161.374 59.53 161.996 60.0482C163.617 61.3282 164.428 63.5042 164.428 66.5762V68.3682H159.564C158.554 68.3682 157.568 68.3761 156.604 68.3919C155.865 68.404 155.14 68.4207 154.428 68.442C152.477 68.5006 150.627 68.594 148.88 68.7223C148.806 68.7277 148.733 68.7331 148.661 68.7386C146.066 68.9344 143.698 69.2078 141.558 69.5588C141.538 69.5622 141.517 69.5656 141.496 69.569C140.421 69.7464 139.404 69.9435 138.444 70.1602C136.239 70.6227 134.285 71.2186 132.584 71.948C130.204 72.9683 128.317 74.2497 126.924 75.7922C124.535 78.4375 123.34 82.0642 123.34 86.6722C123.34 90.6829 124.364 94.2669 126.412 97.4242C128.545 100.496 131.447 102.928 135.116 104.72ZM154.684 92.4759C155.049 92.4342 155.405 92.3769 155.753 92.3042C156.457 92.1571 157.127 91.9465 157.762 91.6725C158.117 91.519 158.462 91.3456 158.796 91.1522C159.809 90.5951 160.702 89.9178 161.474 89.1202C162.003 88.5739 162.476 87.9713 162.892 87.3122C163.916 85.6055 164.428 83.6429 164.428 81.4242V79.1202H159.564C157.673 79.1202 155.961 79.2029 154.428 79.3682C153.263 79.4938 152.202 79.6672 151.244 79.8882C149.111 80.3149 147.532 81.0402 146.508 82.0642C145.484 83.0029 144.972 84.2402 144.972 85.7762C144.972 87.7389 145.655 89.3602 147.02 90.6402C148.471 91.9202 150.519 92.5602 153.164 92.5602C153.686 92.5602 154.193 92.5321 154.684 92.4759ZM122.228 66.5319C121.53 65.7776 120.892 64.9565 120.32 64.0727L120.205 63.894L120.097 63.7104C118.326 60.7004 117.436 57.3675 117.436 53.9042V53.6544L117.449 53.4048C117.631 49.7519 118.838 46.4057 120.78 43.4932L120.884 43.3373L120.993 43.1853C123.497 39.7189 126.933 37.4957 130.502 36.1228L130.542 36.1077L130.581 36.0929C135.167 34.373 139.612 33.134 143.873 32.4949L143.89 32.4922L143.908 32.4896C147.787 31.922 151.479 31.6162 154.956 31.6162C162.79 31.6162 170.046 32.7426 176.258 35.5324C182.755 38.3241 187.91 42.8706 191.252 49.1088C194.613 55.1405 195.932 62.2401 195.932 69.7762V95.6322C195.932 100.854 194.687 106.506 190.629 110.951C186.437 115.542 180.811 117.152 175.436 117.152C171.195 117.152 166.816 116.184 163.064 113.606C162.262 114.067 161.434 114.488 160.583 114.869C156.627 116.642 152.382 117.408 148.044 117.408C141.94 117.408 136.118 116.279 130.809 113.745L130.768 113.726L130.728 113.706C125.669 111.235 121.394 107.729 118.198 103.128L118.108 102.999L118.022 102.866C114.853 97.9803 113.34 92.4813 113.34 86.6722C113.34 80.3333 115.014 74.0595 119.503 69.0893C120.348 68.1537 121.26 67.3038 122.228 66.5319Z" fill="#5D140E"/>
<path fill-rule="evenodd" clip-rule="evenodd" d="M13.8561 104.208C15.8188 106.171 18.5921 107.152 22.1761 107.152C29.8561 107.152 33.6961 103.312 33.6961 95.6322V71.8242C33.6961 67.7282 34.5068 64.5709 36.1281 62.3522C36.5469 61.8078 37.0068 61.3302 37.5078 60.9193C37.7823 60.6942 38.0691 60.4892 38.3683 60.3042C39.69 59.4869 41.2526 59.061 43.0561 59.0265C43.1356 59.025 43.2156 59.0242 43.2961 59.0242C45.8561 59.0242 47.6908 59.8349 48.8001 61.4562C49.9094 63.0775 50.4641 65.7229 50.4641 69.3922V95.6322C50.4641 99.3869 51.4454 102.246 53.4081 104.208C55.3708 106.171 58.1868 107.152 61.8561 107.152C65.5254 107.152 68.3414 106.171 70.3041 104.208C72.2668 102.246 73.2481 99.3869 73.2481 95.6322V71.8242C73.2481 69.1758 73.587 66.9198 74.2649 65.0562C74.6354 64.0376 75.1071 63.1363 75.6801 62.3522C77.3865 60.1339 79.8181 59.0245 82.9747 59.0242C82.9752 59.0242 82.9756 59.0242 82.9761 59.0242C85.5361 59.0242 87.3708 59.8349 88.4801 61.4562C89.5894 63.0775 90.1441 65.7229 90.1441 69.3922V95.6322C90.1441 99.3869 91.1254 102.246 93.0881 104.208C95.0508 106.171 97.8241 107.152 101.408 107.152C105.077 107.152 107.893 106.171 109.856 104.208C111.904 102.246 112.928 99.3869 112.928 95.6322V68.7522C112.928 62.6082 112.117 57.5309 110.496 53.5202C108.96 49.4242 106.613 46.4375 103.456 44.5602C100.299 42.5975 96.2454 41.6162 91.2961 41.6162C86.5174 41.6162 82.1654 42.8109 78.2401 45.2002C78.1028 45.2838 77.9666 45.3685 77.8317 45.4543C75.1449 47.1626 72.9343 49.3057 71.2001 51.8837C70.9445 52.2636 70.6993 52.653 70.4644 53.0518C70.1441 52.2842 69.792 51.5557 69.4081 50.8663C68.0276 48.3872 66.2356 46.4132 64.0321 44.9442C63.9959 44.9194 63.9596 44.8948 63.9232 44.8703C60.7017 42.7009 56.8127 41.6162 52.2561 41.6162C48.1892 41.6162 44.5696 42.4216 41.3976 44.0324C40.7759 44.3481 40.1714 44.6947 39.5841 45.0722C36.873 46.7915 34.6743 48.9719 32.9879 51.6135C32.7413 48.7393 31.8254 46.4735 30.2401 44.8162C29.3848 43.9221 28.3525 43.2316 27.143 42.7448C25.6976 42.1631 23.9993 41.8722 22.0481 41.8722C18.4641 41.8722 15.6908 42.8535 13.7281 44.8162C11.8508 46.7789 10.9121 49.5949 10.9121 53.2642V95.6322C10.9121 99.3869 11.8934 102.246 13.8561 104.208ZM35.3045 35.9692C31.3429 32.9485 26.5891 31.8722 22.0481 31.8722C16.6189 31.8722 10.9975 33.4046 6.65704 37.7451L6.57848 37.8237L6.50169 37.904C2.2947 42.3022 0.912109 47.9429 0.912109 53.2642V95.6322C0.912109 101.078 2.36188 106.856 6.78504 111.279C11.1255 115.62 16.7469 117.152 22.1761 117.152C27.5576 117.152 33.4304 115.8 37.8872 111.343C39.8413 109.389 41.1985 107.163 42.1067 104.825C43.0312 107.142 44.3986 109.341 46.337 111.279C50.7197 115.662 56.4195 117.152 61.8561 117.152C67.2927 117.152 72.9925 115.662 77.3752 111.279C79.3779 109.277 80.7711 106.996 81.6961 104.594C82.6211 106.996 84.0143 109.277 86.017 111.279C90.3575 115.62 95.9789 117.152 101.408 117.152C106.813 117.152 112.479 115.679 116.852 111.354C121.386 106.961 122.928 101.162 122.928 95.6322V68.7522C122.928 61.8706 122.039 55.4527 119.815 49.8901C117.645 44.1686 114.035 39.2452 108.652 36.0158C103.485 32.8308 97.4761 31.6162 91.2961 31.6162C84.7601 31.6162 78.5969 33.2762 73.0406 36.6582C72.4256 37.0326 71.8266 37.4233 71.2439 37.8302C70.7254 37.4224 70.1874 37.0311 69.6295 36.6574C64.4629 33.1386 58.5025 31.6162 52.2561 31.6162C46.2005 31.6162 40.4419 32.971 35.3045 35.9692ZM79.8843 66.4783C79.8799 66.4663 79.8779 66.4599 79.878 66.4598C79.8781 66.4597 79.8803 66.4657 79.8843 66.4783ZM40.2042 66.4783C40.1999 66.4663 40.1979 66.46 40.198 66.4598C40.1981 66.4596 40.2003 66.4656 40.2042 66.4783Z" fill="#5D140E"/>
</svg>
