<svg width="592" height="118" viewBox="0 0 592 118" fill="none" xmlns="http://www.w3.org/2000/svg">
<mask id="path-1-outside-1_121_71" maskUnits="userSpaceOnUse" x="0.912109" y="0.896484" width="591" height="117" fill="black">
<rect fill="white" x="0.912109" y="0.896484" width="591" height="117"/>
<path d="M22.1761 107.152C18.5921 107.152 15.8188 106.171 13.8561 104.208C11.8934 102.246 10.9121 99.3872 10.9121 95.6325V53.2645C10.9121 49.5952 11.8508 46.7792 13.7281 44.8165C15.6908 42.8538 18.4641 41.8725 22.0481 41.8725C25.6321 41.8725 28.3628 42.8538 30.2401 44.8165C32.1174 46.7792 33.0561 49.5952 33.0561 53.2645V60.3045L31.6481 54.0325C33.4401 50.2778 36.0854 47.2912 39.5841 45.0725C43.1681 42.7685 47.3921 41.6165 52.2561 41.6165C56.8641 41.6165 60.7894 42.7258 64.0321 44.9445C67.3601 47.1632 69.7494 50.5338 71.2001 55.0565H69.4081C71.3708 50.8752 74.3148 47.5898 78.2401 45.2005C82.1654 42.8112 86.5174 41.6165 91.2961 41.6165C96.2454 41.6165 100.299 42.5978 103.456 44.5605C106.613 46.4378 108.96 49.4245 110.496 53.5205C112.117 57.5312 112.928 62.6085 112.928 68.7525V95.6325C112.928 99.3872 111.904 102.246 109.856 104.208C107.893 106.171 105.077 107.152 101.408 107.152C97.8241 107.152 95.0508 106.171 93.0881 104.208C91.1254 102.246 90.1441 99.3872 90.1441 95.6325V69.3925C90.1441 65.7232 89.5894 63.0778 88.4801 61.4565C87.3708 59.8352 85.5361 59.0245 82.9761 59.0245C79.8188 59.0245 77.3868 60.1338 75.6801 62.3525C74.0588 64.5712 73.2481 67.7285 73.2481 71.8245V95.6325C73.2481 99.3872 72.2668 102.246 70.3041 104.208C68.3414 106.171 65.5254 107.152 61.8561 107.152C58.1868 107.152 55.3708 106.171 53.4081 104.208C51.4454 102.246 50.4641 99.3872 50.4641 95.6325V69.3925C50.4641 65.7232 49.9094 63.0778 48.8001 61.4565C47.6908 59.8352 45.8561 59.0245 43.2961 59.0245C40.2241 59.0245 37.8348 60.1338 36.1281 62.3525C34.5068 64.5712 33.6961 67.7285 33.6961 71.8245V95.6325C33.6961 103.312 29.8561 107.152 22.1761 107.152Z"/>
<path d="M148.044 107.408C143.18 107.408 138.871 106.512 135.116 104.72C131.447 102.928 128.545 100.496 126.412 97.4245C124.364 94.2672 123.34 90.6832 123.34 86.6725C123.34 82.0645 124.535 78.4378 126.924 75.7925C129.313 73.1472 133.153 71.2698 138.444 70.1605C143.735 68.9658 150.775 68.3685 159.564 68.3685H166.604V79.1205H159.564C156.236 79.1205 153.463 79.3765 151.244 79.8885C149.111 80.3152 147.532 81.0405 146.508 82.0645C145.484 83.0031 144.972 84.2405 144.972 85.7765C144.972 87.7392 145.655 89.3605 147.02 90.6405C148.471 91.9205 150.519 92.5605 153.164 92.5605C155.297 92.5605 157.175 92.0912 158.796 91.1525C160.503 90.2138 161.868 88.9338 162.892 87.3125C163.916 85.6058 164.428 83.6432 164.428 81.4245V66.5765C164.428 63.5045 163.617 61.3285 161.996 60.0485C160.46 58.7685 157.772 58.1285 153.932 58.1285C151.884 58.1285 149.58 58.3845 147.02 58.8965C144.46 59.3232 141.601 60.1338 138.444 61.3285C136.14 62.1818 134.177 62.3098 132.556 61.7125C130.935 61.1152 129.655 60.0912 128.716 58.6405C127.863 57.1898 127.436 55.6112 127.436 53.9045C127.521 52.1978 128.076 50.5765 129.1 49.0405C130.209 47.5045 131.873 46.3098 134.092 45.4565C138.188 43.9205 141.943 42.8965 145.356 42.3845C148.855 41.8725 152.055 41.6165 154.956 41.6165C161.953 41.6165 167.713 42.6405 172.236 44.6885C176.844 46.6512 180.257 49.7232 182.476 53.9045C184.78 58.0005 185.932 63.2912 185.932 69.7765V95.6325C185.932 99.3872 185.036 102.246 183.244 104.208C181.452 106.171 178.849 107.152 175.436 107.152C171.937 107.152 169.249 106.171 167.372 104.208C165.58 102.246 164.684 99.3872 164.684 95.6325V92.3045L165.452 94.0965C165.025 96.8272 164.044 99.1738 162.508 101.136C160.972 103.099 158.967 104.635 156.492 105.744C154.017 106.854 151.201 107.408 148.044 107.408Z"/>
<path d="M210.554 107.152C206.799 107.152 203.898 106.171 201.85 104.208C199.887 102.246 198.906 99.3872 198.906 95.6325V53.2645C198.906 49.5952 199.845 46.7792 201.722 44.8165C203.685 42.8538 206.458 41.8725 210.042 41.8725C213.626 41.8725 216.357 42.8538 218.234 44.8165C220.111 46.7792 221.05 49.5952 221.05 53.2645V58.5125H219.77C220.623 53.3925 222.799 49.3392 226.298 46.3525C229.882 43.3658 234.319 41.7872 239.61 41.6165C242.085 41.5312 243.919 42.1712 245.114 43.5365C246.394 44.8165 247.077 47.2485 247.162 50.8325C247.162 53.9045 246.522 56.3365 245.242 58.1285C243.962 59.9205 241.53 60.9872 237.946 61.3285L235.002 61.5845C230.479 62.0112 227.194 63.2912 225.146 65.4245C223.098 67.4725 222.074 70.5445 222.074 74.6405V95.6325C222.074 99.3872 221.093 102.246 219.13 104.208C217.167 106.171 214.309 107.152 210.554 107.152Z"/>
<path d="M265.67 107.152C262.086 107.152 259.313 106.086 257.35 103.952C255.387 101.819 254.406 98.7472 254.406 94.7365V54.2885C254.406 50.2778 255.387 47.2058 257.35 45.0725C259.313 42.9392 262.086 41.8725 265.67 41.8725C269.339 41.8725 272.155 42.9392 274.118 45.0725C276.166 47.2058 277.19 50.2778 277.19 54.2885V94.7365C277.19 98.7472 276.209 101.819 274.246 103.952C272.283 106.086 269.425 107.152 265.67 107.152ZM265.67 32.7845C261.659 32.7845 258.545 31.8458 256.326 29.9685C254.193 28.0911 253.126 25.3605 253.126 21.7765C253.126 18.2778 254.193 15.5898 256.326 13.7125C258.545 11.8352 261.659 10.8965 265.67 10.8965C269.851 10.8965 273.009 11.8352 275.142 13.7125C277.275 15.5898 278.342 18.2778 278.342 21.7765C278.342 25.3605 277.275 28.0911 275.142 29.9685C273.009 31.8458 269.851 32.7845 265.67 32.7845Z"/>
<path d="M301.67 107.152C298.086 107.152 295.313 106.086 293.35 103.952C291.387 101.819 290.406 98.7472 290.406 94.7365V54.2885C290.406 50.2778 291.387 47.2058 293.35 45.0725C295.313 42.9392 298.086 41.8725 301.67 41.8725C305.339 41.8725 308.155 42.9392 310.118 45.0725C312.166 47.2058 313.19 50.2778 313.19 54.2885V94.7365C313.19 98.7472 312.209 101.819 310.246 103.952C308.283 106.086 305.425 107.152 301.67 107.152ZM301.67 32.7845C297.659 32.7845 294.545 31.8458 292.326 29.9685C290.193 28.0911 289.126 25.3605 289.126 21.7765C289.126 18.2778 290.193 15.5898 292.326 13.7125C294.545 11.8352 297.659 10.8965 301.67 10.8965C305.851 10.8965 309.009 11.8352 311.142 13.7125C313.275 15.5898 314.342 18.2778 314.342 21.7765C314.342 25.3605 313.275 28.0911 311.142 29.9685C309.009 31.8458 305.851 32.7845 301.67 32.7845Z"/>
<path d="M337.926 107.152C334.342 107.152 331.569 106.171 329.606 104.208C327.643 102.246 326.662 99.3872 326.662 95.6325V53.2645C326.662 49.5952 327.601 46.7792 329.478 44.8165C331.441 42.8538 334.214 41.8725 337.798 41.8725C341.382 41.8725 344.113 42.8538 345.99 44.8165C347.867 46.7792 348.806 49.5952 348.806 53.2645V60.3045L347.398 54.0325C349.19 50.2778 351.835 47.2912 355.334 45.0725C358.918 42.7685 363.142 41.6165 368.006 41.6165C372.614 41.6165 376.539 42.7258 379.782 44.9445C383.11 47.1632 385.499 50.5338 386.95 55.0565H385.158C387.121 50.8752 390.065 47.5898 393.99 45.2005C397.915 42.8112 402.267 41.6165 407.046 41.6165C411.995 41.6165 416.049 42.5978 419.206 44.5605C422.363 46.4378 424.71 49.4245 426.246 53.5205C427.867 57.5312 428.678 62.6085 428.678 68.7525V95.6325C428.678 99.3872 427.654 102.246 425.606 104.208C423.643 106.171 420.827 107.152 417.158 107.152C413.574 107.152 410.801 106.171 408.838 104.208C406.875 102.246 405.894 99.3872 405.894 95.6325V69.3925C405.894 65.7232 405.339 63.0778 404.23 61.4565C403.121 59.8352 401.286 59.0245 398.726 59.0245C395.569 59.0245 393.137 60.1338 391.43 62.3525C389.809 64.5712 388.998 67.7285 388.998 71.8245V95.6325C388.998 99.3872 388.017 102.246 386.054 104.208C384.091 106.171 381.275 107.152 377.606 107.152C373.937 107.152 371.121 106.171 369.158 104.208C367.195 102.246 366.214 99.3872 366.214 95.6325V69.3925C366.214 65.7232 365.659 63.0778 364.55 61.4565C363.441 59.8352 361.606 59.0245 359.046 59.0245C355.974 59.0245 353.585 60.1338 351.878 62.3525C350.257 64.5712 349.446 67.7285 349.446 71.8245V95.6325C349.446 103.312 345.606 107.152 337.926 107.152Z"/>
<path d="M463.794 107.408C458.93 107.408 454.621 106.512 450.866 104.72C447.197 102.928 444.295 100.496 442.162 97.4245C440.114 94.2672 439.09 90.6832 439.09 86.6725C439.09 82.0645 440.285 78.4378 442.674 75.7925C445.063 73.1472 448.903 71.2698 454.194 70.1605C459.485 68.9658 466.525 68.3685 475.314 68.3685H482.354V79.1205H475.314C471.986 79.1205 469.213 79.3765 466.994 79.8885C464.861 80.3152 463.282 81.0405 462.258 82.0645C461.234 83.0031 460.722 84.2405 460.722 85.7765C460.722 87.7392 461.405 89.3605 462.77 90.6405C464.221 91.9205 466.269 92.5605 468.914 92.5605C471.047 92.5605 472.925 92.0912 474.546 91.1525C476.253 90.2138 477.618 88.9338 478.642 87.3125C479.666 85.6058 480.178 83.6432 480.178 81.4245V66.5765C480.178 63.5045 479.367 61.3285 477.746 60.0485C476.21 58.7685 473.522 58.1285 469.682 58.1285C467.634 58.1285 465.33 58.3845 462.77 58.8965C460.21 59.3232 457.351 60.1338 454.194 61.3285C451.89 62.1818 449.927 62.3098 448.306 61.7125C446.685 61.1152 445.405 60.0912 444.466 58.6405C443.613 57.1898 443.186 55.6112 443.186 53.9045C443.271 52.1978 443.826 50.5765 444.85 49.0405C445.959 47.5045 447.623 46.3098 449.842 45.4565C453.938 43.9205 457.693 42.8965 461.106 42.3845C464.605 41.8725 467.805 41.6165 470.706 41.6165C477.703 41.6165 483.463 42.6405 487.986 44.6885C492.594 46.6512 496.007 49.7232 498.226 53.9045C500.53 58.0005 501.682 63.2912 501.682 69.7765V95.6325C501.682 99.3872 500.786 102.246 498.994 104.208C497.202 106.171 494.599 107.152 491.186 107.152C487.687 107.152 484.999 106.171 483.122 104.208C481.33 102.246 480.434 99.3872 480.434 95.6325V92.3045L481.202 94.0965C480.775 96.8272 479.794 99.1738 478.258 101.136C476.722 103.099 474.717 104.635 472.242 105.744C469.767 106.854 466.951 107.408 463.794 107.408Z"/>
<path d="M546.528 107.408C539.531 107.408 533.429 106.086 528.224 103.44C523.019 100.795 518.965 96.9978 516.064 92.0485C513.163 87.0992 511.712 81.2538 511.712 74.5125C511.712 69.3925 512.523 64.8272 514.144 60.8165C515.765 56.7205 518.112 53.2645 521.184 50.4485C524.256 47.5472 527.925 45.3712 532.192 43.9205C536.459 42.3845 541.237 41.6165 546.528 41.6165C553.525 41.6165 559.627 42.9392 564.832 45.5845C570.037 48.2298 574.048 52.0272 576.864 56.9765C579.765 61.8405 581.216 67.6858 581.216 74.5125C581.216 79.5472 580.405 84.1125 578.784 88.2085C577.163 92.3045 574.816 95.8032 571.744 98.7045C568.757 101.52 565.088 103.696 560.736 105.232C556.469 106.683 551.733 107.408 546.528 107.408ZM546.528 90.6405C548.832 90.6405 550.88 90.0858 552.672 88.9765C554.464 87.7818 555.829 86.0325 556.768 83.7285C557.792 81.3392 558.304 78.2672 558.304 74.5125C558.304 68.7952 557.195 64.6992 554.976 62.2245C552.757 59.6645 549.941 58.3845 546.528 58.3845C544.224 58.3845 542.176 58.9392 540.384 60.0485C538.592 61.1578 537.184 62.9072 536.16 65.2965C535.136 67.6005 534.624 70.6725 534.624 74.5125C534.624 80.1445 535.733 84.2405 537.952 86.8005C540.171 89.3605 543.029 90.6405 546.528 90.6405Z"/>
</mask>
<path d="M22.1761 107.152C18.5921 107.152 15.8188 106.171 13.8561 104.208C11.8934 102.246 10.9121 99.3872 10.9121 95.6325V53.2645C10.9121 49.5952 11.8508 46.7792 13.7281 44.8165C15.6908 42.8538 18.4641 41.8725 22.0481 41.8725C25.6321 41.8725 28.3628 42.8538 30.2401 44.8165C32.1174 46.7792 33.0561 49.5952 33.0561 53.2645V60.3045L31.6481 54.0325C33.4401 50.2778 36.0854 47.2912 39.5841 45.0725C43.1681 42.7685 47.3921 41.6165 52.2561 41.6165C56.8641 41.6165 60.7894 42.7258 64.0321 44.9445C67.3601 47.1632 69.7494 50.5338 71.2001 55.0565H69.4081C71.3708 50.8752 74.3148 47.5898 78.2401 45.2005C82.1654 42.8112 86.5174 41.6165 91.2961 41.6165C96.2454 41.6165 100.299 42.5978 103.456 44.5605C106.613 46.4378 108.96 49.4245 110.496 53.5205C112.117 57.5312 112.928 62.6085 112.928 68.7525V95.6325C112.928 99.3872 111.904 102.246 109.856 104.208C107.893 106.171 105.077 107.152 101.408 107.152C97.8241 107.152 95.0508 106.171 93.0881 104.208C91.1254 102.246 90.1441 99.3872 90.1441 95.6325V69.3925C90.1441 65.7232 89.5894 63.0778 88.4801 61.4565C87.3708 59.8352 85.5361 59.0245 82.9761 59.0245C79.8188 59.0245 77.3868 60.1338 75.6801 62.3525C74.0588 64.5712 73.2481 67.7285 73.2481 71.8245V95.6325C73.2481 99.3872 72.2668 102.246 70.3041 104.208C68.3414 106.171 65.5254 107.152 61.8561 107.152C58.1868 107.152 55.3708 106.171 53.4081 104.208C51.4454 102.246 50.4641 99.3872 50.4641 95.6325V69.3925C50.4641 65.7232 49.9094 63.0778 48.8001 61.4565C47.6908 59.8352 45.8561 59.0245 43.2961 59.0245C40.2241 59.0245 37.8348 60.1338 36.1281 62.3525C34.5068 64.5712 33.6961 67.7285 33.6961 71.8245V95.6325C33.6961 103.312 29.8561 107.152 22.1761 107.152Z" fill="#FFF2B5"/>
<path d="M148.044 107.408C143.18 107.408 138.871 106.512 135.116 104.72C131.447 102.928 128.545 100.496 126.412 97.4245C124.364 94.2672 123.34 90.6832 123.34 86.6725C123.34 82.0645 124.535 78.4378 126.924 75.7925C129.313 73.1472 133.153 71.2698 138.444 70.1605C143.735 68.9658 150.775 68.3685 159.564 68.3685H166.604V79.1205H159.564C156.236 79.1205 153.463 79.3765 151.244 79.8885C149.111 80.3152 147.532 81.0405 146.508 82.0645C145.484 83.0031 144.972 84.2405 144.972 85.7765C144.972 87.7392 145.655 89.3605 147.02 90.6405C148.471 91.9205 150.519 92.5605 153.164 92.5605C155.297 92.5605 157.175 92.0912 158.796 91.1525C160.503 90.2138 161.868 88.9338 162.892 87.3125C163.916 85.6058 164.428 83.6432 164.428 81.4245V66.5765C164.428 63.5045 163.617 61.3285 161.996 60.0485C160.46 58.7685 157.772 58.1285 153.932 58.1285C151.884 58.1285 149.58 58.3845 147.02 58.8965C144.46 59.3232 141.601 60.1338 138.444 61.3285C136.14 62.1818 134.177 62.3098 132.556 61.7125C130.935 61.1152 129.655 60.0912 128.716 58.6405C127.863 57.1898 127.436 55.6112 127.436 53.9045C127.521 52.1978 128.076 50.5765 129.1 49.0405C130.209 47.5045 131.873 46.3098 134.092 45.4565C138.188 43.9205 141.943 42.8965 145.356 42.3845C148.855 41.8725 152.055 41.6165 154.956 41.6165C161.953 41.6165 167.713 42.6405 172.236 44.6885C176.844 46.6512 180.257 49.7232 182.476 53.9045C184.78 58.0005 185.932 63.2912 185.932 69.7765V95.6325C185.932 99.3872 185.036 102.246 183.244 104.208C181.452 106.171 178.849 107.152 175.436 107.152C171.937 107.152 169.249 106.171 167.372 104.208C165.58 102.246 164.684 99.3872 164.684 95.6325V92.3045L165.452 94.0965C165.025 96.8272 164.044 99.1738 162.508 101.136C160.972 103.099 158.967 104.635 156.492 105.744C154.017 106.854 151.201 107.408 148.044 107.408Z" fill="#FFF2B5"/>
<path d="M210.554 107.152C206.799 107.152 203.898 106.171 201.85 104.208C199.887 102.246 198.906 99.3872 198.906 95.6325V53.2645C198.906 49.5952 199.845 46.7792 201.722 44.8165C203.685 42.8538 206.458 41.8725 210.042 41.8725C213.626 41.8725 216.357 42.8538 218.234 44.8165C220.111 46.7792 221.05 49.5952 221.05 53.2645V58.5125H219.77C220.623 53.3925 222.799 49.3392 226.298 46.3525C229.882 43.3658 234.319 41.7872 239.61 41.6165C242.085 41.5312 243.919 42.1712 245.114 43.5365C246.394 44.8165 247.077 47.2485 247.162 50.8325C247.162 53.9045 246.522 56.3365 245.242 58.1285C243.962 59.9205 241.53 60.9872 237.946 61.3285L235.002 61.5845C230.479 62.0112 227.194 63.2912 225.146 65.4245C223.098 67.4725 222.074 70.5445 222.074 74.6405V95.6325C222.074 99.3872 221.093 102.246 219.13 104.208C217.167 106.171 214.309 107.152 210.554 107.152Z" fill="#FFF2B5"/>
<path d="M265.67 107.152C262.086 107.152 259.313 106.086 257.35 103.952C255.387 101.819 254.406 98.7472 254.406 94.7365V54.2885C254.406 50.2778 255.387 47.2058 257.35 45.0725C259.313 42.9392 262.086 41.8725 265.67 41.8725C269.339 41.8725 272.155 42.9392 274.118 45.0725C276.166 47.2058 277.19 50.2778 277.19 54.2885V94.7365C277.19 98.7472 276.209 101.819 274.246 103.952C272.283 106.086 269.425 107.152 265.67 107.152ZM265.67 32.7845C261.659 32.7845 258.545 31.8458 256.326 29.9685C254.193 28.0911 253.126 25.3605 253.126 21.7765C253.126 18.2778 254.193 15.5898 256.326 13.7125C258.545 11.8352 261.659 10.8965 265.67 10.8965C269.851 10.8965 273.009 11.8352 275.142 13.7125C277.275 15.5898 278.342 18.2778 278.342 21.7765C278.342 25.3605 277.275 28.0911 275.142 29.9685C273.009 31.8458 269.851 32.7845 265.67 32.7845Z" fill="#FFF2B5"/>
<path d="M301.67 107.152C298.086 107.152 295.313 106.086 293.35 103.952C291.387 101.819 290.406 98.7472 290.406 94.7365V54.2885C290.406 50.2778 291.387 47.2058 293.35 45.0725C295.313 42.9392 298.086 41.8725 301.67 41.8725C305.339 41.8725 308.155 42.9392 310.118 45.0725C312.166 47.2058 313.19 50.2778 313.19 54.2885V94.7365C313.19 98.7472 312.209 101.819 310.246 103.952C308.283 106.086 305.425 107.152 301.67 107.152ZM301.67 32.7845C297.659 32.7845 294.545 31.8458 292.326 29.9685C290.193 28.0911 289.126 25.3605 289.126 21.7765C289.126 18.2778 290.193 15.5898 292.326 13.7125C294.545 11.8352 297.659 10.8965 301.67 10.8965C305.851 10.8965 309.009 11.8352 311.142 13.7125C313.275 15.5898 314.342 18.2778 314.342 21.7765C314.342 25.3605 313.275 28.0911 311.142 29.9685C309.009 31.8458 305.851 32.7845 301.67 32.7845Z" fill="#FFF2B5"/>
<path d="M337.926 107.152C334.342 107.152 331.569 106.171 329.606 104.208C327.643 102.246 326.662 99.3872 326.662 95.6325V53.2645C326.662 49.5952 327.601 46.7792 329.478 44.8165C331.441 42.8538 334.214 41.8725 337.798 41.8725C341.382 41.8725 344.113 42.8538 345.99 44.8165C347.867 46.7792 348.806 49.5952 348.806 53.2645V60.3045L347.398 54.0325C349.19 50.2778 351.835 47.2912 355.334 45.0725C358.918 42.7685 363.142 41.6165 368.006 41.6165C372.614 41.6165 376.539 42.7258 379.782 44.9445C383.11 47.1632 385.499 50.5338 386.95 55.0565H385.158C387.121 50.8752 390.065 47.5898 393.99 45.2005C397.915 42.8112 402.267 41.6165 407.046 41.6165C411.995 41.6165 416.049 42.5978 419.206 44.5605C422.363 46.4378 424.71 49.4245 426.246 53.5205C427.867 57.5312 428.678 62.6085 428.678 68.7525V95.6325C428.678 99.3872 427.654 102.246 425.606 104.208C423.643 106.171 420.827 107.152 417.158 107.152C413.574 107.152 410.801 106.171 408.838 104.208C406.875 102.246 405.894 99.3872 405.894 95.6325V69.3925C405.894 65.7232 405.339 63.0778 404.23 61.4565C403.121 59.8352 401.286 59.0245 398.726 59.0245C395.569 59.0245 393.137 60.1338 391.43 62.3525C389.809 64.5712 388.998 67.7285 388.998 71.8245V95.6325C388.998 99.3872 388.017 102.246 386.054 104.208C384.091 106.171 381.275 107.152 377.606 107.152C373.937 107.152 371.121 106.171 369.158 104.208C367.195 102.246 366.214 99.3872 366.214 95.6325V69.3925C366.214 65.7232 365.659 63.0778 364.55 61.4565C363.441 59.8352 361.606 59.0245 359.046 59.0245C355.974 59.0245 353.585 60.1338 351.878 62.3525C350.257 64.5712 349.446 67.7285 349.446 71.8245V95.6325C349.446 103.312 345.606 107.152 337.926 107.152Z" fill="#FFF2B5"/>
<path d="M463.794 107.408C458.93 107.408 454.621 106.512 450.866 104.72C447.197 102.928 444.295 100.496 442.162 97.4245C440.114 94.2672 439.09 90.6832 439.09 86.6725C439.09 82.0645 440.285 78.4378 442.674 75.7925C445.063 73.1472 448.903 71.2698 454.194 70.1605C459.485 68.9658 466.525 68.3685 475.314 68.3685H482.354V79.1205H475.314C471.986 79.1205 469.213 79.3765 466.994 79.8885C464.861 80.3152 463.282 81.0405 462.258 82.0645C461.234 83.0031 460.722 84.2405 460.722 85.7765C460.722 87.7392 461.405 89.3605 462.77 90.6405C464.221 91.9205 466.269 92.5605 468.914 92.5605C471.047 92.5605 472.925 92.0912 474.546 91.1525C476.253 90.2138 477.618 88.9338 478.642 87.3125C479.666 85.6058 480.178 83.6432 480.178 81.4245V66.5765C480.178 63.5045 479.367 61.3285 477.746 60.0485C476.21 58.7685 473.522 58.1285 469.682 58.1285C467.634 58.1285 465.33 58.3845 462.77 58.8965C460.21 59.3232 457.351 60.1338 454.194 61.3285C451.89 62.1818 449.927 62.3098 448.306 61.7125C446.685 61.1152 445.405 60.0912 444.466 58.6405C443.613 57.1898 443.186 55.6112 443.186 53.9045C443.271 52.1978 443.826 50.5765 444.85 49.0405C445.959 47.5045 447.623 46.3098 449.842 45.4565C453.938 43.9205 457.693 42.8965 461.106 42.3845C464.605 41.8725 467.805 41.6165 470.706 41.6165C477.703 41.6165 483.463 42.6405 487.986 44.6885C492.594 46.6512 496.007 49.7232 498.226 53.9045C500.53 58.0005 501.682 63.2912 501.682 69.7765V95.6325C501.682 99.3872 500.786 102.246 498.994 104.208C497.202 106.171 494.599 107.152 491.186 107.152C487.687 107.152 484.999 106.171 483.122 104.208C481.33 102.246 480.434 99.3872 480.434 95.6325V92.3045L481.202 94.0965C480.775 96.8272 479.794 99.1738 478.258 101.136C476.722 103.099 474.717 104.635 472.242 105.744C469.767 106.854 466.951 107.408 463.794 107.408Z" fill="#FFF2B5"/>
<path d="M546.528 107.408C539.531 107.408 533.429 106.086 528.224 103.44C523.019 100.795 518.965 96.9978 516.064 92.0485C513.163 87.0992 511.712 81.2538 511.712 74.5125C511.712 69.3925 512.523 64.8272 514.144 60.8165C515.765 56.7205 518.112 53.2645 521.184 50.4485C524.256 47.5472 527.925 45.3712 532.192 43.9205C536.459 42.3845 541.237 41.6165 546.528 41.6165C553.525 41.6165 559.627 42.9392 564.832 45.5845C570.037 48.2298 574.048 52.0272 576.864 56.9765C579.765 61.8405 581.216 67.6858 581.216 74.5125C581.216 79.5472 580.405 84.1125 578.784 88.2085C577.163 92.3045 574.816 95.8032 571.744 98.7045C568.757 101.52 565.088 103.696 560.736 105.232C556.469 106.683 551.733 107.408 546.528 107.408ZM546.528 90.6405C548.832 90.6405 550.88 90.0858 552.672 88.9765C554.464 87.7818 555.829 86.0325 556.768 83.7285C557.792 81.3392 558.304 78.2672 558.304 74.5125C558.304 68.7952 557.195 64.6992 554.976 62.2245C552.757 59.6645 549.941 58.3845 546.528 58.3845C544.224 58.3845 542.176 58.9392 540.384 60.0485C538.592 61.1578 537.184 62.9072 536.16 65.2965C535.136 67.6005 534.624 70.6725 534.624 74.5125C534.624 80.1445 535.733 84.2405 537.952 86.8005C540.171 89.3605 543.029 90.6405 546.528 90.6405Z" fill="#FFF2B5"/>
<path d="M22.1761 107.152C18.5921 107.152 15.8188 106.171 13.8561 104.208C11.8934 102.246 10.9121 99.3872 10.9121 95.6325V53.2645C10.9121 49.5952 11.8508 46.7792 13.7281 44.8165C15.6908 42.8538 18.4641 41.8725 22.0481 41.8725C25.6321 41.8725 28.3628 42.8538 30.2401 44.8165C32.1174 46.7792 33.0561 49.5952 33.0561 53.2645V60.3045L31.6481 54.0325C33.4401 50.2778 36.0854 47.2912 39.5841 45.0725C43.1681 42.7685 47.3921 41.6165 52.2561 41.6165C56.8641 41.6165 60.7894 42.7258 64.0321 44.9445C67.3601 47.1632 69.7494 50.5338 71.2001 55.0565H69.4081C71.3708 50.8752 74.3148 47.5898 78.2401 45.2005C82.1654 42.8112 86.5174 41.6165 91.2961 41.6165C96.2454 41.6165 100.299 42.5978 103.456 44.5605C106.613 46.4378 108.96 49.4245 110.496 53.5205C112.117 57.5312 112.928 62.6085 112.928 68.7525V95.6325C112.928 99.3872 111.904 102.246 109.856 104.208C107.893 106.171 105.077 107.152 101.408 107.152C97.8241 107.152 95.0508 106.171 93.0881 104.208C91.1254 102.246 90.1441 99.3872 90.1441 95.6325V69.3925C90.1441 65.7232 89.5894 63.0778 88.4801 61.4565C87.3708 59.8352 85.5361 59.0245 82.9761 59.0245C79.8188 59.0245 77.3868 60.1338 75.6801 62.3525C74.0588 64.5712 73.2481 67.7285 73.2481 71.8245V95.6325C73.2481 99.3872 72.2668 102.246 70.3041 104.208C68.3414 106.171 65.5254 107.152 61.8561 107.152C58.1868 107.152 55.3708 106.171 53.4081 104.208C51.4454 102.246 50.4641 99.3872 50.4641 95.6325V69.3925C50.4641 65.7232 49.9094 63.0778 48.8001 61.4565C47.6908 59.8352 45.8561 59.0245 43.2961 59.0245C40.2241 59.0245 37.8348 60.1338 36.1281 62.3525C34.5068 64.5712 33.6961 67.7285 33.6961 71.8245V95.6325C33.6961 103.312 29.8561 107.152 22.1761 107.152Z" stroke="#170E5D" stroke-width="20" mask="url(#path-1-outside-1_121_71)"/>
<path d="M148.044 107.408C143.18 107.408 138.871 106.512 135.116 104.72C131.447 102.928 128.545 100.496 126.412 97.4245C124.364 94.2672 123.34 90.6832 123.34 86.6725C123.34 82.0645 124.535 78.4378 126.924 75.7925C129.313 73.1472 133.153 71.2698 138.444 70.1605C143.735 68.9658 150.775 68.3685 159.564 68.3685H166.604V79.1205H159.564C156.236 79.1205 153.463 79.3765 151.244 79.8885C149.111 80.3152 147.532 81.0405 146.508 82.0645C145.484 83.0031 144.972 84.2405 144.972 85.7765C144.972 87.7392 145.655 89.3605 147.02 90.6405C148.471 91.9205 150.519 92.5605 153.164 92.5605C155.297 92.5605 157.175 92.0912 158.796 91.1525C160.503 90.2138 161.868 88.9338 162.892 87.3125C163.916 85.6058 164.428 83.6432 164.428 81.4245V66.5765C164.428 63.5045 163.617 61.3285 161.996 60.0485C160.46 58.7685 157.772 58.1285 153.932 58.1285C151.884 58.1285 149.58 58.3845 147.02 58.8965C144.46 59.3232 141.601 60.1338 138.444 61.3285C136.14 62.1818 134.177 62.3098 132.556 61.7125C130.935 61.1152 129.655 60.0912 128.716 58.6405C127.863 57.1898 127.436 55.6112 127.436 53.9045C127.521 52.1978 128.076 50.5765 129.1 49.0405C130.209 47.5045 131.873 46.3098 134.092 45.4565C138.188 43.9205 141.943 42.8965 145.356 42.3845C148.855 41.8725 152.055 41.6165 154.956 41.6165C161.953 41.6165 167.713 42.6405 172.236 44.6885C176.844 46.6512 180.257 49.7232 182.476 53.9045C184.78 58.0005 185.932 63.2912 185.932 69.7765V95.6325C185.932 99.3872 185.036 102.246 183.244 104.208C181.452 106.171 178.849 107.152 175.436 107.152C171.937 107.152 169.249 106.171 167.372 104.208C165.58 102.246 164.684 99.3872 164.684 95.6325V92.3045L165.452 94.0965C165.025 96.8272 164.044 99.1738 162.508 101.136C160.972 103.099 158.967 104.635 156.492 105.744C154.017 106.854 151.201 107.408 148.044 107.408Z" stroke="#170E5D" stroke-width="20" mask="url(#path-1-outside-1_121_71)"/>
<path d="M210.554 107.152C206.799 107.152 203.898 106.171 201.85 104.208C199.887 102.246 198.906 99.3872 198.906 95.6325V53.2645C198.906 49.5952 199.845 46.7792 201.722 44.8165C203.685 42.8538 206.458 41.8725 210.042 41.8725C213.626 41.8725 216.357 42.8538 218.234 44.8165C220.111 46.7792 221.05 49.5952 221.05 53.2645V58.5125H219.77C220.623 53.3925 222.799 49.3392 226.298 46.3525C229.882 43.3658 234.319 41.7872 239.61 41.6165C242.085 41.5312 243.919 42.1712 245.114 43.5365C246.394 44.8165 247.077 47.2485 247.162 50.8325C247.162 53.9045 246.522 56.3365 245.242 58.1285C243.962 59.9205 241.53 60.9872 237.946 61.3285L235.002 61.5845C230.479 62.0112 227.194 63.2912 225.146 65.4245C223.098 67.4725 222.074 70.5445 222.074 74.6405V95.6325C222.074 99.3872 221.093 102.246 219.13 104.208C217.167 106.171 214.309 107.152 210.554 107.152Z" stroke="#170E5D" stroke-width="20" mask="url(#path-1-outside-1_121_71)"/>
<path d="M265.67 107.152C262.086 107.152 259.313 106.086 257.35 103.952C255.387 101.819 254.406 98.7472 254.406 94.7365V54.2885C254.406 50.2778 255.387 47.2058 257.35 45.0725C259.313 42.9392 262.086 41.8725 265.67 41.8725C269.339 41.8725 272.155 42.9392 274.118 45.0725C276.166 47.2058 277.19 50.2778 277.19 54.2885V94.7365C277.19 98.7472 276.209 101.819 274.246 103.952C272.283 106.086 269.425 107.152 265.67 107.152ZM265.67 32.7845C261.659 32.7845 258.545 31.8458 256.326 29.9685C254.193 28.0911 253.126 25.3605 253.126 21.7765C253.126 18.2778 254.193 15.5898 256.326 13.7125C258.545 11.8352 261.659 10.8965 265.67 10.8965C269.851 10.8965 273.009 11.8352 275.142 13.7125C277.275 15.5898 278.342 18.2778 278.342 21.7765C278.342 25.3605 277.275 28.0911 275.142 29.9685C273.009 31.8458 269.851 32.7845 265.67 32.7845Z" stroke="#170E5D" stroke-width="20" mask="url(#path-1-outside-1_121_71)"/>
<path d="M301.67 107.152C298.086 107.152 295.313 106.086 293.35 103.952C291.387 101.819 290.406 98.7472 290.406 94.7365V54.2885C290.406 50.2778 291.387 47.2058 293.35 45.0725C295.313 42.9392 298.086 41.8725 301.67 41.8725C305.339 41.8725 308.155 42.9392 310.118 45.0725C312.166 47.2058 313.19 50.2778 313.19 54.2885V94.7365C313.19 98.7472 312.209 101.819 310.246 103.952C308.283 106.086 305.425 107.152 301.67 107.152ZM301.67 32.7845C297.659 32.7845 294.545 31.8458 292.326 29.9685C290.193 28.0911 289.126 25.3605 289.126 21.7765C289.126 18.2778 290.193 15.5898 292.326 13.7125C294.545 11.8352 297.659 10.8965 301.67 10.8965C305.851 10.8965 309.009 11.8352 311.142 13.7125C313.275 15.5898 314.342 18.2778 314.342 21.7765C314.342 25.3605 313.275 28.0911 311.142 29.9685C309.009 31.8458 305.851 32.7845 301.67 32.7845Z" stroke="#170E5D" stroke-width="20" mask="url(#path-1-outside-1_121_71)"/>
<path d="M337.926 107.152C334.342 107.152 331.569 106.171 329.606 104.208C327.643 102.246 326.662 99.3872 326.662 95.6325V53.2645C326.662 49.5952 327.601 46.7792 329.478 44.8165C331.441 42.8538 334.214 41.8725 337.798 41.8725C341.382 41.8725 344.113 42.8538 345.99 44.8165C347.867 46.7792 348.806 49.5952 348.806 53.2645V60.3045L347.398 54.0325C349.19 50.2778 351.835 47.2912 355.334 45.0725C358.918 42.7685 363.142 41.6165 368.006 41.6165C372.614 41.6165 376.539 42.7258 379.782 44.9445C383.11 47.1632 385.499 50.5338 386.95 55.0565H385.158C387.121 50.8752 390.065 47.5898 393.99 45.2005C397.915 42.8112 402.267 41.6165 407.046 41.6165C411.995 41.6165 416.049 42.5978 419.206 44.5605C422.363 46.4378 424.71 49.4245 426.246 53.5205C427.867 57.5312 428.678 62.6085 428.678 68.7525V95.6325C428.678 99.3872 427.654 102.246 425.606 104.208C423.643 106.171 420.827 107.152 417.158 107.152C413.574 107.152 410.801 106.171 408.838 104.208C406.875 102.246 405.894 99.3872 405.894 95.6325V69.3925C405.894 65.7232 405.339 63.0778 404.23 61.4565C403.121 59.8352 401.286 59.0245 398.726 59.0245C395.569 59.0245 393.137 60.1338 391.43 62.3525C389.809 64.5712 388.998 67.7285 388.998 71.8245V95.6325C388.998 99.3872 388.017 102.246 386.054 104.208C384.091 106.171 381.275 107.152 377.606 107.152C373.937 107.152 371.121 106.171 369.158 104.208C367.195 102.246 366.214 99.3872 366.214 95.6325V69.3925C366.214 65.7232 365.659 63.0778 364.55 61.4565C363.441 59.8352 361.606 59.0245 359.046 59.0245C355.974 59.0245 353.585 60.1338 351.878 62.3525C350.257 64.5712 349.446 67.7285 349.446 71.8245V95.6325C349.446 103.312 345.606 107.152 337.926 107.152Z" stroke="#170E5D" stroke-width="20" mask="url(#path-1-outside-1_121_71)"/>
<path d="M463.794 107.408C458.93 107.408 454.621 106.512 450.866 104.72C447.197 102.928 444.295 100.496 442.162 97.4245C440.114 94.2672 439.09 90.6832 439.09 86.6725C439.09 82.0645 440.285 78.4378 442.674 75.7925C445.063 73.1472 448.903 71.2698 454.194 70.1605C459.485 68.9658 466.525 68.3685 475.314 68.3685H482.354V79.1205H475.314C471.986 79.1205 469.213 79.3765 466.994 79.8885C464.861 80.3152 463.282 81.0405 462.258 82.0645C461.234 83.0031 460.722 84.2405 460.722 85.7765C460.722 87.7392 461.405 89.3605 462.77 90.6405C464.221 91.9205 466.269 92.5605 468.914 92.5605C471.047 92.5605 472.925 92.0912 474.546 91.1525C476.253 90.2138 477.618 88.9338 478.642 87.3125C479.666 85.6058 480.178 83.6432 480.178 81.4245V66.5765C480.178 63.5045 479.367 61.3285 477.746 60.0485C476.21 58.7685 473.522 58.1285 469.682 58.1285C467.634 58.1285 465.33 58.3845 462.77 58.8965C460.21 59.3232 457.351 60.1338 454.194 61.3285C451.89 62.1818 449.927 62.3098 448.306 61.7125C446.685 61.1152 445.405 60.0912 444.466 58.6405C443.613 57.1898 443.186 55.6112 443.186 53.9045C443.271 52.1978 443.826 50.5765 444.85 49.0405C445.959 47.5045 447.623 46.3098 449.842 45.4565C453.938 43.9205 457.693 42.8965 461.106 42.3845C464.605 41.8725 467.805 41.6165 470.706 41.6165C477.703 41.6165 483.463 42.6405 487.986 44.6885C492.594 46.6512 496.007 49.7232 498.226 53.9045C500.53 58.0005 501.682 63.2912 501.682 69.7765V95.6325C501.682 99.3872 500.786 102.246 498.994 104.208C497.202 106.171 494.599 107.152 491.186 107.152C487.687 107.152 484.999 106.171 483.122 104.208C481.33 102.246 480.434 99.3872 480.434 95.6325V92.3045L481.202 94.0965C480.775 96.8272 479.794 99.1738 478.258 101.136C476.722 103.099 474.717 104.635 472.242 105.744C469.767 106.854 466.951 107.408 463.794 107.408Z" stroke="#170E5D" stroke-width="20" mask="url(#path-1-outside-1_121_71)"/>
<path d="M546.528 107.408C539.531 107.408 533.429 106.086 528.224 103.44C523.019 100.795 518.965 96.9978 516.064 92.0485C513.163 87.0992 511.712 81.2538 511.712 74.5125C511.712 69.3925 512.523 64.8272 514.144 60.8165C515.765 56.7205 518.112 53.2645 521.184 50.4485C524.256 47.5472 527.925 45.3712 532.192 43.9205C536.459 42.3845 541.237 41.6165 546.528 41.6165C553.525 41.6165 559.627 42.9392 564.832 45.5845C570.037 48.2298 574.048 52.0272 576.864 56.9765C579.765 61.8405 581.216 67.6858 581.216 74.5125C581.216 79.5472 580.405 84.1125 578.784 88.2085C577.163 92.3045 574.816 95.8032 571.744 98.7045C568.757 101.52 565.088 103.696 560.736 105.232C556.469 106.683 551.733 107.408 546.528 107.408ZM546.528 90.6405C548.832 90.6405 550.88 90.0858 552.672 88.9765C554.464 87.7818 555.829 86.0325 556.768 83.7285C557.792 81.3392 558.304 78.2672 558.304 74.5125C558.304 68.7952 557.195 64.6992 554.976 62.2245C552.757 59.6645 549.941 58.3845 546.528 58.3845C544.224 58.3845 542.176 58.9392 540.384 60.0485C538.592 61.1578 537.184 62.9072 536.16 65.2965C535.136 67.6005 534.624 70.6725 534.624 74.5125C534.624 80.1445 535.733 84.2405 537.952 86.8005C540.171 89.3605 543.029 90.6405 546.528 90.6405Z" stroke="#170E5D" stroke-width="20" mask="url(#path-1-outside-1_121_71)"/>
</svg>
