<svg width="587" height="147" viewBox="0 0 587 147" fill="none" xmlns="http://www.w3.org/2000/svg">
<path d="M524.589 118.119C518.128 118.119 512.494 116.897 507.687 114.455C502.88 112.012 499.137 108.505 496.458 103.935C493.779 99.365 492.44 93.9674 492.44 87.7425C492.44 83.0146 493.188 78.799 494.685 75.0955C496.183 71.3133 498.349 68.122 501.186 65.5217C504.023 62.8426 507.411 60.8333 511.351 59.4937C515.291 58.0754 519.703 57.3662 524.589 57.3662C531.05 57.3662 536.684 58.5876 541.491 61.0303C546.297 63.473 550.001 66.9794 552.601 71.5497C555.28 76.0411 556.62 81.4387 556.62 87.7425C556.62 92.3915 555.871 96.6071 554.374 100.389C552.877 104.172 550.71 107.402 547.873 110.081C545.115 112.682 541.727 114.691 537.709 116.109C533.769 117.449 529.395 118.119 524.589 118.119ZM524.589 102.635C526.716 102.635 528.608 102.123 530.262 101.099C531.917 99.9954 533.178 98.38 534.045 96.2525C534.99 94.0462 535.463 91.2095 535.463 87.7425C535.463 82.4631 534.438 78.6808 532.39 76.3957C530.341 74.0318 527.741 72.8498 524.589 72.8498C522.461 72.8498 520.57 73.362 518.916 74.3864C517.261 75.4107 515.961 77.0261 515.015 79.2324C514.069 81.3599 513.597 84.1966 513.597 87.7425C513.597 92.9431 514.621 96.7253 516.67 99.0892C518.719 101.453 521.358 102.635 524.589 102.635Z" fill="#FFF2B5"/>
<path d="M448.192 118.119C443.701 118.119 439.722 117.291 436.255 115.637C432.866 113.982 430.187 111.736 428.217 108.899C426.326 105.984 425.381 102.674 425.381 98.971C425.381 94.716 426.484 91.3671 428.69 88.9244C430.896 86.4817 434.442 84.7482 439.328 83.7238C444.213 82.6207 450.714 82.0691 458.83 82.0691H465.331V91.9975H458.83C455.757 91.9975 453.196 92.2339 451.147 92.7067C449.177 93.1006 447.719 93.7704 446.774 94.716C445.828 95.5827 445.356 96.7253 445.356 98.1437C445.356 99.956 445.986 101.453 447.247 102.635C448.586 103.817 450.477 104.408 452.92 104.408C454.89 104.408 456.624 103.975 458.121 103.108C459.697 102.241 460.957 101.059 461.903 99.562C462.848 97.9861 463.321 96.1737 463.321 94.125V80.4143C463.321 77.5776 462.573 75.5683 461.076 74.3864C459.657 73.2044 457.175 72.6134 453.629 72.6134C451.738 72.6134 449.611 72.8498 447.247 73.3226C444.883 73.7166 442.243 74.4652 439.328 75.5683C437.2 76.3563 435.388 76.4745 433.891 75.9229C432.393 75.3713 431.212 74.4258 430.345 73.0862C429.557 71.7467 429.163 70.2889 429.163 68.713C429.242 67.137 429.754 65.6399 430.699 64.2215C431.724 62.8032 433.26 61.7 435.309 60.9121C439.091 59.4937 442.558 58.5482 445.71 58.0754C448.941 57.6026 451.896 57.3662 454.575 57.3662C461.036 57.3662 466.355 58.3118 470.531 60.2029C474.786 62.0152 477.938 64.8519 479.987 68.713C482.114 72.4952 483.178 77.3806 483.178 83.3692V107.245C483.178 110.712 482.351 113.351 480.696 115.164C479.041 116.976 476.638 117.882 473.486 117.882C470.255 117.882 467.773 116.976 466.04 115.164C464.385 113.351 463.558 110.712 463.558 107.245V104.172L464.267 105.826C463.873 108.348 462.967 110.515 461.548 112.327C460.13 114.139 458.278 115.558 455.993 116.582C453.708 117.607 451.108 118.119 448.192 118.119Z" fill="#FFF2B5"/>
<path d="M331.965 117.882C328.656 117.882 326.095 116.976 324.283 115.164C322.47 113.351 321.564 110.712 321.564 107.245V68.122C321.564 64.7337 322.431 62.1334 324.165 60.3211C325.977 58.5088 328.538 57.6026 331.847 57.6026C335.157 57.6026 337.678 58.5088 339.412 60.3211C341.145 62.1334 342.012 64.7337 342.012 68.122V74.6228L340.712 68.8312C342.367 65.3641 344.809 62.6062 348.04 60.5575C351.35 58.43 355.25 57.3662 359.741 57.3662C363.996 57.3662 367.621 58.3906 370.615 60.4393C373.689 62.488 375.895 65.6005 377.234 69.7767H375.58C377.392 65.9157 380.11 62.882 383.735 60.6757C387.36 58.4694 391.378 57.3662 395.791 57.3662C400.361 57.3662 404.104 58.2724 407.02 60.0847C409.935 61.8182 412.102 64.5761 413.52 68.3584C415.018 72.0619 415.766 76.7503 415.766 82.4237V107.245C415.766 110.712 414.821 113.351 412.929 115.164C411.117 116.976 408.517 117.882 405.129 117.882C401.819 117.882 399.258 116.976 397.446 115.164C395.633 113.351 394.727 110.712 394.727 107.245V83.0146C394.727 79.6264 394.215 77.1837 393.191 75.6865C392.166 74.1894 390.472 73.4408 388.108 73.4408C385.193 73.4408 382.947 74.4652 381.371 76.5139C379.874 78.5626 379.125 81.4781 379.125 85.2603V107.245C379.125 110.712 378.219 113.351 376.407 115.164C374.595 116.976 371.994 117.882 368.606 117.882C365.218 117.882 362.618 116.976 360.805 115.164C358.993 113.351 358.087 110.712 358.087 107.245V83.0146C358.087 79.6264 357.574 77.1837 356.55 75.6865C355.526 74.1894 353.832 73.4408 351.468 73.4408C348.631 73.4408 346.425 74.4652 344.849 76.5139C343.352 78.5626 342.603 81.4781 342.603 85.2603V107.245C342.603 114.336 339.057 117.882 331.965 117.882Z" fill="#FFF2B5"/>
<path d="M298.486 117.883C295.177 117.883 292.616 116.898 290.804 114.928C288.991 112.958 288.085 110.122 288.085 106.418V69.0683C288.085 65.3648 288.991 62.5281 290.804 60.5582C292.616 58.5883 295.177 57.6033 298.486 57.6033C301.875 57.6033 304.475 58.5883 306.287 60.5582C308.179 62.5281 309.124 65.3648 309.124 69.0683V106.418C309.124 110.122 308.218 112.958 306.406 114.928C304.593 116.898 301.954 117.883 298.486 117.883ZM298.486 49.2114C294.783 49.2114 291.907 48.3447 289.858 46.6111C287.888 44.8776 286.903 42.3561 286.903 39.0466C286.903 35.8159 287.888 33.3338 289.858 31.6003C291.907 29.8668 294.783 29 298.486 29C302.348 29 305.263 29.8668 307.233 31.6003C309.203 33.3338 310.188 35.8159 310.188 39.0466C310.188 42.3561 309.203 44.8776 307.233 46.6111C305.263 48.3447 302.348 49.2114 298.486 49.2114Z" fill="#FFF2B5"/>
<path d="M265.244 117.883C261.935 117.883 259.374 116.898 257.561 114.928C255.749 112.958 254.843 110.122 254.843 106.418V69.0683C254.843 65.3648 255.749 62.5281 257.561 60.5582C259.374 58.5883 261.935 57.6033 265.244 57.6033C268.632 57.6033 271.233 58.5883 273.045 60.5582C274.936 62.5281 275.882 65.3648 275.882 69.0683V106.418C275.882 110.122 274.975 112.958 273.163 114.928C271.351 116.898 268.711 117.883 265.244 117.883ZM265.244 49.2114C261.541 49.2114 258.664 48.3447 256.616 46.6111C254.646 44.8776 253.661 42.3561 253.661 39.0466C253.661 35.8159 254.646 33.3338 256.616 31.6003C258.664 29.8668 261.541 29 265.244 29C269.105 29 272.021 29.8668 273.99 31.6003C275.96 33.3338 276.945 35.8159 276.945 39.0466C276.945 42.3561 275.96 44.8776 273.99 46.6111C272.021 48.3447 269.105 49.2114 265.244 49.2114Z" fill="#FFF2B5"/>
<path d="M214.35 117.883C210.883 117.883 208.204 116.977 206.312 115.165C204.5 113.353 203.594 110.713 203.594 107.246V68.1231C203.594 64.7348 204.461 62.1345 206.194 60.3222C208.007 58.5099 210.568 57.6037 213.877 57.6037C217.186 57.6037 219.708 58.5099 221.442 60.3222C223.175 62.1345 224.042 64.7348 224.042 68.1231V72.9691H222.86C223.648 68.2413 225.657 64.4984 228.888 61.7405C232.197 58.9826 236.295 57.5249 241.18 57.3673C243.465 57.2885 245.159 57.8795 246.263 59.1402C247.445 60.3222 248.075 62.5679 248.154 65.8774C248.154 68.7141 247.563 70.9598 246.381 72.6145C245.199 74.2693 242.953 75.2542 239.644 75.5694L236.925 75.8058C232.749 76.1998 229.715 77.3817 227.824 79.3517C225.933 81.2428 224.987 84.0795 224.987 87.8617V107.246C224.987 110.713 224.081 113.353 222.269 115.165C220.457 116.977 217.817 117.883 214.35 117.883Z" fill="#FFF2B5"/>
<path d="M156.628 118.119C152.137 118.119 148.157 117.291 144.69 115.637C141.302 113.982 138.623 111.736 136.653 108.899C134.762 105.984 133.816 102.674 133.816 98.971C133.816 94.716 134.919 91.3671 137.126 88.9244C139.332 86.4817 142.878 84.7482 147.763 83.7238C152.649 82.6207 159.149 82.0691 167.266 82.0691H173.766V91.9975H167.266C164.192 91.9975 161.632 92.2339 159.583 92.7067C157.613 93.1006 156.155 93.7704 155.21 94.716C154.264 95.5827 153.791 96.7253 153.791 98.1437C153.791 99.956 154.422 101.453 155.682 102.635C157.022 103.817 158.913 104.408 161.356 104.408C163.326 104.408 165.059 103.975 166.556 103.108C168.132 102.241 169.393 101.059 170.339 99.562C171.284 97.9861 171.757 96.1737 171.757 94.125V80.4143C171.757 77.5776 171.008 75.5683 169.511 74.3864C168.093 73.2044 165.611 72.6134 162.065 72.6134C160.174 72.6134 158.046 72.8498 155.682 73.3226C153.319 73.7166 150.679 74.4652 147.763 75.5683C145.636 76.3563 143.823 76.4745 142.326 75.9229C140.829 75.3713 139.647 74.4258 138.78 73.0862C137.993 71.7467 137.599 70.2889 137.599 68.713C137.677 67.137 138.189 65.6399 139.135 64.2215C140.159 62.8032 141.696 61.7 143.745 60.9121C147.527 59.4937 150.994 58.5482 154.146 58.0754C157.377 57.6026 160.331 57.3662 163.011 57.3662C169.472 57.3662 174.791 58.3118 178.967 60.2029C183.222 62.0152 186.374 64.8519 188.423 68.713C190.55 72.4952 191.614 77.3806 191.614 83.3692V107.245C191.614 110.712 190.786 113.351 189.132 115.164C187.477 116.976 185.074 117.882 181.922 117.882C178.691 117.882 176.209 116.976 174.476 115.164C172.821 113.351 171.993 110.712 171.993 107.245V104.172L172.703 105.826C172.309 108.348 171.402 110.515 169.984 112.327C168.566 114.139 166.714 115.558 164.429 116.582C162.144 117.607 159.543 118.119 156.628 118.119Z" fill="#FFF2B5"/>
<path d="M40.4012 117.882C37.0917 117.882 34.5308 116.976 32.7185 115.164C30.9062 113.351 30 110.712 30 107.245V68.122C30 64.7337 30.8668 62.1334 32.6003 60.3211C34.4126 58.5088 36.9735 57.6026 40.283 57.6026C43.5925 57.6026 46.114 58.5088 47.8475 60.3211C49.5811 62.1334 50.4478 64.7337 50.4478 68.122V74.6228L49.1477 68.8312C50.8024 65.3641 53.2451 62.6062 56.4758 60.5575C59.7853 58.43 63.6857 57.3662 68.1771 57.3662C72.4322 57.3662 76.0568 58.3906 79.0511 60.4393C82.1242 62.488 84.3305 65.6005 85.6701 69.7767H84.0153C85.8277 65.9157 88.5462 62.882 92.1708 60.6757C95.7955 58.4694 99.8141 57.3662 104.227 57.3662C108.797 57.3662 112.54 58.2724 115.455 60.0847C118.371 61.8182 120.538 64.5761 121.956 68.3584C123.453 72.0619 124.202 76.7503 124.202 82.4237V107.245C124.202 110.712 123.256 113.351 121.365 115.164C119.553 116.976 116.952 117.882 113.564 117.882C110.255 117.882 107.694 116.976 105.882 115.164C104.069 113.351 103.163 110.712 103.163 107.245V83.0146C103.163 79.6264 102.651 77.1837 101.626 75.6865C100.602 74.1894 98.908 73.4408 96.5441 73.4408C93.6286 73.4408 91.3829 74.4652 89.8069 76.5139C88.3098 78.5626 87.5612 81.4781 87.5612 85.2603V107.245C87.5612 110.712 86.655 113.351 84.8427 115.164C83.0304 116.976 80.4301 117.882 77.0418 117.882C73.6535 117.882 71.0532 116.976 69.2409 115.164C67.4286 113.351 66.5224 110.712 66.5224 107.245V83.0146C66.5224 79.6264 66.0102 77.1837 64.9859 75.6865C63.9615 74.1894 62.2674 73.4408 59.9035 73.4408C57.0668 73.4408 54.8605 74.4652 53.2845 76.5139C51.7874 78.5626 51.0388 81.4781 51.0388 85.2603V107.245C51.0388 114.336 47.4929 117.882 40.4012 117.882Z" fill="#FFF2B5"/>
<path fill-rule="evenodd" clip-rule="evenodd" d="M507.921 114.689C512.728 117.131 518.362 118.353 524.823 118.353C529.63 118.353 534.003 117.683 537.943 116.343C541.961 114.925 545.349 112.916 548.107 110.315C550.944 107.636 553.111 104.406 554.608 100.623C556.105 96.8411 556.854 92.6255 556.854 87.9765C556.854 81.6727 555.514 76.2751 552.835 71.7837C550.235 67.2135 546.531 63.707 541.725 61.2643C536.918 58.8216 531.284 57.6002 524.823 57.6002C519.937 57.6002 515.525 58.3094 511.585 59.7278C507.645 61.0673 504.257 63.0766 501.42 65.7557C498.583 68.356 496.417 71.5473 494.919 75.3296C493.422 79.033 492.674 83.2487 492.674 87.9765C492.674 94.2014 494.013 99.599 496.692 104.169C499.371 108.739 503.114 112.246 507.921 114.689ZM560.815 67.1362C557.299 60.9919 552.256 56.258 545.908 53.0323C539.573 49.8125 532.452 48.3662 524.823 48.3662C519.075 48.3662 513.608 49.1969 508.535 51.0117C503.478 52.7421 498.964 55.3885 495.13 58.995C491.239 62.5762 488.32 66.9274 486.347 71.8973C484.34 76.8747 483.44 82.2871 483.44 87.9765C483.44 95.5532 485.082 102.622 488.726 108.839C492.316 114.963 497.385 119.692 503.737 122.921C510.073 126.14 517.194 127.587 524.823 127.587C530.487 127.587 535.882 126.797 540.915 125.086L540.966 125.069L541.016 125.051C546.097 123.258 550.638 120.621 554.442 117.034L554.448 117.029C558.308 113.383 561.221 109.005 563.194 104.022C565.176 99.0146 566.088 93.6244 566.088 87.9765C566.088 80.3841 564.472 73.3069 560.815 67.1362ZM532.624 76.6297C530.575 74.2658 527.975 73.0838 524.823 73.0838C522.695 73.0838 520.804 73.596 519.15 74.6204C517.495 75.6447 516.195 77.2601 515.249 79.4664C514.303 81.5939 513.831 84.4306 513.831 87.9765C513.831 93.1771 514.855 96.9593 516.904 99.3232C518.952 101.687 521.592 102.869 524.823 102.869C526.95 102.869 528.842 102.357 530.496 101.333C532.151 100.229 533.412 98.6141 534.279 96.4866C535.224 94.2802 535.697 91.4435 535.697 87.9765C535.697 82.6971 534.672 78.9148 532.624 76.6297ZM525.436 93.5684C525.496 93.4819 525.603 93.3075 525.727 93.0026L525.758 92.9256L525.791 92.8491C526.076 92.1838 526.463 90.7043 526.463 87.9765C526.463 85.8896 526.256 84.4799 526.016 83.5942C525.872 83.0618 525.742 82.8116 525.7 82.7399L525.697 82.736L525.646 82.6774C525.519 82.5308 525.429 82.4549 525.384 82.4206C525.341 82.3878 525.32 82.3786 525.316 82.3767C525.311 82.3746 525.287 82.3632 525.225 82.3505C525.16 82.3372 525.032 82.3179 524.823 82.3179C524.418 82.3179 524.21 82.3756 524.102 82.4228C524.037 82.5101 523.902 82.7166 523.736 83.1039L523.712 83.1604L523.687 83.2167C523.468 83.7105 523.065 85.1122 523.065 87.9765C523.065 90.0101 523.269 91.4039 523.512 92.2997C523.694 92.9704 523.863 93.2433 523.895 93.2912C524.005 93.416 524.083 93.4804 524.121 93.5097C524.16 93.5387 524.181 93.5493 524.194 93.5549C524.195 93.5553 524.355 93.6351 524.823 93.6351C525.121 93.6351 525.312 93.6038 525.436 93.5684ZM525.686 82.7173C525.686 82.7175 525.687 82.7176 525.687 82.7181Z" fill="#170E5D"/>
<path fill-rule="evenodd" clip-rule="evenodd" d="M436.489 115.871C439.956 117.525 443.935 118.353 448.426 118.353C451.342 118.353 453.942 117.841 456.227 116.816C456.26 116.802 456.293 116.787 456.325 116.772C458.565 115.751 460.384 114.347 461.782 112.561C462.017 112.261 462.238 111.952 462.445 111.632C462.53 111.5 462.613 111.366 462.694 111.231C462.732 111.166 462.771 111.1 462.808 111.035C463.214 110.325 463.556 109.572 463.833 108.773C463.876 109.443 463.955 110.077 464.069 110.677C464.437 112.617 465.172 114.191 466.274 115.398C467.182 116.348 468.297 117.049 469.617 117.501C470.815 117.911 472.183 118.116 473.72 118.116C476.872 118.116 479.275 117.21 480.93 115.398C482.585 113.586 483.412 110.946 483.412 107.479V83.6032C483.412 77.6147 482.348 72.7293 480.221 68.947C478.172 65.0859 475.02 62.2493 470.765 60.4369C466.589 58.5458 461.27 57.6002 454.809 57.6002C452.13 57.6002 449.175 57.8366 445.944 58.3094C442.792 58.7822 439.325 59.7278 435.543 61.1461C433.494 61.9341 431.958 63.0372 430.933 64.4556C429.988 65.8739 429.476 67.3711 429.397 68.947C429.397 70.5229 429.791 71.9807 430.579 73.3202C431.352 74.5147 432.375 75.3959 433.649 75.9638C433.804 76.0328 433.962 76.0972 434.125 76.1569C435.199 76.5527 436.436 76.6037 437.835 76.3097C437.874 76.3014 437.913 76.2929 437.953 76.2841C438.467 76.1696 439.004 76.009 439.562 75.8023C442.477 74.6992 445.117 73.9506 447.481 73.5566C447.641 73.5245 447.801 73.4935 447.959 73.4636C450.132 73.0528 452.101 72.8475 453.863 72.8475C455.141 72.8475 456.281 72.9242 457.282 73.0777C457.935 73.1777 458.529 73.3103 459.064 73.4754C459.987 73.7602 460.735 74.1419 461.31 74.6204C462.807 75.8023 463.555 77.8117 463.555 80.6484V82.3031H459.064C458.131 82.3031 457.22 82.3104 456.331 82.3249C455.648 82.3361 454.979 82.3515 454.321 82.3713C452.519 82.4254 450.811 82.5116 449.198 82.6301C449.13 82.6351 449.063 82.6401 448.995 82.6451C446.6 82.8259 444.414 83.0784 442.437 83.4025C442.418 83.4056 442.399 83.4088 442.38 83.4119C441.387 83.5757 440.448 83.7577 439.562 83.9578C437.525 84.3849 435.721 84.9352 434.15 85.6087C431.953 86.5508 430.211 87.734 428.924 89.1584C426.718 91.6011 425.615 94.95 425.615 99.205C425.615 102.909 426.56 106.218 428.451 109.133C430.421 111.97 433.1 114.216 436.489 115.871ZM454.558 104.564C454.895 104.526 455.224 104.473 455.545 104.406C456.195 104.27 456.813 104.075 457.399 103.822C457.728 103.681 458.046 103.52 458.355 103.342C459.29 102.827 460.114 102.202 460.828 101.466C461.316 100.961 461.753 100.405 462.137 99.796C463.083 98.2201 463.555 96.4078 463.555 94.359V92.2315H459.064C457.318 92.2315 455.737 92.3078 454.321 92.4605C453.246 92.5765 452.266 92.7366 451.381 92.9407C449.411 93.3347 447.954 94.0045 447.008 94.95C446.062 95.8168 445.59 96.9593 445.59 98.3777C445.59 100.19 446.22 101.687 447.481 102.869C448.82 104.051 450.711 104.642 453.154 104.642C453.636 104.642 454.104 104.616 454.558 104.564ZM424.588 80.6074C423.943 79.9109 423.354 79.1527 422.826 78.3366L422.719 78.1716L422.62 78.0021C420.985 75.2227 420.163 72.145 420.163 68.947V68.7163L420.174 68.4859C420.343 65.1127 421.457 62.0229 423.25 59.3335L423.346 59.1895L423.448 59.0491C425.759 55.8483 428.932 53.7953 432.228 52.5276L432.264 52.5136L432.301 52.5C436.536 50.9118 440.64 49.7677 444.574 49.1775L444.591 49.1751L444.607 49.1727C448.189 48.6486 451.598 48.3662 454.809 48.3662C462.043 48.3662 468.743 49.4063 474.48 51.9824C480.478 54.5603 485.239 58.7585 488.324 64.5189C491.428 70.0886 492.646 76.6444 492.646 83.6032V107.479C492.646 112.301 491.497 117.52 487.749 121.624C483.879 125.863 478.683 127.35 473.72 127.35C469.804 127.35 465.761 126.456 462.296 124.076C461.556 124.501 460.791 124.89 460.004 125.242C456.352 126.88 452.432 127.587 448.426 127.587C442.79 127.587 437.414 126.544 432.511 124.204L432.474 124.186L432.436 124.168C427.765 121.887 423.817 118.649 420.867 114.401L420.784 114.281L420.704 114.159C417.778 109.647 416.381 104.569 416.381 99.205C416.381 93.3516 417.926 87.5584 422.071 82.969C422.852 82.105 423.694 81.3203 424.588 80.6074Z" fill="#170E5D"/>
<path fill-rule="evenodd" clip-rule="evenodd" d="M324.517 115.398C326.329 117.21 328.89 118.116 332.2 118.116C339.291 118.116 342.837 114.57 342.837 107.479V85.4944C342.837 81.7121 343.586 78.7966 345.083 76.7479C345.47 76.2452 345.894 75.8041 346.357 75.4248C346.61 75.2169 346.875 75.0276 347.151 74.8568C348.372 74.1021 349.815 73.7088 351.48 73.6769C351.554 73.6755 351.627 73.6748 351.702 73.6748C354.066 73.6748 355.76 74.4234 356.784 75.9205C357.809 77.4177 358.321 79.8604 358.321 83.2487V107.479C358.321 110.946 359.227 113.585 361.039 115.398C362.852 117.21 365.452 118.116 368.84 118.116C372.228 118.116 374.829 117.21 376.641 115.398C378.453 113.585 379.359 110.946 379.359 107.479V85.4944C379.359 83.0488 379.672 80.9656 380.298 79.2448C380.641 78.3042 381.076 77.4719 381.605 76.7479C383.181 74.6995 385.426 73.6751 388.341 73.6748C388.342 73.6748 388.342 73.6748 388.342 73.6748C390.706 73.6748 392.4 74.4234 393.425 75.9205C394.449 77.4177 394.961 79.8604 394.961 83.2487V107.479C394.961 110.946 395.867 113.585 397.68 115.398C399.492 117.21 402.053 118.116 405.363 118.116C408.751 118.116 411.351 117.21 413.163 115.398C415.055 113.585 416 110.946 416 107.479V82.6577C416 76.9843 415.252 72.2959 413.754 68.5924C412.336 64.8102 410.169 62.0523 407.254 60.3187C404.338 58.5064 400.595 57.6002 396.025 57.6002C391.612 57.6002 387.594 58.7034 383.969 60.9097C383.842 60.9869 383.717 61.0651 383.592 61.1443C381.111 62.7217 379.07 64.7007 377.468 67.0812C377.232 67.432 377.006 67.7916 376.789 68.1599C376.493 67.4511 376.168 66.7784 375.814 66.1418C374.539 63.8526 372.884 62.0298 370.849 60.6733C370.816 60.6504 370.782 60.6277 370.749 60.6051C367.774 58.6018 364.183 57.6002 359.975 57.6002C356.22 57.6002 352.878 58.3439 349.949 59.8313C349.375 60.1228 348.816 60.4429 348.274 60.7915C345.771 62.3791 343.74 64.3925 342.183 66.8317C341.955 64.1777 341.11 62.0855 339.646 60.5551C338.856 59.7295 337.903 59.0919 336.786 58.6424C335.451 58.1052 333.883 57.8366 332.081 57.8366C328.772 57.8366 326.211 58.7428 324.399 60.5551C322.665 62.3675 321.798 64.9678 321.798 68.356V107.479C321.798 110.946 322.704 113.585 324.517 115.398ZM344.322 52.3857C340.664 49.5965 336.274 48.6026 332.081 48.6026C327.068 48.6026 321.877 50.0177 317.869 54.0257L317.797 54.0982L317.726 54.1724C313.841 58.2337 312.564 63.4423 312.564 68.356V107.479C312.564 112.507 313.903 117.843 317.987 121.927C321.995 125.935 327.186 127.35 332.2 127.35C337.169 127.35 342.592 126.102 346.707 121.986C348.512 120.182 349.765 118.126 350.603 115.967C351.457 118.107 352.72 120.137 354.51 121.927C358.557 125.974 363.82 127.35 368.84 127.35C373.86 127.35 379.123 125.974 383.17 121.927C385.02 120.078 386.306 117.972 387.16 115.754C388.015 117.972 389.301 120.078 391.15 121.927C395.158 125.935 400.349 127.35 405.363 127.35C410.354 127.35 415.585 125.99 419.623 121.997C423.81 117.94 425.234 112.585 425.234 107.479V82.6577C425.234 76.3033 424.414 70.3772 422.359 65.2407C420.356 59.9575 417.022 55.4112 412.052 52.4291C407.281 49.4879 401.732 48.3662 396.025 48.3662C389.99 48.3662 384.299 49.899 379.168 53.022C378.6 53.3677 378.047 53.7285 377.509 54.1042C377.03 53.7274 376.533 53.366 376.017 53.0207C371.247 49.7718 365.743 48.3662 359.975 48.3662C354.384 48.3662 349.066 49.6172 344.322 52.3857ZM348.847 80.5581C348.843 80.5465 348.841 80.5406 348.841 80.5409C348.841 80.5411 348.843 80.5467 348.847 80.5581Z" fill="#170E5D"/>
<path fill-rule="evenodd" clip-rule="evenodd" d="M284.059 53.8364L283.992 53.7773C279.531 49.852 277.903 44.4985 277.903 39.2806C277.903 34.0612 279.58 28.7848 283.992 24.9022L284.059 24.8431L284.128 24.7852C288.381 21.1859 293.66 20 298.721 20C303.793 20 309.27 21.1205 313.567 24.9022C317.979 28.7848 319.656 34.0612 319.656 39.2806C319.656 44.4985 318.028 49.852 313.567 53.7773C313.389 53.9337 313.21 54.0857 313.028 54.2331C313.103 54.3106 313.177 54.3891 313.251 54.4684C317.256 58.6853 318.592 64.1108 318.592 69.3023V106.652C318.592 111.777 317.331 117.18 313.435 121.414C309.394 125.806 303.964 127.351 298.721 127.351C293.484 127.351 288.203 125.719 284.242 121.414C280.346 117.18 279.085 111.777 279.085 106.652V69.3023C279.085 64.1771 280.346 58.7749 284.242 54.5403C284.339 54.435 284.437 54.3313 284.535 54.2293C284.398 54.12 284.262 54.0083 284.128 53.8943L284.059 53.8364ZM294.48 48.9838C295.746 49.2916 297.16 49.4455 298.721 49.4455C300.332 49.4455 301.78 49.2944 303.062 48.9922C304.851 48.5706 306.319 47.855 307.467 46.8451C309.437 45.1116 310.422 42.5901 310.422 39.2806C310.422 36.05 309.437 33.5679 307.467 31.8343C305.497 30.1008 302.582 29.234 298.721 29.234C295.017 29.234 292.141 30.1008 290.092 31.8343C288.122 33.5679 287.137 36.05 287.137 39.2806C287.137 42.5901 288.122 45.1116 290.092 46.8451C291.278 47.8483 292.74 48.5611 294.48 48.9838ZM294.759 58.4185C293.287 58.9047 292.046 59.696 291.038 60.7922C289.225 62.7621 288.319 65.5988 288.319 69.3023V106.652C288.319 110.356 289.225 113.192 291.038 115.162C292.85 117.132 295.411 118.117 298.721 118.117C302.188 118.117 304.827 117.132 306.64 115.162C308.452 113.192 309.358 110.356 309.358 106.652V69.3023C309.358 65.5988 308.413 62.7621 306.521 60.7922C305.514 59.6972 304.263 58.9065 302.769 58.4201C301.575 58.0316 300.225 57.8373 298.721 57.8373C297.253 57.8373 295.932 58.0311 294.759 58.4185Z" fill="#170E5D"/>
<path fill-rule="evenodd" clip-rule="evenodd" d="M250.817 53.8364L250.749 53.7773C246.289 49.852 244.661 44.4985 244.661 39.2806C244.661 34.0612 246.337 28.7848 250.749 24.9022L250.817 24.8431L250.885 24.7852C255.139 21.1859 260.417 20 265.478 20C270.55 20 276.027 21.1205 280.325 24.9022C284.737 28.7848 286.413 34.0612 286.413 39.2806C286.413 44.4985 284.785 49.852 280.325 53.7773C280.147 53.9337 279.967 54.0857 279.785 54.2331C279.86 54.3106 279.934 54.3891 280.008 54.4684C284.013 58.6853 285.35 64.1108 285.35 69.3023V106.652C285.35 111.777 284.089 117.18 280.193 121.414C276.152 125.806 270.721 127.351 265.478 127.351C260.242 127.351 254.96 125.719 251 121.414C247.104 117.18 245.843 111.777 245.843 106.652V73.7038C246.137 73.4419 246.394 73.1566 246.615 72.8482C247.312 71.8719 247.804 70.69 248.09 69.3023C248.288 68.3379 248.388 67.2741 248.388 66.111C248.33 63.6826 247.975 61.8269 247.323 60.544C248.133 58.4032 249.322 56.3635 251 54.5403C251.097 54.435 251.194 54.3313 251.293 54.2293C251.156 54.12 251.02 54.0083 250.885 53.8943L250.817 53.8364ZM261.237 48.9838C262.504 49.2916 263.918 49.4455 265.478 49.4455C267.09 49.4455 268.537 49.2944 269.819 48.9922C271.609 48.5706 273.077 47.855 274.224 46.8451C276.194 45.1116 277.179 42.5901 277.179 39.2806C277.179 36.05 276.194 33.5679 274.224 31.8343C272.255 30.1008 269.339 29.234 265.478 29.234C261.775 29.234 258.898 30.1008 256.85 31.8343C254.88 33.5679 253.895 36.05 253.895 39.2806C253.895 42.5901 254.88 45.1116 256.85 46.8451C258.035 47.8483 259.498 48.5611 261.237 48.9838ZM261.516 58.4185C260.044 58.9047 258.804 59.696 257.795 60.7922C255.983 62.7621 255.077 65.5988 255.077 69.3023V106.652C255.077 110.356 255.983 113.192 257.795 115.162C259.608 117.132 262.169 118.117 265.478 118.117C268.945 118.117 271.585 117.132 273.397 115.162C275.209 113.192 276.116 110.356 276.116 106.652V69.3023C276.116 65.5988 275.17 62.7621 273.279 60.7922C272.271 59.6972 271.021 58.9065 269.526 58.4201C268.332 58.0316 266.983 57.8373 265.478 57.8373C264.01 57.8373 262.69 58.0311 261.516 58.4185Z" fill="#170E5D"/>
<path fill-rule="evenodd" clip-rule="evenodd" d="M206.547 115.398C208.438 117.211 211.117 118.117 214.584 118.117C218.051 118.117 220.691 117.211 222.503 115.398C224.315 113.586 225.221 110.946 225.221 107.479V88.0952C225.221 85.8866 225.544 84.0004 226.189 82.4366C226.648 81.3224 227.271 80.372 228.058 79.5851C229.346 78.2439 231.163 77.2679 233.51 76.6572C234.61 76.371 235.826 76.165 237.159 76.0393L239.878 75.8029C243.187 75.4877 245.433 74.5027 246.615 72.848C247.797 71.1933 248.388 68.9475 248.388 66.1109C248.309 62.8014 247.679 60.5557 246.497 59.3737C245.393 58.113 243.699 57.522 241.414 57.6008C237.876 57.7149 234.752 58.5108 232.04 59.9885C231.008 60.5514 230.035 61.2133 229.122 61.974C227.087 63.7109 225.537 65.8384 224.471 68.3566C224.404 68.515 224.339 68.675 224.276 68.8365V68.3566C224.276 66.7072 224.07 65.2445 223.66 63.9686C223.227 62.6234 222.565 61.4858 221.676 60.5557C221.021 59.8717 220.255 59.3168 219.376 58.8909C217.927 58.1884 216.171 57.8372 214.111 57.8372C210.802 57.8372 208.241 58.7433 206.428 60.5557C204.695 62.368 203.828 64.9683 203.828 68.3566V107.479C203.828 110.946 204.734 113.586 206.547 115.398ZM226.518 52.5149C222.828 49.6275 218.368 48.6031 214.111 48.6031C209.098 48.6031 203.907 50.0182 199.899 54.0262L199.826 54.0988L199.755 54.1729C195.871 58.2342 194.594 63.4428 194.594 68.3566V107.479C194.594 112.508 195.933 117.843 200.017 121.928L200.087 121.997L200.157 122.065C204.266 126.002 209.529 127.351 214.584 127.351C219.612 127.351 224.948 126.012 229.032 121.928C233.117 117.843 234.455 112.508 234.455 107.479V88.0952C234.455 86.946 234.602 86.3164 234.691 86.0511C234.696 86.0362 234.7 86.0228 234.705 86.0107C234.772 85.9713 234.898 85.9055 235.104 85.8253C235.629 85.6207 236.546 85.3744 237.996 85.2354L240.715 84.9989L240.753 84.9953C245.077 84.5835 250.637 83.1042 254.129 78.2152C254.475 77.7304 254.79 77.2351 255.077 76.7314V69.3021C255.077 68.1552 255.164 67.0915 255.338 66.1109C255.347 66.0552 255.358 65.9998 255.368 65.9447C255.699 64.1922 256.314 62.7104 257.211 61.4993C256.708 58.6513 255.615 55.5579 253.252 53.0756C249.739 49.2199 245.018 48.239 241.106 48.3719C235.84 48.5433 230.885 49.8618 226.518 52.5149ZM234.719 85.98C234.718 85.982 234.716 85.9839 234.714 85.9858L234.719 85.98Z" fill="#170E5D"/>
<path fill-rule="evenodd" clip-rule="evenodd" d="M144.924 115.871C148.391 117.525 152.371 118.353 156.862 118.353C159.778 118.353 162.378 117.841 164.663 116.816C164.696 116.802 164.728 116.787 164.761 116.772C167.001 115.751 168.82 114.347 170.218 112.561C170.453 112.261 170.674 111.952 170.88 111.632C170.966 111.5 171.049 111.366 171.129 111.231C171.168 111.166 171.206 111.1 171.244 111.035C171.65 110.325 171.991 109.572 172.268 108.773C172.312 109.443 172.391 110.077 172.505 110.677C172.873 112.617 173.608 114.191 174.71 115.398C175.618 116.348 176.733 117.049 178.053 117.501C179.251 117.911 180.619 118.116 182.156 118.116C185.308 118.116 187.711 117.21 189.366 115.398C191.021 113.586 191.848 110.946 191.848 107.479V83.6032C191.848 77.6147 190.784 72.7293 188.657 68.947C186.608 65.0859 183.456 62.2493 179.201 60.4369C175.025 58.5458 169.706 57.6002 163.245 57.6002C160.565 57.6002 157.611 57.8366 154.38 58.3094C151.228 58.7822 147.761 59.7278 143.979 61.1461C141.93 61.9341 140.393 63.0372 139.369 64.4556C138.424 65.8739 137.911 67.3711 137.833 68.947C137.833 70.5229 138.227 71.9807 139.014 73.3202C139.787 74.5147 140.811 75.3959 142.085 75.9638C142.24 76.0328 142.398 76.0972 142.56 76.1569C143.635 76.5527 144.871 76.6037 146.27 76.3097C146.31 76.3014 146.349 76.2929 146.388 76.2841C146.903 76.1696 147.439 76.009 147.997 75.8023C150.913 74.6992 153.553 73.9506 155.916 73.5566C156.077 73.5245 156.236 73.4935 156.395 73.4636C158.568 73.0528 160.536 72.8475 162.299 72.8475C163.577 72.8475 164.716 72.9242 165.718 73.0777C166.371 73.1777 166.964 73.3103 167.5 73.4754C168.423 73.7602 169.171 74.1419 169.745 74.6204C171.242 75.8023 171.991 77.8117 171.991 80.6484V82.3031H167.5C166.567 82.3031 165.656 82.3104 164.766 82.3249C164.084 82.3361 163.414 82.3515 162.757 82.3713C160.955 82.4254 159.247 82.5116 157.634 82.6301C157.566 82.6351 157.499 82.6401 157.431 82.6451C155.035 82.8259 152.849 83.0784 150.873 83.4025C150.854 83.4056 150.835 83.4087 150.816 83.4119C149.823 83.5757 148.884 83.7577 147.997 83.9578C145.961 84.3849 144.157 84.9352 142.586 85.6087C140.388 86.5508 138.646 87.734 137.36 89.1584C135.153 91.6011 134.05 94.95 134.05 99.205C134.05 102.909 134.996 106.218 136.887 109.133C138.857 111.97 141.536 114.216 144.924 115.871ZM162.993 104.564C163.33 104.526 163.659 104.473 163.981 104.406C164.631 104.27 165.249 104.075 165.835 103.822C166.164 103.681 166.482 103.52 166.79 103.342C167.726 102.827 168.55 102.202 169.263 101.466C169.752 100.961 170.188 100.405 170.573 99.796C171.518 98.2201 171.991 96.4078 171.991 94.359V92.2315H167.5C165.753 92.2315 164.172 92.3078 162.757 92.4605C161.681 92.5765 160.701 92.7366 159.817 92.9407C157.847 93.3347 156.389 94.0045 155.444 94.95C154.498 95.8168 154.025 96.9593 154.025 98.3777C154.025 100.19 154.656 101.687 155.916 102.869C157.256 104.051 159.147 104.642 161.59 104.642C162.072 104.642 162.54 104.616 162.993 104.564ZM133.023 80.6074C132.379 79.9109 131.79 79.1527 131.262 78.3366L131.155 78.1716L131.055 78.0021C129.42 75.2227 128.599 72.145 128.599 68.947V68.7163L128.61 68.4859C128.779 65.1127 129.893 62.0229 131.686 59.3335L131.782 59.1895L131.883 59.0491C134.195 55.8483 137.368 53.7953 140.664 52.5276L140.7 52.5136L140.736 52.5C144.972 50.9118 149.076 49.7677 153.01 49.1775L153.026 49.1751L153.043 49.1727C156.624 48.6486 160.034 48.3662 163.245 48.3662C170.479 48.3662 177.178 49.4063 182.915 51.9824C188.914 54.5602 193.675 58.7586 196.76 64.5189C199.864 70.0886 201.082 76.6444 201.082 83.6032V107.479C201.082 112.301 199.932 117.52 196.185 121.624C192.314 125.863 187.119 127.35 182.156 127.35C178.239 127.35 174.196 126.456 170.732 124.076C169.991 124.501 169.227 124.89 168.44 125.242C164.788 126.88 160.867 127.587 156.862 127.587C151.226 127.587 145.849 126.544 140.947 124.204L140.909 124.186L140.872 124.168C136.2 121.887 132.253 118.649 129.302 114.401L129.219 114.281L129.14 114.159C126.214 109.647 124.816 104.569 124.816 99.205C124.816 93.3516 126.362 87.5584 130.507 82.969C131.288 82.105 132.13 81.3203 133.023 80.6074Z" fill="#170E5D"/>
<path fill-rule="evenodd" clip-rule="evenodd" d="M32.9525 115.398C34.7648 117.21 37.3258 118.116 40.6352 118.116C47.727 118.116 51.2728 114.57 51.2728 107.479V85.4944C51.2728 81.7121 52.0214 78.7966 53.5185 76.7479C53.9052 76.2452 54.3299 75.8041 54.7925 75.4248C55.046 75.2169 55.3109 75.0276 55.5871 74.8568C56.8076 74.1021 58.2505 73.7088 59.9159 73.6769C59.9893 73.6755 60.0632 73.6748 60.1375 73.6748C62.5014 73.6748 64.1955 74.4234 65.2199 75.9205C66.2443 77.4177 66.7564 79.8604 66.7564 83.2487V107.479C66.7564 110.946 67.6626 113.585 69.4749 115.398C71.2873 117.21 73.8876 118.116 77.2758 118.116C80.6641 118.116 83.2644 117.21 85.0767 115.398C86.8891 113.585 87.7952 110.946 87.7952 107.479V85.4944C87.7952 83.0488 88.1082 80.9656 88.7341 79.2448C89.0762 78.3042 89.5118 77.4719 90.0409 76.7479C91.6167 74.6995 93.8619 73.6751 96.7768 73.6748C96.7772 73.6748 96.7776 73.6748 96.7781 73.6748C99.142 73.6748 100.836 74.4234 101.86 75.9205C102.885 77.4177 103.397 79.8604 103.397 83.2487V107.479C103.397 110.946 104.303 113.585 106.116 115.398C107.928 117.21 110.489 118.116 113.798 118.116C117.187 118.116 119.787 117.21 121.599 115.398C123.49 113.585 124.436 110.946 124.436 107.479V82.6577C124.436 76.9843 123.687 72.2959 122.19 68.5924C120.772 64.8102 118.605 62.0523 115.689 60.3187C112.774 58.5064 109.031 57.6002 104.461 57.6002C100.048 57.6002 96.0295 58.7034 92.4049 60.9097C92.278 60.9869 92.1523 61.0651 92.0277 61.1443C89.5467 62.7217 87.5055 64.7007 85.9041 67.0812C85.6681 67.4321 85.4416 67.7916 85.2247 68.1599C84.929 67.4511 84.6039 66.7784 84.2494 66.1418C82.9746 63.8526 81.3199 62.0298 79.2852 60.6733C79.2517 60.6504 79.2182 60.6277 79.1846 60.6051C76.2098 58.6018 72.6187 57.6002 68.4112 57.6002C64.6557 57.6002 61.3135 58.3439 58.3843 59.8313C57.8103 60.1228 57.2521 60.4429 56.7098 60.7915C54.2064 62.3791 52.176 64.3925 50.6189 66.8317C50.3911 64.1777 49.5454 62.0855 48.0815 60.5551C47.2918 59.7295 46.3385 59.0919 45.2216 58.6424C43.887 58.1052 42.3188 57.8366 40.517 57.8366C37.2076 57.8366 34.6467 58.7428 32.8343 60.5551C31.1008 62.3675 30.234 64.9678 30.234 68.356V107.479C30.234 110.946 31.1402 113.585 32.9525 115.398ZM52.758 52.3857C49.0999 49.5965 44.7102 48.6026 40.517 48.6026C35.5037 48.6026 30.3129 50.0177 26.3049 54.0257L26.2323 54.0982L26.1614 54.1724C22.2767 58.2337 21 63.4423 21 68.356V107.479C21 112.507 22.3387 117.843 26.4231 121.927C30.4311 125.935 35.6219 127.35 40.6352 127.35C45.6045 127.35 51.0274 126.102 55.1429 121.986C56.9473 120.182 58.2006 118.126 59.0392 115.967C59.8929 118.107 61.1555 120.137 62.9455 121.927C66.9925 125.974 72.2557 127.35 77.2758 127.35C82.296 127.35 87.5592 125.974 91.6062 121.927C93.4555 120.078 94.742 117.972 95.5961 115.754C96.4503 117.972 97.7367 120.078 99.5861 121.927C103.594 125.935 108.785 127.35 113.798 127.35C118.79 127.35 124.021 125.99 128.059 121.997C132.246 117.94 133.67 112.585 133.67 107.479V82.6577C133.67 76.3031 132.849 70.3769 130.795 65.2404C128.791 59.9571 125.458 55.4109 120.487 52.4288C115.716 49.4878 110.167 48.3662 104.461 48.3662C98.4254 48.3662 92.7343 49.899 87.6036 53.022C87.0358 53.3677 86.4826 53.7285 85.9445 54.1042C85.4657 53.7277 84.9689 53.3664 84.4538 53.0212C79.683 49.772 74.1791 48.3662 68.4112 48.3662C62.8194 48.3662 57.5019 49.6172 52.758 52.3857ZM93.9231 80.558C93.919 80.5468 93.9172 80.541 93.9173 80.5409C93.9174 80.5407 93.9194 80.5463 93.9231 80.558ZM57.2824 80.558C57.2784 80.5469 57.2766 80.541 57.2767 80.5408C57.2768 80.5407 57.2788 80.5462 57.2824 80.558Z" fill="#170E5D"/>
</svg>
