<svg width="542" height="542" viewBox="0 0 542 542" fill="none" xmlns="http://www.w3.org/2000/svg">
<g clip-path="url(#clip0_56_538)">
<path fill-rule="evenodd" clip-rule="evenodd" d="M521.266 296.445C484.661 353.776 418.961 392 344 392C229.125 392 136 302.233 136 191.5C136 112.054 183.935 43.4007 253.446 10.9473C124.482 21.1189 23 128.994 23 260.572C23 398.868 135.112 510.98 273.408 510.98C399.524 510.98 503.865 417.747 521.266 296.445Z" fill="#FFF2B5"/>
<path d="M521.266 296.445L533.64 298.22C534.475 292.394 531.134 286.774 525.615 284.726C520.097 282.678 513.898 284.758 510.731 289.718L521.266 296.445ZM253.446 10.9473L258.734 22.2736C264.212 19.7164 267.074 13.6061 265.533 7.76088C263.992 1.91569 258.489 -1.98933 252.463 -1.51403L253.446 10.9473ZM510.731 289.718C476.401 343.485 414.656 379.5 344 379.5V404.5C423.267 404.5 492.921 364.067 531.802 303.172L510.731 289.718ZM344 379.5C235.592 379.5 148.5 294.901 148.5 191.5H123.5C123.5 309.565 222.658 404.5 344 404.5V379.5ZM148.5 191.5C148.5 117.278 193.279 52.8332 258.734 22.2736L248.158 -0.379097C174.59 33.9682 123.5 106.831 123.5 191.5H148.5ZM35.5 260.572C35.5 135.568 131.916 33.0714 254.429 23.4086L252.463 -1.51403C117.049 9.16637 10.5 122.42 10.5 260.572H35.5ZM273.408 498.48C142.015 498.48 35.5 391.965 35.5 260.572H10.5C10.5 405.772 128.208 523.48 273.408 523.48V498.48ZM508.893 294.67C492.362 409.905 393.218 498.48 273.408 498.48V523.48C405.831 523.48 515.368 425.589 533.64 298.22L508.893 294.67Z" fill="#170E5D"/>
<path d="M335.24 48.068C339.244 36.3309 355.844 36.3309 359.848 48.068L394.544 149.779C395.908 153.778 399.131 156.864 403.185 158.055L509.614 189.31C522.064 192.966 522.064 210.6 509.614 214.256L403.185 245.511C399.131 246.702 395.908 249.789 394.544 253.788L359.848 355.498C355.844 367.235 339.244 367.235 335.24 355.498L300.544 253.788C299.18 249.789 295.957 246.702 291.903 245.511L185.474 214.256C173.025 210.6 173.024 192.966 185.474 189.31L291.903 158.055C295.957 156.864 299.18 153.778 300.544 149.779L335.24 48.068Z" fill="#FFC87E" stroke="#170E5D" stroke-width="25" stroke-linejoin="round"/>
<path d="M267.023 144.1C262.384 133.306 273.306 122.384 284.1 127.023L347.335 154.201C350.815 155.697 354.775 155.6 358.178 153.936L420.921 123.265C432.039 117.83 443.745 129.535 438.31 140.654L407.638 203.397C405.975 206.8 405.878 210.759 407.374 214.239L434.552 277.475C439.19 288.269 428.268 299.191 417.475 294.552L354.239 267.374C350.759 265.879 346.8 265.975 343.397 267.639L280.653 298.31C269.535 303.745 257.83 292.04 263.265 280.922L293.936 218.178C295.6 214.775 295.696 210.816 294.2 207.336L267.023 144.1Z" fill="#FFF2B5" stroke="#170E5D" stroke-width="25" stroke-linejoin="round"/>
</g>
<defs>
<clipPath id="clip0_56_538">
<rect width="542" height="542" fill="white"/>
</clipPath>
</defs>
</svg>
