<svg width="542" height="542" viewBox="0 0 542 542" fill="none" xmlns="http://www.w3.org/2000/svg">
<g clip-path="url(#clip0_56_537)">
<path d="M273.927 16.2872L308.734 183.577C310.972 194.336 322.041 200.783 332.503 197.422L503.714 142.431C504.867 142.061 505.638 142.213 506.176 142.455C506.802 142.736 507.43 143.296 507.864 144.1C508.299 144.905 508.422 145.737 508.314 146.414C508.222 146.997 507.926 147.725 506.984 148.486L372.515 257.109C363.349 264.513 363.349 278.487 372.515 285.891L506.984 394.514C507.926 395.275 508.221 396.003 508.314 396.586C508.422 397.263 508.298 398.095 507.864 398.9C507.43 399.704 506.802 400.264 506.176 400.545C505.638 400.787 504.867 400.939 503.714 400.569L332.503 345.578C322.041 342.217 310.972 348.664 308.734 359.423L273.927 526.713C273.688 527.861 273.19 528.457 272.716 528.814C272.171 529.223 271.392 529.5 270.5 529.5C269.608 529.5 268.829 529.223 268.284 528.814C267.81 528.457 267.312 527.861 267.073 526.713L232.266 359.423C230.028 348.664 218.959 342.217 208.497 345.578L37.2859 400.569C36.1325 400.939 35.362 400.787 34.8239 400.545C34.1985 400.264 33.5704 399.704 33.1359 398.9C32.7015 398.095 32.578 397.263 32.6858 396.586C32.7785 396.003 33.0738 395.275 34.0163 394.514L168.485 285.891C177.651 278.487 177.651 264.513 168.485 257.109L34.0163 148.486C33.0739 147.725 32.7785 146.997 32.6858 146.414C32.578 145.737 32.7015 144.905 33.1359 144.1C33.5704 143.296 34.1985 142.736 34.8239 142.455C35.362 142.213 36.1325 142.061 37.2859 142.431L208.497 197.422C218.959 200.783 230.028 194.336 232.266 183.577L267.073 16.2872C267.312 15.1388 267.81 14.5429 268.284 14.1865C268.829 13.7768 269.608 13.5002 270.5 13.5002C271.392 13.5002 272.171 13.7769 272.716 14.1865C273.19 14.5429 273.688 15.1388 273.927 16.2872Z" fill="#FFC87E" stroke="#5D140E" stroke-width="15"/>
<path d="M172.239 92.0194L265.434 147.05C271.716 150.759 279.543 150.652 285.721 146.771L381.9 86.355C385.023 84.3931 389.051 86.8156 388.781 90.4942L381.067 195.856C380.483 203.83 384.827 211.353 392.024 214.834L487.127 260.834C490.448 262.441 490.532 267.14 487.271 268.864L386.86 321.949C380.411 325.359 376.404 332.084 376.475 339.379L377.535 447.603C377.57 451.106 373.764 453.303 370.747 451.522L277.553 396.492C271.27 392.782 263.443 392.89 257.265 396.771L161.087 457.187C157.963 459.148 153.936 456.726 154.205 453.047L161.919 347.686C162.503 339.711 158.16 332.189 150.962 328.707L55.859 282.707C52.5385 281.101 52.4544 276.402 55.7152 274.678L156.126 221.593C162.576 218.183 166.583 211.458 166.511 204.163L165.451 95.9384C165.417 92.4352 169.222 90.2381 172.239 92.0194Z" fill="#FFF2B5" stroke="#5D140E" stroke-width="15"/>
</g>
<defs>
<clipPath id="clip0_56_537">
<rect width="542" height="542" fill="white"/>
</clipPath>
</defs>
</svg>
