<svg width="542" height="542" viewBox="0 0 542 542" fill="none" xmlns="http://www.w3.org/2000/svg">
<g clip-path="url(#clip0_56_538)">
<mask id="path-1-inside-1_56_538" fill="white">
<path fill-rule="evenodd" clip-rule="evenodd" d="M521.266 296.445C484.661 353.776 418.961 392 344 392C229.125 392 136 302.233 136 191.5C136 112.054 183.935 43.4007 253.446 10.9473C124.482 21.1189 23 128.994 23 260.572C23 398.868 135.112 510.98 273.408 510.98C399.524 510.98 503.865 417.747 521.266 296.445Z"/>
</mask>
<path fill-rule="evenodd" clip-rule="evenodd" d="M521.266 296.445C484.661 353.776 418.961 392 344 392C229.125 392 136 302.233 136 191.5C136 112.054 183.935 43.4007 253.446 10.9473C124.482 21.1189 23 128.994 23 260.572C23 398.868 135.112 510.98 273.408 510.98C399.524 510.98 503.865 417.747 521.266 296.445Z" fill="#FFF2B5"/>
<path d="M521.266 296.445L536.114 298.575L508.624 288.373L521.266 296.445ZM253.446 10.9473L259.792 24.5389L252.267 -4.00629L253.446 10.9473ZM508.624 288.373C474.748 341.427 413.794 377 344 377V407C424.128 407 494.573 366.125 533.909 304.518L508.624 288.373ZM344 377C236.885 377 151 293.434 151 191.5H121C121 311.032 221.364 407 344 407V377ZM151 191.5C151 118.323 195.148 54.7197 259.792 24.5389L247.1 -2.64437C172.721 32.0817 121 105.786 121 191.5H151ZM38 260.572C38 136.883 133.402 35.462 254.626 25.9008L252.267 -4.00629C115.562 6.77587 8 121.105 8 260.572H38ZM273.408 495.98C143.396 495.98 38 390.584 38 260.572H8C8 407.152 126.827 525.98 273.408 525.98V495.98ZM506.418 294.315C490.061 408.337 391.957 495.98 273.408 495.98V525.98C407.092 525.98 517.668 427.157 536.114 298.575L506.418 294.315Z" fill="#170E5D" mask="url(#path-1-inside-1_56_538)"/>
<path d="M352.75 50.4895L387.446 152.2C389.597 158.506 394.679 163.374 401.072 165.251L507.501 196.506C512.768 198.053 512.768 205.514 507.501 207.06L401.072 238.315C394.679 240.193 389.597 245.06 387.446 251.366L352.75 353.077C351.056 358.043 344.033 358.043 342.339 353.077L307.642 251.366C305.491 245.06 300.409 240.193 294.016 238.315L187.587 207.06C182.32 205.514 182.32 198.053 187.587 196.506L294.016 165.251C300.409 163.374 305.491 158.506 307.642 152.2L342.339 50.4895C344.033 45.5238 351.056 45.5238 352.75 50.4895Z" fill="#FFC87E" stroke="#170E5D" stroke-width="15"/>
<path d="M281.138 133.914L344.374 161.091C349.862 163.45 356.105 163.298 361.472 160.674L424.215 130.003C428.919 127.704 433.871 132.656 431.572 137.36L400.9 200.103C398.277 205.47 398.125 211.713 400.483 217.201L427.661 280.437C429.624 285.003 425.003 289.624 420.436 287.661L357.2 260.484C351.713 258.125 345.469 258.278 340.103 260.901L277.359 291.572C272.655 293.872 267.703 288.919 270.003 284.216L300.674 221.472C303.297 216.106 303.45 209.862 301.091 204.374L273.913 141.139C271.951 136.572 276.572 131.951 281.138 133.914Z" fill="#FFF2B5" stroke="#170E5D" stroke-width="15"/>
</g>
<defs>
<clipPath id="clip0_56_538">
<rect width="542" height="542" fill="white"/>
</clipPath>
</defs>
</svg>
