<svg width="542" height="542" viewBox="0 0 542 542" fill="none" xmlns="http://www.w3.org/2000/svg">
<g clip-path="url(#clip0_56_537)">
<path d="M227.675 169.647L271 20.3515L314.325 169.646C317.84 181.76 330.292 188.938 342.536 185.91L500.719 146.783L387.414 253.925C377.609 263.197 377.609 278.803 387.414 288.075L500.719 395.217L342.536 356.09C330.292 353.062 317.84 360.24 314.325 372.353L271 521.649L227.675 372.354C224.16 360.24 211.708 353.062 199.464 356.09L41.2812 395.217L154.586 288.075C164.391 278.803 164.391 263.197 154.586 253.925L41.2812 146.783L199.464 185.91C211.708 188.938 224.16 181.76 227.675 169.647ZM37.1423 142.869C37.1413 142.868 37.1415 142.868 37.1425 142.869L37.1423 142.869Z" fill="#FFC87E" stroke="#5D140E" stroke-width="25" stroke-linejoin="round"/>
<path d="M177.513 205.954L176.527 104.42L263.142 156.048C271.004 160.735 280.828 160.588 288.587 155.667L377.935 99.0112L370.772 197.769C370.046 207.787 375.44 217.218 384.398 221.592L472.704 264.709L379.425 314.491C371.323 318.814 366.286 327.328 366.375 336.545L367.36 438.079L280.746 386.451C272.883 381.764 263.06 381.912 255.3 386.832L165.952 443.488L173.115 344.731C173.842 334.712 168.448 325.281 159.49 320.907L71.1832 277.79L164.463 228.009C172.564 223.685 177.602 215.171 177.513 205.954Z" fill="#FFF2B5" stroke="#5D140E" stroke-width="25" stroke-linejoin="round"/>
</g>
<defs>
<clipPath id="clip0_56_537">
<rect width="542" height="542" fill="white"/>
</clipPath>
</defs>
</svg>
