<svg width="1584" height="1068" viewBox="0 0 1584 1068" fill="none" xmlns="http://www.w3.org/2000/svg">
<g clip-path="url(#clip0_239_10)">
<rect width="1584" height="1068" fill="#FBEFEF"/>
<g opacity="0.3">
<rect x="-117" y="46" width="188.082" height="117.369" stroke="#5D140E" stroke-width="3" stroke-dasharray="4 4"/>
<rect x="71.082" y="46" width="188.082" height="117.369" stroke="#5D140E" stroke-width="3" stroke-dasharray="4 4"/>
<rect x="259.163" y="46" width="188.082" height="117.369" stroke="#5D140E" stroke-width="3" stroke-dasharray="4 4"/>
<rect x="-22.959" y="163.369" width="188.082" height="117.369" stroke="#5D140E" stroke-width="3" stroke-dasharray="4 4"/>
<rect x="165.122" y="163.369" width="188.082" height="117.369" stroke="#5D140E" stroke-width="3" stroke-dasharray="4 4"/>
<rect x="353.204" y="163.369" width="188.082" height="117.369" stroke="#5D140E" stroke-width="3" stroke-dasharray="4 4"/>
<rect x="-117" y="280.737" width="188.082" height="117.369" stroke="#5D140E" stroke-width="3" stroke-dasharray="4 4"/>
<rect x="71.082" y="280.737" width="188.082" height="117.369" stroke="#5D140E" stroke-width="3" stroke-dasharray="4 4"/>
<rect x="259.163" y="280.737" width="188.082" height="117.369" stroke="#5D140E" stroke-width="3" stroke-dasharray="4 4"/>
<rect x="-22.959" y="398.106" width="188.082" height="117.369" stroke="#5D140E" stroke-width="3" stroke-dasharray="4 4"/>
<rect x="165.122" y="398.106" width="188.082" height="117.369" stroke="#5D140E" stroke-width="3" stroke-dasharray="4 4"/>
<rect x="353.204" y="398.106" width="188.082" height="117.369" stroke="#5D140E" stroke-width="3" stroke-dasharray="4 4"/>
<rect x="447.244" y="46" width="188.082" height="117.369" stroke="#5D140E" stroke-width="3" stroke-dasharray="4 4"/>
<rect x="635.326" y="46" width="188.082" height="117.369" stroke="#5D140E" stroke-width="3" stroke-dasharray="4 4"/>
<rect x="823.409" y="46" width="188.082" height="117.369" stroke="#5D140E" stroke-width="3" stroke-dasharray="4 4"/>
<rect x="541.285" y="163.369" width="188.082" height="117.369" stroke="#5D140E" stroke-width="3" stroke-dasharray="4 4"/>
<rect x="729.368" y="163.369" width="188.082" height="117.369" stroke="#5D140E" stroke-width="3" stroke-dasharray="4 4"/>
<rect x="917.448" y="163.369" width="188.082" height="117.369" stroke="#5D140E" stroke-width="3" stroke-dasharray="4 4"/>
<rect x="447.244" y="280.737" width="188.082" height="117.369" stroke="#5D140E" stroke-width="3" stroke-dasharray="4 4"/>
<rect x="635.326" y="280.737" width="188.082" height="117.369" stroke="#5D140E" stroke-width="3" stroke-dasharray="4 4"/>
<rect x="823.409" y="280.737" width="188.082" height="117.369" stroke="#5D140E" stroke-width="3" stroke-dasharray="4 4"/>
<rect x="541.285" y="398.106" width="188.082" height="117.369" stroke="#5D140E" stroke-width="3" stroke-dasharray="4 4"/>
<rect x="729.368" y="398.106" width="188.082" height="117.369" stroke="#5D140E" stroke-width="3" stroke-dasharray="4 4"/>
<rect x="917.448" y="398.106" width="188.082" height="117.369" stroke="#5D140E" stroke-width="3" stroke-dasharray="4 4"/>
<rect x="1011.49" y="46" width="188.082" height="117.369" stroke="#5D140E" stroke-width="3" stroke-dasharray="4 4"/>
<rect x="1199.57" y="46" width="188.082" height="117.369" stroke="#5D140E" stroke-width="3" stroke-dasharray="4 4"/>
<rect x="1387.65" y="46" width="188.082" height="117.369" stroke="#5D140E" stroke-width="3" stroke-dasharray="4 4"/>
<rect x="1105.53" y="163.369" width="188.082" height="117.369" stroke="#5D140E" stroke-width="3" stroke-dasharray="4 4"/>
<rect x="1293.61" y="163.369" width="188.082" height="117.369" stroke="#5D140E" stroke-width="3" stroke-dasharray="4 4"/>
<rect x="1481.69" y="163.369" width="188.082" height="117.369" stroke="#5D140E" stroke-width="3" stroke-dasharray="4 4"/>
<rect x="1011.49" y="280.737" width="188.082" height="117.369" stroke="#5D140E" stroke-width="3" stroke-dasharray="4 4"/>
<rect x="1199.57" y="280.737" width="188.082" height="117.369" stroke="#5D140E" stroke-width="3" stroke-dasharray="4 4"/>
<rect x="1387.65" y="280.737" width="188.082" height="117.369" stroke="#5D140E" stroke-width="3" stroke-dasharray="4 4"/>
<rect x="1105.53" y="398.106" width="188.082" height="117.369" stroke="#5D140E" stroke-width="3" stroke-dasharray="4 4"/>
<rect x="1293.61" y="398.106" width="188.082" height="117.369" stroke="#5D140E" stroke-width="3" stroke-dasharray="4 4"/>
<rect x="1481.69" y="398.106" width="188.082" height="117.369" stroke="#5D140E" stroke-width="3" stroke-dasharray="4 4"/>
<rect x="1575.74" y="46" width="188.082" height="117.369" stroke="#5D140E" stroke-width="3" stroke-dasharray="4 4"/>
<rect x="1575.74" y="280.737" width="188.082" height="117.369" stroke="#5D140E" stroke-width="3" stroke-dasharray="4 4"/>
<rect x="-117" y="515.476" width="188.082" height="117.369" stroke="#5D140E" stroke-width="3" stroke-dasharray="4 4"/>
<rect x="71.082" y="515.476" width="188.082" height="117.369" stroke="#5D140E" stroke-width="3" stroke-dasharray="4 4"/>
<rect x="259.163" y="515.476" width="188.082" height="117.369" stroke="#5D140E" stroke-width="3" stroke-dasharray="4 4"/>
<rect x="-22.959" y="632.844" width="188.082" height="117.369" stroke="#5D140E" stroke-width="3" stroke-dasharray="4 4"/>
<rect x="165.122" y="632.844" width="188.082" height="117.369" stroke="#5D140E" stroke-width="3" stroke-dasharray="4 4"/>
<rect x="353.204" y="632.844" width="188.082" height="117.369" stroke="#5D140E" stroke-width="3" stroke-dasharray="4 4"/>
<rect x="-117" y="750.213" width="188.082" height="117.369" stroke="#5D140E" stroke-width="3" stroke-dasharray="4 4"/>
<rect x="71.082" y="750.213" width="188.082" height="117.369" stroke="#5D140E" stroke-width="3" stroke-dasharray="4 4"/>
<rect x="259.163" y="750.213" width="188.082" height="117.369" stroke="#5D140E" stroke-width="3" stroke-dasharray="4 4"/>
<rect x="-22.959" y="867.582" width="188.082" height="117.369" stroke="#5D140E" stroke-width="3" stroke-dasharray="4 4"/>
<rect x="165.122" y="867.582" width="188.082" height="117.369" stroke="#5D140E" stroke-width="3" stroke-dasharray="4 4"/>
<rect x="353.204" y="867.582" width="188.082" height="117.369" stroke="#5D140E" stroke-width="3" stroke-dasharray="4 4"/>
<rect x="447.244" y="515.476" width="188.082" height="117.369" stroke="#5D140E" stroke-width="3" stroke-dasharray="4 4"/>
<rect x="635.326" y="515.476" width="188.082" height="117.369" stroke="#5D140E" stroke-width="3" stroke-dasharray="4 4"/>
<rect x="823.409" y="515.476" width="188.082" height="117.369" stroke="#5D140E" stroke-width="3" stroke-dasharray="4 4"/>
<rect x="541.285" y="632.844" width="188.082" height="117.369" stroke="#5D140E" stroke-width="3" stroke-dasharray="4 4"/>
<rect x="729.368" y="632.844" width="188.082" height="117.369" stroke="#5D140E" stroke-width="3" stroke-dasharray="4 4"/>
<rect x="917.448" y="632.844" width="188.082" height="117.369" stroke="#5D140E" stroke-width="3" stroke-dasharray="4 4"/>
<rect x="447.244" y="750.213" width="188.082" height="117.369" stroke="#5D140E" stroke-width="3" stroke-dasharray="4 4"/>
<rect x="635.326" y="750.213" width="188.082" height="117.369" stroke="#5D140E" stroke-width="3" stroke-dasharray="4 4"/>
<rect x="823.409" y="750.213" width="188.082" height="117.369" stroke="#5D140E" stroke-width="3" stroke-dasharray="4 4"/>
<rect x="541.285" y="867.582" width="188.082" height="117.369" stroke="#5D140E" stroke-width="3" stroke-dasharray="4 4"/>
<rect x="729.368" y="867.582" width="188.082" height="117.369" stroke="#5D140E" stroke-width="3" stroke-dasharray="4 4"/>
<rect x="917.448" y="867.582" width="188.082" height="117.369" stroke="#5D140E" stroke-width="3" stroke-dasharray="4 4"/>
<rect x="1011.49" y="515.476" width="188.082" height="117.369" stroke="#5D140E" stroke-width="3" stroke-dasharray="4 4"/>
<rect x="1199.57" y="515.476" width="188.082" height="117.369" stroke="#5D140E" stroke-width="3" stroke-dasharray="4 4"/>
<rect x="1387.65" y="515.476" width="188.082" height="117.369" stroke="#5D140E" stroke-width="3" stroke-dasharray="4 4"/>
<rect x="1105.53" y="632.844" width="188.082" height="117.369" stroke="#5D140E" stroke-width="3" stroke-dasharray="4 4"/>
<rect x="1293.61" y="632.844" width="188.082" height="117.369" stroke="#5D140E" stroke-width="3" stroke-dasharray="4 4"/>
<rect x="1481.69" y="632.844" width="188.082" height="117.369" stroke="#5D140E" stroke-width="3" stroke-dasharray="4 4"/>
<rect x="1011.49" y="750.213" width="188.082" height="117.369" stroke="#5D140E" stroke-width="3" stroke-dasharray="4 4"/>
<rect x="1199.57" y="750.213" width="188.082" height="117.369" stroke="#5D140E" stroke-width="3" stroke-dasharray="4 4"/>
<rect x="1387.65" y="750.213" width="188.082" height="117.369" stroke="#5D140E" stroke-width="3" stroke-dasharray="4 4"/>
<rect x="1105.53" y="867.582" width="188.082" height="117.369" stroke="#5D140E" stroke-width="3" stroke-dasharray="4 4"/>
<rect x="1293.61" y="867.582" width="188.082" height="117.369" stroke="#5D140E" stroke-width="3" stroke-dasharray="4 4"/>
<rect x="1481.69" y="867.582" width="188.082" height="117.369" stroke="#5D140E" stroke-width="3" stroke-dasharray="4 4"/>
<rect x="1575.74" y="515.476" width="188.082" height="117.369" stroke="#5D140E" stroke-width="3" stroke-dasharray="4 4"/>
<rect x="1575.74" y="750.213" width="188.082" height="117.369" stroke="#5D140E" stroke-width="3" stroke-dasharray="4 4"/>
<rect x="-117" y="984.95" width="188.082" height="117.369" stroke="#5D140E" stroke-width="3" stroke-dasharray="4 4"/>
<rect x="71.082" y="984.95" width="188.082" height="117.369" stroke="#5D140E" stroke-width="3" stroke-dasharray="4 4"/>
<rect x="259.163" y="984.95" width="188.082" height="117.369" stroke="#5D140E" stroke-width="3" stroke-dasharray="4 4"/>
<rect x="447.244" y="984.95" width="188.082" height="117.369" stroke="#5D140E" stroke-width="3" stroke-dasharray="4 4"/>
<rect x="635.326" y="984.95" width="188.082" height="117.369" stroke="#5D140E" stroke-width="3" stroke-dasharray="4 4"/>
<rect x="823.409" y="984.95" width="188.082" height="117.369" stroke="#5D140E" stroke-width="3" stroke-dasharray="4 4"/>
<rect x="1011.49" y="984.95" width="188.082" height="117.369" stroke="#5D140E" stroke-width="3" stroke-dasharray="4 4"/>
<rect x="1199.57" y="984.95" width="188.082" height="117.369" stroke="#5D140E" stroke-width="3" stroke-dasharray="4 4"/>
<rect x="1387.65" y="984.95" width="188.082" height="117.369" stroke="#5D140E" stroke-width="3" stroke-dasharray="4 4"/>
<rect x="1575.74" y="984.95" width="188.082" height="117.369" stroke="#5D140E" stroke-width="3" stroke-dasharray="4 4"/>
</g>
<path fill-rule="evenodd" clip-rule="evenodd" d="M683.292 711.775C667.956 728.591 659 748.868 659 770.696C659 828.854 722.576 876 801 876C879.424 876 943 828.854 943 770.696C943 748.874 934.049 728.602 918.721 711.789C921.236 697.362 922.613 681.726 922.613 665.393C922.613 592.826 895.442 534 861.925 534C828.408 534 801.237 592.826 801.237 665.393C801.237 592.826 773.96 534 740.312 534C706.664 534 679.387 592.826 679.387 665.393C679.387 681.72 680.768 697.352 683.292 711.775Z" fill="#F5D2CF"/>
<path fill-rule="evenodd" clip-rule="evenodd" d="M694.957 715.171L691.348 719.129C677.542 734.266 669.905 752.007 669.905 770.696C669.905 795.516 683.446 818.863 707.084 836.393C730.721 853.921 763.889 865.09 801 865.09C838.111 865.09 871.279 853.921 894.915 836.393C918.554 818.863 932.095 795.516 932.095 770.696C932.095 752.012 924.462 734.276 910.664 719.141L907.059 715.187L907.978 709.914C910.382 696.129 911.708 681.12 911.708 665.393C911.708 630.322 905.12 599.103 894.939 577.06C884.331 554.095 871.873 544.91 861.925 544.91C851.977 544.91 839.518 554.095 828.911 577.06C818.73 599.103 812.142 630.322 812.142 665.393H801.237C801.237 645.75 803.228 627.114 806.796 610.38C816.411 565.29 837.48 534 861.925 534C895.442 534 922.613 592.826 922.613 665.393C922.613 681.726 921.236 697.362 918.721 711.789C934.049 728.602 943 748.874 943 770.696C943 828.854 879.424 876 801 876C722.576 876 659 828.854 659 770.696C659 748.868 667.956 728.591 683.292 711.775C680.768 697.352 679.387 681.72 679.387 665.393C679.387 592.826 706.664 534 740.312 534C764.853 534 786.005 565.292 795.657 610.384C799.239 627.117 801.237 645.752 801.237 665.393H790.332C790.332 630.328 783.72 599.114 773.5 577.075C762.86 554.128 750.348 544.91 740.312 544.91C730.276 544.91 717.764 554.128 707.124 577.075C696.905 599.114 690.292 630.328 690.292 665.393C690.292 681.113 691.622 696.115 694.034 709.894L694.957 715.171Z" fill="#5D140E"/>
<path fill-rule="evenodd" clip-rule="evenodd" d="M757.939 670.321C758.04 667.688 758.092 665.016 758.092 662.309C758.092 620.787 745.886 587.126 730.829 587.126C715.773 587.126 703.567 620.787 703.567 662.309C703.567 673.056 704.385 683.276 705.858 692.522C720.709 682.576 738.408 674.924 757.939 670.321Z" fill="white"/>
<path fill-rule="evenodd" clip-rule="evenodd" d="M836.001 670.321C835.9 667.689 835.848 665.016 835.848 662.309C835.848 620.787 848.054 587.126 863.11 587.126C878.166 587.126 890.372 620.787 890.372 662.309C890.372 673.056 889.554 683.276 888.081 692.523C873.23 682.576 855.531 674.925 836.001 670.321Z" fill="white"/>
<path d="M839.167 811.821C809.492 869.933 774.965 834.398 761.411 809.367C788.519 811.821 789.946 805.686 801.122 794.888C817.053 809.367 824.133 811.15 839.167 811.821Z" fill="white"/>
<path d="M747.187 769.747C747.187 778.13 739.864 784.926 730.83 784.926C721.796 784.926 714.473 778.13 714.473 769.747C714.473 761.364 721.796 754.568 730.83 754.568C739.864 754.568 747.187 761.364 747.187 769.747Z" fill="#5D140E"/>
<path d="M890.373 769.747C890.373 778.13 883.049 784.926 874.015 784.926C864.982 784.926 857.658 778.13 857.658 769.747C857.658 761.364 864.982 754.568 874.015 754.568C883.049 754.568 890.373 761.364 890.373 769.747Z" fill="#5D140E"/>
<path fill-rule="evenodd" clip-rule="evenodd" d="M804.948 792.54C804.766 792.22 804.539 791.919 804.267 791.645C802.608 789.971 799.906 789.959 798.233 791.62C793.849 795.969 786.146 801.567 777.53 804.172C769.069 806.73 760.094 806.341 752.101 799.476C750.313 797.94 747.619 798.145 746.083 799.934C744.548 801.723 744.753 804.418 746.541 805.954C750.123 809.03 753.866 811.116 757.65 812.415C771.367 834.517 785.79 847.303 801.413 847.303C816.977 847.303 831.216 834.621 844.645 812.713C848.49 811.419 852.295 809.316 855.934 806.191C857.722 804.655 857.927 801.96 856.391 800.171C854.856 798.382 852.162 798.177 850.374 799.713C842.381 806.579 833.406 806.967 824.945 804.409C816.774 801.939 809.424 796.776 804.948 792.54ZM833.98 814.393C830.017 814.372 826.136 813.688 822.477 812.582C813.919 809.995 806.339 805.058 801.098 800.558C795.869 804.993 788.406 809.803 779.998 812.345C776.311 813.46 772.397 814.145 768.402 814.156C780.447 831.731 791.468 839.239 801.413 839.239C811.304 839.239 822.182 831.808 833.98 814.393Z" fill="#5D140E"/>
<mask id="mask0_239_10" style="mask-type:alpha" maskUnits="userSpaceOnUse" x="0" y="0" width="558" height="175">
<rect width="557.738" height="175" transform="matrix(1 0 0 -1 0 175)" fill="#D9D9D9"/>
</mask>
<g mask="url(#mask0_239_10)">
<path opacity="0.75" d="M29.2624 29.7613C29.2624 99.4808 -27.3847 156.047 -97.321 156.047C-167.257 156.047 -223.904 99.4808 -223.904 29.7613C-223.904 -39.9582 -167.257 -96.5244 -97.321 -96.5244C-27.3847 -96.5244 29.2624 -39.9582 29.2624 29.7613Z" fill="#5D140E" stroke="#5D140E" stroke-width="26"/>
<circle opacity="0.75" cx="180.953" cy="29.7613" r="126.286" fill="#5D140E" stroke="#5D140E" stroke-width="26"/>
<circle opacity="0.75" cx="460.12" cy="29.7613" r="126.286" fill="#5D140E" stroke="#5D140E" stroke-width="26"/>
<path d="M266.167 -1.19084C266.167 68.5287 209.52 125.095 139.583 125.095C69.6471 125.095 13 68.5287 13 -1.19084C13 -70.9104 69.6471 -127.477 139.583 -127.477C209.52 -127.477 266.167 -70.9104 266.167 -1.19084Z" fill="#F5D2CF" stroke="#5D140E" stroke-width="26"/>
<circle cx="418.453" cy="-1.19084" r="126.286" fill="#B18783" stroke="#5D140E" stroke-width="26"/>
</g>
<mask id="mask1_239_10" style="mask-type:alpha" maskUnits="userSpaceOnUse" x="557" y="0" width="559" height="175">
<rect width="557.738" height="175" transform="matrix(1 0 0 -1 557.738 175)" fill="#D9D9D9"/>
</mask>
<g mask="url(#mask1_239_10)">
<path opacity="0.75" d="M587.001 29.7613C587.001 99.4808 530.354 156.047 460.417 156.047C390.481 156.047 333.834 99.4808 333.834 29.7613C333.834 -39.9582 390.481 -96.5244 460.417 -96.5244C530.354 -96.5244 587.001 -39.9582 587.001 29.7613Z" fill="#5D140E" stroke="#5D140E" stroke-width="26"/>
<circle opacity="0.75" cx="738.691" cy="29.7613" r="126.286" fill="#5D140E" stroke="#5D140E" stroke-width="26"/>
<circle opacity="0.75" cx="1017.86" cy="29.7613" r="126.286" fill="#5D140E" stroke="#5D140E" stroke-width="26"/>
<path d="M823.905 -1.19084C823.905 68.5287 767.258 125.095 697.322 125.095C627.385 125.095 570.738 68.5287 570.738 -1.19084C570.738 -70.9104 627.385 -127.477 697.322 -127.477C767.258 -127.477 823.905 -70.9104 823.905 -1.19084Z" fill="#F5D2CF" stroke="#5D140E" stroke-width="26"/>
<circle cx="976.191" cy="-1.19084" r="126.286" fill="#B18783" stroke="#5D140E" stroke-width="26"/>
</g>
<mask id="mask2_239_10" style="mask-type:alpha" maskUnits="userSpaceOnUse" x="1115" y="0" width="559" height="175">
<rect width="557.738" height="175" transform="matrix(1 0 0 -1 1115.48 175)" fill="#D9D9D9"/>
</mask>
<g mask="url(#mask2_239_10)">
<path opacity="0.75" d="M1144.74 29.7613C1144.74 99.4808 1088.09 156.047 1018.16 156.047C948.219 156.047 891.572 99.4808 891.572 29.7613C891.572 -39.9582 948.219 -96.5244 1018.16 -96.5244C1088.09 -96.5244 1144.74 -39.9582 1144.74 29.7613Z" fill="#5D140E" stroke="#5D140E" stroke-width="26"/>
<circle opacity="0.75" cx="1296.43" cy="29.7613" r="126.286" fill="#5D140E" stroke="#5D140E" stroke-width="26"/>
<circle opacity="0.75" cx="1575.6" cy="29.7613" r="126.286" fill="#5D140E" stroke="#5D140E" stroke-width="26"/>
<path d="M1381.64 -1.19084C1381.64 68.5287 1325 125.095 1255.06 125.095C1185.12 125.095 1128.48 68.5287 1128.48 -1.19084C1128.48 -70.9104 1185.12 -127.477 1255.06 -127.477C1325 -127.477 1381.64 -70.9104 1381.64 -1.19084Z" fill="#F5D2CF" stroke="#5D140E" stroke-width="26"/>
<circle cx="1533.93" cy="-1.19084" r="126.286" fill="#B18783" stroke="#5D140E" stroke-width="26"/>
</g>
<path d="M1195.98 440.456C1184.69 440.456 1174.85 438.322 1166.45 434.054C1158.05 429.785 1151.51 423.658 1146.83 415.672C1142.15 407.686 1139.81 398.254 1139.81 387.376C1139.81 379.115 1141.11 371.748 1143.73 365.277C1146.35 358.667 1150.13 353.091 1155.09 348.547C1160.05 343.865 1165.97 340.354 1172.85 338.014C1179.74 335.535 1187.45 334.296 1195.98 334.296C1207.28 334.296 1217.12 336.43 1225.52 340.699C1233.92 344.967 1240.39 351.094 1244.93 359.08C1249.62 366.929 1251.96 376.361 1251.96 387.376C1251.96 395.5 1250.65 402.867 1248.03 409.476C1245.42 416.085 1241.63 421.73 1236.67 426.412C1231.85 430.956 1225.93 434.467 1218.91 436.945C1212.03 439.286 1204.38 440.456 1195.98 440.456ZM1195.98 413.4C1199.7 413.4 1203.01 412.505 1205.9 410.715C1208.79 408.787 1210.99 405.965 1212.51 402.247C1214.16 398.392 1214.99 393.435 1214.99 387.376C1214.99 378.151 1213.2 371.542 1209.62 367.549C1206.04 363.418 1201.49 361.352 1195.98 361.352C1192.27 361.352 1188.96 362.247 1186.07 364.037C1183.18 365.827 1180.91 368.65 1179.26 372.505C1177.6 376.223 1176.78 381.18 1176.78 387.376C1176.78 396.464 1178.57 403.073 1182.15 407.204C1185.73 411.335 1190.34 413.4 1195.98 413.4Z" fill="#FFF2B5"/>
<path d="M1062.49 440.456C1054.64 440.456 1047.69 439.011 1041.63 436.119C1035.71 433.228 1031.03 429.303 1027.58 424.346C1024.28 419.252 1022.63 413.469 1022.63 406.997C1022.63 399.562 1024.55 393.71 1028.41 389.442C1032.27 385.173 1038.46 382.144 1047 380.354C1055.54 378.426 1066.89 377.462 1081.08 377.462H1092.44V394.812H1081.08C1075.71 394.812 1071.23 395.225 1067.65 396.051C1064.21 396.739 1061.66 397.91 1060.01 399.562C1058.36 401.077 1057.53 403.073 1057.53 405.552C1057.53 408.718 1058.63 411.335 1060.84 413.4C1063.18 415.465 1066.48 416.498 1070.75 416.498C1074.19 416.498 1077.22 415.741 1079.84 414.226C1082.59 412.712 1084.79 410.646 1086.45 408.03C1088.1 405.276 1088.93 402.109 1088.93 398.529V374.571C1088.93 369.614 1087.62 366.103 1085 364.037C1082.52 361.972 1078.19 360.939 1071.99 360.939C1068.68 360.939 1064.97 361.352 1060.84 362.179C1056.71 362.867 1052.09 364.175 1047 366.103C1043.28 367.48 1040.11 367.686 1037.5 366.722C1034.88 365.759 1032.82 364.106 1031.3 361.765C1029.92 359.425 1029.24 356.877 1029.24 354.124C1029.37 351.37 1030.27 348.754 1031.92 346.275C1033.71 343.797 1036.4 341.869 1039.98 340.492C1046.59 338.014 1052.64 336.361 1058.15 335.535C1063.8 334.709 1068.96 334.296 1073.64 334.296C1084.93 334.296 1094.23 335.948 1101.52 339.253C1108.96 342.42 1114.47 347.377 1118.05 354.124C1121.77 360.733 1123.62 369.27 1123.62 379.734V421.455C1123.62 427.513 1122.18 432.126 1119.29 435.293C1116.4 438.46 1112.2 440.043 1106.69 440.043C1101.04 440.043 1096.71 438.46 1093.68 435.293C1090.78 432.126 1089.34 427.513 1089.34 421.455V416.085L1090.58 418.976C1089.89 423.383 1088.31 427.169 1085.83 430.336C1083.35 433.503 1080.11 435.981 1076.12 437.771C1072.13 439.561 1067.58 440.456 1062.49 440.456Z" fill="#FFF2B5"/>
<path d="M859.391 440.043C853.608 440.043 849.133 438.46 845.966 435.293C842.799 432.126 841.216 427.513 841.216 421.455V353.091C841.216 347.17 842.73 342.626 845.76 339.459C848.927 336.292 853.402 334.709 859.185 334.709C864.968 334.709 869.374 336.292 872.403 339.459C875.432 342.626 876.947 347.17 876.947 353.091V364.45L874.675 354.33C877.567 348.272 881.835 343.452 887.48 339.872C893.263 336.155 900.079 334.296 907.928 334.296C915.363 334.296 921.697 336.086 926.929 339.666C932.299 343.246 936.155 348.685 938.495 355.982H935.604C938.771 349.235 943.521 343.934 949.855 340.079C956.189 336.224 963.211 334.296 970.922 334.296C978.908 334.296 985.448 335.879 990.543 339.046C995.637 342.075 999.424 346.895 1001.9 353.504C1004.52 359.975 1005.83 368.168 1005.83 378.082V421.455C1005.83 427.513 1004.17 432.126 1000.87 435.293C997.703 438.46 993.159 440.043 987.238 440.043C981.455 440.043 976.98 438.46 973.813 435.293C970.646 432.126 969.063 427.513 969.063 421.455V379.115C969.063 373.194 968.168 368.925 966.378 366.309C964.588 363.693 961.628 362.385 957.497 362.385C952.402 362.385 948.478 364.175 945.724 367.755C943.108 371.335 941.8 376.43 941.8 383.039V421.455C941.8 427.513 940.216 432.126 937.05 435.293C933.883 438.46 929.339 440.043 923.418 440.043C917.497 440.043 912.953 438.46 909.786 435.293C906.62 432.126 905.036 427.513 905.036 421.455V379.115C905.036 373.194 904.141 368.925 902.351 366.309C900.561 363.693 897.601 362.385 893.47 362.385C888.513 362.385 884.658 364.175 881.904 367.755C879.288 371.335 877.98 376.43 877.98 383.039V421.455C877.98 433.847 871.783 440.043 859.391 440.043Z" fill="#FFF2B5"/>
<path d="M800.888 440.044C795.105 440.044 790.63 438.323 787.463 434.881C784.296 431.438 782.713 426.481 782.713 420.01V354.744C782.713 348.272 784.296 343.315 787.463 339.873C790.63 336.431 795.105 334.71 800.888 334.71C806.809 334.71 811.353 336.431 814.52 339.873C817.824 343.315 819.477 348.272 819.477 354.744V420.01C819.477 426.481 817.893 431.438 814.726 434.881C811.559 438.323 806.947 440.044 800.888 440.044ZM800.888 320.046C794.417 320.046 789.391 318.531 785.811 315.502C782.369 312.472 780.647 308.066 780.647 302.283C780.647 296.638 782.369 292.301 785.811 289.271C789.391 286.242 794.417 284.728 800.888 284.728C807.635 284.728 812.73 286.242 816.172 289.271C819.614 292.301 821.335 296.638 821.335 302.283C821.335 308.066 819.614 312.472 816.172 315.502C812.73 318.531 807.635 320.046 800.888 320.046Z" fill="#FFF2B5"/>
<path d="M742.8 440.044C737.017 440.044 732.542 438.323 729.375 434.881C726.208 431.438 724.625 426.481 724.625 420.01V354.744C724.625 348.272 726.208 343.315 729.375 339.873C732.542 336.431 737.017 334.71 742.8 334.71C748.721 334.71 753.265 336.431 756.432 339.873C759.736 343.315 761.389 348.272 761.389 354.744V420.01C761.389 426.481 759.805 431.438 756.638 434.881C753.471 438.323 748.859 440.044 742.8 440.044ZM742.8 320.046C736.329 320.046 731.303 318.531 727.723 315.502C724.281 312.472 722.56 308.066 722.56 302.283C722.56 296.638 724.281 292.301 727.723 289.271C731.303 286.242 736.329 284.728 742.8 284.728C749.547 284.728 754.642 286.242 758.084 289.271C761.526 292.301 763.248 296.638 763.248 302.283C763.248 308.066 761.526 312.472 758.084 315.502C754.642 318.531 749.547 320.046 742.8 320.046Z" fill="#FFF2B5"/>
<path d="M653.865 440.045C647.807 440.045 643.125 438.461 639.821 435.294C636.654 432.127 635.07 427.515 635.07 421.456V353.092C635.07 347.172 636.585 342.628 639.614 339.461C642.781 336.294 647.256 334.71 653.039 334.71C658.822 334.71 663.228 336.294 666.258 339.461C669.287 342.628 670.801 347.172 670.801 353.092V361.56H668.736C670.113 353.299 673.624 346.758 679.269 341.939C685.053 337.12 692.212 334.573 700.749 334.297C704.742 334.16 707.703 335.192 709.631 337.395C711.696 339.461 712.797 343.385 712.935 349.168C712.935 354.125 711.902 358.049 709.837 360.941C707.772 363.832 703.847 365.553 698.064 366.104L693.314 366.517C686.016 367.206 680.715 369.271 677.411 372.713C674.106 376.018 672.454 380.975 672.454 387.584V421.456C672.454 427.515 670.87 432.127 667.703 435.294C664.536 438.461 659.924 440.045 653.865 440.045Z" fill="#FFF2B5"/>
<path d="M553.001 440.456C545.152 440.456 538.199 439.011 532.14 436.119C526.219 433.228 521.538 429.303 518.096 424.346C514.791 419.252 513.139 413.469 513.139 406.997C513.139 399.562 515.066 393.71 518.922 389.442C522.777 385.173 528.973 382.144 537.51 380.354C546.047 378.426 557.407 377.462 571.589 377.462H582.949V394.812H571.589C566.219 394.812 561.744 395.225 558.164 396.051C554.722 396.739 552.174 397.91 550.522 399.562C548.87 401.077 548.044 403.073 548.044 405.552C548.044 408.718 549.145 411.335 551.348 413.4C553.689 415.465 556.994 416.498 561.262 416.498C564.704 416.498 567.734 415.741 570.35 414.226C573.104 412.712 575.307 410.646 576.959 408.03C578.611 405.276 579.437 402.109 579.437 398.529V374.571C579.437 369.614 578.129 366.103 575.513 364.037C573.035 361.972 568.697 360.939 562.501 360.939C559.197 360.939 555.479 361.352 551.348 362.179C547.217 362.867 542.605 364.175 537.51 366.103C533.792 367.48 530.626 367.686 528.009 366.722C525.393 365.759 523.328 364.106 521.813 361.765C520.436 359.425 519.748 356.877 519.748 354.124C519.886 351.37 520.781 348.754 522.433 346.275C524.223 343.797 526.908 341.869 530.488 340.492C537.097 338.014 543.156 336.361 548.663 335.535C554.309 334.709 559.472 334.296 564.154 334.296C575.444 334.296 584.739 335.948 592.036 339.253C599.472 342.42 604.979 347.377 608.559 354.124C612.277 360.733 614.136 369.27 614.136 379.734V421.455C614.136 427.513 612.69 432.126 609.798 435.293C606.907 438.46 602.707 440.043 597.2 440.043C591.554 440.043 587.217 438.46 584.188 435.293C581.296 432.126 579.85 427.513 579.85 421.455V416.085L581.09 418.976C580.401 423.383 578.818 427.169 576.339 430.336C573.861 433.503 570.625 435.981 566.632 437.771C562.639 439.561 558.095 440.456 553.001 440.456Z" fill="#FFF2B5"/>
<path d="M349.903 440.043C344.12 440.043 339.645 438.46 336.478 435.293C333.311 432.126 331.728 427.513 331.728 421.455V353.091C331.728 347.17 333.242 342.626 336.271 339.459C339.438 336.292 343.913 334.709 349.696 334.709C355.479 334.709 359.886 336.292 362.915 339.459C365.944 342.626 367.459 347.17 367.459 353.091V364.45L365.187 354.33C368.078 348.272 372.347 343.452 377.992 339.872C383.775 336.155 390.591 334.296 398.439 334.296C405.875 334.296 412.209 336.086 417.441 339.666C422.811 343.246 426.666 348.685 429.007 355.982H426.115C429.282 349.235 434.033 343.934 440.367 340.079C446.7 336.224 453.723 334.296 461.433 334.296C469.42 334.296 475.96 335.879 481.055 339.046C486.149 342.075 489.936 346.895 492.414 353.504C495.03 359.975 496.338 368.168 496.338 378.082V421.455C496.338 427.513 494.686 432.126 491.381 435.293C488.214 438.46 483.671 440.043 477.75 440.043C471.967 440.043 467.492 438.46 464.325 435.293C461.158 432.126 459.575 427.513 459.575 421.455V379.115C459.575 373.194 458.68 368.925 456.89 366.309C455.1 363.693 452.139 362.385 448.008 362.385C442.914 362.385 438.99 364.175 436.236 367.755C433.62 371.335 432.312 376.43 432.312 383.039V421.455C432.312 427.513 430.728 432.126 427.561 435.293C424.394 438.46 419.85 440.043 413.93 440.043C408.009 440.043 403.465 438.46 400.298 435.293C397.131 432.126 395.548 427.513 395.548 421.455V379.115C395.548 373.194 394.653 368.925 392.863 366.309C391.073 363.693 388.112 362.385 383.982 362.385C379.025 362.385 375.169 364.175 372.416 367.755C369.799 371.335 368.491 376.43 368.491 383.039V421.455C368.491 433.847 362.295 440.043 349.903 440.043Z" fill="#FFF2B5"/>
<path fill-rule="evenodd" clip-rule="evenodd" d="M1166.86 434.462C1175.26 438.73 1185.1 440.865 1196.39 440.865C1204.79 440.865 1212.43 439.694 1219.32 437.354C1226.34 434.875 1232.26 431.364 1237.08 426.82C1242.04 422.139 1245.82 416.493 1248.44 409.884C1251.06 403.275 1252.37 395.908 1252.37 387.784C1252.37 376.769 1250.02 367.337 1245.34 359.489C1240.8 351.503 1234.33 345.375 1225.93 341.107C1217.53 336.838 1207.68 334.704 1196.39 334.704C1187.86 334.704 1180.15 335.943 1173.26 338.422C1166.38 340.763 1160.46 344.274 1155.5 348.955C1150.54 353.499 1146.76 359.076 1144.14 365.685C1141.52 372.156 1140.21 379.523 1140.21 387.784C1140.21 398.662 1142.56 408.094 1147.24 416.08C1151.92 424.066 1158.46 430.194 1166.86 434.462ZM1259.29 351.368C1253.14 340.631 1244.33 332.359 1233.24 326.722C1222.17 321.096 1209.72 318.568 1196.39 318.568C1186.35 318.568 1176.8 320.02 1167.93 323.191C1159.1 326.215 1151.21 330.839 1144.51 337.141C1137.71 343.399 1132.61 351.003 1129.16 359.687C1125.65 368.385 1124.08 377.843 1124.08 387.784C1124.08 401.024 1126.95 413.376 1133.32 424.24C1139.59 434.941 1148.45 443.205 1159.55 448.847C1170.62 454.473 1183.06 457 1196.39 457C1206.29 457 1215.72 455.62 1224.51 452.63L1224.6 452.6L1224.69 452.569C1233.57 449.435 1241.5 444.828 1248.15 438.56L1248.16 438.551C1254.91 432.18 1260 424.531 1263.44 415.823C1266.91 407.073 1268.5 397.654 1268.5 387.784C1268.5 374.517 1265.68 362.15 1259.29 351.368ZM1210.02 367.957C1206.44 363.826 1201.9 361.761 1196.39 361.761C1192.68 361.761 1189.37 362.656 1186.48 364.446C1183.59 366.236 1181.32 369.058 1179.66 372.914C1178.01 376.631 1177.19 381.588 1177.19 387.784C1177.19 396.872 1178.98 403.481 1182.56 407.612C1186.14 411.743 1190.75 413.808 1196.39 413.808C1200.11 413.808 1203.42 412.913 1206.31 411.123C1209.2 409.196 1211.4 406.373 1212.92 402.655C1214.57 398.8 1215.39 393.843 1215.39 387.784C1215.39 378.559 1213.6 371.95 1210.02 367.957ZM1197.46 397.556C1197.57 397.405 1197.76 397.1 1197.97 396.567L1198.03 396.433L1198.09 396.299C1198.58 395.136 1199.26 392.551 1199.26 387.784C1199.26 384.138 1198.9 381.674 1198.48 380.127C1198.23 379.196 1198 378.759 1197.93 378.634L1197.92 378.627L1197.83 378.525C1197.61 378.268 1197.45 378.136 1197.37 378.076C1197.3 378.019 1197.26 378.003 1197.25 377.999C1197.25 377.996 1197.2 377.976 1197.1 377.953C1196.98 377.93 1196.76 377.896 1196.39 377.896C1195.69 377.896 1195.32 377.997 1195.13 378.08C1195.02 378.232 1194.78 378.593 1194.49 379.27L1194.45 379.369L1194.41 379.467C1194.03 380.33 1193.32 382.779 1193.32 387.784C1193.32 391.338 1193.68 393.774 1194.1 395.339C1194.42 396.511 1194.72 396.988 1194.77 397.072C1194.96 397.29 1195.1 397.402 1195.17 397.453C1195.23 397.504 1195.27 397.522 1195.29 397.532C1195.3 397.533 1195.58 397.672 1196.39 397.672C1196.91 397.672 1197.25 397.618 1197.46 397.556ZM1197.9 378.594C1197.9 378.595 1197.9 378.595 1197.9 378.596Z" fill="#5D140E"/>
<path fill-rule="evenodd" clip-rule="evenodd" d="M1042.04 436.527C1048.1 439.419 1055.05 440.865 1062.9 440.865C1067.99 440.865 1072.54 439.97 1076.53 438.18C1076.59 438.154 1076.64 438.128 1076.7 438.102C1080.61 436.319 1083.79 433.866 1086.24 430.744C1086.65 430.22 1087.03 429.679 1087.39 429.121C1087.54 428.89 1087.69 428.657 1087.83 428.42C1087.9 428.306 1087.96 428.192 1088.03 428.077C1088.74 426.837 1089.33 425.52 1089.82 424.125C1089.89 425.295 1090.03 426.404 1090.23 427.452C1090.87 430.843 1092.16 433.592 1094.08 435.701C1095.67 437.361 1097.62 438.586 1099.93 439.376C1102.02 440.093 1104.41 440.452 1107.1 440.452C1112.6 440.452 1116.8 438.868 1119.7 435.701C1122.59 432.534 1124.03 427.922 1124.03 421.863V380.143C1124.03 369.678 1122.17 361.141 1118.46 354.532C1114.88 347.785 1109.37 342.828 1101.93 339.661C1094.64 336.356 1085.34 334.704 1074.05 334.704C1069.37 334.704 1064.21 335.117 1058.56 335.943C1053.05 336.77 1046.99 338.422 1040.38 340.9C1036.8 342.277 1034.12 344.205 1032.33 346.683C1030.68 349.162 1029.78 351.778 1029.64 354.532C1029.64 357.286 1030.33 359.833 1031.71 362.174C1033.06 364.261 1034.85 365.801 1037.08 366.793C1037.35 366.914 1037.62 367.026 1037.91 367.131C1039.78 367.822 1041.94 367.911 1044.39 367.398C1044.46 367.383 1044.53 367.368 1044.6 367.353C1045.49 367.153 1046.43 366.872 1047.41 366.511C1052.5 364.583 1057.11 363.275 1061.24 362.587C1061.53 362.531 1061.8 362.477 1062.08 362.424C1065.88 361.706 1069.32 361.348 1072.4 361.348C1074.63 361.348 1076.62 361.482 1078.37 361.75C1079.51 361.925 1080.55 362.156 1081.49 362.445C1083.1 362.943 1084.41 363.609 1085.41 364.446C1088.03 366.511 1089.33 370.022 1089.33 374.979V377.871H1081.49C1079.86 377.871 1078.26 377.883 1076.71 377.909C1075.52 377.928 1074.35 377.955 1073.2 377.99C1070.05 378.084 1067.06 378.235 1064.25 378.442C1064.13 378.451 1064.01 378.459 1063.89 378.468C1059.71 378.784 1055.89 379.225 1052.43 379.792C1052.4 379.797 1052.36 379.803 1052.33 379.808C1050.6 380.094 1048.96 380.412 1047.41 380.762C1043.85 381.508 1040.7 382.47 1037.95 383.647C1034.11 385.293 1031.07 387.361 1028.82 389.85C1024.96 394.118 1023.04 399.97 1023.04 407.406C1023.04 413.877 1024.69 419.66 1027.99 424.755C1031.43 429.712 1036.12 433.636 1042.04 436.527ZM1073.61 416.77C1074.2 416.703 1074.78 416.611 1075.34 416.493C1076.47 416.256 1077.55 415.916 1078.58 415.474C1079.15 415.226 1079.71 414.946 1080.25 414.634C1081.88 413.735 1083.32 412.642 1084.57 411.356C1085.42 410.474 1086.18 409.502 1086.86 408.438C1088.51 405.684 1089.33 402.517 1089.33 398.937V395.22H1081.49C1078.43 395.22 1075.67 395.353 1073.2 395.62C1071.32 395.823 1069.61 396.102 1068.06 396.459C1064.62 397.147 1062.07 398.318 1060.42 399.97C1058.77 401.485 1057.94 403.481 1057.94 405.96C1057.94 409.127 1059.04 411.743 1061.24 413.808C1063.59 415.874 1066.89 416.906 1071.16 416.906C1072 416.906 1072.82 416.861 1073.61 416.77ZM1021.24 374.908C1020.11 373.69 1019.09 372.366 1018.16 370.939L1017.98 370.651L1017.8 370.355C1014.94 365.498 1013.51 360.12 1013.51 354.532V354.129L1013.53 353.726C1013.82 347.832 1015.77 342.432 1018.9 337.733L1019.07 337.481L1019.25 337.236C1023.29 331.643 1028.83 328.055 1034.59 325.84L1034.66 325.816L1034.72 325.792C1042.12 323.017 1049.29 321.017 1056.17 319.986L1056.19 319.982L1056.22 319.978C1062.48 319.062 1068.44 318.568 1074.05 318.568C1086.69 318.568 1098.4 320.386 1108.42 324.887C1118.91 329.392 1127.22 336.728 1132.62 346.794C1138.04 356.527 1140.17 367.982 1140.17 380.143V421.863C1140.17 430.289 1138.16 439.409 1131.61 446.581C1124.85 453.989 1115.77 456.587 1107.1 456.587C1100.25 456.587 1093.19 455.025 1087.13 450.866C1085.84 451.609 1084.5 452.288 1083.13 452.904C1076.75 455.765 1069.9 457 1062.9 457C1053.05 457 1043.65 455.178 1035.09 451.09L1035.02 451.058L1034.96 451.026C1026.79 447.04 1019.89 441.383 1014.74 433.959L1014.59 433.749L1014.45 433.536C1009.34 425.652 1006.9 416.779 1006.9 407.406C1006.9 397.177 1009.6 387.054 1016.84 379.034C1018.21 377.525 1019.68 376.153 1021.24 374.908Z" fill="#5D140E"/>
<path fill-rule="evenodd" clip-rule="evenodd" d="M846.374 435.701C849.541 438.868 854.016 440.452 859.799 440.452C872.192 440.452 878.388 434.255 878.388 421.863V383.447C878.388 376.838 879.696 371.743 882.312 368.163C882.988 367.285 883.73 366.514 884.538 365.851C884.981 365.488 885.444 365.157 885.927 364.859C888.059 363.54 890.581 362.853 893.491 362.797C893.619 362.795 893.748 362.793 893.878 362.793C898.009 362.793 900.969 364.101 902.759 366.718C904.549 369.334 905.444 373.602 905.444 379.523V421.863C905.444 427.922 907.028 432.534 910.195 435.701C913.362 438.868 917.905 440.452 923.826 440.452C929.747 440.452 934.291 438.868 937.458 435.701C940.625 432.534 942.208 427.922 942.208 421.863V383.447C942.208 379.174 942.755 375.533 943.849 372.526C944.447 370.883 945.208 369.428 946.132 368.163C948.886 364.584 952.809 362.794 957.903 362.793C957.903 362.793 957.904 362.793 957.905 362.793C962.036 362.793 964.996 364.101 966.786 366.718C968.576 369.334 969.471 373.602 969.471 379.523V421.863C969.471 427.922 971.055 432.534 974.221 435.701C977.388 438.868 981.863 440.452 987.646 440.452C993.567 440.452 998.111 438.868 1001.28 435.701C1004.58 432.534 1006.23 427.922 1006.23 421.863V378.49C1006.23 368.576 1004.93 360.384 1002.31 353.912C999.832 347.303 996.046 342.484 990.951 339.455C985.856 336.288 979.316 334.704 971.33 334.704C963.619 334.704 956.597 336.632 950.263 340.487C950.041 340.622 949.822 340.759 949.604 340.897C945.269 343.654 941.702 347.112 938.903 351.271C938.491 351.885 938.095 352.513 937.716 353.156C937.2 351.918 936.631 350.742 936.012 349.63C933.784 345.63 930.893 342.444 927.337 340.074C927.279 340.034 927.22 339.994 927.162 339.955C921.963 336.454 915.688 334.704 908.336 334.704C901.773 334.704 895.933 336.004 890.815 338.603C889.812 339.112 888.836 339.671 887.889 340.281C883.514 343.055 879.966 346.573 877.245 350.836C876.847 346.198 875.369 342.542 872.811 339.868C871.431 338.425 869.765 337.311 867.814 336.525C865.482 335.587 862.741 335.117 859.593 335.117C853.81 335.117 849.335 336.701 846.168 339.868C843.139 343.035 841.624 347.578 841.624 353.499V421.863C841.624 427.922 843.208 432.534 846.374 435.701ZM880.983 325.592C874.591 320.718 866.92 318.981 859.593 318.981C850.832 318.981 841.762 321.454 834.758 328.458L834.631 328.585L834.508 328.714C827.719 335.811 825.488 344.913 825.488 353.499V421.863C825.488 430.65 827.828 439.974 834.965 447.111C841.968 454.115 851.039 456.587 859.799 456.587C868.483 456.587 877.959 454.406 885.15 447.214C888.304 444.061 890.494 440.469 891.959 436.697C893.451 440.435 895.657 443.983 898.785 447.111C905.857 454.183 915.054 456.587 923.826 456.587C932.599 456.587 941.796 454.183 948.867 447.111C952.099 443.879 954.347 440.199 955.84 436.324C957.332 440.199 959.58 443.879 962.812 447.111C969.816 454.115 978.886 456.587 987.646 456.587C996.368 456.587 1005.51 454.21 1012.57 447.233C1019.88 440.143 1022.37 430.786 1022.37 421.863V378.49C1022.37 367.386 1020.94 357.031 1017.35 348.055C1013.85 338.823 1008.02 330.879 999.336 325.668C990.999 320.528 981.302 318.568 971.33 318.568C960.784 318.568 950.839 321.247 941.873 326.704C940.881 327.308 939.914 327.939 938.974 328.595C938.137 327.937 937.269 327.305 936.368 326.702C928.031 321.025 918.414 318.568 908.336 318.568C898.565 318.568 889.273 320.754 880.983 325.592ZM888.889 374.821C888.882 374.801 888.879 374.791 888.879 374.791C888.88 374.792 888.883 374.801 888.889 374.821Z" fill="#5D140E"/>
<path fill-rule="evenodd" clip-rule="evenodd" d="M775.677 328.127L775.559 328.023C767.765 321.164 764.92 311.809 764.92 302.692C764.92 293.571 767.85 284.351 775.559 277.566L775.677 277.463L775.796 277.362C783.229 271.072 792.453 269 801.296 269C810.159 269 819.731 270.958 827.24 277.566C834.95 284.351 837.879 293.571 837.879 302.692C837.879 311.809 835.034 321.164 827.24 328.023C826.929 328.297 826.615 328.562 826.297 328.82C826.428 328.955 826.558 329.092 826.687 329.231C833.685 336.6 836.021 346.08 836.021 355.152V420.418C836.021 429.374 833.817 438.814 827.009 446.214C819.948 453.889 810.458 456.588 801.296 456.588C792.147 456.588 782.917 453.736 775.997 446.214C769.189 438.814 766.985 429.374 766.985 420.418V355.152C766.985 346.196 769.189 336.756 775.997 329.357C776.166 329.173 776.336 328.992 776.508 328.813C776.269 328.622 776.032 328.427 775.796 328.228L775.677 328.127ZM793.886 319.647C796.099 320.185 798.57 320.454 801.296 320.454C804.113 320.454 806.642 320.19 808.883 319.662C812.009 318.925 814.575 317.675 816.58 315.91C820.023 312.881 821.744 308.475 821.744 302.692C821.744 297.046 820.023 292.709 816.58 289.68C813.138 286.65 808.043 285.136 801.296 285.136C794.825 285.136 789.799 286.65 786.219 289.68C782.777 292.709 781.056 297.046 781.056 302.692C781.056 308.475 782.777 312.881 786.219 315.91C788.291 317.663 790.846 318.908 793.886 319.647ZM794.374 336.134C791.801 336.983 789.634 338.366 787.871 340.281C784.705 343.724 783.121 348.681 783.121 355.152V420.418C783.121 426.89 784.705 431.847 787.871 435.289C791.038 438.731 795.513 440.452 801.296 440.452C807.355 440.452 811.968 438.731 815.134 435.289C818.301 431.847 819.885 426.89 819.885 420.418V355.152C819.885 348.681 818.233 343.724 814.928 340.281C813.167 338.368 810.982 336.986 808.37 336.136C806.284 335.457 803.926 335.118 801.296 335.118C798.732 335.118 796.424 335.457 794.374 336.134Z" fill="#5D140E"/>
<path fill-rule="evenodd" clip-rule="evenodd" d="M717.589 328.127L717.471 328.023C709.677 321.164 706.832 311.809 706.832 302.692C706.832 293.571 709.762 284.351 717.472 277.566L717.589 277.463L717.708 277.362C725.142 271.072 734.365 269 743.209 269C752.072 269 761.643 270.958 769.152 277.566C776.862 284.351 779.792 293.571 779.792 302.692C779.792 311.809 776.946 321.164 769.152 328.023C768.841 328.297 768.527 328.562 768.21 328.82C768.34 328.955 768.47 329.092 768.599 329.231C775.597 336.6 777.933 346.08 777.933 355.152V420.418C777.933 429.374 775.729 438.814 768.921 446.214C761.86 453.889 752.371 456.588 743.209 456.588C734.059 456.588 724.829 453.736 717.909 446.214C711.101 438.814 708.897 429.374 708.897 420.418V362.843C709.412 362.386 709.861 361.887 710.246 361.348C711.465 359.642 712.324 357.577 712.824 355.152C713.171 353.467 713.344 351.608 713.344 349.576C713.243 345.332 712.623 342.089 711.484 339.848C712.9 336.107 714.978 332.543 717.909 329.357C718.078 329.173 718.249 328.992 718.421 328.813C718.181 328.622 717.944 328.427 717.708 328.228L717.589 328.127ZM735.798 319.647C738.012 320.185 740.482 320.454 743.209 320.454C746.025 320.454 748.554 320.19 750.795 319.662C753.921 318.925 756.487 317.675 758.492 315.91C761.935 312.881 763.656 308.475 763.656 302.692C763.656 297.046 761.935 292.709 758.492 289.68C755.05 286.65 749.955 285.136 743.209 285.136C736.737 285.136 731.711 286.65 728.131 289.68C724.689 292.709 722.968 297.046 722.968 302.692C722.968 308.475 724.689 312.881 728.131 315.91C730.203 317.663 732.758 318.908 735.798 319.647ZM736.286 336.134C733.713 336.983 731.546 338.366 729.784 340.281C726.617 343.724 725.033 348.681 725.033 355.152V420.418C725.033 426.89 726.617 431.847 729.784 435.289C732.95 438.731 737.425 440.452 743.209 440.452C749.267 440.452 753.88 438.731 757.047 435.289C760.214 431.847 761.797 426.89 761.797 420.418V355.152C761.797 348.681 760.145 343.724 756.84 340.281C755.08 338.368 752.894 336.986 750.282 336.136C748.196 335.457 745.838 335.118 743.209 335.118C740.644 335.118 738.336 335.457 736.286 336.134Z" fill="#5D140E"/>
<path fill-rule="evenodd" clip-rule="evenodd" d="M640.229 435.702C643.534 438.869 648.215 440.452 654.274 440.452C660.332 440.452 664.945 438.869 668.112 435.702C671.278 432.535 672.862 427.922 672.862 421.864V387.991C672.862 384.132 673.425 380.836 674.552 378.103C675.355 376.156 676.444 374.496 677.819 373.121C680.069 370.777 683.244 369.071 687.345 368.004C689.268 367.504 691.393 367.144 693.722 366.925L698.473 366.511C704.256 365.961 708.18 364.24 710.245 361.348C712.311 358.456 713.343 354.532 713.343 349.575C713.206 343.792 712.104 339.868 710.039 337.803C708.111 335.6 705.151 334.567 701.158 334.705C694.976 334.904 689.516 336.295 684.778 338.877C682.973 339.861 681.273 341.017 679.678 342.346C676.122 345.382 673.413 349.099 671.551 353.5C671.434 353.776 671.32 354.056 671.21 354.338V353.5C671.21 350.617 670.851 348.061 670.133 345.832C669.376 343.481 668.22 341.493 666.666 339.868C665.523 338.673 664.183 337.703 662.648 336.959C660.115 335.731 657.048 335.118 653.447 335.118C647.664 335.118 643.189 336.701 640.022 339.868C636.993 343.035 635.479 347.579 635.479 353.5V421.864C635.479 427.922 637.062 432.535 640.229 435.702ZM675.128 325.817C668.679 320.772 660.886 318.982 653.447 318.982C644.687 318.982 635.616 321.455 628.613 328.458L628.486 328.585L628.362 328.715C621.574 335.812 619.343 344.913 619.343 353.5V421.864C619.343 430.65 621.682 439.974 628.819 447.111L628.941 447.233L629.064 447.352C636.243 454.231 645.44 456.588 654.274 456.588C663.06 456.588 672.384 454.249 679.521 447.111C686.658 439.974 688.998 430.65 688.998 421.864V387.991C688.998 385.983 689.254 384.883 689.409 384.419C689.418 384.393 689.426 384.37 689.433 384.349C689.551 384.28 689.771 384.165 690.131 384.025C691.049 383.667 692.65 383.237 695.185 382.994L699.936 382.581L700.002 382.575C707.559 381.855 717.273 379.27 723.376 370.727C723.981 369.88 724.532 369.014 725.032 368.134V355.152C725.032 353.148 725.184 351.289 725.488 349.575C725.505 349.478 725.523 349.381 725.541 349.285C726.12 346.223 727.194 343.633 728.762 341.517C727.883 336.54 725.972 331.135 721.843 326.797C715.704 320.06 707.454 318.346 700.619 318.578C691.417 318.877 682.759 321.181 675.128 325.817ZM689.459 384.295C689.456 384.299 689.452 384.302 689.449 384.305L689.459 384.295Z" fill="#5D140E"/>
<path fill-rule="evenodd" clip-rule="evenodd" d="M532.548 436.527C538.607 439.419 545.56 440.865 553.409 440.865C558.503 440.865 563.047 439.97 567.04 438.18C567.098 438.154 567.155 438.128 567.212 438.102C571.126 436.319 574.305 433.866 576.748 430.744C577.158 430.22 577.543 429.679 577.905 429.121C578.054 428.89 578.199 428.657 578.34 428.42C578.408 428.306 578.475 428.192 578.54 428.077C579.249 426.837 579.846 425.52 580.33 424.125C580.407 425.295 580.544 426.404 580.743 427.452C581.386 430.843 582.671 433.592 584.596 435.701C586.184 437.361 588.131 438.586 590.438 439.376C592.532 440.093 594.922 440.452 597.608 440.452C603.116 440.452 607.315 438.868 610.207 435.701C613.098 432.534 614.544 427.922 614.544 421.863V380.143C614.544 369.678 612.685 361.141 608.967 354.532C605.387 347.785 599.88 342.828 592.444 339.661C585.147 336.356 575.853 334.704 564.562 334.704C559.88 334.704 554.717 335.117 549.071 335.943C543.564 336.77 537.505 338.422 530.896 340.9C527.316 342.277 524.631 344.205 522.841 346.683C521.189 349.162 520.294 351.778 520.156 354.532C520.156 357.286 520.845 359.833 522.222 362.174C523.572 364.261 525.361 365.801 527.587 366.793C527.857 366.914 528.134 367.026 528.418 367.131C530.295 367.822 532.456 367.911 534.901 367.398C534.969 367.383 535.038 367.368 535.107 367.353C536.006 367.153 536.943 366.872 537.918 366.511C543.013 364.583 547.626 363.275 551.756 362.587C552.037 362.531 552.315 362.477 552.592 362.424C556.39 361.706 559.829 361.348 562.91 361.348C565.142 361.348 567.134 361.482 568.884 361.75C570.024 361.925 571.062 362.156 571.997 362.445C573.61 362.943 574.918 363.609 575.921 364.446C578.538 366.511 579.846 370.022 579.846 374.979V377.871H571.997C570.368 377.871 568.776 377.883 567.221 377.909C566.029 377.928 564.858 377.955 563.71 377.99C560.561 378.084 557.577 378.235 554.757 378.442C554.639 378.451 554.521 378.459 554.403 378.468C550.217 378.784 546.397 379.225 542.944 379.792C542.91 379.797 542.877 379.803 542.843 379.808C541.109 380.094 539.467 380.412 537.918 380.762C534.36 381.508 531.207 382.47 528.462 383.647C524.622 385.293 521.578 387.361 519.33 389.85C515.475 394.118 513.547 399.97 513.547 407.406C513.547 413.877 515.199 419.66 518.504 424.755C521.946 429.712 526.628 433.636 532.548 436.527ZM564.123 416.77C564.712 416.703 565.287 416.611 565.848 416.493C566.984 416.256 568.064 415.916 569.089 415.474C569.663 415.226 570.219 414.946 570.758 414.634C572.392 413.735 573.833 412.642 575.079 411.356C575.933 410.474 576.695 409.502 577.367 408.438C579.019 405.684 579.846 402.517 579.846 398.937V395.22H571.997C568.946 395.22 566.183 395.353 563.71 395.62C561.83 395.823 560.118 396.102 558.572 396.459C555.13 397.147 552.583 398.318 550.93 399.97C549.278 401.485 548.452 403.481 548.452 405.96C548.452 409.127 549.553 411.743 551.756 413.808C554.097 415.874 557.402 416.906 561.67 416.906C562.513 416.906 563.33 416.861 564.123 416.77ZM511.753 374.908C510.626 373.69 509.597 372.366 508.674 370.939L508.488 370.651L508.314 370.355C505.457 365.498 504.02 360.12 504.02 354.532V354.129L504.04 353.726C504.335 347.832 506.282 342.432 509.415 337.733L509.583 337.481L509.76 337.236C513.8 331.643 519.344 328.055 525.104 325.84L525.167 325.816L525.23 325.792C532.631 323.017 539.803 321.017 546.678 319.986L546.706 319.982L546.735 319.978C552.993 319.062 558.951 318.568 564.562 318.568C577.203 318.568 588.91 320.386 598.935 324.887C609.417 329.392 617.736 336.728 623.128 346.794C628.552 356.527 630.68 367.982 630.68 380.143V421.863C630.68 430.289 628.671 439.409 622.123 446.581C615.359 453.989 606.28 456.587 597.608 456.587C590.764 456.587 583.699 455.025 577.645 450.866C576.351 451.609 575.015 452.288 573.641 452.904C567.258 455.765 560.408 457 553.409 457C543.56 457 534.165 455.178 525.598 451.09L525.533 451.058L525.467 451.026C517.304 447.04 510.406 441.383 505.25 433.959L505.105 433.749L504.967 433.536C499.853 425.652 497.411 416.779 497.411 407.406C497.411 397.177 500.112 387.054 507.356 379.034C508.719 377.525 510.191 376.153 511.753 374.908Z" fill="#5D140E"/>
<path fill-rule="evenodd" clip-rule="evenodd" d="M336.886 435.701C340.053 438.868 344.528 440.452 350.311 440.452C362.703 440.452 368.9 434.255 368.9 421.863V383.447C368.9 376.838 370.208 371.743 372.824 368.163C373.5 367.285 374.242 366.514 375.05 365.851C375.493 365.488 375.956 365.157 376.438 364.859C378.571 363.54 381.093 362.853 384.003 362.797C384.131 362.795 384.26 362.793 384.39 362.793C388.521 362.793 391.481 364.101 393.271 366.718C395.061 369.334 395.956 373.602 395.956 379.523V421.863C395.956 427.922 397.539 432.534 400.706 435.701C403.873 438.868 408.417 440.452 414.338 440.452C420.259 440.452 424.802 438.868 427.969 435.701C431.136 432.534 432.72 427.922 432.72 421.863V383.447C432.72 379.174 433.267 375.533 434.36 372.526C434.958 370.883 435.719 369.428 436.644 368.163C439.397 364.584 443.321 362.794 448.414 362.793C448.415 362.793 448.416 362.793 448.417 362.793C452.547 362.793 455.508 364.101 457.298 366.718C459.088 369.334 459.983 373.602 459.983 379.523V421.863C459.983 427.922 461.566 432.534 464.733 435.701C467.9 438.868 472.375 440.452 478.158 440.452C484.079 440.452 488.623 438.868 491.79 435.701C495.094 432.534 496.747 427.922 496.747 421.863V378.49C496.747 368.576 495.438 360.384 492.822 353.912C490.344 347.303 486.557 342.484 481.463 339.455C476.368 336.288 469.828 334.704 461.842 334.704C454.131 334.704 447.109 336.632 440.775 340.487C440.553 340.622 440.333 340.759 440.116 340.897C435.78 343.654 432.214 347.112 429.415 351.271C429.003 351.885 428.607 352.513 428.228 353.156C427.711 351.918 427.143 350.742 426.524 349.63C424.296 345.63 421.405 342.444 417.849 340.074C417.791 340.034 417.732 339.994 417.673 339.955C412.475 336.454 406.2 334.704 398.848 334.704C392.285 334.704 386.445 336.004 381.326 338.603C380.323 339.112 379.348 339.671 378.4 340.281C374.026 343.055 370.478 346.573 367.757 350.835C367.359 346.198 365.881 342.542 363.323 339.868C361.943 338.425 360.277 337.311 358.326 336.525C355.993 335.587 353.253 335.117 350.105 335.117C344.322 335.117 339.847 336.701 336.68 339.868C333.65 343.035 332.136 347.578 332.136 353.499V421.863C332.136 427.922 333.719 432.534 336.886 435.701ZM371.495 325.592C365.103 320.718 357.432 318.981 350.105 318.981C341.344 318.981 332.274 321.454 325.27 328.458L325.143 328.585L325.019 328.714C318.231 335.811 316 344.913 316 353.499V421.863C316 430.65 318.339 439.974 325.476 447.111C332.48 454.115 341.551 456.587 350.311 456.587C358.995 456.587 368.471 454.406 375.662 447.214C378.815 444.061 381.005 440.469 382.471 436.697C383.962 440.435 386.169 443.983 389.297 447.111C396.368 454.183 405.566 456.587 414.338 456.587C423.11 456.587 432.307 454.183 439.379 447.111C442.611 443.879 444.859 440.199 446.351 436.324C447.844 440.199 450.092 443.879 453.323 447.111C460.327 454.115 469.398 456.587 478.158 456.587C486.88 456.587 496.022 454.21 503.077 447.232C510.395 440.143 512.882 430.786 512.882 421.863V378.49C512.882 367.386 511.448 357.03 507.858 348.055C504.358 338.823 498.532 330.878 489.847 325.667C481.51 320.528 471.814 318.568 461.842 318.568C451.295 318.568 441.35 321.247 432.385 326.704C431.393 327.308 430.426 327.939 429.486 328.595C428.649 327.937 427.781 327.306 426.881 326.703C418.544 321.025 408.927 318.568 398.848 318.568C389.076 318.568 379.784 320.754 371.495 325.592ZM443.428 374.821C443.421 374.802 443.417 374.791 443.418 374.791C443.418 374.791 443.421 374.801 443.428 374.821ZM379.401 374.821C379.394 374.802 379.391 374.791 379.391 374.791C379.391 374.791 379.395 374.801 379.401 374.821Z" fill="#5D140E"/>
</g>
<defs>
<clipPath id="clip0_239_10">
<rect width="1584" height="1068" fill="white"/>
</clipPath>
</defs>
</svg>
