<svg width="579" height="112" viewBox="0 0 579 112" fill="none" xmlns="http://www.w3.org/2000/svg">
<mask id="path-1-outside-1_113_9" maskUnits="userSpaceOnUse" x="0" y="15" width="578" height="97" fill="black">
<rect fill="white" y="15" width="578" height="97"/>
<path d="M42.448 97.864C40.08 97.864 38.16 97.32 36.688 96.232C35.216 95.08 34.064 93.32 33.232 90.952L14.512 38.824C13.488 35.944 13.648 33.512 14.992 31.528C16.4 29.48 18.864 28.456 22.384 28.456C24.752 28.456 26.608 29.032 27.952 30.184C29.296 31.272 30.352 33 31.12 35.368L45.424 78.28H40.912L56.272 35.368C57.168 33 58.288 31.272 59.632 30.184C60.976 29.032 62.704 28.456 64.816 28.456C66.928 28.456 68.624 29.032 69.904 30.184C71.184 31.272 72.24 33.032 73.072 35.464L87.472 78.28H83.632L98.32 35.368C99.088 33 100.112 31.272 101.392 30.184C102.736 29.032 104.592 28.456 106.96 28.456C109.904 28.456 112.048 29.48 113.392 31.528C114.8 33.512 114.96 35.944 113.872 38.824L94.96 91.048C94.128 93.352 92.976 95.08 91.504 96.232C90.096 97.32 88.208 97.864 85.84 97.864C83.408 97.864 81.456 97.32 79.984 96.232C78.576 95.08 77.456 93.32 76.624 90.952L63.088 52.936H65.488L51.664 91.048C50.768 93.352 49.616 95.08 48.208 96.232C46.8 97.32 44.88 97.864 42.448 97.864ZM133.641 97C130.633 97 128.329 96.232 126.729 94.696C125.193 93.096 124.425 90.824 124.425 87.88V38.44C124.425 35.496 125.193 33.256 126.729 31.72C128.329 30.12 130.633 29.32 133.641 29.32H166.185C168.489 29.32 170.217 29.896 171.369 31.048C172.521 32.2 173.097 33.864 173.097 36.04C173.097 38.28 172.521 40.008 171.369 41.224C170.217 42.376 168.489 42.952 166.185 42.952H141.321V55.816H164.073C166.313 55.816 168.009 56.392 169.161 57.544C170.377 58.696 170.985 60.392 170.985 62.632C170.985 64.872 170.377 66.568 169.161 67.72C168.009 68.872 166.313 69.448 164.073 69.448H141.321V83.368H166.185C168.489 83.368 170.217 83.976 171.369 85.192C172.521 86.344 173.097 88.008 173.097 90.184C173.097 92.424 172.521 94.12 171.369 95.272C170.217 96.424 168.489 97 166.185 97H133.641ZM192.322 97C189.506 97 187.298 96.232 185.698 94.696C184.162 93.096 183.394 90.888 183.394 88.072V38.152C183.394 35.272 184.162 33.064 185.698 31.528C187.234 29.992 189.41 29.224 192.226 29.224C195.106 29.224 197.282 29.992 198.754 31.528C200.29 33.064 201.058 35.272 201.058 38.152V82.312H224.482C226.914 82.312 228.77 82.952 230.05 84.232C231.394 85.448 232.066 87.24 232.066 89.608C232.066 91.976 231.394 93.8 230.05 95.08C228.77 96.36 226.914 97 224.482 97H192.322ZM269.976 98.056C262.488 98.056 256.056 96.616 250.68 93.736C245.304 90.856 241.176 86.792 238.296 81.544C235.48 76.296 234.072 70.152 234.072 63.112C234.072 57.864 234.872 53.096 236.472 48.808C238.136 44.52 240.504 40.84 243.576 37.768C246.712 34.696 250.488 32.36 254.904 30.76C259.384 29.096 264.408 28.264 269.976 28.264C272.92 28.264 275.96 28.616 279.096 29.32C282.296 29.96 285.112 30.952 287.544 32.296C289.336 33.256 290.584 34.472 291.288 35.944C291.992 37.416 292.216 38.92 291.96 40.456C291.768 41.992 291.224 43.368 290.328 44.584C289.432 45.8 288.28 46.632 286.872 47.08C285.464 47.464 283.928 47.24 282.264 46.408C280.344 45.512 278.424 44.84 276.504 44.392C274.648 43.88 272.696 43.624 270.648 43.624C266.68 43.624 263.352 44.392 260.664 45.928C258.04 47.4 256.056 49.576 254.712 52.456C253.368 55.336 252.696 58.888 252.696 63.112C252.696 67.336 253.368 70.92 254.712 73.864C256.056 76.744 258.04 78.952 260.664 80.488C263.352 81.96 266.68 82.696 270.648 82.696C272.312 82.696 274.104 82.504 276.024 82.12C277.944 81.672 279.832 81 281.688 80.104C283.608 79.272 285.304 79.048 286.776 79.432C288.312 79.816 289.528 80.584 290.424 81.736C291.384 82.888 291.992 84.232 292.248 85.768C292.504 87.24 292.28 88.712 291.576 90.184C290.936 91.656 289.784 92.84 288.12 93.736C285.88 95.08 283.096 96.136 279.768 96.904C276.504 97.672 273.24 98.056 269.976 98.056ZM332.284 98.056C325.436 98.056 319.42 96.616 314.236 93.736C309.052 90.792 305.02 86.696 302.14 81.448C299.324 76.2 297.916 70.088 297.916 63.112C297.916 57.864 298.716 53.096 300.316 48.808C301.98 44.52 304.316 40.84 307.324 37.768C310.396 34.696 314.044 32.36 318.268 30.76C322.492 29.096 327.164 28.264 332.284 28.264C339.132 28.264 345.116 29.704 350.236 32.584C355.42 35.464 359.452 39.528 362.332 44.776C365.212 49.96 366.652 56.072 366.652 63.112C366.652 68.36 365.82 73.128 364.156 77.416C362.556 81.704 360.22 85.416 357.148 88.552C354.14 91.624 350.524 93.992 346.3 95.656C342.076 97.256 337.404 98.056 332.284 98.056ZM332.284 83.272C335.676 83.272 338.556 82.472 340.924 80.872C343.292 79.272 345.116 76.968 346.396 73.96C347.676 70.952 348.316 67.336 348.316 63.112C348.316 56.776 346.908 51.848 344.092 48.328C341.276 44.808 337.34 43.048 332.284 43.048C328.956 43.048 326.076 43.848 323.644 45.448C321.276 46.984 319.452 49.256 318.172 52.264C316.892 55.208 316.252 58.824 316.252 63.112C316.252 69.448 317.66 74.408 320.476 77.992C323.292 81.512 327.228 83.272 332.284 83.272ZM385.242 97.864C382.682 97.864 380.698 97.16 379.29 95.752C377.946 94.344 377.273 92.36 377.273 89.8V36.52C377.273 33.896 378.01 31.912 379.482 30.568C380.954 29.16 383.034 28.456 385.722 28.456C387.962 28.456 389.722 28.904 391.002 29.8C392.346 30.632 393.562 32.04 394.65 34.024L415.29 71.08H411.93L432.474 34.024C433.626 32.04 434.842 30.632 436.122 29.8C437.466 28.904 439.258 28.456 441.498 28.456C444.058 28.456 446.01 29.16 447.354 30.568C448.762 31.912 449.466 33.896 449.466 36.52V89.8C449.466 92.36 448.794 94.344 447.45 95.752C446.106 97.16 444.122 97.864 441.498 97.864C438.938 97.864 436.954 97.16 435.546 95.752C434.202 94.344 433.53 92.36 433.53 89.8V56.776H435.546L420.09 83.656C419.194 85.064 418.234 86.12 417.21 86.824C416.25 87.528 414.938 87.88 413.274 87.88C411.674 87.88 410.362 87.528 409.338 86.824C408.314 86.12 407.386 85.064 406.554 83.656L391.002 56.68H393.21V89.8C393.21 92.36 392.538 94.344 391.194 95.752C389.85 97.16 387.866 97.864 385.242 97.864ZM471.141 97C468.133 97 465.829 96.232 464.229 94.696C462.693 93.096 461.925 90.824 461.925 87.88V38.44C461.925 35.496 462.693 33.256 464.229 31.72C465.829 30.12 468.133 29.32 471.141 29.32H503.685C505.989 29.32 507.717 29.896 508.869 31.048C510.021 32.2 510.597 33.864 510.597 36.04C510.597 38.28 510.021 40.008 508.869 41.224C507.717 42.376 505.989 42.952 503.685 42.952H478.821V55.816H501.573C503.813 55.816 505.509 56.392 506.661 57.544C507.877 58.696 508.485 60.392 508.485 62.632C508.485 64.872 507.877 66.568 506.661 67.72C505.509 68.872 503.813 69.448 501.573 69.448H478.821V83.368H503.685C505.989 83.368 507.717 83.976 508.869 85.192C510.021 86.344 510.597 88.008 510.597 90.184C510.597 92.424 510.021 94.12 508.869 95.272C507.717 96.424 505.989 97 503.685 97H471.141ZM555.275 74.824C553.611 74.824 552.267 74.28 551.243 73.192C550.283 72.104 549.675 70.6 549.419 68.68L546.059 39.688C545.611 36.36 546.219 33.672 547.883 31.624C549.547 29.512 552.011 28.456 555.275 28.456C558.603 28.456 561.067 29.512 562.667 31.624C564.267 33.672 564.843 36.36 564.395 39.688L561.131 68.68C560.875 70.6 560.267 72.104 559.307 73.192C558.347 74.28 557.003 74.824 555.275 74.824ZM555.275 97.576C552.395 97.576 550.091 96.712 548.363 94.984C546.699 93.256 545.867 90.984 545.867 88.168C545.867 85.416 546.699 83.208 548.363 81.544C550.091 79.816 552.395 78.952 555.275 78.952C558.283 78.952 560.587 79.816 562.187 81.544C563.851 83.208 564.683 85.416 564.683 88.168C564.683 90.984 563.851 93.256 562.187 94.984C560.587 96.712 558.283 97.576 555.275 97.576Z"/>
</mask>
<path d="M42.448 97.864C40.08 97.864 38.16 97.32 36.688 96.232C35.216 95.08 34.064 93.32 33.232 90.952L14.512 38.824C13.488 35.944 13.648 33.512 14.992 31.528C16.4 29.48 18.864 28.456 22.384 28.456C24.752 28.456 26.608 29.032 27.952 30.184C29.296 31.272 30.352 33 31.12 35.368L45.424 78.28H40.912L56.272 35.368C57.168 33 58.288 31.272 59.632 30.184C60.976 29.032 62.704 28.456 64.816 28.456C66.928 28.456 68.624 29.032 69.904 30.184C71.184 31.272 72.24 33.032 73.072 35.464L87.472 78.28H83.632L98.32 35.368C99.088 33 100.112 31.272 101.392 30.184C102.736 29.032 104.592 28.456 106.96 28.456C109.904 28.456 112.048 29.48 113.392 31.528C114.8 33.512 114.96 35.944 113.872 38.824L94.96 91.048C94.128 93.352 92.976 95.08 91.504 96.232C90.096 97.32 88.208 97.864 85.84 97.864C83.408 97.864 81.456 97.32 79.984 96.232C78.576 95.08 77.456 93.32 76.624 90.952L63.088 52.936H65.488L51.664 91.048C50.768 93.352 49.616 95.08 48.208 96.232C46.8 97.32 44.88 97.864 42.448 97.864ZM133.641 97C130.633 97 128.329 96.232 126.729 94.696C125.193 93.096 124.425 90.824 124.425 87.88V38.44C124.425 35.496 125.193 33.256 126.729 31.72C128.329 30.12 130.633 29.32 133.641 29.32H166.185C168.489 29.32 170.217 29.896 171.369 31.048C172.521 32.2 173.097 33.864 173.097 36.04C173.097 38.28 172.521 40.008 171.369 41.224C170.217 42.376 168.489 42.952 166.185 42.952H141.321V55.816H164.073C166.313 55.816 168.009 56.392 169.161 57.544C170.377 58.696 170.985 60.392 170.985 62.632C170.985 64.872 170.377 66.568 169.161 67.72C168.009 68.872 166.313 69.448 164.073 69.448H141.321V83.368H166.185C168.489 83.368 170.217 83.976 171.369 85.192C172.521 86.344 173.097 88.008 173.097 90.184C173.097 92.424 172.521 94.12 171.369 95.272C170.217 96.424 168.489 97 166.185 97H133.641ZM192.322 97C189.506 97 187.298 96.232 185.698 94.696C184.162 93.096 183.394 90.888 183.394 88.072V38.152C183.394 35.272 184.162 33.064 185.698 31.528C187.234 29.992 189.41 29.224 192.226 29.224C195.106 29.224 197.282 29.992 198.754 31.528C200.29 33.064 201.058 35.272 201.058 38.152V82.312H224.482C226.914 82.312 228.77 82.952 230.05 84.232C231.394 85.448 232.066 87.24 232.066 89.608C232.066 91.976 231.394 93.8 230.05 95.08C228.77 96.36 226.914 97 224.482 97H192.322ZM269.976 98.056C262.488 98.056 256.056 96.616 250.68 93.736C245.304 90.856 241.176 86.792 238.296 81.544C235.48 76.296 234.072 70.152 234.072 63.112C234.072 57.864 234.872 53.096 236.472 48.808C238.136 44.52 240.504 40.84 243.576 37.768C246.712 34.696 250.488 32.36 254.904 30.76C259.384 29.096 264.408 28.264 269.976 28.264C272.92 28.264 275.96 28.616 279.096 29.32C282.296 29.96 285.112 30.952 287.544 32.296C289.336 33.256 290.584 34.472 291.288 35.944C291.992 37.416 292.216 38.92 291.96 40.456C291.768 41.992 291.224 43.368 290.328 44.584C289.432 45.8 288.28 46.632 286.872 47.08C285.464 47.464 283.928 47.24 282.264 46.408C280.344 45.512 278.424 44.84 276.504 44.392C274.648 43.88 272.696 43.624 270.648 43.624C266.68 43.624 263.352 44.392 260.664 45.928C258.04 47.4 256.056 49.576 254.712 52.456C253.368 55.336 252.696 58.888 252.696 63.112C252.696 67.336 253.368 70.92 254.712 73.864C256.056 76.744 258.04 78.952 260.664 80.488C263.352 81.96 266.68 82.696 270.648 82.696C272.312 82.696 274.104 82.504 276.024 82.12C277.944 81.672 279.832 81 281.688 80.104C283.608 79.272 285.304 79.048 286.776 79.432C288.312 79.816 289.528 80.584 290.424 81.736C291.384 82.888 291.992 84.232 292.248 85.768C292.504 87.24 292.28 88.712 291.576 90.184C290.936 91.656 289.784 92.84 288.12 93.736C285.88 95.08 283.096 96.136 279.768 96.904C276.504 97.672 273.24 98.056 269.976 98.056ZM332.284 98.056C325.436 98.056 319.42 96.616 314.236 93.736C309.052 90.792 305.02 86.696 302.14 81.448C299.324 76.2 297.916 70.088 297.916 63.112C297.916 57.864 298.716 53.096 300.316 48.808C301.98 44.52 304.316 40.84 307.324 37.768C310.396 34.696 314.044 32.36 318.268 30.76C322.492 29.096 327.164 28.264 332.284 28.264C339.132 28.264 345.116 29.704 350.236 32.584C355.42 35.464 359.452 39.528 362.332 44.776C365.212 49.96 366.652 56.072 366.652 63.112C366.652 68.36 365.82 73.128 364.156 77.416C362.556 81.704 360.22 85.416 357.148 88.552C354.14 91.624 350.524 93.992 346.3 95.656C342.076 97.256 337.404 98.056 332.284 98.056ZM332.284 83.272C335.676 83.272 338.556 82.472 340.924 80.872C343.292 79.272 345.116 76.968 346.396 73.96C347.676 70.952 348.316 67.336 348.316 63.112C348.316 56.776 346.908 51.848 344.092 48.328C341.276 44.808 337.34 43.048 332.284 43.048C328.956 43.048 326.076 43.848 323.644 45.448C321.276 46.984 319.452 49.256 318.172 52.264C316.892 55.208 316.252 58.824 316.252 63.112C316.252 69.448 317.66 74.408 320.476 77.992C323.292 81.512 327.228 83.272 332.284 83.272ZM385.242 97.864C382.682 97.864 380.698 97.16 379.29 95.752C377.946 94.344 377.273 92.36 377.273 89.8V36.52C377.273 33.896 378.01 31.912 379.482 30.568C380.954 29.16 383.034 28.456 385.722 28.456C387.962 28.456 389.722 28.904 391.002 29.8C392.346 30.632 393.562 32.04 394.65 34.024L415.29 71.08H411.93L432.474 34.024C433.626 32.04 434.842 30.632 436.122 29.8C437.466 28.904 439.258 28.456 441.498 28.456C444.058 28.456 446.01 29.16 447.354 30.568C448.762 31.912 449.466 33.896 449.466 36.52V89.8C449.466 92.36 448.794 94.344 447.45 95.752C446.106 97.16 444.122 97.864 441.498 97.864C438.938 97.864 436.954 97.16 435.546 95.752C434.202 94.344 433.53 92.36 433.53 89.8V56.776H435.546L420.09 83.656C419.194 85.064 418.234 86.12 417.21 86.824C416.25 87.528 414.938 87.88 413.274 87.88C411.674 87.88 410.362 87.528 409.338 86.824C408.314 86.12 407.386 85.064 406.554 83.656L391.002 56.68H393.21V89.8C393.21 92.36 392.538 94.344 391.194 95.752C389.85 97.16 387.866 97.864 385.242 97.864ZM471.141 97C468.133 97 465.829 96.232 464.229 94.696C462.693 93.096 461.925 90.824 461.925 87.88V38.44C461.925 35.496 462.693 33.256 464.229 31.72C465.829 30.12 468.133 29.32 471.141 29.32H503.685C505.989 29.32 507.717 29.896 508.869 31.048C510.021 32.2 510.597 33.864 510.597 36.04C510.597 38.28 510.021 40.008 508.869 41.224C507.717 42.376 505.989 42.952 503.685 42.952H478.821V55.816H501.573C503.813 55.816 505.509 56.392 506.661 57.544C507.877 58.696 508.485 60.392 508.485 62.632C508.485 64.872 507.877 66.568 506.661 67.72C505.509 68.872 503.813 69.448 501.573 69.448H478.821V83.368H503.685C505.989 83.368 507.717 83.976 508.869 85.192C510.021 86.344 510.597 88.008 510.597 90.184C510.597 92.424 510.021 94.12 508.869 95.272C507.717 96.424 505.989 97 503.685 97H471.141ZM555.275 74.824C553.611 74.824 552.267 74.28 551.243 73.192C550.283 72.104 549.675 70.6 549.419 68.68L546.059 39.688C545.611 36.36 546.219 33.672 547.883 31.624C549.547 29.512 552.011 28.456 555.275 28.456C558.603 28.456 561.067 29.512 562.667 31.624C564.267 33.672 564.843 36.36 564.395 39.688L561.131 68.68C560.875 70.6 560.267 72.104 559.307 73.192C558.347 74.28 557.003 74.824 555.275 74.824ZM555.275 97.576C552.395 97.576 550.091 96.712 548.363 94.984C546.699 93.256 545.867 90.984 545.867 88.168C545.867 85.416 546.699 83.208 548.363 81.544C550.091 79.816 552.395 78.952 555.275 78.952C558.283 78.952 560.587 79.816 562.187 81.544C563.851 83.208 564.683 85.416 564.683 88.168C564.683 90.984 563.851 93.256 562.187 94.984C560.587 96.712 558.283 97.576 555.275 97.576Z" fill="#F9EEEE"/>
<path d="M36.688 96.232L28.676 106.47L28.817 106.58L28.9609 106.686L36.688 96.232ZM33.232 90.952L45.497 86.6427L45.4821 86.6004L45.467 86.5582L33.232 90.952ZM14.512 38.824L2.26321 43.1791L2.27008 43.1985L2.27702 43.2178L14.512 38.824ZM14.992 31.528L4.27945 24.1631L4.25413 24.2L4.22906 24.237L14.992 31.528ZM27.952 30.184L19.4917 40.0543L19.6304 40.1732L19.7724 40.2882L27.952 30.184ZM31.12 35.368L18.7541 39.3786L18.7704 39.4288L18.7871 39.479L31.12 35.368ZM45.424 78.28V91.28H63.4605L57.7569 74.169L45.424 78.28ZM40.912 78.28L28.6725 73.899L22.4511 91.28H40.912V78.28ZM56.272 35.368L44.1133 30.7674L44.0719 30.8768L44.0325 30.987L56.272 35.368ZM59.632 30.184L67.8116 40.2882L67.9536 40.1732L68.0923 40.0543L59.632 30.184ZM69.904 30.184L61.2075 39.8468L61.3443 39.97L61.4846 40.0892L69.904 30.184ZM73.072 35.464L85.3938 31.3199L85.383 31.288L85.3721 31.2561L73.072 35.464ZM87.472 78.28V91.28H105.56L99.7938 74.1359L87.472 78.28ZM83.632 78.28L71.3325 74.0701L65.4419 91.28H83.632V78.28ZM98.32 35.368L110.619 39.5779L110.653 39.4785L110.686 39.3786L98.32 35.368ZM101.392 30.184L109.811 40.0892L109.832 40.0718L109.852 40.0543L101.392 30.184ZM113.392 31.528L102.523 38.6605L102.653 38.8586L102.79 39.0517L113.392 31.528ZM113.872 38.824L101.711 34.2298L101.679 34.3135L101.649 34.3976L113.872 38.824ZM94.96 91.048L82.7368 86.6216L82.7328 86.6326L94.96 91.048ZM91.504 96.232L99.4528 106.519L99.4845 106.494L99.516 106.47L91.504 96.232ZM79.984 96.232L71.7519 106.293L71.9996 106.496L72.2569 106.686L79.984 96.232ZM76.624 90.952L88.889 86.6427L88.88 86.617L88.8708 86.5914L76.624 90.952ZM63.088 52.936V39.936H44.6597L50.8412 57.2966L63.088 52.936ZM65.488 52.936L77.7089 57.3688L84.0321 39.936H65.488V52.936ZM51.664 91.048L63.7801 95.7598L63.8341 95.6209L63.8849 95.4808L51.664 91.048ZM48.208 96.232L56.1568 106.519L56.3 106.408L56.4401 106.293L48.208 96.232ZM42.448 84.864C42.0434 84.864 43.0712 84.7844 44.4151 85.7777L28.9609 106.686C33.2488 109.856 38.1166 110.864 42.448 110.864V84.864ZM44.7 85.9944C45.2137 86.3965 45.4913 86.7668 45.5971 86.9284C45.6932 87.0752 45.63 87.0214 45.497 86.6427L20.967 95.2613C22.3472 99.1895 24.6862 103.347 28.676 106.47L44.7 85.9944ZM45.467 86.5582L26.747 34.4302L2.27702 43.2178L20.997 95.3458L45.467 86.5582ZM26.7608 34.4689C26.6963 34.2876 26.8977 34.7542 26.836 35.6934C26.7671 36.7401 26.4009 37.8654 25.7549 38.819L4.22906 24.237C-0.0609299 30.5698 0.275623 37.589 2.26321 43.1791L26.7608 34.4689ZM25.7045 38.8929C24.8825 40.0886 23.7901 40.8524 22.8849 41.2286C22.1185 41.5471 21.8178 41.456 22.384 41.456V15.456C16.5029 15.456 9.0281 17.256 4.27945 24.1631L25.7045 38.8929ZM22.384 41.456C22.7063 41.456 21.1987 41.5174 19.4917 40.0543L36.4123 20.3137C32.0173 16.5466 26.7978 15.456 22.384 15.456V41.456ZM19.7724 40.2882C19.1121 39.7536 18.7757 39.2653 18.6593 39.0748C18.5511 38.8977 18.6158 38.9522 18.7541 39.3786L43.4859 31.3574C42.2661 27.5964 40.1138 23.3035 36.1316 20.0798L19.7724 40.2882ZM18.7871 39.479L33.0911 82.391L57.7569 74.169L43.4529 31.257L18.7871 39.479ZM45.424 65.28H40.912V91.28H45.424V65.28ZM53.1515 82.661L68.5115 39.749L44.0325 30.987L28.6725 73.899L53.1515 82.661ZM68.4307 39.9686C68.6227 39.4611 68.7354 39.3012 68.693 39.3666C68.6465 39.4384 68.384 39.8248 67.8116 40.2882L51.4524 20.0798C47.6742 23.1384 45.4706 27.1802 44.1133 30.7674L68.4307 39.9686ZM68.0923 40.0543C67.4502 40.6047 66.7311 40.9928 66.047 41.2209C65.3931 41.4388 64.939 41.456 64.816 41.456V15.456C60.2289 15.456 55.3086 16.7678 51.1717 20.3137L68.0923 40.0543ZM64.816 41.456C64.6984 41.456 64.2064 41.4403 63.4914 41.1975C62.7386 40.9418 61.9304 40.4975 61.2075 39.8468L78.6005 20.5212C74.4226 16.761 69.3787 15.456 64.816 15.456V41.456ZM61.4846 40.0892C60.8376 39.5392 60.5531 39.0826 60.5086 39.0084C60.4659 38.9372 60.5812 39.1146 60.7719 39.6719L85.3721 31.2561C84.1525 27.691 82.0914 23.4816 78.3234 20.2788L61.4846 40.0892ZM60.7502 39.6081L75.1502 82.4241L99.7938 74.1359L85.3938 31.3199L60.7502 39.6081ZM87.472 65.28H83.632V91.28H87.472V65.28ZM95.9315 82.4899L110.619 39.5779L86.0205 31.1581L71.3325 74.0701L95.9315 82.4899ZM110.686 39.3786C110.841 38.9003 110.925 38.7928 110.848 38.9234C110.766 39.0622 110.459 39.5391 109.811 40.0892L92.9726 20.2788C89.1745 23.5071 87.1305 27.7303 85.9541 31.3574L110.686 39.3786ZM109.852 40.0543C108.145 41.5174 106.638 41.456 106.96 41.456V15.456C102.546 15.456 97.3267 16.5466 92.9317 20.3137L109.852 40.0543ZM106.96 41.456C106.946 41.456 106.218 41.4536 105.173 40.9547C104.034 40.4108 103.112 39.5567 102.523 38.6605L124.261 24.3955C120.004 17.909 113.266 15.456 106.96 15.456V41.456ZM102.79 39.0517C102.1 38.0786 101.674 36.8727 101.596 35.6934C101.527 34.6365 101.766 34.0846 101.711 34.2298L126.033 43.4182C128.193 37.7016 128.572 30.4551 123.994 24.0043L102.79 39.0517ZM101.649 34.3976L82.7368 86.6216L107.183 95.4744L126.095 43.2504L101.649 34.3976ZM82.7328 86.6326C82.4782 87.3377 82.5278 86.749 83.492 85.9944L99.516 106.47C103.424 103.411 105.778 99.3663 107.187 95.4634L82.7328 86.6326ZM83.5552 85.9453C85.0751 84.7708 86.2803 84.864 85.84 84.864V110.864C90.1357 110.864 95.1169 109.869 99.4528 106.519L83.5552 85.9453ZM85.84 84.864C85.2823 84.864 86.3125 84.744 87.7111 85.7777L72.2569 106.686C76.5995 109.896 81.5337 110.864 85.84 110.864V84.864ZM88.2161 86.1706C88.726 86.5877 88.9804 86.9504 89.0556 87.0686C89.1233 87.175 89.04 87.0725 88.889 86.6427L64.359 95.2613C65.6938 99.0602 67.9237 103.161 71.7519 106.293L88.2161 86.1706ZM88.8708 86.5914L75.3348 48.5754L50.8412 57.2966L64.3772 95.3126L88.8708 86.5914ZM63.088 65.936H65.488V39.936H63.088V65.936ZM53.2671 48.5032L39.4431 86.6152L63.8849 95.4808L77.7089 57.3688L53.2671 48.5032ZM39.5479 86.3362C39.3788 86.7711 39.2773 86.9119 39.3113 86.8609C39.3514 86.8009 39.552 86.5174 39.9759 86.1706L56.4401 106.293C60.0943 103.304 62.3514 99.4336 63.7801 95.7598L39.5479 86.3362ZM40.2592 85.9453C41.8339 84.7285 43.0455 84.864 42.448 84.864V110.864C46.7145 110.864 51.7662 109.911 56.1568 106.519L40.2592 85.9453ZM126.729 94.696L117.351 103.699L117.535 103.89L117.726 104.074L126.729 94.696ZM126.729 31.72L135.922 40.9124L135.922 40.9124L126.729 31.72ZM171.369 41.224L180.562 50.4164L180.686 50.2922L180.807 50.1647L171.369 41.224ZM141.321 42.952V29.952H128.321V42.952H141.321ZM141.321 55.816H128.321V68.816H141.321V55.816ZM169.161 57.544L159.969 66.7364L160.093 66.8606L160.221 66.9814L169.161 57.544ZM169.161 67.72L160.221 58.2826L160.093 58.4034L159.969 58.5276L169.161 67.72ZM141.321 69.448V56.448H128.321V69.448H141.321ZM141.321 83.368H128.321V96.368H141.321V83.368ZM171.369 85.192L161.932 94.1327L162.053 94.2602L162.177 94.3844L171.369 85.192ZM133.641 84C133.215 84 133.322 83.9424 133.768 84.0911C134.27 84.2583 135.013 84.6275 135.732 85.318L117.726 104.074C122.504 108.66 128.497 110 133.641 110V84ZM136.107 85.6931C136.767 86.3805 137.14 87.105 137.317 87.629C137.476 88.0994 137.425 88.2464 137.425 87.88H111.425C111.425 93.0503 112.811 98.97 117.351 103.699L136.107 85.6931ZM137.425 87.88V38.44H111.425V87.88H137.425ZM137.425 38.44C137.425 38.0678 137.477 38.2471 137.299 38.7682C137.099 39.3502 136.677 40.157 135.922 40.9124L117.537 22.5276C112.798 27.2666 111.425 33.3063 111.425 38.44H137.425ZM135.922 40.9124C135.227 41.6069 134.477 42.0078 133.921 42.2008C133.425 42.3732 133.263 42.32 133.641 42.32V16.32C128.36 16.32 122.296 17.7688 117.537 22.5276L135.922 40.9124ZM133.641 42.32H166.185V16.32H133.641V42.32ZM166.185 42.32C166.485 42.32 164.323 42.3862 162.177 40.2404L180.562 21.8556C176.112 17.4058 170.493 16.32 166.185 16.32V42.32ZM162.177 40.2404C161.251 39.3148 160.683 38.2868 160.38 37.4124C160.098 36.5977 160.097 36.0713 160.097 36.04H186.097C186.097 31.611 184.883 26.1773 180.562 21.8556L162.177 40.2404ZM160.097 36.04C160.097 36.1021 160.113 34.2036 161.932 32.2833L180.807 50.1647C184.93 45.8124 186.097 40.4579 186.097 36.04H160.097ZM162.177 32.0316C164.323 29.8858 166.485 29.952 166.185 29.952V55.952C170.493 55.952 176.112 54.8662 180.562 50.4164L162.177 32.0316ZM166.185 29.952H141.321V55.952H166.185V29.952ZM128.321 42.952V55.816H154.321V42.952H128.321ZM141.321 68.816H164.073V42.816H141.321V68.816ZM164.073 68.816C164.186 68.816 162.052 68.8198 159.969 66.7364L178.354 48.3516C173.966 43.9642 168.44 42.816 164.073 42.816V68.816ZM160.221 66.9814C159.239 66.0511 158.622 64.9893 158.292 64.067C157.985 63.2122 157.985 62.6577 157.985 62.632H183.985C183.985 58.0755 182.697 52.4596 178.102 48.1066L160.221 66.9814ZM157.985 62.632C157.985 62.6063 157.985 62.0518 158.292 61.197C158.622 60.2747 159.239 59.2129 160.221 58.2826L178.102 77.1574C182.697 72.8044 183.985 67.1885 183.985 62.632H157.985ZM159.969 58.5276C162.052 56.4442 164.186 56.448 164.073 56.448V82.448C168.44 82.448 173.966 81.2998 178.354 76.9124L159.969 58.5276ZM164.073 56.448H141.321V82.448H164.073V56.448ZM128.321 69.448V83.368H154.321V69.448H128.321ZM141.321 96.368H166.185V70.368H141.321V96.368ZM166.185 96.368C166.23 96.368 165.722 96.3781 164.894 96.0871C163.997 95.7713 162.905 95.1598 161.932 94.1327L180.807 76.2513C176.389 71.5881 170.678 70.368 166.185 70.368V96.368ZM162.177 94.3844C161.251 93.4588 160.683 92.4308 160.38 91.5564C160.098 90.7417 160.097 90.2153 160.097 90.184H186.097C186.097 85.755 184.883 80.3213 180.562 75.9996L162.177 94.3844ZM160.097 90.184C160.097 90.2969 160.093 88.163 162.177 86.0796L180.562 104.464C184.949 100.077 186.097 94.5511 186.097 90.184H160.097ZM162.177 86.0796C164.323 83.9338 166.485 84 166.185 84V110C170.493 110 176.112 108.914 180.562 104.464L162.177 86.0796ZM166.185 84H133.641V110H166.185V84ZM185.698 94.696L176.32 103.699L176.504 103.89L176.695 104.074L185.698 94.696ZM185.698 31.528L194.89 40.7204L194.89 40.7204L185.698 31.528ZM198.754 31.528L189.368 40.5228L189.464 40.6226L189.562 40.7204L198.754 31.528ZM201.058 82.312H188.058V95.312H201.058V82.312ZM230.05 84.232L220.858 93.4244L221.087 93.6541L221.328 93.872L230.05 84.232ZM230.05 95.08L221.084 85.6662L220.97 85.7755L220.858 85.8876L230.05 95.08ZM192.322 84C192.08 84 192.307 83.9656 192.825 84.1455C193.391 84.3425 194.078 84.7201 194.701 85.318L176.695 104.074C181.321 108.515 187.095 110 192.322 110V84ZM195.076 85.6931C195.674 86.3159 196.052 87.003 196.248 87.5692C196.428 88.0867 196.394 88.3144 196.394 88.072H170.394C170.394 93.2991 171.879 99.0727 176.32 103.699L195.076 85.6931ZM196.394 88.072V38.152H170.394V88.072H196.394ZM196.394 38.152C196.394 37.8413 196.438 38.0612 196.248 38.6068C196.038 39.2112 195.613 39.9978 194.89 40.7204L176.506 22.3356C171.817 27.0243 170.394 32.9871 170.394 38.152H196.394ZM194.89 40.7204C194.201 41.4098 193.435 41.838 192.809 42.0589C192.239 42.2599 191.978 42.224 192.226 42.224V16.224C187.028 16.224 181.142 17.6991 176.506 22.3356L194.89 40.7204ZM192.226 42.224C192.543 42.224 192.289 42.2699 191.691 42.0589C191.026 41.8242 190.157 41.3455 189.368 40.5228L208.14 22.5332C203.444 17.6333 197.353 16.224 192.226 16.224V42.224ZM189.562 40.7204C188.839 39.9978 188.414 39.2112 188.204 38.6068C188.014 38.0612 188.058 37.8413 188.058 38.152H214.058C214.058 32.9871 212.635 27.0243 207.946 22.3356L189.562 40.7204ZM188.058 38.152V82.312H214.058V38.152H188.058ZM201.058 95.312H224.482V69.312H201.058V95.312ZM224.482 95.312C224.587 95.312 224.177 95.3289 223.46 95.0818C222.683 94.814 221.728 94.2947 220.858 93.4244L239.242 75.0396C234.779 70.5765 229.142 69.312 224.482 69.312V95.312ZM221.328 93.872C220.375 93.0098 219.74 91.9876 219.39 91.0526C219.066 90.1887 219.066 89.6262 219.066 89.608H245.066C245.066 84.7571 243.613 78.9719 238.772 74.592L221.328 93.872ZM219.066 89.608C219.066 89.5824 219.068 89.0604 219.364 88.2578C219.681 87.3951 220.248 86.4625 221.084 85.6662L239.016 104.494C243.601 100.126 245.066 94.4962 245.066 89.608H219.066ZM220.858 85.8876C221.728 85.0173 222.683 84.498 223.46 84.2302C224.177 83.9831 224.587 84 224.482 84V110C229.142 110 234.779 108.735 239.242 104.272L220.858 85.8876ZM224.482 84H192.322V110H224.482V84ZM250.68 93.736L256.819 82.2768L256.819 82.2768L250.68 93.736ZM238.296 81.544L226.841 87.6906L226.87 87.7446L226.9 87.7983L238.296 81.544ZM236.472 48.808L224.353 44.1049L224.322 44.1839L224.293 44.2633L236.472 48.808ZM243.576 37.768L234.479 28.4813L234.431 28.5282L234.384 28.5756L243.576 37.768ZM254.904 30.76L259.333 42.9825L259.382 42.9647L259.431 42.9465L254.904 30.76ZM279.096 29.32L276.249 42.0043L276.397 42.0377L276.547 42.0675L279.096 29.32ZM287.544 32.296L281.256 43.6741L281.331 43.7152L281.405 43.7552L287.544 32.296ZM291.288 35.944L279.561 41.5529L279.561 41.5529L291.288 35.944ZM291.96 40.456L279.137 38.3188L279.094 38.5804L279.061 38.8435L291.96 40.456ZM286.872 47.08L290.293 59.6219L290.555 59.5504L290.814 59.468L286.872 47.08ZM282.264 46.408L288.078 34.7805L287.921 34.7019L287.762 34.6276L282.264 46.408ZM276.504 44.392L273.047 56.9239L273.297 56.9929L273.55 57.0519L276.504 44.392ZM260.664 45.928L267.025 57.2659L267.069 57.2407L267.114 57.2152L260.664 45.928ZM254.712 73.864L242.886 79.2628L242.909 79.3122L242.932 79.3615L254.712 73.864ZM260.664 80.488L254.097 91.7072L254.257 91.801L254.42 91.8903L260.664 80.488ZM276.024 82.12L278.574 94.8675L278.777 94.827L278.978 94.7799L276.024 82.12ZM281.688 80.104L276.519 68.1758L276.276 68.2814L276.037 68.3968L281.688 80.104ZM286.776 79.432L283.495 92.011L283.559 92.0278L283.623 92.0438L286.776 79.432ZM290.424 81.736L280.163 89.7172L280.297 89.8901L280.437 90.0584L290.424 81.736ZM292.248 85.768L279.425 87.9052L279.433 87.9503L279.44 87.9954L292.248 85.768ZM291.576 90.184L279.849 84.5751L279.748 84.7861L279.654 85.0006L291.576 90.184ZM288.12 93.736L281.957 82.2899L281.691 82.4331L281.432 82.5886L288.12 93.736ZM279.768 96.904L276.845 84.2369L276.818 84.2432L276.791 84.2496L279.768 96.904ZM269.976 85.056C264.148 85.056 259.924 83.9399 256.819 82.2768L244.541 105.195C252.189 109.292 260.828 111.056 269.976 111.056V85.056ZM256.819 82.2768C253.619 80.5622 251.338 78.2865 249.693 75.2897L226.9 87.7983C231.015 95.2975 236.99 101.15 244.541 105.195L256.819 82.2768ZM249.751 75.3974C248.119 72.3558 247.072 68.3974 247.072 63.112H221.072C221.072 71.9066 222.841 80.2362 226.841 87.6906L249.751 75.3974ZM247.072 63.112C247.072 59.1911 247.668 55.9904 248.652 53.3527L224.293 44.2633C222.077 50.2016 221.072 56.5369 221.072 63.112H247.072ZM248.592 53.5111C249.641 50.8059 251.048 48.6813 252.769 46.9604L234.384 28.5756C229.961 32.9987 226.631 38.2341 224.353 44.1049L248.592 53.5111ZM252.673 47.0547C254.39 45.3734 256.541 43.9941 259.333 42.9825L250.476 18.5375C244.436 20.7259 239.035 24.0186 234.479 28.4813L252.673 47.0547ZM259.431 42.9465C262.245 41.9013 265.703 41.264 269.976 41.264V15.264C263.114 15.264 256.524 16.2906 250.378 18.5735L259.431 42.9465ZM269.976 41.264C271.879 41.264 273.963 41.4911 276.249 42.0043L281.944 16.6357C277.958 15.7408 273.961 15.264 269.976 15.264V41.264ZM276.547 42.0675C278.66 42.4902 280.176 43.0771 281.256 43.6741L293.832 20.9179C290.049 18.8269 285.932 17.4298 281.646 16.5724L276.547 42.0675ZM281.405 43.7552C281.367 43.7348 280.316 43.1331 279.561 41.5529L303.016 30.3351C300.852 25.8108 297.305 22.7772 293.683 20.8368L281.405 43.7552ZM279.561 41.5529C279.395 41.206 279.218 40.71 279.126 40.0911C279.033 39.4664 279.047 38.8587 279.137 38.3188L304.783 42.5932C305.5 38.2933 304.813 34.0931 303.016 30.3351L279.561 41.5529ZM279.061 38.8435C279.094 38.5761 279.17 38.2358 279.319 37.8604C279.468 37.4835 279.659 37.1486 279.863 36.8724L300.794 52.2956C303.044 49.2425 304.399 45.755 304.86 42.0685L279.061 38.8435ZM279.863 36.8724C280.163 36.4642 280.598 36.0022 281.181 35.5812C281.766 35.1583 282.374 34.8691 282.931 34.692L290.814 59.468C294.897 58.1688 298.31 55.6669 300.794 52.2956L279.863 36.8724ZM283.452 34.5381C284.58 34.2303 285.654 34.2068 286.54 34.3361C287.383 34.459 287.91 34.6964 288.078 34.7805L276.45 58.0355C280.164 59.8923 285.024 61.059 290.293 59.6219L283.452 34.5381ZM287.762 34.6276C285.087 33.3793 282.317 32.399 279.458 31.7321L273.55 57.0519C274.532 57.281 275.602 57.6447 276.767 58.1884L287.762 34.6276ZM279.961 31.8601C276.91 31.0183 273.79 30.624 270.648 30.624V56.624C271.602 56.624 272.387 56.7417 273.047 56.9239L279.961 31.8601ZM270.648 30.624C265.042 30.624 259.345 31.7088 254.214 34.6408L267.114 57.2152C267.359 57.0752 268.319 56.624 270.648 56.624V30.624ZM254.304 34.5901C249.168 37.4711 245.358 41.7599 242.932 46.9585L266.493 57.9535C266.755 57.3921 266.912 57.3289 267.025 57.2659L254.304 34.5901ZM242.932 46.9585C240.566 52.0283 239.696 57.5839 239.696 63.112H265.696C265.696 60.1921 266.171 58.6437 266.493 57.9535L242.932 46.9585ZM239.696 63.112C239.696 68.6546 240.571 74.1904 242.886 79.2628L266.538 68.4652C266.166 67.6496 265.696 66.0174 265.696 63.112H239.696ZM242.932 79.3615C245.339 84.519 249.088 88.7749 254.097 91.7072L267.232 69.2688C266.993 69.1291 266.774 68.969 266.493 68.3665L242.932 79.3615ZM254.42 91.8903C259.505 94.6747 265.123 95.696 270.648 95.696V69.696C268.237 69.696 267.2 69.2453 266.908 69.0857L254.42 91.8903ZM270.648 95.696C273.303 95.696 275.957 95.3909 278.574 94.8675L273.475 69.3725C272.251 69.6171 271.322 69.696 270.648 69.696V95.696ZM278.978 94.7799C281.871 94.105 284.661 93.1042 287.34 91.8112L276.037 68.3968C275.003 68.8958 274.017 69.239 273.07 69.4601L278.978 94.7799ZM286.857 92.0322C287.1 91.927 285.722 92.5922 283.495 92.011L290.058 66.853C284.886 65.5038 280.116 66.617 276.519 68.1758L286.857 92.0322ZM283.623 92.0438C283.185 91.9342 282.571 91.712 281.898 91.2874C281.215 90.8557 280.625 90.3113 280.163 89.7172L300.686 73.7548C297.85 70.1085 294.031 67.8456 289.929 66.8201L283.623 92.0438ZM280.437 90.0584C280.18 89.7496 279.943 89.3791 279.756 88.9662C279.57 88.556 279.472 88.187 279.425 87.9052L305.071 83.6308C304.451 79.9092 302.907 76.4088 300.411 73.4136L280.437 90.0584ZM279.44 87.9954C279.329 87.3535 279.32 86.6768 279.42 86.0203C279.518 85.3747 279.7 84.8848 279.849 84.5751L303.304 95.7929C305.06 92.1202 305.818 87.9199 305.056 83.5406L279.44 87.9954ZM279.654 85.0006C279.979 84.2536 280.428 83.611 280.915 83.1104C281.385 82.6273 281.787 82.3812 281.957 82.2899L294.284 105.182C298.041 103.159 301.498 99.969 303.498 95.3674L279.654 85.0006ZM281.432 82.5886C280.655 83.0544 279.23 83.6865 276.845 84.2369L282.691 109.571C286.962 108.586 291.105 107.106 294.809 104.883L281.432 82.5886ZM276.791 84.2496C274.476 84.7943 272.211 85.056 269.976 85.056V111.056C274.27 111.056 278.533 110.55 282.746 109.558L276.791 84.2496ZM314.236 93.736L307.816 105.04L307.869 105.07L307.923 105.1L314.236 93.736ZM302.14 81.448L290.685 87.5946L290.714 87.6486L290.743 87.7023L302.14 81.448ZM300.316 48.808L288.197 44.1049L288.166 44.1839L288.136 44.2633L300.316 48.808ZM307.324 37.768L298.132 28.5756L298.083 28.624L298.035 28.6729L307.324 37.768ZM318.268 30.76L322.873 42.9171L322.953 42.8867L323.033 42.8553L318.268 30.76ZM350.236 32.584L343.863 43.9145L343.893 43.9313L343.923 43.948L350.236 32.584ZM362.332 44.776L350.935 51.0303L350.952 51.0599L350.968 51.0894L362.332 44.776ZM364.156 77.416L352.037 72.7129L352.006 72.7919L351.976 72.8713L364.156 77.416ZM357.148 88.552L347.861 79.4549L347.859 79.4569L357.148 88.552ZM346.3 95.656L350.905 107.813L350.985 107.783L351.065 107.751L346.3 95.656ZM340.924 80.872L333.646 70.1003L333.646 70.1003L340.924 80.872ZM346.396 73.96L334.434 68.8698L334.434 68.8698L346.396 73.96ZM344.092 48.328L333.941 56.449L333.941 56.449L344.092 48.328ZM323.644 45.448L330.718 56.3545L330.754 56.3316L330.789 56.3084L323.644 45.448ZM318.172 52.264L330.094 57.4474L330.114 57.4009L330.134 57.3542L318.172 52.264ZM320.476 77.992L310.254 86.0237L310.289 86.0685L310.325 86.113L320.476 77.992ZM332.284 85.056C327.3 85.056 323.521 84.023 320.549 82.372L307.923 105.1C315.319 109.209 323.572 111.056 332.284 111.056V85.056ZM320.656 82.4317C317.576 80.6826 315.263 78.339 313.537 75.1937L290.743 87.7023C294.777 95.053 300.528 100.901 307.816 105.04L320.656 82.4317ZM313.595 75.3014C311.954 72.2433 310.916 68.3113 310.916 63.112H284.916C284.916 71.8647 286.694 80.1567 290.685 87.5946L313.595 75.3014ZM310.916 63.112C310.916 59.1911 311.512 55.9904 312.496 53.3527L288.136 44.2633C285.92 50.2016 284.916 56.5369 284.916 63.112H310.916ZM312.435 53.5111C313.508 50.7475 314.92 48.5918 316.613 46.8631L298.035 28.6729C293.712 33.0882 290.452 38.2925 288.197 44.1049L312.435 53.5111ZM316.516 46.9604C318.235 45.2422 320.301 43.8914 322.873 42.9171L313.663 18.6029C307.787 20.8286 302.557 24.1498 298.132 28.5756L316.516 46.9604ZM323.033 42.8553C325.558 41.8606 328.588 41.264 332.284 41.264V15.264C325.74 15.264 319.426 16.3314 313.503 18.6647L323.033 42.8553ZM332.284 41.264C337.272 41.264 340.989 42.2983 343.863 43.9145L356.609 21.2535C349.243 17.1096 340.992 15.264 332.284 15.264V41.264ZM343.923 43.948C346.943 45.6261 349.222 47.9091 350.935 51.0303L373.729 38.5217C369.682 31.1469 363.897 25.3019 356.549 21.22L343.923 43.948ZM350.968 51.0894C352.591 54.01 353.652 57.8674 353.652 63.112H379.652C379.652 54.2766 377.833 45.91 373.696 38.4626L350.968 51.0894ZM353.652 63.112C353.652 66.9759 353.043 70.1206 352.037 72.7129L376.275 82.1191C378.597 76.1354 379.652 69.7441 379.652 63.112H353.652ZM351.976 72.8713C350.984 75.5304 349.607 77.6727 347.861 79.4549L366.435 97.6491C370.833 93.1593 374.128 87.8776 376.336 81.9607L351.976 72.8713ZM347.859 79.4569C346.202 81.1491 344.154 82.529 341.535 83.5607L351.065 107.751C356.894 105.455 362.078 102.099 366.437 97.6471L347.859 79.4569ZM341.695 83.4989C339.125 84.4723 336.039 85.056 332.284 85.056V111.056C338.769 111.056 345.027 110.04 350.905 107.813L341.695 83.4989ZM332.284 96.272C337.776 96.272 343.309 94.9501 348.202 91.6437L333.646 70.1003C333.678 70.0788 333.659 70.1046 333.509 70.1463C333.342 70.1925 332.959 70.272 332.284 70.272V96.272ZM348.202 91.6437C352.933 88.4471 356.242 84.0233 358.358 79.0502L334.434 68.8698C333.99 69.9127 333.651 70.0969 333.646 70.1003L348.202 91.6437ZM358.358 79.0502C360.491 74.0366 361.316 68.5964 361.316 63.112H335.316C335.316 66.0756 334.861 67.8674 334.434 68.8698L358.358 79.0502ZM361.316 63.112C361.316 54.9998 359.524 46.8075 354.243 40.207L333.941 56.449C334.292 56.8885 335.316 58.5522 335.316 63.112H361.316ZM354.243 40.207C348.639 33.2015 340.744 30.048 332.284 30.048V56.048C333.296 56.048 333.686 56.2199 333.721 56.2356C333.748 56.2475 333.754 56.2525 333.762 56.2586C333.772 56.2663 333.834 56.3156 333.941 56.449L354.243 40.207ZM332.284 30.048C326.791 30.048 321.345 31.3995 316.499 34.5876L330.789 56.3084C330.807 56.2965 331.121 56.048 332.284 56.048V30.048ZM316.57 34.5415C311.702 37.6991 308.339 42.1707 306.21 47.1738L330.134 57.3542C330.364 56.8137 330.555 56.5456 330.637 56.4424C330.68 56.3896 330.705 56.3661 330.711 56.3605C330.717 56.3553 330.718 56.355 330.718 56.3545L316.57 34.5415ZM306.25 47.0806C304.063 52.1104 303.252 57.6076 303.252 63.112H329.252C329.252 60.0404 329.721 58.3056 330.094 57.4474L306.25 47.0806ZM303.252 63.112C303.252 71.2429 305.052 79.4027 310.254 86.0237L330.698 69.9603C330.268 69.4133 329.252 67.6531 329.252 63.112H303.252ZM310.325 86.113C315.929 93.1185 323.824 96.272 332.284 96.272V70.272C331.272 70.272 330.882 70.1001 330.847 70.0844C330.82 70.0725 330.814 70.0675 330.806 70.0614C330.796 70.0537 330.734 70.0044 330.627 69.871L310.325 86.113ZM379.29 95.752L369.886 104.728L369.99 104.838L370.097 104.944L379.29 95.752ZM379.482 30.568L388.247 40.1683L388.358 40.0666L388.467 39.9623L379.482 30.568ZM391.002 29.8L383.546 40.45L383.847 40.6604L384.159 40.8534L391.002 29.8ZM394.65 34.024L383.251 40.2748L383.272 40.3124L383.292 40.3498L394.65 34.024ZM415.29 71.08V84.08H437.411L426.647 64.7542L415.29 71.08ZM411.93 71.08L400.56 64.7766L389.858 84.08H411.93V71.08ZM432.474 34.024L421.231 27.4962L421.166 27.6078L421.104 27.7206L432.474 34.024ZM436.122 29.8L443.206 40.6998L443.27 40.6586L443.333 40.6167L436.122 29.8ZM447.354 30.568L437.95 39.5442L438.159 39.7629L438.377 39.9716L447.354 30.568ZM447.45 95.752L456.853 104.728L456.853 104.728L447.45 95.752ZM435.546 95.752L426.142 104.728L426.246 104.838L426.353 104.944L435.546 95.752ZM433.53 56.776V43.776H420.53V56.776H433.53ZM435.546 56.776L446.815 63.2561L458.016 43.776H435.546V56.776ZM420.09 83.656L431.057 90.6354L431.214 90.3891L431.359 90.1361L420.09 83.656ZM417.21 86.824L409.845 76.1115L409.681 76.2236L409.522 76.3407L417.21 86.824ZM406.554 83.656L395.291 90.1489L395.326 90.2094L395.361 90.2695L406.554 83.656ZM391.002 56.68V43.68H368.501L379.739 63.1729L391.002 56.68ZM393.21 56.68H406.21V43.68H393.21V56.68ZM391.194 95.752L381.79 86.7758L381.79 86.7758L391.194 95.752ZM385.242 84.864C385.133 84.864 385.512 84.8472 386.181 85.0844C386.905 85.3412 387.741 85.8183 388.482 86.5596L370.097 104.944C374.586 109.433 380.264 110.864 385.242 110.864V84.864ZM388.693 86.7758C389.427 87.5449 389.866 88.3737 390.09 89.0375C390.298 89.6492 390.273 89.9654 390.273 89.8H364.273C364.273 94.617 365.579 100.216 369.886 104.728L388.693 86.7758ZM390.273 89.8V36.52H364.273V89.8H390.273ZM390.273 36.52C390.273 36.3946 390.294 36.83 390.014 37.5855C389.707 38.4119 389.134 39.3583 388.247 40.1683L370.716 20.9677C365.762 25.4906 364.273 31.4602 364.273 36.52H390.273ZM388.467 39.9623C387.725 40.6723 386.931 41.0889 386.313 41.2978C385.749 41.4889 385.489 41.456 385.722 41.456V15.456C380.788 15.456 375.081 16.788 370.496 21.1737L388.467 39.9623ZM385.722 41.456C386.001 41.456 385.893 41.4865 385.515 41.3903C385.116 41.2887 384.384 41.0362 383.546 40.45L398.457 19.15C394.231 16.192 389.519 15.456 385.722 15.456V41.456ZM384.159 40.8534C383.53 40.4641 383.189 40.1004 383.083 39.9771C382.981 39.8597 383.056 39.9189 383.251 40.2748L406.048 27.7732C404.319 24.6205 401.744 21.1607 397.844 18.7466L384.159 40.8534ZM383.292 40.3498L403.932 77.4058L426.647 64.7542L406.007 27.6982L383.292 40.3498ZM415.29 58.08H411.93V84.08H415.29V58.08ZM423.299 77.3834L443.843 40.3274L421.104 27.7206L400.56 64.7766L423.299 77.3834ZM443.716 40.5518C443.842 40.3351 443.941 40.1832 444.009 40.0855C444.077 39.9874 444.106 39.9567 444.088 39.9771C444.064 40.0051 443.788 40.3216 443.206 40.6998L429.037 18.9002C425.404 21.2616 422.936 24.5608 421.231 27.4962L443.716 40.5518ZM443.333 40.6167C441.863 41.5967 440.865 41.456 441.498 41.456V15.456C437.65 15.456 433.069 16.2113 428.91 18.9833L443.333 40.6167ZM441.498 41.456C441.612 41.456 441.196 41.4746 440.471 41.213C439.681 40.9282 438.759 40.3919 437.95 39.5442L456.757 21.5918C452.255 16.8748 446.439 15.456 441.498 15.456V41.456ZM438.377 39.9716C437.491 39.1254 436.958 38.1782 436.686 37.4113C436.438 36.7116 436.466 36.3388 436.466 36.52H462.466C462.466 31.6252 461.107 25.7245 456.33 21.1644L438.377 39.9716ZM436.466 36.52V89.8H462.466V36.52H436.466ZM436.466 89.8C436.466 89.9654 436.441 89.6492 436.649 89.0375C436.873 88.3737 437.312 87.5449 438.046 86.7758L456.853 104.728C461.16 100.216 462.466 94.617 462.466 89.8H436.466ZM438.046 86.7758C438.892 85.8893 439.839 85.3566 440.606 85.0844C441.306 84.8362 441.679 84.864 441.498 84.864V110.864C446.392 110.864 452.293 109.505 456.853 104.728L438.046 86.7758ZM441.498 84.864C441.389 84.864 441.768 84.8472 442.437 85.0844C443.161 85.3412 443.997 85.8183 444.738 86.5596L426.353 104.944C430.842 109.433 436.52 110.864 441.498 110.864V84.864ZM444.949 86.7758C445.683 87.5448 446.122 88.3737 446.346 89.0375C446.554 89.6492 446.53 89.9654 446.53 89.8H420.53C420.53 94.617 421.835 100.216 426.142 104.728L444.949 86.7758ZM446.53 89.8V56.776H420.53V89.8H446.53ZM433.53 69.776H435.546V43.776H433.53V69.776ZM424.276 50.2959L408.82 77.1759L431.359 90.1361L446.815 63.2561L424.276 50.2959ZM409.122 76.6766C409.007 76.8569 408.984 76.863 409.078 76.7593C409.174 76.6537 409.421 76.4028 409.845 76.1115L424.574 97.5365C427.441 95.5661 429.527 93.0399 431.057 90.6354L409.122 76.6766ZM409.522 76.3407C411.523 74.8732 413.243 74.88 413.274 74.88V100.88C416.632 100.88 420.976 100.183 424.897 97.3073L409.522 76.3407ZM413.274 74.88C413.551 74.88 415.012 74.9496 416.702 76.1115L401.973 97.5365C405.711 100.106 409.796 100.88 413.274 100.88V74.88ZM416.702 76.1115C417.648 76.7615 417.906 77.3139 417.746 77.0425L395.361 90.2695C396.865 92.8141 398.979 95.4785 401.973 97.5365L416.702 76.1115ZM417.816 77.1631L402.264 50.1871L379.739 63.1729L395.291 90.1489L417.816 77.1631ZM391.002 69.68H393.21V43.68H391.002V69.68ZM380.21 56.68V89.8H406.21V56.68H380.21ZM380.21 89.8C380.21 89.9654 380.185 89.6492 380.393 89.0375C380.617 88.3737 381.056 87.5449 381.79 86.7758L400.597 104.728C404.904 100.216 406.21 94.617 406.21 89.8H380.21ZM381.79 86.7758C382.636 85.8893 383.583 85.3566 384.35 85.0844C385.05 84.8362 385.423 84.864 385.242 84.864V110.864C390.136 110.864 396.037 109.505 400.597 104.728L381.79 86.7758ZM464.229 94.696L454.851 103.699L455.035 103.89L455.226 104.074L464.229 94.696ZM464.229 31.72L473.422 40.9124L473.422 40.9124L464.229 31.72ZM508.869 41.224L518.062 50.4164L518.186 50.2922L518.307 50.1647L508.869 41.224ZM478.821 42.952V29.952H465.821V42.952H478.821ZM478.821 55.816H465.821V68.816H478.821V55.816ZM506.661 57.544L497.469 66.7364L497.593 66.8606L497.721 66.9814L506.661 57.544ZM506.661 67.72L497.721 58.2826L497.593 58.4034L497.469 58.5276L506.661 67.72ZM478.821 69.448V56.448H465.821V69.448H478.821ZM478.821 83.368H465.821V96.368H478.821V83.368ZM508.869 85.192L499.432 94.1327L499.553 94.2602L499.677 94.3844L508.869 85.192ZM471.141 84C470.715 84 470.822 83.9424 471.268 84.0911C471.77 84.2583 472.513 84.6275 473.232 85.318L455.226 104.074C460.004 108.66 465.997 110 471.141 110V84ZM473.607 85.6931C474.267 86.3805 474.64 87.105 474.817 87.629C474.976 88.0994 474.925 88.2464 474.925 87.88H448.925C448.925 93.0503 450.311 98.97 454.851 103.699L473.607 85.6931ZM474.925 87.88V38.44H448.925V87.88H474.925ZM474.925 38.44C474.925 38.0678 474.977 38.2471 474.799 38.7682C474.599 39.3502 474.177 40.157 473.422 40.9124L455.037 22.5276C450.298 27.2666 448.925 33.3063 448.925 38.44H474.925ZM473.422 40.9124C472.727 41.6069 471.977 42.0078 471.421 42.2008C470.925 42.3732 470.763 42.32 471.141 42.32V16.32C465.86 16.32 459.796 17.7688 455.037 22.5276L473.422 40.9124ZM471.141 42.32H503.685V16.32H471.141V42.32ZM503.685 42.32C503.985 42.32 501.823 42.3862 499.677 40.2404L518.062 21.8556C513.612 17.4058 507.993 16.32 503.685 16.32V42.32ZM499.677 40.2404C498.751 39.3148 498.183 38.2868 497.88 37.4124C497.598 36.5977 497.597 36.0713 497.597 36.04H523.597C523.597 31.611 522.383 26.1773 518.062 21.8556L499.677 40.2404ZM497.597 36.04C497.597 36.1021 497.613 34.2036 499.432 32.2833L518.307 50.1647C522.43 45.8124 523.597 40.4579 523.597 36.04H497.597ZM499.677 32.0316C501.823 29.8858 503.985 29.952 503.685 29.952V55.952C507.993 55.952 513.612 54.8662 518.062 50.4164L499.677 32.0316ZM503.685 29.952H478.821V55.952H503.685V29.952ZM465.821 42.952V55.816H491.821V42.952H465.821ZM478.821 68.816H501.573V42.816H478.821V68.816ZM501.573 68.816C501.686 68.816 499.552 68.8198 497.469 66.7364L515.854 48.3516C511.466 43.9642 505.94 42.816 501.573 42.816V68.816ZM497.721 66.9814C496.739 66.0511 496.122 64.9893 495.792 64.067C495.485 63.2122 495.485 62.6577 495.485 62.632H521.485C521.485 58.0755 520.197 52.4596 515.602 48.1066L497.721 66.9814ZM495.485 62.632C495.485 62.6063 495.485 62.0518 495.792 61.197C496.122 60.2747 496.739 59.2129 497.721 58.2826L515.602 77.1574C520.197 72.8044 521.485 67.1885 521.485 62.632H495.485ZM497.469 58.5276C499.552 56.4442 501.686 56.448 501.573 56.448V82.448C505.94 82.448 511.466 81.2998 515.854 76.9124L497.469 58.5276ZM501.573 56.448H478.821V82.448H501.573V56.448ZM465.821 69.448V83.368H491.821V69.448H465.821ZM478.821 96.368H503.685V70.368H478.821V96.368ZM503.685 96.368C503.73 96.368 503.222 96.3781 502.394 96.0871C501.497 95.7713 500.405 95.1598 499.432 94.1327L518.307 76.2513C513.889 71.5881 508.178 70.368 503.685 70.368V96.368ZM499.677 94.3844C498.751 93.4588 498.183 92.4308 497.88 91.5564C497.598 90.7417 497.597 90.2153 497.597 90.184H523.597C523.597 85.755 522.383 80.3213 518.062 75.9996L499.677 94.3844ZM497.597 90.184C497.597 90.2969 497.593 88.163 499.677 86.0796L518.062 104.464C522.449 100.077 523.597 94.5511 523.597 90.184H497.597ZM499.677 86.0796C501.823 83.9338 503.985 84 503.685 84V110C507.993 110 513.612 108.914 518.062 104.464L499.677 86.0796ZM503.685 84H471.141V110H503.685V84ZM551.243 73.192L541.495 81.7931L541.633 81.9497L541.776 82.1017L551.243 73.192ZM549.419 68.68L536.505 70.1766L536.518 70.2875L536.533 70.3981L549.419 68.68ZM546.059 39.688L558.972 38.1914L558.959 38.0724L558.943 37.9536L546.059 39.688ZM547.883 31.624L557.972 39.8217L558.034 39.746L558.094 39.6693L547.883 31.624ZM562.667 31.624L552.305 39.4741L552.363 39.5512L552.422 39.6274L562.667 31.624ZM564.395 39.688L551.511 37.9536L551.492 38.0934L551.476 38.2336L564.395 39.688ZM561.131 68.68L574.017 70.3981L574.034 70.2664L574.049 70.1344L561.131 68.68ZM548.363 94.984L538.999 104.001L539.084 104.09L539.17 104.176L548.363 94.984ZM548.363 81.544L539.17 72.3516L539.17 72.3516L548.363 81.544ZM562.187 81.544L552.648 90.3763L552.818 90.5597L552.994 90.7364L562.187 81.544ZM562.187 94.984L552.823 85.9667L552.734 86.0583L552.648 86.1517L562.187 94.984ZM555.275 61.824C555.87 61.824 556.807 61.9248 557.896 62.3657C559.016 62.819 559.976 63.5034 560.709 64.2823L541.776 82.1017C545.549 86.1109 550.477 87.824 555.275 87.824V61.824ZM560.991 64.5909C562.221 65.9851 562.332 67.166 562.305 66.9619L536.533 70.3981C537.018 74.034 538.345 78.2229 541.495 81.7931L560.991 64.5909ZM562.332 67.1834L558.972 38.1914L533.145 41.1846L536.505 70.1766L562.332 67.1834ZM558.943 37.9536C558.881 37.499 558.961 37.5887 558.858 38.044C558.741 38.5631 558.459 39.2228 557.972 39.8217L537.793 23.4263C533.288 28.9712 532.387 35.5671 533.175 41.4224L558.943 37.9536ZM558.094 39.6693C557.586 40.314 556.87 40.8667 556.1 41.1969C555.402 41.4959 555.03 41.456 555.275 41.456V15.456C548.974 15.456 542.332 17.6634 537.671 23.5787L558.094 39.6693ZM555.275 41.456C555.59 41.456 555.224 41.5082 554.498 41.1969C553.682 40.8474 552.883 40.2379 552.305 39.4741L573.029 23.7738C568.351 17.5984 561.521 15.456 555.275 15.456V41.456ZM552.422 39.6274C551.941 39.0117 551.687 38.3659 551.587 37.8999C551.501 37.495 551.578 37.4566 551.511 37.9536L577.279 41.4224C578.051 35.6877 577.247 29.1703 572.911 23.6206L552.422 39.6274ZM551.476 38.2336L548.212 67.2256L574.049 70.1344L577.313 41.1424L551.476 38.2336ZM548.245 66.9619C548.218 67.166 548.329 65.9851 549.559 64.5909L569.055 81.7931C572.205 78.2229 573.532 74.034 574.017 70.3981L548.245 66.9619ZM549.559 64.5909C550.412 63.6242 551.503 62.8508 552.701 62.3657C553.846 61.9025 554.781 61.824 555.275 61.824V87.824C559.953 87.824 565.154 86.2138 569.055 81.7931L549.559 64.5909ZM555.275 84.576C555.133 84.576 555.418 84.5558 555.951 84.7557C556.525 84.9707 557.098 85.334 557.555 85.7916L539.17 104.176C543.768 108.774 549.609 110.576 555.275 110.576V84.576ZM557.727 85.9667C558.159 86.4158 558.498 86.968 558.698 87.5137C558.885 88.0234 558.867 88.2963 558.867 88.168H532.867C532.867 93.7205 534.601 99.4344 538.999 104.001L557.727 85.9667ZM558.867 88.168C558.867 88.102 558.875 88.449 558.656 89.0319C558.422 89.6532 558.034 90.2575 557.555 90.7364L539.17 72.3516C534.656 76.8658 532.867 82.5985 532.867 88.168H558.867ZM557.555 90.7364C557.098 91.194 556.525 91.5573 555.951 91.7723C555.418 91.9722 555.133 91.952 555.275 91.952V65.952C549.609 65.952 543.768 67.754 539.17 72.3516L557.555 90.7364ZM555.275 91.952C555.556 91.952 555.286 91.9943 554.694 91.7723C554.038 91.5263 553.285 91.0649 552.648 90.3763L571.726 72.7117C567.024 67.634 560.838 65.952 555.275 65.952V91.952ZM552.994 90.7364C552.515 90.2575 552.128 89.6532 551.894 89.0319C551.674 88.449 551.683 88.102 551.683 88.168H577.683C577.683 82.5985 575.893 76.8658 571.379 72.3516L552.994 90.7364ZM551.683 88.168C551.683 88.2963 551.665 88.0234 551.852 87.5137C552.051 86.968 552.39 86.4158 552.823 85.9667L571.551 104.001C575.949 99.4344 577.683 93.7205 577.683 88.168H551.683ZM552.648 86.1517C553.285 85.4631 554.038 85.0017 554.694 84.7557C555.286 84.5337 555.556 84.576 555.275 84.576V110.576C560.838 110.576 567.024 108.894 571.726 103.816L552.648 86.1517Z" fill="#F9EEEE" mask="url(#path-1-outside-1_113_9)"/>
<mask id="path-3-outside-2_113_9" maskUnits="userSpaceOnUse" x="8" y="23" width="562" height="81" fill="black">
<rect fill="white" x="8" y="23" width="562" height="81"/>
<path d="M42.448 97.864C40.08 97.864 38.16 97.32 36.688 96.232C35.216 95.08 34.064 93.32 33.232 90.952L14.512 38.824C13.488 35.944 13.648 33.512 14.992 31.528C16.4 29.48 18.864 28.456 22.384 28.456C24.752 28.456 26.608 29.032 27.952 30.184C29.296 31.272 30.352 33 31.12 35.368L45.424 78.28H40.912L56.272 35.368C57.168 33 58.288 31.272 59.632 30.184C60.976 29.032 62.704 28.456 64.816 28.456C66.928 28.456 68.624 29.032 69.904 30.184C71.184 31.272 72.24 33.032 73.072 35.464L87.472 78.28H83.632L98.32 35.368C99.088 33 100.112 31.272 101.392 30.184C102.736 29.032 104.592 28.456 106.96 28.456C109.904 28.456 112.048 29.48 113.392 31.528C114.8 33.512 114.96 35.944 113.872 38.824L94.96 91.048C94.128 93.352 92.976 95.08 91.504 96.232C90.096 97.32 88.208 97.864 85.84 97.864C83.408 97.864 81.456 97.32 79.984 96.232C78.576 95.08 77.456 93.32 76.624 90.952L63.088 52.936H65.488L51.664 91.048C50.768 93.352 49.616 95.08 48.208 96.232C46.8 97.32 44.88 97.864 42.448 97.864ZM133.641 97C130.633 97 128.329 96.232 126.729 94.696C125.193 93.096 124.425 90.824 124.425 87.88V38.44C124.425 35.496 125.193 33.256 126.729 31.72C128.329 30.12 130.633 29.32 133.641 29.32H166.185C168.489 29.32 170.217 29.896 171.369 31.048C172.521 32.2 173.097 33.864 173.097 36.04C173.097 38.28 172.521 40.008 171.369 41.224C170.217 42.376 168.489 42.952 166.185 42.952H141.321V55.816H164.073C166.313 55.816 168.009 56.392 169.161 57.544C170.377 58.696 170.985 60.392 170.985 62.632C170.985 64.872 170.377 66.568 169.161 67.72C168.009 68.872 166.313 69.448 164.073 69.448H141.321V83.368H166.185C168.489 83.368 170.217 83.976 171.369 85.192C172.521 86.344 173.097 88.008 173.097 90.184C173.097 92.424 172.521 94.12 171.369 95.272C170.217 96.424 168.489 97 166.185 97H133.641ZM192.322 97C189.506 97 187.298 96.232 185.698 94.696C184.162 93.096 183.394 90.888 183.394 88.072V38.152C183.394 35.272 184.162 33.064 185.698 31.528C187.234 29.992 189.41 29.224 192.226 29.224C195.106 29.224 197.282 29.992 198.754 31.528C200.29 33.064 201.058 35.272 201.058 38.152V82.312H224.482C226.914 82.312 228.77 82.952 230.05 84.232C231.394 85.448 232.066 87.24 232.066 89.608C232.066 91.976 231.394 93.8 230.05 95.08C228.77 96.36 226.914 97 224.482 97H192.322ZM269.976 98.056C262.488 98.056 256.056 96.616 250.68 93.736C245.304 90.856 241.176 86.792 238.296 81.544C235.48 76.296 234.072 70.152 234.072 63.112C234.072 57.864 234.872 53.096 236.472 48.808C238.136 44.52 240.504 40.84 243.576 37.768C246.712 34.696 250.488 32.36 254.904 30.76C259.384 29.096 264.408 28.264 269.976 28.264C272.92 28.264 275.96 28.616 279.096 29.32C282.296 29.96 285.112 30.952 287.544 32.296C289.336 33.256 290.584 34.472 291.288 35.944C291.992 37.416 292.216 38.92 291.96 40.456C291.768 41.992 291.224 43.368 290.328 44.584C289.432 45.8 288.28 46.632 286.872 47.08C285.464 47.464 283.928 47.24 282.264 46.408C280.344 45.512 278.424 44.84 276.504 44.392C274.648 43.88 272.696 43.624 270.648 43.624C266.68 43.624 263.352 44.392 260.664 45.928C258.04 47.4 256.056 49.576 254.712 52.456C253.368 55.336 252.696 58.888 252.696 63.112C252.696 67.336 253.368 70.92 254.712 73.864C256.056 76.744 258.04 78.952 260.664 80.488C263.352 81.96 266.68 82.696 270.648 82.696C272.312 82.696 274.104 82.504 276.024 82.12C277.944 81.672 279.832 81 281.688 80.104C283.608 79.272 285.304 79.048 286.776 79.432C288.312 79.816 289.528 80.584 290.424 81.736C291.384 82.888 291.992 84.232 292.248 85.768C292.504 87.24 292.28 88.712 291.576 90.184C290.936 91.656 289.784 92.84 288.12 93.736C285.88 95.08 283.096 96.136 279.768 96.904C276.504 97.672 273.24 98.056 269.976 98.056ZM332.284 98.056C325.436 98.056 319.42 96.616 314.236 93.736C309.052 90.792 305.02 86.696 302.14 81.448C299.324 76.2 297.916 70.088 297.916 63.112C297.916 57.864 298.716 53.096 300.316 48.808C301.98 44.52 304.316 40.84 307.324 37.768C310.396 34.696 314.044 32.36 318.268 30.76C322.492 29.096 327.164 28.264 332.284 28.264C339.132 28.264 345.116 29.704 350.236 32.584C355.42 35.464 359.452 39.528 362.332 44.776C365.212 49.96 366.652 56.072 366.652 63.112C366.652 68.36 365.82 73.128 364.156 77.416C362.556 81.704 360.22 85.416 357.148 88.552C354.14 91.624 350.524 93.992 346.3 95.656C342.076 97.256 337.404 98.056 332.284 98.056ZM332.284 83.272C335.676 83.272 338.556 82.472 340.924 80.872C343.292 79.272 345.116 76.968 346.396 73.96C347.676 70.952 348.316 67.336 348.316 63.112C348.316 56.776 346.908 51.848 344.092 48.328C341.276 44.808 337.34 43.048 332.284 43.048C328.956 43.048 326.076 43.848 323.644 45.448C321.276 46.984 319.452 49.256 318.172 52.264C316.892 55.208 316.252 58.824 316.252 63.112C316.252 69.448 317.66 74.408 320.476 77.992C323.292 81.512 327.228 83.272 332.284 83.272ZM385.242 97.864C382.682 97.864 380.698 97.16 379.29 95.752C377.946 94.344 377.273 92.36 377.273 89.8V36.52C377.273 33.896 378.01 31.912 379.482 30.568C380.954 29.16 383.034 28.456 385.722 28.456C387.962 28.456 389.722 28.904 391.002 29.8C392.346 30.632 393.562 32.04 394.65 34.024L415.29 71.08H411.93L432.474 34.024C433.626 32.04 434.842 30.632 436.122 29.8C437.466 28.904 439.258 28.456 441.498 28.456C444.058 28.456 446.01 29.16 447.354 30.568C448.762 31.912 449.466 33.896 449.466 36.52V89.8C449.466 92.36 448.794 94.344 447.45 95.752C446.106 97.16 444.122 97.864 441.498 97.864C438.938 97.864 436.954 97.16 435.546 95.752C434.202 94.344 433.53 92.36 433.53 89.8V56.776H435.546L420.09 83.656C419.194 85.064 418.234 86.12 417.21 86.824C416.25 87.528 414.938 87.88 413.274 87.88C411.674 87.88 410.362 87.528 409.338 86.824C408.314 86.12 407.386 85.064 406.554 83.656L391.002 56.68H393.21V89.8C393.21 92.36 392.538 94.344 391.194 95.752C389.85 97.16 387.866 97.864 385.242 97.864ZM471.141 97C468.133 97 465.829 96.232 464.229 94.696C462.693 93.096 461.925 90.824 461.925 87.88V38.44C461.925 35.496 462.693 33.256 464.229 31.72C465.829 30.12 468.133 29.32 471.141 29.32H503.685C505.989 29.32 507.717 29.896 508.869 31.048C510.021 32.2 510.597 33.864 510.597 36.04C510.597 38.28 510.021 40.008 508.869 41.224C507.717 42.376 505.989 42.952 503.685 42.952H478.821V55.816H501.573C503.813 55.816 505.509 56.392 506.661 57.544C507.877 58.696 508.485 60.392 508.485 62.632C508.485 64.872 507.877 66.568 506.661 67.72C505.509 68.872 503.813 69.448 501.573 69.448H478.821V83.368H503.685C505.989 83.368 507.717 83.976 508.869 85.192C510.021 86.344 510.597 88.008 510.597 90.184C510.597 92.424 510.021 94.12 508.869 95.272C507.717 96.424 505.989 97 503.685 97H471.141ZM555.275 74.824C553.611 74.824 552.267 74.28 551.243 73.192C550.283 72.104 549.675 70.6 549.419 68.68L546.059 39.688C545.611 36.36 546.219 33.672 547.883 31.624C549.547 29.512 552.011 28.456 555.275 28.456C558.603 28.456 561.067 29.512 562.667 31.624C564.267 33.672 564.843 36.36 564.395 39.688L561.131 68.68C560.875 70.6 560.267 72.104 559.307 73.192C558.347 74.28 557.003 74.824 555.275 74.824ZM555.275 97.576C552.395 97.576 550.091 96.712 548.363 94.984C546.699 93.256 545.867 90.984 545.867 88.168C545.867 85.416 546.699 83.208 548.363 81.544C550.091 79.816 552.395 78.952 555.275 78.952C558.283 78.952 560.587 79.816 562.187 81.544C563.851 83.208 564.683 85.416 564.683 88.168C564.683 90.984 563.851 93.256 562.187 94.984C560.587 96.712 558.283 97.576 555.275 97.576Z"/>
</mask>
<path d="M36.688 96.232L33.6065 100.17L33.716 100.253L36.688 96.232ZM33.232 90.952L37.9493 89.2946L37.9378 89.2621L33.232 90.952ZM14.512 38.824L9.80093 40.499L9.80624 40.5139L14.512 38.824ZM14.992 31.528L10.8718 28.6954L10.8524 28.7238L14.992 31.528ZM27.952 30.184L24.698 33.9803L24.806 34.0702L27.952 30.184ZM31.12 35.368L26.3639 36.9105L26.3766 36.9491L31.12 35.368ZM45.424 78.28V83.28L50.1674 76.6989L45.424 78.28ZM40.912 78.28L36.2045 76.595L40.912 83.28V78.28ZM56.272 35.368L51.5956 33.5985L51.5645 33.683L56.272 35.368ZM59.632 30.184L62.778 34.0702L62.886 33.9803L59.632 30.184ZM69.904 30.184L66.5592 33.9005L66.6658 33.9937L69.904 30.184ZM73.072 35.464L77.8111 33.8701L77.8028 33.8456L73.072 35.464ZM87.472 78.28V83.28L92.2112 76.6861L87.472 78.28ZM83.632 78.28L78.9014 76.6608L83.632 83.28V78.28ZM98.32 35.368L103.051 36.9872L103.076 36.9105L98.32 35.368ZM101.392 30.184L104.63 33.9937L104.646 33.9803L101.392 30.184ZM113.392 31.528L109.212 34.2713L109.314 34.4217L113.392 31.528ZM113.872 38.824L109.195 37.057L109.171 37.1215L113.872 38.824ZM94.96 91.048L90.2588 89.3455L90.2572 89.3498L94.96 91.048ZM91.504 96.232L94.5612 100.188L94.5855 100.17L91.504 96.232ZM79.984 96.232L76.8178 100.102L77.012 100.253L79.984 96.232ZM76.624 90.952L81.3413 89.2946L81.3343 89.2748L76.624 90.952ZM63.088 52.936V47.936L58.3777 54.6132L63.088 52.936ZM65.488 52.936L70.1883 54.6409L65.488 47.936V52.936ZM51.664 91.048L56.324 92.8602L56.3643 92.7529L51.664 91.048ZM48.208 96.232L51.2652 100.188L51.3742 100.102L48.208 96.232ZM42.448 92.864C40.8351 92.864 40.0489 92.4986 39.66 92.2111L33.716 100.253C36.2711 102.141 39.3249 102.864 42.448 102.864V92.864ZM39.7695 92.2945C39.2659 91.9003 38.5705 91.0625 37.9493 89.2946L28.5147 92.6094C29.5575 95.5775 31.1661 98.2597 33.6065 100.17L39.7695 92.2945ZM37.9378 89.2621L19.2178 37.1341L9.80624 40.5139L28.5262 92.6419L37.9378 89.2621ZM19.2231 37.149C18.5697 35.3113 18.9207 34.6436 19.1316 34.3322L10.8524 28.7238C8.37533 32.3804 8.40632 36.5767 9.80093 40.499L19.2231 37.149ZM19.1122 34.3606C19.2353 34.1815 19.7721 33.456 22.384 33.456V23.456C17.9559 23.456 13.5647 24.7785 10.8718 28.6954L19.1122 34.3606ZM22.384 33.456C23.9652 33.456 24.5275 33.8341 24.698 33.9803L31.206 26.3877C28.6885 24.2299 25.5388 23.456 22.384 23.456V33.456ZM24.806 34.0702C25.1353 34.3368 25.7697 35.0783 26.3639 36.9105L35.8761 33.8255C34.9344 30.9217 33.4567 28.2072 31.098 26.2978L24.806 34.0702ZM26.3766 36.9491L40.6806 79.8611L50.1674 76.6989L35.8634 33.7869L26.3766 36.9491ZM45.424 73.28H40.912V83.28H45.424V73.28ZM45.6195 79.965L60.9795 37.053L51.5645 33.683L36.2045 76.595L45.6195 79.965ZM60.9484 37.1375C61.667 35.2384 62.3702 34.4003 62.778 34.0702L56.486 26.2978C54.2058 28.1437 52.669 30.7616 51.5956 33.5985L60.9484 37.1375ZM62.886 33.9803C63.1558 33.749 63.656 33.456 64.816 33.456V23.456C61.7521 23.456 58.7962 24.315 56.378 26.3877L62.886 33.9803ZM64.816 33.456C65.9854 33.456 66.3938 33.7516 66.5592 33.9005L73.2488 26.4675C70.8542 24.3124 67.8706 23.456 64.816 23.456V33.456ZM66.6658 33.9937C66.9888 34.2683 67.6583 35.0862 68.3412 37.0824L77.8028 33.8456C76.8217 30.9778 75.3792 28.2757 73.1422 26.3743L66.6658 33.9937ZM68.3329 37.0579L82.7329 79.8739L92.2112 76.6861L77.8111 33.8701L68.3329 37.0579ZM87.472 73.28H83.632V83.28H87.472V73.28ZM88.3626 79.8992L103.051 36.9872L93.5894 33.7488L78.9014 76.6608L88.3626 79.8992ZM103.076 36.9105C103.687 35.0268 104.319 34.2585 104.63 33.9937L98.1538 26.3743C95.9053 28.2855 94.489 30.9732 93.5639 33.8255L103.076 36.9105ZM104.646 33.9803C104.817 33.8341 105.379 33.456 106.96 33.456V23.456C103.805 23.456 100.655 24.2299 98.138 26.3877L104.646 33.9803ZM106.96 33.456C108.611 33.456 108.988 33.9304 109.212 34.2713L117.572 28.7847C115.108 25.0296 111.197 23.456 106.96 23.456V33.456ZM109.314 34.4217C109.503 34.6877 109.87 35.268 109.195 37.057L118.549 40.591C120.05 36.62 120.097 32.3363 117.47 28.6343L109.314 34.4217ZM109.171 37.1215L90.2588 89.3455L99.6612 92.7505L118.573 40.5265L109.171 37.1215ZM90.2572 89.3498C89.6473 91.0388 88.9575 91.8758 88.4225 92.2945L94.5855 100.17C96.9945 98.2842 98.6087 95.6652 99.6628 92.7462L90.2572 89.3498ZM88.4468 92.2756C88.1649 92.4934 87.4666 92.864 85.84 92.864V102.864C88.9494 102.864 92.0271 102.147 94.5612 100.188L88.4468 92.2756ZM85.84 92.864C84.1289 92.864 83.3239 92.4831 82.956 92.2111L77.012 100.253C79.5881 102.157 82.6871 102.864 85.84 102.864V92.864ZM83.1502 92.3622C82.673 91.9718 81.9799 91.1122 81.3413 89.2946L71.9067 92.6094C72.9321 95.5278 74.479 98.1882 76.8178 100.102L83.1502 92.3622ZM81.3343 89.2748L67.7983 51.2588L58.3777 54.6132L71.9137 92.6292L81.3343 89.2748ZM63.088 57.936H65.488V47.936H63.088V57.936ZM60.7877 51.2311L46.9637 89.3431L56.3643 92.7529L70.1883 54.6409L60.7877 51.2311ZM47.004 89.2358C46.3129 91.0129 45.5859 91.9171 45.0418 92.3622L51.3742 100.102C53.6461 98.2429 55.2231 95.6911 56.324 92.8602L47.004 89.2358ZM45.1508 92.2756C44.8899 92.4771 44.1744 92.864 42.448 92.864V102.864C45.5856 102.864 48.7101 102.163 51.2652 100.188L45.1508 92.2756ZM126.729 94.696L123.122 98.1587L123.267 98.3029L126.729 94.696ZM126.729 31.72L130.265 35.2555L130.265 35.2555L126.729 31.72ZM171.369 41.224L174.905 44.7595L174.999 44.6627L171.369 41.224ZM141.321 42.952V37.952L136.321 42.952H141.321ZM141.321 55.816H136.321L141.321 60.816V55.816ZM169.161 57.544L165.626 61.0795L165.723 61.1738L169.161 57.544ZM169.161 67.72L165.723 64.0902L165.626 64.1845L169.161 67.72ZM141.321 69.448V64.448L136.321 69.448H141.321ZM141.321 83.368H136.321L141.321 88.368V83.368ZM171.369 85.192L167.739 88.6307L167.834 88.7275L171.369 85.192ZM133.641 92C131.455 92 130.57 91.4519 130.192 91.0891L123.267 98.3029C126.089 101.012 129.812 102 133.641 102V92ZM130.336 91.2333C129.955 90.8368 129.425 89.9677 129.425 87.88H119.425C119.425 91.6803 120.431 95.3552 123.122 98.1587L130.336 91.2333ZM129.425 87.88V38.44H119.425V87.88H129.425ZM129.425 38.44C129.425 36.3382 129.961 35.5596 130.265 35.2555L123.194 28.1845C120.426 30.9524 119.425 34.6538 119.425 38.44H129.425ZM130.265 35.2555C130.65 34.8705 131.508 34.32 133.641 34.32V24.32C129.759 24.32 126.009 25.3695 123.194 28.1845L130.265 35.2555ZM133.641 34.32H166.185V24.32H133.641V34.32ZM166.185 34.32C167.719 34.32 167.95 34.6999 167.834 34.5835L174.905 27.5125C172.484 25.0921 169.26 24.32 166.185 24.32V34.32ZM167.834 34.5835C167.841 34.5904 167.85 34.6006 167.864 34.6231C167.878 34.6468 167.907 34.6995 167.94 34.7956C168.009 34.9942 168.097 35.3825 168.097 36.04H178.097C178.097 32.9975 177.276 29.8836 174.905 27.5125L167.834 34.5835ZM168.097 36.04C168.097 37.4423 167.749 37.7755 167.739 37.7853L174.999 44.6627C177.294 42.2405 178.097 39.1176 178.097 36.04H168.097ZM167.834 37.6885C167.95 37.5721 167.719 37.952 166.185 37.952V47.952C169.26 47.952 172.484 47.1799 174.905 44.7595L167.834 37.6885ZM166.185 37.952H141.321V47.952H166.185V37.952ZM136.321 42.952V55.816H146.321V42.952H136.321ZM141.321 60.816H164.073V50.816H141.321V60.816ZM164.073 60.816C164.778 60.816 165.198 60.908 165.417 60.9824C165.523 61.0182 165.579 61.0489 165.602 61.0627C165.614 61.0699 165.62 61.0747 165.622 61.0765C165.625 61.0783 165.625 61.0792 165.626 61.0795L172.697 54.0085C170.3 51.6121 167.131 50.816 164.073 50.816V60.816ZM165.723 61.1738C165.73 61.1805 165.737 61.1885 165.749 61.2066C165.761 61.226 165.789 61.2743 165.823 61.3673C165.892 61.5604 165.985 61.9527 165.985 62.632H175.985C175.985 59.501 175.116 56.2974 172.6 53.9142L165.723 61.1738ZM165.985 62.632C165.985 63.3113 165.892 63.7036 165.823 63.8967C165.789 63.9897 165.761 64.038 165.749 64.0574C165.737 64.0755 165.73 64.0835 165.723 64.0902L172.6 71.3498C175.116 68.9666 175.985 65.763 175.985 62.632H165.985ZM165.626 64.1845C165.625 64.1848 165.625 64.1857 165.622 64.1875C165.62 64.1893 165.614 64.1941 165.602 64.2013C165.579 64.2151 165.523 64.2458 165.417 64.2816C165.198 64.356 164.778 64.448 164.073 64.448V74.448C167.131 74.448 170.3 73.6519 172.697 71.2555L165.626 64.1845ZM164.073 64.448H141.321V74.448H164.073V64.448ZM136.321 69.448V83.368H146.321V69.448H136.321ZM141.321 88.368H166.185V78.368H141.321V88.368ZM166.185 88.368C166.911 88.368 167.336 88.4654 167.55 88.5406C167.652 88.5765 167.704 88.6065 167.722 88.6181C167.732 88.6243 167.736 88.628 167.738 88.629C167.739 88.6299 167.739 88.6302 167.739 88.6307L174.999 81.7533C172.591 79.2114 169.331 78.368 166.185 78.368V88.368ZM167.834 88.7275C167.841 88.7344 167.85 88.7446 167.864 88.7671C167.878 88.7908 167.907 88.8435 167.94 88.9396C168.009 89.1382 168.097 89.5265 168.097 90.184H178.097C178.097 87.1415 177.276 84.0276 174.905 81.6565L167.834 88.7275ZM168.097 90.184C168.097 90.8883 168.005 91.309 167.931 91.5281C167.895 91.6335 167.864 91.6896 167.851 91.7124C167.843 91.7243 167.839 91.7306 167.837 91.733C167.835 91.7353 167.834 91.7361 167.834 91.7365L174.905 98.8075C177.301 96.4112 178.097 93.2421 178.097 90.184H168.097ZM167.834 91.7365C167.95 91.6201 167.719 92 166.185 92V102C169.26 102 172.484 101.228 174.905 98.8075L167.834 91.7365ZM166.185 92H133.641V102H166.185V92ZM185.698 94.696L182.091 98.1587L182.235 98.3029L185.698 94.696ZM185.698 31.528L189.234 35.0635L189.234 35.0635L185.698 31.528ZM198.754 31.528L195.144 34.9875L195.218 35.0635L198.754 31.528ZM201.058 82.312H196.058L201.058 87.312V82.312ZM230.05 84.232L226.514 87.7675L226.695 87.9397L230.05 84.232ZM230.05 95.08L226.602 91.4593L226.514 91.5445L230.05 95.08ZM192.322 92C190.433 92 189.597 91.5077 189.161 91.0891L182.235 98.3029C184.999 100.956 188.579 102 192.322 102V92ZM189.305 91.2333C188.886 90.7973 188.394 89.9607 188.394 88.072H178.394C178.394 91.8153 179.438 95.3947 182.091 98.1587L189.305 91.2333ZM188.394 88.072V38.152H178.394V88.072H188.394ZM188.394 38.152C188.394 36.1508 188.91 35.387 189.234 35.0635L182.162 27.9925C179.414 30.741 178.394 34.3932 178.394 38.152H188.394ZM189.234 35.0635C189.577 34.72 190.326 34.224 192.226 34.224V24.224C188.494 24.224 184.891 25.264 182.162 27.9925L189.234 35.0635ZM192.226 34.224C194.242 34.224 194.912 34.7454 195.144 34.9875L202.364 28.0685C199.652 25.2386 195.97 24.224 192.226 24.224V34.224ZM195.218 35.0635C195.542 35.387 196.058 36.1508 196.058 38.152H206.058C206.058 34.3932 205.038 30.741 202.29 27.9925L195.218 35.0635ZM196.058 38.152V82.312H206.058V38.152H196.058ZM201.058 87.312H224.482V77.312H201.058V87.312ZM224.482 87.312C226.057 87.312 226.459 87.7118 226.514 87.7675L233.586 80.6965C231.081 78.1922 227.771 77.312 224.482 77.312V87.312ZM226.695 87.9397C226.742 87.9822 226.808 88.0519 226.88 88.2436C226.963 88.4627 227.066 88.8864 227.066 89.608H237.066C237.066 86.285 236.094 82.9572 233.405 80.5243L226.695 87.9397ZM227.066 89.608C227.066 91.0067 226.699 91.3668 226.602 91.4593L233.498 98.7007C236.089 96.2332 237.066 92.9453 237.066 89.608H227.066ZM226.514 91.5445C226.459 91.6002 226.057 92 224.482 92V102C227.771 102 231.081 101.12 233.586 98.6155L226.514 91.5445ZM224.482 92H192.322V102H224.482V92ZM250.68 93.736L253.041 89.3286L253.041 89.3286L250.68 93.736ZM238.296 81.544L233.89 83.9081L233.913 83.9495L238.296 81.544ZM236.472 48.808L231.811 46.9991L231.788 47.06L236.472 48.808ZM243.576 37.768L240.077 34.1962L240.041 34.2325L243.576 37.768ZM254.904 30.76L256.607 35.4609L256.645 35.4471L254.904 30.76ZM279.096 29.32L278.001 34.1986L278.116 34.2229L279.096 29.32ZM287.544 32.296L285.126 36.6722L285.183 36.7034L287.544 32.296ZM291.288 35.944L286.778 38.1013L286.778 38.1013L291.288 35.944ZM291.96 40.456L287.028 39.634L286.999 39.8358L291.96 40.456ZM286.872 47.08L288.188 51.9038L288.388 51.8446L286.872 47.08ZM282.264 46.408L284.5 41.9359L284.379 41.8771L282.264 46.408ZM276.504 44.392L275.175 49.212L275.368 49.2612L276.504 44.392ZM260.664 45.928L263.111 50.2887L263.145 50.2692L260.664 45.928ZM254.712 73.864L250.164 75.9405L250.181 75.9784L254.712 73.864ZM260.664 80.488L258.138 84.8031L258.263 84.8735L260.664 80.488ZM276.024 82.12L277.005 87.0229L277.16 86.9892L276.024 82.12ZM281.688 80.104L279.7 75.5162L279.515 75.6012L281.688 80.104ZM286.776 79.432L285.514 84.2701L285.564 84.2827L286.776 79.432ZM290.424 81.736L286.477 84.8057L286.583 84.9369L290.424 81.736ZM292.248 85.768L287.316 86.59L287.322 86.6247L292.248 85.768ZM291.576 90.184L287.066 88.0267L286.991 88.1904L291.576 90.184ZM288.12 93.736L285.75 89.3336L285.548 89.4485L288.12 93.736ZM279.768 96.904L278.644 92.032L278.623 92.0369L279.768 96.904ZM269.976 93.056C263.127 93.056 257.544 91.7406 253.041 89.3286L248.319 98.1434C254.569 101.491 261.85 103.056 269.976 103.056V93.056ZM253.041 89.3286C248.502 86.8968 245.084 83.5207 242.68 79.1385L233.913 83.9495C237.268 90.0633 242.106 94.8152 248.319 98.1434L253.041 89.3286ZM242.702 79.1799C240.341 74.7805 239.072 69.4771 239.072 63.112H229.072C229.072 70.8269 230.619 77.8115 233.89 83.9081L242.702 79.1799ZM239.072 63.112C239.072 58.3744 239.794 54.2092 241.157 50.5559L231.788 47.06C229.951 51.9828 229.072 57.3536 229.072 63.112H239.072ZM241.134 50.6169C242.561 46.9377 244.559 43.8559 247.112 41.3035L240.041 34.2325C236.449 37.8241 233.711 42.1023 231.811 46.9991L241.134 50.6169ZM247.075 41.3398C249.665 38.8027 252.816 36.8346 256.607 35.4609L253.201 26.059C248.16 27.8853 243.759 30.5893 240.077 34.1962L247.075 41.3398ZM256.645 35.4471C260.484 34.0211 264.906 33.264 269.976 33.264V23.264C263.91 23.264 258.284 24.1709 253.163 26.0729L256.645 35.4471ZM269.976 33.264C272.52 33.264 275.192 33.568 278.001 34.1986L280.191 24.4414C276.728 23.664 273.321 23.264 269.976 23.264V33.264ZM278.116 34.2229C280.898 34.7793 283.214 35.6155 285.126 36.6722L289.963 27.9198C287.011 26.2885 283.695 25.1407 280.077 24.4171L278.116 34.2229ZM285.183 36.7034C286.271 37.2863 286.635 37.8032 286.778 38.1013L295.799 33.7867C294.533 31.1408 292.401 29.2257 289.905 27.8886L285.183 36.7034ZM286.778 38.1013C287.061 38.694 287.107 39.161 287.028 39.634L296.892 41.278C297.325 38.679 296.923 36.138 295.799 33.7867L286.778 38.1013ZM286.999 39.8358C286.91 40.5447 286.678 41.1086 286.303 41.618L294.354 47.55C295.77 45.6274 296.626 43.4393 296.922 41.0762L286.999 39.8358ZM286.303 41.618C286.018 42.0051 285.735 42.1948 285.356 42.3154L288.388 51.8446C290.825 51.0692 292.847 49.5949 294.354 47.55L286.303 41.618ZM285.557 42.2562C285.549 42.2582 285.539 42.2604 285.521 42.2614C285.502 42.2624 285.458 42.2629 285.386 42.2523C285.237 42.2307 284.948 42.1595 284.5 41.9359L280.028 50.8801C282.48 52.1063 285.295 52.6928 288.188 51.9038L285.557 42.2562ZM284.379 41.8771C282.168 40.8456 279.921 40.055 277.64 39.5228L275.368 49.2612C276.927 49.625 278.52 50.1784 280.15 50.9389L284.379 41.8771ZM277.834 39.572C275.518 38.9332 273.117 38.624 270.648 38.624V48.624C272.276 48.624 273.778 48.8268 275.175 49.212L277.834 39.572ZM270.648 38.624C266.05 38.624 261.811 39.5139 258.184 41.5868L263.145 50.2692C264.893 49.2701 267.31 48.624 270.648 48.624V38.624ZM258.218 41.5673C254.628 43.5812 251.941 46.5698 250.181 50.3416L259.243 54.5704C260.171 52.5822 261.453 51.2188 263.111 50.2887L258.218 41.5673ZM250.181 50.3416C248.444 54.0638 247.696 58.3864 247.696 63.112H257.696C257.696 59.3896 258.292 56.6082 259.243 54.5704L250.181 50.3416ZM247.696 63.112C247.696 67.8432 248.446 72.1779 250.164 75.9405L259.261 71.7875C258.29 69.6621 257.696 66.8288 257.696 63.112H247.696ZM250.181 75.9784C251.934 79.7344 254.597 82.73 258.138 84.8031L263.19 76.1729C261.484 75.174 260.178 73.7536 259.243 71.7496L250.181 75.9784ZM258.263 84.8735C261.872 86.8503 266.081 87.696 270.648 87.696V77.696C267.279 77.696 264.832 77.0697 263.066 76.1025L258.263 84.8735ZM270.648 87.696C272.693 87.696 274.817 87.4605 277.005 87.0229L275.044 77.2171C273.392 77.5475 271.931 77.696 270.648 77.696V87.696ZM277.16 86.9892C279.455 86.4539 281.69 85.6555 283.862 84.6068L279.515 75.6012C277.975 76.3445 276.434 76.8901 274.888 77.2508L277.16 86.9892ZM283.676 84.6918C284.951 84.1393 285.465 84.2573 285.514 84.2701L288.038 74.5939C285.143 73.8387 282.265 74.4047 279.7 75.5162L283.676 84.6918ZM285.564 84.2827C286.113 84.42 286.328 84.613 286.477 84.8057L294.371 78.6663C292.729 76.555 290.512 75.212 287.989 74.5813L285.564 84.2827ZM286.583 84.9369C286.952 85.38 287.2 85.8946 287.316 86.59L297.18 84.946C296.784 82.5694 295.816 80.396 294.265 78.5351L286.583 84.9369ZM287.322 86.6247C287.384 86.9785 287.365 87.4011 287.066 88.0267L296.087 92.3413C297.196 90.0229 297.625 87.5015 297.174 84.9113L287.322 86.6247ZM286.991 88.1904C286.874 88.4587 286.609 88.8712 285.75 89.3336L290.491 98.1384C292.96 96.8088 294.998 94.8533 296.162 92.1776L286.991 88.1904ZM285.548 89.4485C283.871 90.4548 281.609 91.3477 278.644 92.032L280.893 101.776C284.583 100.924 287.89 99.7052 290.693 98.0235L285.548 89.4485ZM278.623 92.0369C275.724 92.719 272.844 93.056 269.976 93.056V103.056C273.636 103.056 277.284 102.625 280.913 101.771L278.623 92.0369ZM314.236 93.736L311.767 98.0838L311.808 98.1068L314.236 93.736ZM302.14 81.448L297.734 83.8121L297.757 83.8535L302.14 81.448ZM300.316 48.808L295.655 46.9991L295.631 47.06L300.316 48.808ZM307.324 37.768L303.788 34.2325L303.751 34.2699L307.324 37.768ZM318.268 30.76L320.039 35.4358L320.101 35.412L318.268 30.76ZM350.236 32.584L347.785 36.9419L347.808 36.9548L350.236 32.584ZM362.332 44.776L357.949 47.1815L357.961 47.2042L362.332 44.776ZM364.156 77.416L359.495 75.6071L359.471 75.668L364.156 77.416ZM357.148 88.552L353.576 85.0531L353.575 85.0539L357.148 88.552ZM346.3 95.656L348.071 100.332L348.133 100.308L346.3 95.656ZM340.924 80.872L338.125 76.7291L338.125 76.7291L340.924 80.872ZM346.396 73.96L341.795 72.0022L341.795 72.0022L346.396 73.96ZM344.092 48.328L340.188 51.4515L340.188 51.4515L344.092 48.328ZM323.644 45.448L326.365 49.6428L326.392 49.6251L323.644 45.448ZM318.172 52.264L322.757 54.2576L322.773 54.2218L318.172 52.264ZM320.476 77.992L316.544 81.0811L316.572 81.1155L320.476 77.992ZM332.284 93.056C326.153 93.056 320.997 91.7726 316.664 89.3652L311.808 98.1068C317.843 101.459 324.719 103.056 332.284 103.056V93.056ZM316.705 89.3882C312.33 86.9038 308.96 83.4818 306.523 79.0425L297.757 83.8535C301.08 89.9102 305.774 94.6802 311.767 98.0838L316.705 89.3882ZM306.546 79.0839C304.182 74.6782 302.916 69.4047 302.916 63.112H292.916C292.916 70.7713 294.466 77.7218 297.734 83.8121L306.546 79.0839ZM302.916 63.112C302.916 58.3744 303.637 54.2092 305.001 50.5559L295.631 47.06C293.795 51.9828 292.916 57.3536 292.916 63.112H302.916ZM304.977 50.6169C306.414 46.9152 308.394 43.8215 310.897 41.2661L303.751 34.2699C300.238 37.8585 297.546 42.1248 295.655 46.9991L304.977 50.6169ZM310.86 41.3035C313.411 38.7522 316.45 36.7951 320.039 35.4358L316.497 26.0842C311.638 27.9249 307.381 30.6398 303.788 34.2325L310.86 41.3035ZM320.101 35.412C323.671 34.0055 327.712 33.264 332.284 33.264V23.264C326.616 23.264 321.313 24.1865 316.435 26.108L320.101 35.412ZM332.284 33.264C338.417 33.264 343.529 34.548 347.785 36.9419L352.687 28.2261C346.703 24.86 339.847 23.264 332.284 23.264V33.264ZM347.808 36.9548C352.16 39.3725 355.518 42.7515 357.949 47.1815L366.715 42.3705C363.386 36.3045 358.68 31.5555 352.664 28.2132L347.808 36.9548ZM357.961 47.2042C360.358 51.5177 361.652 56.7625 361.652 63.112H371.652C371.652 55.3815 370.066 48.4023 366.703 42.3478L357.961 47.2042ZM361.652 63.112C361.652 67.8276 360.906 71.9713 359.495 75.6071L368.817 79.2249C370.734 74.2847 371.652 68.8923 371.652 63.112H361.652ZM359.471 75.668C358.105 79.3295 356.138 82.4378 353.576 85.0531L360.72 92.0509C364.302 88.3942 367.007 84.0785 368.841 79.164L359.471 75.668ZM353.575 85.0539C351.087 87.5952 348.074 89.5832 344.467 91.004L348.133 100.308C352.974 98.4008 357.193 95.6528 360.721 92.0501L353.575 85.0539ZM344.529 90.9802C340.941 92.3392 336.879 93.056 332.284 93.056V103.056C337.929 103.056 343.211 102.173 348.071 100.332L344.529 90.9802ZM332.284 88.272C336.484 88.272 340.384 87.2713 343.723 85.0149L338.125 76.7291C336.728 77.6727 334.868 78.272 332.284 78.272V88.272ZM343.723 85.0149C347 82.8009 349.395 79.6816 350.997 75.9178L341.795 72.0022C340.837 74.2544 339.584 75.7431 338.125 76.7291L343.723 85.0149ZM350.997 75.9178C352.605 72.1384 353.316 67.8208 353.316 63.112H343.316C343.316 66.8512 342.747 69.7656 341.795 72.0022L350.997 75.9178ZM353.316 63.112C353.316 56.0929 351.76 49.9093 347.996 45.2045L340.188 51.4515C342.056 53.7866 343.316 57.4591 343.316 63.112H353.316ZM347.996 45.2045C344.108 40.3439 338.649 38.048 332.284 38.048V48.048C336.031 48.048 338.444 49.2721 340.188 51.4515L347.996 45.2045ZM332.284 38.048C328.123 38.048 324.256 39.0601 320.896 41.2709L326.392 49.6251C327.896 48.6359 329.789 48.048 332.284 48.048V38.048ZM320.923 41.2532C317.594 43.4129 315.178 46.5309 313.571 50.3062L322.773 54.2218C323.726 51.9811 324.958 50.5551 326.365 49.6428L320.923 41.2532ZM313.587 50.2704C311.958 54.0166 311.252 58.3561 311.252 63.112H321.252C321.252 59.2919 321.826 56.3994 322.757 54.2576L313.587 50.2704ZM311.252 63.112C311.252 70.1383 312.811 76.3291 316.544 81.0811L324.408 74.9029C322.509 72.4869 321.252 68.7577 321.252 63.112H311.252ZM316.572 81.1155C320.46 85.9761 325.919 88.272 332.284 88.272V78.272C328.537 78.272 326.124 77.0479 324.38 74.8685L316.572 81.1155ZM379.29 95.752L375.673 99.2044L375.754 99.2875L379.29 95.752ZM379.482 30.568L382.853 34.2604L382.938 34.1812L379.482 30.568ZM391.002 29.8L388.134 33.8962L388.37 34.0513L391.002 29.8ZM394.65 34.024L390.265 36.4282L390.281 36.457L394.65 34.024ZM415.29 71.08V76.08L419.658 68.647L415.29 71.08ZM411.93 71.08L407.557 68.6556L411.93 76.08V71.08ZM432.474 34.024L428.15 31.5133L428.101 31.5996L432.474 34.024ZM436.122 29.8L438.846 33.9922L438.895 33.9602L436.122 29.8ZM447.354 30.568L443.737 34.0204L443.901 34.1848L447.354 30.568ZM447.45 95.752L451.066 99.2044L451.066 99.2044L447.45 95.752ZM435.546 95.752L431.929 99.2044L432.01 99.2875L435.546 95.752ZM433.53 56.776V51.776L428.53 56.776H433.53ZM435.546 56.776L439.88 59.2684L435.546 51.776V56.776ZM420.09 83.656L424.308 86.3404L424.424 86.1484L420.09 83.656ZM417.21 86.824L414.377 82.7038L414.253 82.792L417.21 86.824ZM406.554 83.656L402.222 86.1533L402.249 86.1996L406.554 83.656ZM391.002 56.68V51.68L386.67 59.1773L391.002 56.68ZM393.21 56.68H398.21L393.21 51.68V56.68ZM391.194 95.752L387.577 92.2996L387.577 92.2996L391.194 95.752ZM385.242 92.864C383.611 92.864 383.048 92.4395 382.825 92.2165L375.754 99.2875C378.347 101.881 381.752 102.864 385.242 102.864V92.864ZM382.906 92.2996C382.702 92.0854 382.273 91.4919 382.273 89.8H372.273C372.273 93.2281 373.189 96.6026 375.673 99.2044L382.906 92.2996ZM382.273 89.8V36.52H372.273V89.8H382.273ZM382.273 36.52C382.273 34.8328 382.72 34.3818 382.853 34.2604L376.11 26.8756C373.299 29.4422 372.273 32.9592 372.273 36.52H382.273ZM382.938 34.1812C383.212 33.9185 383.897 33.456 385.722 33.456V23.456C382.17 23.456 378.695 24.4015 376.025 26.9548L382.938 34.1812ZM385.722 33.456C387.363 33.456 387.987 33.7932 388.134 33.8962L393.869 25.7038C391.456 24.0148 388.56 23.456 385.722 23.456V33.456ZM388.37 34.0513C388.731 34.2748 389.424 34.8936 390.265 36.4282L399.034 31.6198C397.699 29.1864 395.96 26.9892 393.633 25.5487L388.37 34.0513ZM390.281 36.457L410.921 73.513L419.658 68.647L399.018 31.591L390.281 36.457ZM415.29 66.08H411.93V76.08H415.29V66.08ZM416.302 73.5044L436.846 36.4484L428.101 31.5996L407.557 68.6556L416.302 73.5044ZM436.797 36.5347C437.737 34.9166 438.471 34.236 438.846 33.9922L433.397 25.6078C431.212 27.028 429.514 29.1634 428.15 31.5133L436.797 36.5347ZM438.895 33.9602C439.157 33.7858 439.876 33.456 441.498 33.456V23.456C438.639 23.456 435.774 24.0222 433.348 25.6397L438.895 33.9602ZM441.498 33.456C443.141 33.456 443.608 33.8851 443.737 34.0204L450.97 27.1156C448.411 24.4349 444.974 23.456 441.498 23.456V33.456ZM443.901 34.1848C444.013 34.2918 444.466 34.7694 444.466 36.52H454.466C454.466 33.0226 453.51 29.5322 450.806 26.9512L443.901 34.1848ZM444.466 36.52V89.8H454.466V36.52H444.466ZM444.466 89.8C444.466 91.4919 444.037 92.0854 443.833 92.2996L451.066 99.2044C453.55 96.6026 454.466 93.2281 454.466 89.8H444.466ZM443.833 92.2996C443.726 92.4118 443.248 92.864 441.498 92.864V102.864C444.995 102.864 448.485 101.908 451.066 99.2044L443.833 92.2996ZM441.498 92.864C439.867 92.864 439.304 92.4395 439.081 92.2165L432.01 99.2875C434.603 101.881 438.008 102.864 441.498 102.864V92.864ZM439.162 92.2996C438.958 92.0854 438.53 91.4919 438.53 89.8H428.53C428.53 93.2281 429.445 96.6026 431.929 99.2044L439.162 92.2996ZM438.53 89.8V56.776H428.53V89.8H438.53ZM433.53 61.776H435.546V51.776H433.53V61.776ZM431.211 54.2836L415.755 81.1636L424.424 86.1484L439.88 59.2684L431.211 54.2836ZM415.871 80.9716C415.219 81.9963 414.692 82.4869 414.377 82.7038L420.042 90.9442C421.775 89.7531 423.168 88.1317 424.308 86.3404L415.871 80.9716ZM414.253 82.792C414.432 82.6608 414.286 82.88 413.274 82.88V92.88C415.589 92.88 418.067 92.3952 420.166 90.856L414.253 82.792ZM413.274 82.88C412.836 82.88 412.552 82.8314 412.385 82.7868C412.227 82.7444 412.172 82.7052 412.17 82.7038L406.505 90.9442C408.573 92.3658 410.951 92.88 413.274 92.88V82.88ZM412.17 82.7038C411.904 82.5206 411.432 82.0832 410.858 81.1124L402.249 86.1996C403.339 88.0448 404.723 89.7194 406.505 90.9442L412.17 82.7038ZM410.885 81.1587L395.333 54.1827L386.67 59.1773L402.222 86.1533L410.885 81.1587ZM391.002 61.68H393.21V51.68H391.002V61.68ZM388.21 56.68V89.8H398.21V56.68H388.21ZM388.21 89.8C388.21 91.4919 387.781 92.0854 387.577 92.2996L394.81 99.2044C397.294 96.6026 398.21 93.2281 398.21 89.8H388.21ZM387.577 92.2996C387.47 92.4118 386.992 92.864 385.242 92.864V102.864C388.739 102.864 392.229 101.908 394.81 99.2044L387.577 92.2996ZM464.229 94.696L460.622 98.1587L460.767 98.3029L464.229 94.696ZM464.229 31.72L467.765 35.2555L467.765 35.2555L464.229 31.72ZM508.869 41.224L512.405 44.7595L512.499 44.6627L508.869 41.224ZM478.821 42.952V37.952L473.821 42.952H478.821ZM478.821 55.816H473.821L478.821 60.816V55.816ZM506.661 57.544L503.126 61.0795L503.223 61.1738L506.661 57.544ZM506.661 67.72L503.223 64.0902L503.126 64.1845L506.661 67.72ZM478.821 69.448V64.448L473.821 69.448H478.821ZM478.821 83.368H473.821L478.821 88.368V83.368ZM508.869 85.192L505.239 88.6307L505.334 88.7275L508.869 85.192ZM471.141 92C468.955 92 468.07 91.4519 467.692 91.0891L460.767 98.3029C463.589 101.012 467.312 102 471.141 102V92ZM467.836 91.2333C467.455 90.8368 466.925 89.9677 466.925 87.88H456.925C456.925 91.6803 457.931 95.3552 460.622 98.1587L467.836 91.2333ZM466.925 87.88V38.44H456.925V87.88H466.925ZM466.925 38.44C466.925 36.3382 467.461 35.5596 467.765 35.2555L460.694 28.1845C457.926 30.9524 456.925 34.6538 456.925 38.44H466.925ZM467.765 35.2555C468.15 34.8705 469.008 34.32 471.141 34.32V24.32C467.259 24.32 463.509 25.3695 460.694 28.1845L467.765 35.2555ZM471.141 34.32H503.685V24.32H471.141V34.32ZM503.685 34.32C505.219 34.32 505.45 34.6999 505.334 34.5835L512.405 27.5125C509.984 25.0921 506.76 24.32 503.685 24.32V34.32ZM505.334 34.5835C505.341 34.5904 505.35 34.6006 505.364 34.6231C505.378 34.6468 505.407 34.6995 505.44 34.7956C505.509 34.9942 505.597 35.3825 505.597 36.04H515.597C515.597 32.9975 514.776 29.8836 512.405 27.5125L505.334 34.5835ZM505.597 36.04C505.597 37.4423 505.249 37.7755 505.239 37.7853L512.499 44.6627C514.794 42.2405 515.597 39.1176 515.597 36.04H505.597ZM505.334 37.6885C505.45 37.5721 505.219 37.952 503.685 37.952V47.952C506.76 47.952 509.984 47.1799 512.405 44.7595L505.334 37.6885ZM503.685 37.952H478.821V47.952H503.685V37.952ZM473.821 42.952V55.816H483.821V42.952H473.821ZM478.821 60.816H501.573V50.816H478.821V60.816ZM501.573 60.816C502.278 60.816 502.698 60.908 502.917 60.9824C503.023 61.0182 503.079 61.0489 503.102 61.0627C503.114 61.0699 503.12 61.0747 503.122 61.0765C503.125 61.0783 503.125 61.0792 503.126 61.0795L510.197 54.0085C507.8 51.6121 504.631 50.816 501.573 50.816V60.816ZM503.223 61.1738C503.23 61.1805 503.237 61.1885 503.249 61.2066C503.261 61.226 503.289 61.2743 503.323 61.3673C503.392 61.5604 503.485 61.9527 503.485 62.632H513.485C513.485 59.501 512.616 56.2974 510.1 53.9142L503.223 61.1738ZM503.485 62.632C503.485 63.3113 503.392 63.7036 503.323 63.8967C503.289 63.9897 503.261 64.038 503.249 64.0574C503.237 64.0755 503.23 64.0835 503.223 64.0902L510.1 71.3498C512.616 68.9666 513.485 65.763 513.485 62.632H503.485ZM503.126 64.1845C503.125 64.1848 503.125 64.1857 503.122 64.1875C503.12 64.1893 503.114 64.1941 503.102 64.2013C503.079 64.2151 503.023 64.2458 502.917 64.2816C502.698 64.356 502.278 64.448 501.573 64.448V74.448C504.631 74.448 507.8 73.6519 510.197 71.2555L503.126 64.1845ZM501.573 64.448H478.821V74.448H501.573V64.448ZM473.821 69.448V83.368H483.821V69.448H473.821ZM478.821 88.368H503.685V78.368H478.821V88.368ZM503.685 88.368C504.411 88.368 504.836 88.4654 505.05 88.5406C505.152 88.5765 505.204 88.6065 505.222 88.6181C505.232 88.6243 505.236 88.628 505.238 88.629C505.239 88.6299 505.239 88.6302 505.239 88.6307L512.499 81.7533C510.091 79.2114 506.831 78.368 503.685 78.368V88.368ZM505.334 88.7275C505.341 88.7344 505.35 88.7446 505.364 88.7671C505.378 88.7908 505.407 88.8435 505.44 88.9396C505.509 89.1382 505.597 89.5265 505.597 90.184H515.597C515.597 87.1415 514.776 84.0276 512.405 81.6565L505.334 88.7275ZM505.597 90.184C505.597 90.8883 505.505 91.309 505.431 91.5281C505.395 91.6335 505.364 91.6896 505.351 91.7124C505.343 91.7243 505.339 91.7306 505.337 91.733C505.335 91.7353 505.334 91.7361 505.334 91.7365L512.405 98.8075C514.801 96.4112 515.597 93.2421 515.597 90.184H505.597ZM505.334 91.7365C505.45 91.6201 505.219 92 503.685 92V102C506.76 102 509.984 101.228 512.405 98.8075L505.334 91.7365ZM503.685 92H471.141V102H503.685V92ZM551.243 73.192L547.494 76.5001L547.602 76.6188L551.243 73.192ZM549.419 68.68L544.452 69.2556L544.463 69.3408L549.419 68.68ZM546.059 39.688L551.026 39.1124L551.014 39.0209L546.059 39.688ZM547.883 31.624L551.763 34.777L551.81 34.7184L547.883 31.624ZM562.667 31.624L558.681 34.6433L558.727 34.7022L562.667 31.624ZM564.395 39.688L559.439 39.0209L559.426 39.1286L564.395 39.688ZM561.131 68.68L566.087 69.3408L566.099 69.2394L561.131 68.68ZM548.363 94.984L544.761 98.4522L544.827 98.5195L548.363 94.984ZM548.363 81.544L544.827 78.0085L544.827 78.0085L548.363 81.544ZM562.187 81.544L558.518 84.941L558.651 85.0795L562.187 81.544ZM562.187 94.984L558.585 91.5158L558.518 91.587L562.187 94.984ZM555.275 69.824C555.131 69.824 555.034 69.8123 554.977 69.8018C554.92 69.7916 554.896 69.7818 554.895 69.7813C554.894 69.7811 554.901 69.7841 554.908 69.789C554.915 69.7937 554.907 69.7894 554.884 69.7652L547.602 76.6188C549.683 78.8303 552.405 79.824 555.275 79.824V69.824ZM554.992 69.8839C554.874 69.7506 554.543 69.2792 554.375 68.0192L544.463 69.3408C544.807 71.9208 545.691 74.4574 547.494 76.5001L554.992 69.8839ZM554.386 68.1044L551.026 39.1124L541.092 40.2636L544.452 69.2556L554.386 68.1044ZM551.014 39.0209C550.697 36.6649 551.192 35.48 551.763 34.777L544.002 28.471C541.245 31.864 540.525 36.0551 541.103 40.3551L551.014 39.0209ZM551.81 34.7184C552.322 34.0691 553.179 33.456 555.275 33.456V23.456C550.843 23.456 546.772 24.9548 543.955 28.5296L551.81 34.7184ZM555.275 33.456C557.48 33.456 558.265 34.0942 558.681 34.6433L566.652 28.6047C563.868 24.9298 559.725 23.456 555.275 23.456V33.456ZM558.727 34.7022C559.274 35.4034 559.763 36.6186 559.439 39.0209L569.35 40.3551C569.923 36.1014 569.259 31.9406 566.607 28.5458L558.727 34.7022ZM559.426 39.1286L556.162 68.1206L566.099 69.2394L569.363 40.2474L559.426 39.1286ZM556.175 68.0192C556.007 69.2792 555.675 69.7506 555.558 69.8839L563.056 76.5001C564.858 74.4574 565.743 71.9208 566.087 69.3408L556.175 68.0192ZM555.558 69.8839C555.566 69.8743 555.589 69.8513 555.625 69.8259C555.661 69.8004 555.69 69.7864 555.703 69.7813C555.729 69.7705 555.617 69.824 555.275 69.824V79.824C558.137 79.824 560.965 78.8699 563.056 76.5001L555.558 69.8839ZM555.275 92.576C553.466 92.576 552.523 92.0728 551.898 91.4485L544.827 98.5195C547.659 101.351 551.323 102.576 555.275 102.576V92.576ZM551.964 91.5158C551.352 90.8797 550.867 89.9315 550.867 88.168H540.867C540.867 92.0365 542.046 95.6323 544.761 98.4522L551.964 91.5158ZM550.867 88.168C550.867 86.4996 551.331 85.6473 551.898 85.0795L544.827 78.0085C542.067 80.7687 540.867 84.3324 540.867 88.168H550.867ZM551.898 85.0795C552.523 84.4552 553.466 83.952 555.275 83.952V73.952C551.323 73.952 547.659 75.1768 544.827 78.0085L551.898 85.0795ZM555.275 83.952C557.3 83.952 558.111 84.5014 558.518 84.941L565.856 78.147C563.063 75.1306 559.266 73.952 555.275 73.952V83.952ZM558.651 85.0795C559.219 85.6473 559.683 86.4996 559.683 88.168H569.683C569.683 84.3324 568.483 80.7687 565.722 78.0085L558.651 85.0795ZM559.683 88.168C559.683 89.9315 559.198 90.8797 558.585 91.5158L565.788 98.4522C568.504 95.6323 569.683 92.0365 569.683 88.168H559.683ZM558.518 91.587C558.111 92.0266 557.3 92.576 555.275 92.576V102.576C559.266 102.576 563.063 101.397 565.856 98.381L558.518 91.587Z" fill="#5D140E" mask="url(#path-3-outside-2_113_9)"/>
</svg>
