<svg width="527" height="707" viewBox="0 0 527 707" fill="none" xmlns="http://www.w3.org/2000/svg">
<circle cx="263.5" cy="255.5" r="144.5" fill="#FFF9EF" stroke="black" stroke-width="20"/>
<path d="M324.5 258.5L382.493 102.943L480.842 42.0001" stroke="black" stroke-width="20"/>
<mask id="mask0_407_18" style="mask-type:alpha" maskUnits="userSpaceOnUse" x="76" y="250" width="375" height="413">
<mask id="path-3-inside-1_407_18" fill="white">
<path fill-rule="evenodd" clip-rule="evenodd" d="M436.727 378.508C446.15 337.924 451 294.427 451 250.5H263.5L76 250.5C76 294.427 80.8498 337.924 90.2726 378.508C99.6953 419.091 113.506 455.966 130.917 487.027C146.669 515.128 165.087 537.972 185.299 554.519C177.983 559.17 171.136 564.474 164.859 570.369C151.905 582.533 141.629 596.975 134.619 612.868C127.608 628.762 124 645.797 124 663H263.5H403C403 645.797 399.392 628.762 392.381 612.868C385.371 596.975 375.095 582.534 362.141 570.369C355.864 564.474 349.017 559.17 341.701 554.519C361.913 537.972 380.331 515.128 396.083 487.027C413.493 455.966 427.305 419.091 436.727 378.508Z"/>
</mask>
<path fill-rule="evenodd" clip-rule="evenodd" d="M436.727 378.508C446.15 337.924 451 294.427 451 250.5H263.5L76 250.5C76 294.427 80.8498 337.924 90.2726 378.508C99.6953 419.091 113.506 455.966 130.917 487.027C146.669 515.128 165.087 537.972 185.299 554.519C177.983 559.17 171.136 564.474 164.859 570.369C151.905 582.533 141.629 596.975 134.619 612.868C127.608 628.762 124 645.797 124 663H263.5H403C403 645.797 399.392 628.762 392.381 612.868C385.371 596.975 375.095 582.534 362.141 570.369C355.864 564.474 349.017 559.17 341.701 554.519C361.913 537.972 380.331 515.128 396.083 487.027C413.493 455.966 427.305 419.091 436.727 378.508Z" fill="#EFEFEF"/>
<path d="M451 250.5H471V230.5H451V250.5ZM436.727 378.508L456.209 383.031L456.209 383.031L436.727 378.508ZM263.5 250.5L263.5 270.5H263.5V250.5ZM76 250.5L76 230.5L56 230.5L56 250.5L76 250.5ZM90.2726 378.508L109.754 373.984L109.754 373.984L90.2726 378.508ZM130.917 487.027L148.364 477.248L148.364 477.248L130.917 487.027ZM185.299 554.519L196.029 571.397L219.367 556.561L197.969 539.043L185.299 554.519ZM164.859 570.369L178.55 584.948L178.55 584.948L164.859 570.369ZM134.619 612.868L116.32 604.797L116.32 604.797L134.619 612.868ZM124 663H104V683H124V663ZM403 663V683H423V663H403ZM392.381 612.868L410.68 604.797L410.68 604.797L392.381 612.868ZM362.141 570.369L375.832 555.79L375.832 555.79L362.141 570.369ZM341.701 554.519L329.031 539.043L307.633 556.561L330.971 571.397L341.701 554.519ZM396.083 487.027L413.529 496.806L413.529 496.806L396.083 487.027ZM431 250.5C431 292.987 426.306 334.962 417.246 373.984L456.209 383.031C465.994 340.886 471 295.867 471 250.5H431ZM263.5 270.5H451V230.5H263.5V270.5ZM76 270.5L263.5 270.5L263.5 230.5L76 230.5L76 270.5ZM109.754 373.984C100.694 334.962 96 292.987 96 250.5L56 250.5C56 295.867 61.0055 340.886 70.7908 383.031L109.754 373.984ZM148.364 477.248C132.017 448.086 118.821 413.032 109.754 373.984L70.7908 383.031C80.57 425.15 94.996 463.846 113.471 496.806L148.364 477.248ZM197.969 539.043C180.08 524.398 163.165 503.654 148.364 477.248L113.471 496.806C130.173 526.602 150.095 551.546 172.63 569.994L197.969 539.043ZM178.55 584.948C183.901 579.923 189.755 575.385 196.029 571.397L174.57 537.64C166.211 542.954 158.371 549.025 151.168 555.79L178.55 584.948ZM152.918 620.94C158.819 607.56 167.507 595.318 178.55 584.948L151.168 555.79C136.303 569.749 124.439 586.39 116.32 604.797L152.918 620.94ZM144 663C144 648.604 147.018 634.316 152.918 620.94L116.32 604.797C108.199 623.208 104 642.99 104 663H144ZM263.5 643H124V683H263.5V643ZM403 643H263.5V683H403V643ZM374.082 620.94C379.982 634.316 383 648.604 383 663H423C423 642.99 418.801 623.208 410.68 604.797L374.082 620.94ZM348.45 584.948C359.493 595.318 368.181 607.56 374.082 620.94L410.68 604.797C402.561 586.39 390.697 569.749 375.832 555.79L348.45 584.948ZM330.971 571.397C337.245 575.385 343.099 579.923 348.45 584.948L375.832 555.79C368.629 549.025 360.789 542.954 352.43 537.64L330.971 571.397ZM378.636 477.248C363.835 503.654 346.92 524.398 329.031 539.043L354.37 569.994C376.905 551.546 396.827 526.602 413.529 496.806L378.636 477.248ZM417.246 373.984C408.179 413.033 394.983 448.086 378.636 477.248L413.529 496.806C432.004 463.846 446.43 425.15 456.209 383.031L417.246 373.984Z" fill="black" mask="url(#path-3-inside-1_407_18)"/>
</mask>
<g mask="url(#mask0_407_18)">
<rect x="11" y="234" width="462" height="488" fill="#D6E9FF"/>
<mask id="mask1_407_18" style="mask-type:alpha" maskUnits="userSpaceOnUse" x="100" y="194" width="327" height="335">
<path d="M427 194.5C427 238.427 422.771 281.924 414.554 322.508C406.338 363.091 394.294 399.966 379.112 431.027C363.93 462.088 345.905 486.728 326.069 503.538C306.232 520.348 284.971 529 263.5 529C242.029 529 220.768 520.348 200.931 503.538C181.095 486.727 163.07 462.088 147.888 431.027C132.706 399.966 120.662 363.091 112.446 322.508C104.229 281.924 100 238.427 100 194.5L263.5 194.5H427Z" fill="#9A5752"/>
</mask>
<g mask="url(#mask1_407_18)">
<rect x="68" y="231" width="402" height="336" fill="#9A5752"/>
<rect x="46" y="259" width="436" height="166" fill="#D77747"/>
<rect x="46" y="176" width="436" height="166" fill="#FED193"/>
</g>
<path d="M376 299C376 299 375.591 337.02 348.606 417.047C321.621 497.074 293 524 293 524" stroke="white" stroke-width="32" stroke-linecap="round"/>
<mask id="path-11-inside-2_407_18" fill="white">
<path fill-rule="evenodd" clip-rule="evenodd" d="M436.727 378.508C446.15 337.924 451 294.427 451 250.5H263.5L76 250.5C76 294.427 80.8498 337.924 90.2726 378.508C99.6953 419.091 113.506 455.966 130.917 487.027C146.669 515.128 165.088 537.972 185.3 554.519C177.983 559.17 171.136 564.474 164.859 570.369C151.905 582.534 141.629 596.975 134.619 612.868C127.608 628.762 124 645.797 124 663H263.5H403C403 645.797 399.392 628.762 392.381 612.868C385.371 596.975 375.095 582.534 362.141 570.369C355.864 564.474 349.017 559.17 341.701 554.519C361.912 537.972 380.331 515.128 396.083 487.027C413.493 455.966 427.305 419.091 436.727 378.508Z"/>
</mask>
<path d="M451 250.5H471V230.5H451V250.5ZM436.727 378.508L456.209 383.031L456.209 383.031L436.727 378.508ZM263.5 250.5L263.5 270.5H263.5V250.5ZM76 250.5L76 230.5L56 230.5L56 250.5L76 250.5ZM90.2726 378.508L109.754 373.984L109.754 373.984L90.2726 378.508ZM130.917 487.027L113.471 496.806L113.471 496.806L130.917 487.027ZM185.3 554.519L196.029 571.397L219.367 556.561L197.969 539.043L185.3 554.519ZM164.859 570.369L178.55 584.948L178.55 584.948L164.859 570.369ZM134.619 612.868L116.32 604.797L116.32 604.797L134.619 612.868ZM124 663H104V683H124V663ZM403 663V683H423V663H403ZM392.381 612.868L410.68 604.797L410.68 604.797L392.381 612.868ZM362.141 570.369L348.45 584.948L348.45 584.948L362.141 570.369ZM341.701 554.519L329.031 539.043L307.633 556.561L330.971 571.397L341.701 554.519ZM396.083 487.027L413.529 496.806L413.529 496.806L396.083 487.027ZM431 250.5C431 292.987 426.306 334.962 417.246 373.984L456.209 383.031C465.994 340.886 471 295.867 471 250.5H431ZM263.5 270.5H451V230.5H263.5V270.5ZM76 270.5L263.5 270.5L263.5 230.5L76 230.5L76 270.5ZM109.754 373.984C100.694 334.962 96 292.987 96 250.5L56 250.5C56 295.867 61.0055 340.886 70.7908 383.031L109.754 373.984ZM148.364 477.248C132.017 448.086 118.821 413.032 109.754 373.984L70.7908 383.031C80.57 425.15 94.996 463.846 113.471 496.806L148.364 477.248ZM197.969 539.043C180.08 524.398 163.165 503.654 148.364 477.248L113.471 496.806C130.173 526.602 150.095 551.546 172.63 569.994L197.969 539.043ZM178.55 584.948C183.901 579.923 189.755 575.385 196.029 571.397L174.57 537.64C166.211 542.954 158.371 549.025 151.168 555.79L178.55 584.948ZM152.918 620.94C158.819 607.56 167.507 595.318 178.55 584.948L151.168 555.79C136.303 569.749 124.439 586.39 116.32 604.797L152.918 620.94ZM144 663C144 648.604 147.018 634.316 152.918 620.94L116.32 604.797C108.199 623.208 104 642.99 104 663H144ZM263.5 643H124V683H263.5V643ZM403 643H263.5V683H403V643ZM374.082 620.94C379.982 634.316 383 648.604 383 663H423C423 642.99 418.801 623.208 410.68 604.797L374.082 620.94ZM348.45 584.948C359.493 595.318 368.181 607.56 374.082 620.94L410.68 604.797C402.561 586.39 390.697 569.749 375.832 555.79L348.45 584.948ZM330.971 571.397C337.245 575.385 343.099 579.923 348.45 584.948L375.832 555.79C368.629 549.025 360.788 542.954 352.43 537.64L330.971 571.397ZM378.636 477.248C363.835 503.654 346.92 524.398 329.031 539.043L354.37 569.994C376.905 551.546 396.827 526.602 413.529 496.806L378.636 477.248ZM417.246 373.984C408.179 413.033 394.983 448.086 378.636 477.248L413.529 496.806C432.004 463.846 446.43 425.15 456.209 383.031L417.246 373.984Z" fill="black" mask="url(#path-11-inside-2_407_18)"/>
<circle cx="188" cy="338" r="21" stroke="black" stroke-width="20"/>
<circle cx="264" cy="372" r="10" stroke="black" stroke-width="16"/>
</g>
<path d="M178.5 111.591C173.667 100.425 154.2 79.1913 115 83.5913" stroke="#648B7F" stroke-width="20"/>
<circle cx="184.5" cy="120.5" r="27.5" fill="#E85252" stroke="black" stroke-width="20"/>
</svg>
