<svg width="527" height="707" viewBox="0 0 527 707" fill="none" xmlns="http://www.w3.org/2000/svg">
<mask id="path-1-inside-1_401_75" fill="white">
<path d="M343.511 311.279C366.599 308.235 390.064 310.64 412.097 318.308C434.129 325.976 454.14 338.703 470.585 355.506C487.031 372.309 499.472 392.739 506.948 415.222C514.425 437.704 516.737 461.637 513.707 485.175C510.677 508.713 502.385 531.226 489.471 550.979C476.558 570.732 459.367 587.196 439.226 599.101C419.084 611.006 396.531 618.034 373.304 619.643C350.077 621.253 326.798 617.4 305.263 608.382L328.854 549.797C341.59 555.13 355.357 557.409 369.094 556.457C382.83 555.506 396.169 551.349 408.081 544.308C419.992 537.267 430.159 527.531 437.796 515.849C445.433 504.167 450.337 490.852 452.129 476.932C453.921 463.011 452.554 448.857 448.132 435.561C443.71 422.265 436.353 410.182 426.627 400.244C416.901 390.307 405.066 382.78 392.036 378.245C379.006 373.711 365.128 372.288 351.474 374.088L343.511 311.279Z"/>
</mask>
<path d="M343.511 311.279C366.599 308.235 390.064 310.64 412.097 318.308C434.129 325.976 454.14 338.703 470.585 355.506C487.031 372.309 499.472 392.739 506.948 415.222C514.425 437.704 516.737 461.637 513.707 485.175C510.677 508.713 502.385 531.226 489.471 550.979C476.558 570.732 459.367 587.196 439.226 599.101C419.084 611.006 396.531 618.034 373.304 619.643C350.077 621.253 326.798 617.4 305.263 608.382L328.854 549.797C341.59 555.13 355.357 557.409 369.094 556.457C382.83 555.506 396.169 551.349 408.081 544.308C419.992 537.267 430.159 527.531 437.796 515.849C445.433 504.167 450.337 490.852 452.129 476.932C453.921 463.011 452.554 448.857 448.132 435.561C443.71 422.265 436.353 410.182 426.627 400.244C416.901 390.307 405.066 382.78 392.036 378.245C379.006 373.711 365.128 372.288 351.474 374.088L343.511 311.279Z" fill="#8BA38E" stroke="black" stroke-width="40" mask="url(#path-1-inside-1_401_75)"/>
<path d="M179.5 195C192.706 189.105 211.194 170.803 179.5 144.756C147.806 118.708 166.294 88.0653 179.5 76" stroke="black" stroke-width="18" stroke-linecap="round"/>
<path d="M251.5 182C265.461 176.155 285.005 158.007 251.5 132.178C217.995 106.349 237.539 75.9639 251.5 64" stroke="black" stroke-width="18" stroke-linecap="round"/>
<mask id="mask0_401_75" style="mask-type:alpha" maskUnits="userSpaceOnUse" x="13" y="216" width="398" height="453">
<path d="M23.1506 266.01C22.3314 244.315 39.8206 226.557 62 226.557H361.407C383.568 226.557 401.108 244.357 400.361 266.1C398.66 315.657 394.202 394.954 382.551 470.683C376.725 508.552 369.133 545.303 359.274 576.891C349.354 608.673 337.407 634.329 323.346 650.75C318.691 656.187 310.981 659 301.698 659H125.617C114.212 659 104.277 654.509 98.8453 646.448C70.5457 604.456 52.3175 533.617 40.8372 460.073C29.4308 387.002 24.9257 313.019 23.1506 266.01Z" fill="#D9D9D9" stroke="#5D140E" stroke-width="20"/>
</mask>
<g mask="url(#mask0_401_75)">
<rect x="10.9259" y="226.557" width="403.032" height="450.767" fill="#EEE2DB" stroke="black" stroke-width="20"/>
<rect x="11" y="227" width="403" height="48" fill="#8BA38E" stroke="black" stroke-width="20"/>
<path d="M23.1506 266.01C22.3314 244.315 39.8206 226.557 62 226.557H361.407C383.568 226.557 401.108 244.357 400.361 266.1C398.66 315.657 394.202 394.954 382.551 470.683C376.725 508.552 369.133 545.303 359.274 576.891C349.354 608.673 337.407 634.329 323.346 650.75C318.691 656.187 310.981 659 301.698 659H125.617C114.212 659 104.277 654.509 98.8453 646.448C70.5457 604.456 52.3175 533.617 40.8372 460.073C29.4308 387.002 24.9257 313.019 23.1506 266.01Z" stroke="black" stroke-width="20"/>
</g>
<path d="M155 220.885C155 220.885 151.42 202.477 131.116 213.537C110.813 224.597 114.214 350 114.214 350" stroke="black" stroke-width="18" stroke-linecap="round"/>
<path d="M75 399.5C75 377.685 92.6848 360 114.5 360C136.315 360 154 377.685 154 399.5V452C154 457.523 149.523 462 144 462H85C79.4772 462 75 457.523 75 452V399.5Z" fill="white" stroke="black" stroke-width="20"/>
</svg>
