<svg width="574" height="709" viewBox="0 0 574 709" fill="none" xmlns="http://www.w3.org/2000/svg">
<rect x="0.5" y="0.5" width="573" height="707.747" stroke="black"/>
<mask id="path-2-inside-1_401_75" fill="white">
<path d="M378.511 312.279C401.599 309.235 425.064 311.64 447.097 319.308C469.129 326.976 489.14 339.703 505.585 356.506C522.031 373.309 534.472 393.739 541.948 416.222C549.425 438.704 551.737 462.637 548.707 486.175C545.677 509.713 537.385 532.226 524.471 551.979C511.558 571.732 494.367 588.196 474.226 600.101C454.084 612.006 431.531 619.034 408.304 620.643C385.077 622.253 361.798 618.4 340.263 609.382L363.854 550.797C376.59 556.13 390.357 558.409 404.094 557.457C417.83 556.506 431.169 552.349 443.081 545.308C454.992 538.267 465.159 528.531 472.796 516.849C480.433 505.167 485.337 491.852 487.129 477.932C488.921 464.011 487.554 449.857 483.132 436.561C478.71 423.265 471.353 411.182 461.627 401.244C451.901 391.307 440.066 383.78 427.036 379.245C414.006 374.711 400.128 373.288 386.474 375.088L378.511 312.279Z"/>
</mask>
<path d="M378.511 312.279C401.599 309.235 425.064 311.64 447.097 319.308C469.129 326.976 489.14 339.703 505.585 356.506C522.031 373.309 534.472 393.739 541.948 416.222C549.425 438.704 551.737 462.637 548.707 486.175C545.677 509.713 537.385 532.226 524.471 551.979C511.558 571.732 494.367 588.196 474.226 600.101C454.084 612.006 431.531 619.034 408.304 620.643C385.077 622.253 361.798 618.4 340.263 609.382L363.854 550.797C376.59 556.13 390.357 558.409 404.094 557.457C417.83 556.506 431.169 552.349 443.081 545.308C454.992 538.267 465.159 528.531 472.796 516.849C480.433 505.167 485.337 491.852 487.129 477.932C488.921 464.011 487.554 449.857 483.132 436.561C478.71 423.265 471.353 411.182 461.627 401.244C451.901 391.307 440.066 383.78 427.036 379.245C414.006 374.711 400.128 373.288 386.474 375.088L378.511 312.279Z" fill="#8BA38E" stroke="black" stroke-width="40" mask="url(#path-2-inside-1_401_75)"/>
<path d="M214.5 196C227.706 190.105 246.194 171.803 214.5 145.756C182.806 119.708 201.294 89.0653 214.5 77" stroke="black" stroke-width="18" stroke-linecap="round"/>
<path d="M286.5 183C300.461 177.155 320.005 159.007 286.5 133.178C252.995 107.349 272.539 76.9639 286.5 65" stroke="black" stroke-width="18" stroke-linecap="round"/>
<mask id="mask0_401_75" style="mask-type:alpha" maskUnits="userSpaceOnUse" x="48" y="217" width="398" height="453">
<path d="M97 227.557H396.407C418.568 227.557 436.108 245.357 435.361 267.1C433.66 316.657 429.202 395.954 417.551 471.683C411.725 509.552 404.133 546.303 394.274 577.891C384.354 609.673 372.407 635.329 358.346 651.75C353.691 657.187 345.981 660 336.698 660H160.617C149.212 660 139.277 655.509 133.845 647.448C105.546 605.456 87.3175 534.617 75.8372 461.073C64.4308 388.002 59.9257 314.019 58.1506 267.01C57.3314 245.315 74.8206 227.557 97 227.557Z" fill="#D9D9D9" stroke="#5D140E" stroke-width="20"/>
</mask>
<g mask="url(#mask0_401_75)">
<rect x="45.9259" y="227.557" width="403.032" height="450.767" fill="#EEE2DB" stroke="black" stroke-width="20"/>
<rect x="46" y="228" width="403" height="48" fill="#8BA38E" stroke="black" stroke-width="20"/>
<path d="M97 227.557H396.407C418.568 227.557 436.108 245.357 435.361 267.1C433.66 316.657 429.202 395.954 417.551 471.683C411.725 509.552 404.133 546.303 394.274 577.891C384.354 609.673 372.407 635.329 358.346 651.75C353.691 657.187 345.981 660 336.698 660H160.617C149.212 660 139.277 655.509 133.845 647.448C105.546 605.456 87.3175 534.617 75.8372 461.073C64.4308 388.002 59.9257 314.019 58.1506 267.01C57.3314 245.315 74.8206 227.557 97 227.557Z" stroke="black" stroke-width="20"/>
</g>
<path d="M190 221.885C190 221.885 186.42 203.477 166.116 214.537C145.813 225.597 149.214 351 149.214 351" stroke="black" stroke-width="18" stroke-linecap="round"/>
<path d="M189 400.5V453C189 458.523 184.523 463 179 463H120C114.477 463 110 458.523 110 453V400.5C110 378.685 127.685 361 149.5 361C171.315 361 189 378.685 189 400.5Z" fill="white" stroke="black" stroke-width="20"/>
</svg>
