<svg width="572" height="716" viewBox="0 0 572 716" fill="none" xmlns="http://www.w3.org/2000/svg">
<g style="mix-blend-mode:multiply">
<path fill-rule="evenodd" clip-rule="evenodd" d="M90.417 226.812C62.8028 226.812 40.5275 249.117 41.4726 276.715C44.9099 377.084 59.5401 601.965 121.812 697.976C129.564 709.929 143.38 715.747 157.627 715.747H339.165C350.61 715.747 361.953 712.142 369.223 703.302C386.227 682.624 399.757 650.499 410.521 612.468C422.279 614.019 434.218 614.105 446.063 612.697C466.556 610.26 486.278 603.41 503.87 592.619C521.462 581.828 536.505 567.352 547.964 550.188C559.424 533.023 567.026 513.579 570.249 493.195C573.471 472.81 572.237 451.969 566.63 432.107C561.024 412.245 551.179 393.835 537.773 378.144C524.367 362.453 507.72 349.854 488.977 341.215C476.345 335.393 462.964 331.463 449.263 329.519C450.305 309.71 451.005 291.822 451.474 276.733C452.333 249.132 430.046 226.812 402.432 226.812H90.417ZM445.457 388.027C441.29 441.39 434.635 500.979 424.003 555.189C429.048 555.501 434.126 555.359 439.174 554.759C451.294 553.318 462.958 549.267 473.362 542.885C483.766 536.503 492.663 527.942 499.44 517.791C506.217 507.64 510.713 496.141 512.619 484.085C514.525 472.029 513.794 459.704 510.479 447.957C507.163 436.211 501.341 425.323 493.412 416.043C485.484 406.763 475.639 399.312 464.554 394.203C458.439 391.384 452.027 389.315 445.457 388.027Z" fill="#FFF2B5"/>
</g>
<mask id="path-2-inside-1_392_72" fill="white">
<path d="M370.478 329.281C392.168 326.477 414.212 328.692 434.911 335.757C455.609 342.821 474.408 354.545 489.858 370.025C505.308 385.506 516.995 404.328 524.019 425.04C531.043 445.752 533.215 467.801 530.368 489.485C527.522 511.17 519.732 531.911 507.6 550.108C495.468 568.306 479.319 583.473 460.397 594.441C441.475 605.409 420.287 611.884 398.467 613.367C376.646 614.849 354.777 611.3 334.545 602.992L356.708 549.02C368.673 553.933 381.607 556.032 394.511 555.155C407.416 554.279 419.947 550.449 431.138 543.963C442.328 537.476 451.879 528.506 459.054 517.744C466.229 506.982 470.836 494.715 472.519 481.891C474.203 469.067 472.918 456.027 468.764 443.777C464.61 431.528 457.698 420.397 448.561 411.242C439.424 402.087 428.306 395.153 416.065 390.975C403.824 386.797 390.786 385.487 377.959 387.145L370.478 329.281Z"/>
</mask>
<path d="M370.478 329.281C392.168 326.477 414.212 328.692 434.911 335.757C455.609 342.821 474.408 354.545 489.858 370.025C505.308 385.506 516.995 404.328 524.019 425.04C531.043 445.752 533.215 467.801 530.368 489.485C527.522 511.17 519.732 531.911 507.6 550.108C495.468 568.306 479.319 583.473 460.397 594.441C441.475 605.409 420.287 611.884 398.467 613.367C376.646 614.849 354.777 611.3 334.545 602.992L356.708 549.02C368.673 553.933 381.607 556.032 394.511 555.155C407.416 554.279 419.947 550.449 431.138 543.963C442.328 537.476 451.879 528.506 459.054 517.744C466.229 506.982 470.836 494.715 472.519 481.891C474.203 469.067 472.918 456.027 468.764 443.777C464.61 431.528 457.698 420.397 448.561 411.242C439.424 402.087 428.306 395.153 416.065 390.975C403.824 386.797 390.786 385.487 377.959 387.145L370.478 329.281Z" fill="#8BA38E" stroke="black" stroke-width="40" mask="url(#path-2-inside-1_392_72)"/>
<path d="M172.498 203.203C186.578 194.489 206.291 167.432 172.498 128.924C138.705 90.4159 158.418 45.1152 172.498 27.2783" stroke="black" stroke-width="18" stroke-linecap="round"/>
<path d="M247.133 184.925C261.213 176.21 280.926 149.154 247.133 110.646C213.34 72.1375 233.053 26.8368 247.133 9" stroke="black" stroke-width="18" stroke-linecap="round"/>
<mask id="mask0_392_72" style="mask-type:alpha" maskUnits="userSpaceOnUse" x="1" y="226" width="411" height="490">
<path d="M11.0497 276.373C10.3049 254.624 27.8456 236.812 50 236.812H362.015C384.161 236.812 401.74 254.639 401.062 276.422C399.425 329.056 394.983 415.687 382.961 498.801C376.949 540.364 369.073 580.826 358.784 615.612C348.433 650.611 335.905 678.925 321.082 696.95C316.33 702.729 308.334 705.747 298.748 705.747H117.21C105.491 705.747 95.2695 700.992 89.7844 692.535C59.9432 646.525 40.9225 568.263 29.0559 487.526C17.2615 407.28 12.7623 326.382 11.0497 276.373Z" fill="#D9D9D9" stroke="#5D140E" stroke-width="20"/>
</mask>
<g mask="url(#mask0_392_72)">
<rect x="-1.42358" y="236.812" width="416.385" height="488.736" fill="#EEE2DB" stroke="black" stroke-width="20"/>
<rect x="-1.42358" y="236.812" width="416.385" height="40.1648" fill="#8BA38E" stroke="black" stroke-width="20"/>
<path d="M11.0497 276.373C10.3049 254.624 27.8456 236.812 50 236.812H362.015C384.161 236.812 401.74 254.639 401.062 276.422C399.425 329.056 394.983 415.687 382.961 498.801C376.949 540.364 369.073 580.826 358.784 615.612C348.433 650.611 335.905 678.925 321.082 696.95C316.33 702.729 308.334 705.747 298.748 705.747H117.21C105.491 705.747 95.2695 700.992 89.7844 692.535C59.9432 646.525 40.9225 568.263 29.0559 487.526C17.2615 407.28 12.7623 326.382 11.0497 276.373Z" stroke="black" stroke-width="20"/>
</g>
<path d="M148.129 230.999C148.129 230.999 144.419 210.967 123.377 223.003C102.335 235.039 105.86 371.512 105.86 371.512" stroke="black" stroke-width="18" stroke-linecap="round"/>
<g style="mix-blend-mode:multiply">
<path d="M90.8733 422.538C90.8733 394.357 113.718 371.512 141.899 371.512V371.512C170.08 371.512 192.925 394.357 192.925 422.538V483.265C192.925 494.311 183.971 503.265 172.925 503.265H110.873C99.8276 503.265 90.8733 494.311 90.8733 483.265V422.538Z" fill="#FFF2B5"/>
</g>
<path d="M64.8337 422.538C64.8337 399.88 83.2016 381.512 105.86 381.512C128.518 381.512 146.885 399.88 146.885 422.538V483.265C146.885 488.788 142.408 493.265 136.885 493.265H74.8337C69.3109 493.265 64.8337 488.788 64.8337 483.265V422.538Z" fill="white" stroke="black" stroke-width="20"/>
</svg>
