<svg width="572" height="707" viewBox="0 0 572 707" fill="none" xmlns="http://www.w3.org/2000/svg">
<mask id="path-1-inside-1_401_75" fill="white">
<path d="M377.511 311.279C400.599 308.235 424.064 310.64 446.097 318.308C468.129 325.976 488.14 338.703 504.585 355.506C521.031 372.309 533.472 392.739 540.948 415.222C548.425 437.704 550.737 461.637 547.707 485.175C544.677 508.713 536.385 531.226 523.471 550.979C510.558 570.732 493.367 587.196 473.226 599.101C453.084 611.006 430.531 618.034 407.304 619.643C384.077 621.253 360.798 617.4 339.263 608.382L362.854 549.797C375.59 555.13 389.357 557.409 403.094 556.457C416.83 555.506 430.169 551.349 442.081 544.308C453.992 537.267 464.159 527.531 471.796 515.849C479.433 504.167 484.337 490.852 486.129 476.932C487.921 463.011 486.554 448.857 482.132 435.561C477.71 422.265 470.353 410.182 460.627 400.244C450.901 390.307 439.066 382.78 426.036 378.245C413.006 373.711 399.128 372.288 385.474 374.088L377.511 311.279Z"/>
</mask>
<path d="M377.511 311.279C400.599 308.235 424.064 310.64 446.097 318.308C468.129 325.976 488.14 338.703 504.585 355.506C521.031 372.309 533.472 392.739 540.948 415.222C548.425 437.704 550.737 461.637 547.707 485.175C544.677 508.713 536.385 531.226 523.471 550.979C510.558 570.732 493.367 587.196 473.226 599.101C453.084 611.006 430.531 618.034 407.304 619.643C384.077 621.253 360.798 617.4 339.263 608.382L362.854 549.797C375.59 555.13 389.357 557.409 403.094 556.457C416.83 555.506 430.169 551.349 442.081 544.308C453.992 537.267 464.159 527.531 471.796 515.849C479.433 504.167 484.337 490.852 486.129 476.932C487.921 463.011 486.554 448.857 482.132 435.561C477.71 422.265 470.353 410.182 460.627 400.244C450.901 390.307 439.066 382.78 426.036 378.245C413.006 373.711 399.128 372.288 385.474 374.088L377.511 311.279Z" fill="#8BA38E" stroke="black" stroke-width="40" mask="url(#path-1-inside-1_401_75)"/>
<path d="M213.5 195C226.706 189.105 245.194 170.803 213.5 144.756C181.806 118.708 200.294 88.0653 213.5 76" stroke="black" stroke-width="18" stroke-linecap="round"/>
<path d="M285.5 182C299.461 176.155 319.005 158.007 285.5 132.178C251.995 106.349 271.539 75.9639 285.5 64" stroke="black" stroke-width="18" stroke-linecap="round"/>
<mask id="mask0_401_75" style="mask-type:alpha" maskUnits="userSpaceOnUse" x="47" y="216" width="398" height="453">
<path d="M57.1506 266.01C56.3314 244.315 73.8206 226.557 96 226.557H395.407C417.568 226.557 435.108 244.357 434.361 266.1C432.66 315.657 428.202 394.954 416.551 470.683C410.725 508.552 403.133 545.303 393.274 576.891C383.354 608.673 371.407 634.329 357.346 650.75C352.691 656.187 344.981 659 335.698 659H159.617C148.212 659 138.277 654.509 132.845 646.448C104.546 604.456 86.3175 533.617 74.8372 460.073C63.4308 387.002 58.9257 313.019 57.1506 266.01Z" fill="#D9D9D9" stroke="#5D140E" stroke-width="20"/>
</mask>
<g mask="url(#mask0_401_75)">
<rect x="44.9259" y="226.557" width="403.032" height="450.767" fill="#EEE2DB" stroke="black" stroke-width="20"/>
<rect x="45" y="227" width="403" height="48" fill="#8BA38E" stroke="black" stroke-width="20"/>
<path d="M57.1506 266.01C56.3314 244.315 73.8206 226.557 96 226.557H395.407C417.568 226.557 435.108 244.357 434.361 266.1C432.66 315.657 428.202 394.954 416.551 470.683C410.725 508.552 403.133 545.303 393.274 576.891C383.354 608.673 371.407 634.329 357.346 650.75C352.691 656.187 344.981 659 335.698 659H159.617C148.212 659 138.277 654.509 132.845 646.448C104.546 604.456 86.3175 533.617 74.8372 460.073C63.4308 387.002 58.9257 313.019 57.1506 266.01Z" stroke="black" stroke-width="20"/>
</g>
<path d="M189 220.885C189 220.885 185.42 202.477 165.116 213.537C144.813 224.597 148.214 350 148.214 350" stroke="black" stroke-width="18" stroke-linecap="round"/>
<path d="M109 399.5C109 377.685 126.685 360 148.5 360C170.315 360 188 377.685 188 399.5V452C188 457.523 183.523 462 178 462H119C113.477 462 109 457.523 109 452V399.5Z" fill="white" stroke="black" stroke-width="20"/>
</svg>
