<svg width="527" height="707" viewBox="0 0 527 707" fill="none" xmlns="http://www.w3.org/2000/svg">
<path d="M508 471C508 482.651 502.718 494.507 491.628 506.137C480.489 517.818 463.896 528.792 442.626 538.226C400.112 557.083 340.679 569 274.5 569C208.321 569 148.888 557.083 106.374 538.226C85.104 528.792 68.5115 517.818 57.3723 506.137C46.2819 494.507 41 482.651 41 471C41 459.349 46.2819 447.493 57.3723 435.863C68.5115 424.182 85.104 413.208 106.374 403.774C148.888 384.917 208.321 373 274.5 373C340.679 373 400.112 384.917 442.626 403.774C463.896 413.208 480.489 424.182 491.628 435.863C502.718 447.493 508 459.349 508 471Z" fill="#F1EBE1" stroke="black" stroke-width="20"/>
<mask id="path-2-inside-1_401_35" fill="white">
<path d="M167.767 438.119C155.139 445.597 140.962 450.074 126.329 451.206C111.697 452.337 97.0001 450.092 83.3726 444.644C69.7451 439.197 57.5511 430.691 47.7311 419.785C37.9112 408.878 30.7277 395.861 26.7348 381.739C22.7419 367.616 22.0464 352.765 24.7018 338.331C27.3572 323.898 33.2926 310.267 42.0501 298.49C50.8077 286.713 62.1534 277.105 75.212 270.407C88.2707 263.71 102.693 260.101 117.367 259.86L118.279 315.301C112.096 315.403 106.019 316.923 100.517 319.745C95.0152 322.567 90.2349 326.615 86.5451 331.577C82.8552 336.539 80.3544 342.283 79.2356 348.364C78.1168 354.446 78.4099 360.703 80.0922 366.653C81.7745 372.603 84.8012 378.088 88.9386 382.683C93.0761 387.278 98.2139 390.862 103.956 393.157C109.697 395.453 115.89 396.398 122.055 395.922C128.22 395.445 134.193 393.558 139.514 390.408L167.767 438.119Z"/>
</mask>
<path d="M167.767 438.119C155.139 445.597 140.962 450.074 126.329 451.206C111.697 452.337 97.0001 450.092 83.3726 444.644C69.7451 439.197 57.5511 430.691 47.7311 419.785C37.9112 408.878 30.7277 395.861 26.7348 381.739C22.7419 367.616 22.0464 352.765 24.7018 338.331C27.3572 323.898 33.2926 310.267 42.0501 298.49C50.8077 286.713 62.1534 277.105 75.212 270.407C88.2707 263.71 102.693 260.101 117.367 259.86L118.279 315.301C112.096 315.403 106.019 316.923 100.517 319.745C95.0152 322.567 90.2349 326.615 86.5451 331.577C82.8552 336.539 80.3544 342.283 79.2356 348.364C78.1168 354.446 78.4099 360.703 80.0922 366.653C81.7745 372.603 84.8012 378.088 88.9386 382.683C93.0761 387.278 98.2139 390.862 103.956 393.157C109.697 395.453 115.89 396.398 122.055 395.922C128.22 395.445 134.193 393.558 139.514 390.408L167.767 438.119Z" fill="#EFEFEF" stroke="black" stroke-width="40" mask="url(#path-2-inside-1_401_35)"/>
<mask id="path-3-inside-2_401_35" fill="white">
<path d="M509 263C509 295.568 503.154 327.817 491.797 357.905C480.439 387.994 463.792 415.334 442.806 438.362C421.82 461.391 396.906 479.659 369.486 492.122C342.067 504.585 312.679 511 283 511C253.321 511 223.933 504.585 196.514 492.122C169.094 479.659 144.18 461.391 123.194 438.362C102.208 415.334 85.5608 387.994 74.2032 357.905C62.8457 327.817 57 295.568 57 263L283 263H509Z"/>
</mask>
<path d="M509 263C509 295.568 503.154 327.817 491.797 357.905C480.439 387.994 463.792 415.334 442.806 438.362C421.82 461.391 396.906 479.659 369.486 492.122C342.067 504.585 312.679 511 283 511C253.321 511 223.933 504.585 196.514 492.122C169.094 479.659 144.18 461.391 123.194 438.362C102.208 415.334 85.5608 387.994 74.2032 357.905C62.8457 327.817 57 295.568 57 263L283 263H509Z" fill="#EFEFEF" stroke="black" stroke-width="40" mask="url(#path-3-inside-2_401_35)"/>
<mask id="mask0_401_35" style="mask-type:alpha" maskUnits="userSpaceOnUse" x="56" y="163" width="453" height="201">
<path d="M498.742 263.119C498.742 273.656 493.959 284.457 483.76 295.13C473.512 305.854 458.209 315.967 438.53 324.677C399.199 342.086 344.164 353.107 282.843 353.107C221.522 353.107 166.486 342.086 127.155 324.677C107.477 315.967 92.1733 305.854 81.9258 295.13C71.7267 284.457 66.9437 273.656 66.9437 263.119C66.9437 252.582 71.7267 241.781 81.9258 231.108C92.1733 220.384 107.477 210.271 127.155 201.561C166.486 184.152 221.522 173.131 282.843 173.131C344.164 173.131 399.199 184.152 438.53 201.561C458.209 210.271 473.512 220.384 483.76 231.108C493.959 241.781 498.742 252.582 498.742 263.119Z" fill="#BD7575" stroke="black" stroke-width="20"/>
</mask>
<g mask="url(#mask0_401_35)">
<path d="M498.742 263.119C498.742 273.656 493.959 284.457 483.76 295.13C473.512 305.854 458.209 315.967 438.53 324.677C399.199 342.086 344.164 353.107 282.843 353.107C221.522 353.107 166.486 342.086 127.155 324.677C107.477 315.967 92.1733 305.854 81.9258 295.13C71.7267 284.457 66.9437 273.656 66.9437 263.119C66.9437 252.582 71.7267 241.781 81.9258 231.108C92.1733 220.384 107.477 210.271 127.155 201.561C166.486 184.152 221.522 173.131 282.843 173.131C344.164 173.131 399.199 184.152 438.53 201.561C458.209 210.271 473.512 220.384 483.76 231.108C493.959 241.781 498.742 252.582 498.742 263.119Z" fill="#FFF2B5" stroke="black" stroke-width="20"/>
<path d="M451.525 326.537C451.525 334.201 448.061 342.263 440.251 350.443C432.392 358.674 420.546 366.542 405.14 373.367C374.354 387.005 331.124 395.694 282.843 395.694C234.561 395.694 191.331 387.005 160.546 373.367C145.14 366.542 133.293 358.674 125.435 350.443C117.625 342.263 114.16 334.201 114.16 326.537C114.16 318.873 117.625 310.811 125.435 302.631C133.293 294.4 145.14 286.532 160.546 279.707C191.331 266.069 234.561 257.38 282.843 257.38C331.124 257.38 374.354 266.069 405.14 279.707C420.546 286.532 432.392 294.4 440.251 302.631C448.061 310.811 451.525 318.873 451.525 326.537Z" fill="#BDC46A" stroke="black" stroke-width="20"/>
<path d="M318.152 344.691L373.874 331.656L324.748 300.268C318.963 296.572 310.81 293.638 302.08 292.11L300.604 291.851C283.241 288.812 268.28 292.311 267.187 299.668C266.587 303.714 270.36 308.301 277.442 312.134L284.656 316.039L276.677 317.284C268.844 318.506 263.935 321.573 263.334 325.619C262.242 332.976 275.432 341.403 292.795 344.443L294.271 344.701C303.001 346.229 311.591 346.226 318.152 344.691Z" fill="#EFEFEF"/>
<path d="M182.7 327.936L215.952 314.061L180.602 309.283C176.44 308.72 170.893 308.83 165.181 309.587L164.215 309.715C152.855 311.222 143.927 314.947 144.274 318.036C144.465 319.735 147.487 320.966 152.485 321.38L157.577 321.802L152.729 323.542C147.969 325.251 145.309 327.234 145.5 328.933C145.847 332.022 155.339 333.305 166.699 331.799L167.665 331.67C173.377 330.913 178.785 329.57 182.7 327.936Z" fill="#EFEFEF"/>
<path d="M244.99 328.859L282.491 305.704L240.96 293.03C236.07 291.538 229.626 291.189 223.046 292.062L221.933 292.21C208.845 293.945 198.777 300.162 199.444 306.095C199.811 309.359 203.431 312.012 209.282 313.305L215.241 314.623L209.749 317.459C204.357 320.243 201.432 323.763 201.799 327.027C202.466 332.961 213.617 336.364 226.705 334.628L227.817 334.48C234.398 333.608 240.575 331.586 244.99 328.859Z" fill="#EFEFEF"/>
<path d="M498.742 263.119C498.742 273.656 493.959 284.457 483.76 295.13C473.512 305.854 458.209 315.967 438.53 324.677C399.199 342.086 344.164 353.107 282.843 353.107C221.522 353.107 166.486 342.086 127.155 324.677C107.477 315.967 92.1733 305.854 81.9258 295.13C71.7267 284.457 66.9437 273.656 66.9437 263.119C66.9437 252.582 71.7267 241.781 81.9258 231.108C92.1733 220.384 107.477 210.271 127.155 201.561C166.486 184.152 221.522 173.131 282.843 173.131C344.164 173.131 399.199 184.152 438.53 201.561C458.209 210.271 473.512 220.384 483.76 231.108C493.959 241.781 498.742 252.582 498.742 263.119Z" stroke="black" stroke-width="20"/>
</g>
<path d="M92.4993 639.311L92.4527 639.324L92.4062 639.338C84.6885 641.627 77.6577 645.549 72.5996 650.54C67.8493 655.226 63.0239 662.887 65.2102 671.637L65.2122 671.645L65.2142 671.653L65.2175 671.666L65.2195 671.674L65.2215 671.683C67.4365 680.424 75.1791 684.357 81.4642 685.77C88.1423 687.272 96.0138 686.773 103.716 684.496L297.422 629.073C303.574 634.99 310.404 641.324 319.869 644.444C331.689 648.34 346.305 647.123 367.974 640.696C394.798 632.739 418.236 620.154 434.403 605.788C449.954 591.968 461.524 573.791 456.914 555.469C452.304 537.146 433.829 527.881 413.967 524.567C393.317 521.121 367.242 523.224 340.418 531.181C318.277 537.749 305.249 545.952 297.219 557.113C293.299 562.563 290.944 568.214 289.157 573.605C288.271 576.277 287.494 578.987 286.761 581.572C286.682 581.849 286.604 582.125 286.526 582.4C286.381 582.91 286.238 583.416 286.095 583.92L92.4993 639.311Z" fill="#E0E0E0" stroke="black" stroke-width="20"/>
</svg>
