<svg width="572" height="707" viewBox="0 0 572 707" fill="none" xmlns="http://www.w3.org/2000/svg">
<path d="M539 451.5C539 464.32 533.176 477.293 521.1 489.941C508.974 502.64 490.954 514.531 467.919 524.735C421.875 545.131 357.565 558 286 558C214.435 558 150.125 545.131 104.081 524.735C81.0459 514.531 63.0256 502.64 50.9003 489.941C38.8236 477.293 33 464.32 33 451.5C33 438.68 38.8236 425.707 50.9003 413.059C63.0256 400.36 81.0459 388.469 104.081 378.265C150.125 357.869 214.435 345 286 345C357.565 345 421.875 357.869 467.919 378.265C490.954 388.469 508.974 400.36 521.1 413.059C533.176 425.707 539 438.68 539 451.5Z" fill="#F1EBE1" stroke="black" stroke-width="20"/>
<mask id="path-2-inside-1_401_35" fill="white">
<path d="M170.703 416.023C157.063 424.1 141.75 428.936 125.945 430.158C110.14 431.38 94.266 428.956 79.5465 423.071C64.8271 417.187 51.6559 408 41.0491 396.22C30.4423 384.439 22.6832 370.379 18.3704 355.125C14.0576 339.871 13.3063 323.83 16.1745 308.24C19.0426 292.649 25.4536 277.926 34.9129 265.206C44.3722 252.485 56.627 242.107 70.732 234.873C84.837 227.639 100.415 223.741 116.265 223.48L117.25 283.364C110.571 283.474 104.008 285.116 98.0649 288.164C92.122 291.213 86.9587 295.585 82.9732 300.945C78.9877 306.304 76.2865 312.508 75.078 319.076C73.8696 325.645 74.1861 332.404 76.0033 338.831C77.8204 345.258 81.0895 351.181 85.5585 356.145C90.0275 361.109 95.577 364.979 101.779 367.459C107.981 369.938 114.669 370.959 121.328 370.445C127.987 369.93 134.439 367.892 140.186 364.489L170.703 416.023Z"/>
</mask>
<path d="M170.703 416.023C157.063 424.1 141.75 428.936 125.945 430.158C110.14 431.38 94.266 428.956 79.5465 423.071C64.8271 417.187 51.6559 408 41.0491 396.22C30.4423 384.439 22.6832 370.379 18.3704 355.125C14.0576 339.871 13.3063 323.83 16.1745 308.24C19.0426 292.649 25.4536 277.926 34.9129 265.206C44.3722 252.485 56.627 242.107 70.732 234.873C84.837 227.639 100.415 223.741 116.265 223.48L117.25 283.364C110.571 283.474 104.008 285.116 98.0649 288.164C92.122 291.213 86.9587 295.585 82.9732 300.945C78.9877 306.304 76.2865 312.508 75.078 319.076C73.8696 325.645 74.1861 332.404 76.0033 338.831C77.8204 345.258 81.0895 351.181 85.5585 356.145C90.0275 361.109 95.577 364.979 101.779 367.459C107.981 369.938 114.669 370.959 121.328 370.445C127.987 369.93 134.439 367.892 140.186 364.489L170.703 416.023Z" fill="#EFEFEF" stroke="black" stroke-width="40" mask="url(#path-2-inside-1_401_35)"/>
<mask id="path-3-inside-2_401_35" fill="white">
<path d="M539 227C539 262.194 532.689 297.044 520.426 329.559C508.164 362.074 490.191 391.619 467.534 416.505C444.876 441.391 417.978 461.131 388.375 474.6C358.771 488.068 327.042 495 295 495C262.957 495 231.229 488.068 201.625 474.6C172.022 461.131 145.123 441.391 122.466 416.505C99.8083 391.619 81.8354 362.074 69.5733 329.559C57.3111 297.044 50.9999 262.194 50.9999 227L295 227H539Z"/>
</mask>
<path d="M539 227C539 262.194 532.689 297.044 520.426 329.559C508.164 362.074 490.191 391.619 467.534 416.505C444.876 441.391 417.978 461.131 388.375 474.6C358.771 488.068 327.042 495 295 495C262.957 495 231.229 488.068 201.625 474.6C172.022 461.131 145.123 441.391 122.466 416.505C99.8083 391.619 81.8354 362.074 69.5733 329.559C57.3111 297.044 50.9999 262.194 50.9999 227L295 227H539Z" fill="#EFEFEF" stroke="black" stroke-width="40" mask="url(#path-3-inside-2_401_35)"/>
<mask id="mask0_401_35" style="mask-type:alpha" maskUnits="userSpaceOnUse" x="50" y="119" width="489" height="216">
<path d="M529 227C529 238.644 523.71 250.498 512.595 262.13C501.432 273.812 484.803 284.788 463.486 294.223C420.88 313.082 361.319 325 295 325C228.68 325 169.12 313.082 126.513 294.223C105.197 284.788 88.5678 273.812 77.4044 262.13C66.2894 250.498 60.9999 238.644 60.9999 227C60.9999 215.356 66.2894 203.502 77.4044 191.87C88.5678 180.188 105.197 169.212 126.513 159.777C169.12 140.918 228.68 129 295 129C361.319 129 420.88 140.918 463.486 159.777C484.803 169.212 501.432 180.188 512.595 191.87C523.71 203.502 529 215.356 529 227Z" fill="#BD7575" stroke="black" stroke-width="20"/>
</mask>
<g mask="url(#mask0_401_35)">
<path d="M529 227C529 238.644 523.71 250.498 512.595 262.13C501.432 273.812 484.803 284.788 463.486 294.223C420.88 313.082 361.319 325 295 325C228.68 325 169.12 313.082 126.513 294.223C105.197 284.788 88.5678 273.812 77.4044 262.13C66.2894 250.498 60.9999 238.644 60.9999 227C60.9999 215.356 66.2894 203.502 77.4044 191.87C88.5678 180.188 105.197 169.212 126.513 159.777C169.12 140.918 228.68 129 295 129C361.319 129 420.88 140.918 463.486 159.777C484.803 169.212 501.432 180.188 512.595 191.87C523.71 203.502 529 215.356 529 227Z" fill="#FFF2B5" stroke="black" stroke-width="20"/>
<path d="M478 295.5C478 304.04 474.135 312.936 465.6 321.875C457.017 330.865 444.122 339.416 427.421 346.815C394.045 361.601 347.235 371 295 371C242.765 371 195.955 361.601 162.579 346.815C145.877 339.416 132.983 330.865 124.4 321.875C115.865 312.936 112 304.04 112 295.5C112 286.96 115.865 278.064 124.4 269.125C132.983 260.135 145.877 251.584 162.579 244.185C195.955 229.399 242.765 220 295 220C347.235 220 394.045 229.399 427.421 244.185C444.122 251.584 457.017 260.135 465.6 269.125C474.135 278.064 478 286.96 478 295.5Z" fill="#BDC46A" stroke="black" stroke-width="20"/>
<path d="M361.585 314.995L426.911 300.921L369.318 267.03C362.536 263.04 352.977 259.871 342.743 258.221L341.012 257.942C320.657 254.66 303.117 258.439 301.836 266.382C301.132 270.751 305.555 275.704 313.858 279.843L322.316 284.058L312.962 285.403C303.779 286.722 298.023 290.034 297.319 294.403C296.038 302.346 311.502 311.446 331.857 314.727L333.588 315.006C343.822 316.656 353.893 316.652 361.585 314.995Z" fill="#EFEFEF"/>
<path d="M202.787 296.904L241.769 281.922L200.327 276.763C195.447 276.156 188.944 276.274 182.248 277.092L181.115 277.23C167.797 278.857 157.33 282.879 157.737 286.214C157.962 288.049 161.504 289.377 167.364 289.825L173.333 290.28L167.649 292.159C162.069 294.004 158.95 296.146 159.175 297.98C159.582 301.316 170.709 302.701 184.027 301.074L185.16 300.936C191.856 300.118 198.197 298.668 202.787 296.904Z" fill="#EFEFEF"/>
<path d="M275.813 297.902L319.777 272.9L271.088 259.215C265.355 257.604 257.8 257.228 250.086 258.17L248.782 258.329C233.438 260.203 221.634 266.916 222.417 273.322C222.847 276.847 227.09 279.711 233.95 281.107L240.936 282.53L234.497 285.592C228.176 288.598 224.747 292.399 225.177 295.923C225.959 302.33 239.032 306.004 254.375 304.13L255.68 303.971C263.394 303.029 270.636 300.846 275.813 297.902Z" fill="#EFEFEF"/>
<path d="M529 227C529 238.644 523.71 250.498 512.595 262.13C501.432 273.812 484.803 284.788 463.486 294.223C420.88 313.082 361.319 325 295 325C228.68 325 169.12 313.082 126.513 294.223C105.197 284.788 88.5678 273.812 77.4044 262.13C66.2894 250.498 60.9999 238.644 60.9999 227C60.9999 215.356 66.2894 203.502 77.4044 191.87C88.5678 180.188 105.197 169.212 126.513 159.777C169.12 140.918 228.68 129 295 129C361.319 129 420.88 140.918 463.486 159.777C484.803 169.212 501.432 180.188 512.595 191.87C523.71 203.502 529 215.356 529 227Z" stroke="black" stroke-width="20"/>
</g>
<path d="M97.2419 633.94L97.1982 633.952L97.1547 633.964C88.4229 636.349 80.5278 640.421 74.8839 645.549C69.6934 650.266 64.0996 658.219 66.639 667.579L66.6413 667.588L66.6436 667.597L66.6475 667.611L66.6498 667.619L66.6522 667.628C69.2248 676.979 78.0854 680.983 84.9529 682.405C92.4073 683.949 101.258 683.445 109.975 681.071C109.99 681.066 110.006 681.062 110.021 681.058L338.165 620.94C345.564 627.498 353.506 634.454 364.61 637.825C377.913 641.863 394.525 640.677 419.768 633.781C450.946 625.263 478.105 611.812 496.776 596.531C506.101 588.899 513.682 580.505 518.428 571.665C523.208 562.761 525.361 552.865 522.671 543.017C519.98 533.169 513.095 525.743 504.452 520.506C495.87 515.307 485.074 511.934 473.164 510.103C449.317 506.438 419.092 508.665 387.914 517.182C362.237 524.197 347.486 532.851 338.422 544.456C333.954 550.175 331.239 556.149 329.155 561.94C328.123 564.806 327.217 567.717 326.357 570.509C326.264 570.808 326.173 571.107 326.081 571.404C325.83 572.221 325.581 573.03 325.331 573.836L97.2419 633.94Z" fill="#E0E0E0" stroke="black" stroke-width="20"/>
</svg>
